<svg width="96" height="96" fill="none" xmlns="http://www.w3.org/2000/svg"><path d="M27.224 54.605S12.87 58.962 9.8 60.05c-2.97 1.089-3.86 2.772-1.287 4.752 2.475 1.98 15.839 12.77 20.788 17.125 5.049 4.256 14.354 11.68 14.354 11.68s2.87 3.07 8.91 1.684c6.037-1.485 32.27-7.524 32.27-7.524s6.137-1.385 2.772-4.355c-3.267-2.871-8.019-7.722-8.019-7.722" fill="#DBE7F8"/><path d="M87.31 66.286c-.098-.395-.197-.89-.395-1.286C76.52 42.529 55.139 7.486 55.139 7.486s-3.267-6.038-4.95-6.632c-1.682-.594-4.355 0-10.394 3.266-6.038 3.267-20.788 9.8-24.648 12.572-2.08 1.386-3.366 2.376-3.96 3.465-2.079 3.267.891 8.216.891 8.216s9.305 16.433 14.255 24.649c4.95 8.216 17.52 31.776 20.293 35.537 2.672 3.86 6.632 1.09 6.632 1.09s27.915-14.75 31.776-17.027c3.663-1.98 2.277-6.336 2.277-6.336z" fill="#3E426A"/><path d="M55.139 7.486s-3.267-6.038-4.95-6.632c-1.682-.594-4.355 0-10.394 3.266-6.038 3.267-20.788 9.8-24.648 12.572-3.861 2.772-5.445 3.86-3.267 7.721 2.178 3.861 13.067 22.372 17.521 30.094 4.455 7.72 12.077 21.381 15.839 27.915 3.86 6.632 3.267 7.127 7.721 4.95 4.455-2.178 32.27-17.522 32.27-17.522s3.169-1.584 1.684-4.95C76.52 42.53 55.139 7.487 55.139 7.487z" fill="#4C4E83"/><path d="M70.68 72.325s-.198-2.475-3.266-2.673c-3.267-.297-4.95 3.267-3.267 6.039 1.584 2.672 7.424.791 6.533-3.366zM39.696 7.981c0-.099 0-.198-.099-.198-.099-.198-.297-.594-.99-.594-.99-.099-1.286.792-.89 1.584.395.495 1.88.396 1.98-.792zM33.559 11.248s2.673-.891 2.376-1.881c-.396-1.09-2.178.099-3.861.792-1.584.693-7.028 2.97-6.533 3.96.495.99 2.573-.199 4.355-1.09 1.485-.791 3.663-1.781 3.663-1.781z" fill="#3E426A"/><path d="M15.939 23.028c-.693.396-.99 1.386-.594 2.078 3.266 5.94 16.531 29.797 19.303 34.746 2.475 4.455 7.424 12.869 9.503 16.532.594.89 1.782 1.286 2.772.791 4.454-2.375 16.036-8.513 20.887-10.888 4.553-2.178 9.8-4.95 11.977-6.237.594-.297.891-1.089.594-1.683 0 0-16.234-31.974-29.004-51.079-.396-.594-1.188-.89-1.98-.495l-15.541 6.93c-6.138 2.672-12.077 5.84-17.917 9.305z" fill="#fff"/><path d="M58.505 47.082c4.355-2.178 1.98-4.95 1.98-4.95l-7.128-12.868-18.412 10.493s5.444 9.8 7.127 12.67c1.683 2.871 3.663 1.684 3.663 1.684s.594-.396 1.584-.891l2.474 4.355s1.386 2.178 3.465 1.09c2.178-1.09-.396-4.752-.396-4.752l-1.683-2.97c.891-.495 1.881-1.089 2.87-1.584l2.377 4.158c.396.693.89 1.188 1.682 1.386.595.197 1.386.297 2.178-.297 1.683-1.188-.396-4.752-.396-4.752l-1.386-2.772zM44.052 23.622c0-.396.198-3.861-.198-3.861-.495 0-.396.89-.396.89v2.97h.099c-1.287.1-2.772.595-4.356 1.386-1.682.891-2.87 1.98-3.86 2.97l.099-.099-2.673-1.485s-.594-.396-.792-.099c-.297.297.495.693 1.584 1.386 1.089.594 1.485.891 1.485.891l.099-.099c-3.663 4.752-.792 10.196-.792 10.196l18.511-10.196s-3.168-5.147-8.81-4.85zM37.32 32.63s-1.09-.1-.99-.99c.099-.891 1.286-.891 1.583-.198.198.495-.099 1.287-.593 1.188zm8.315-4.752c-.891-.099-1.09-1.386-.396-1.584.693-.198 1.188.297 1.188.297.396.495.198 1.485-.792 1.287zM59.593 28.868c-.396-.693-1.089-1.386-1.88-1.683-.396-.099-.891-.198-1.386 0-1.386.495-1.584 2.574-.1 5.049 1.387 2.474 3.861 7.424 5.346 8.018 1.584.594 3.663-1.089 2.277-3.663-1.089-1.98-3.267-6.038-4.257-7.721zM35.34 42.232s-1.187-2.277-3.365-1.386c-2.178.89-1.089 2.97 0 4.95a880.843 880.843 0 0 1 3.366 6.236s.99 2.475 3.365 1.485c2.376-1.09.1-4.752-.198-5.247-.297-.495-3.167-6.038-3.167-6.038z" fill="#86D278"/><path fill-rule="evenodd" clip-rule="evenodd" d="M46.441.416c1.702-.503 2.943-.536 3.965-.175.326.115.636.338.91.582.283.25.572.562.855.9.568.68 1.15 1.515 1.67 2.316a50.768 50.768 0 0 1 1.83 3.067l.03.052.001.004.235.386A872.772 872.772 0 0 1 59.2 12.98c2.169 3.639 5.168 8.724 8.493 14.512C74.337 39.063 82.29 53.456 87.5 64.719c.2.404.316.89.398 1.237l.038.158c.003.009.007.02.01.035l.003.01.044.162a7.697 7.697 0 0 1 .2 2.446c-.124 1.481-.769 3.297-2.84 4.422-1.964 1.156-9.911 5.415-17.35 9.375a5824.964 5824.964 0 0 1-13.235 7.022l-1.176.621-.025.017a6.717 6.717 0 0 1-.688.383c-.45.218-1.09.47-1.834.587-.745.119-1.61.105-2.487-.227-.88-.334-1.728-.972-2.462-2.029-.721-.98-2.044-3.19-3.68-6.038a902.566 902.566 0 0 1-5.69-10.122l-1.753-3.157c-3.557-6.404-7.08-12.747-9.198-16.263-2.479-4.115-6.046-10.282-8.99-15.417a2279.449 2279.449 0 0 1-4.864-8.524l-.406-.717-.007-.011a8.766 8.766 0 0 1-.126-.223 14.646 14.646 0 0 1-1.154-2.792c-.495-1.69-.784-3.972.398-5.847.35-.635.883-1.209 1.562-1.786.685-.58 1.55-1.19 2.588-1.883 1.993-1.427 6.702-3.778 11.594-6.15 1.137-.551 2.287-1.105 3.42-1.65 3.787-1.825 7.384-3.558 9.695-4.808 3.032-1.64 5.257-2.631 6.956-3.133zM12.078 28.373l.566-.32.409.721a2071.06 2071.06 0 0 0 4.86 8.519c2.945 5.135 6.506 11.292 8.976 15.393 2.132 3.538 5.668 9.906 9.223 16.306l1.752 3.153a902.284 902.284 0 0 0 5.681 10.106c1.652 2.877 2.938 5.018 3.604 5.923l.011.015c.601.869 1.248 1.33 1.86 1.561.617.234 1.243.251 1.822.16a5.393 5.393 0 0 0 1.473-.474 5.447 5.447 0 0 0 .567-.318l.003-.002.001-.001a.646.646 0 0 1 .068-.041l.304.574-.304-.575h.002l1.205-.638a5995.516 5995.516 0 0 0 13.232-7.02c7.47-3.977 15.396-8.224 17.31-9.353a.718.718 0 0 1 .022-.012c1.583-.856 2.074-2.204 2.173-3.392a6.402 6.402 0 0 0-.198-2.144l-.008-.027v-.003a31.694 31.694 0 0 1-.067-.267c-.086-.354-.162-.668-.292-.927l-.008-.018C81.14 54.065 73.209 39.707 66.565 28.14A1059.09 1059.09 0 0 0 55.521 9.372l-.695-1.15-.242-.397.555-.339-.555.339a.692.692 0 0 1-.017-.03l-.008-.015-.027-.05a49.527 49.527 0 0 0-.492-.872 49.36 49.36 0 0 0-1.29-2.112c-.508-.782-1.057-1.568-1.576-2.189a7.229 7.229 0 0 0-.72-.761c-.226-.2-.387-.296-.481-.33-.662-.233-1.598-.266-3.163.197-1.568.463-3.7 1.403-6.705 3.03-2.341 1.265-5.98 3.019-9.775 4.846-1.127.543-2.268 1.093-3.392 1.638-4.95 2.4-9.539 4.698-11.412 6.043a.56.56 0 0 1-.019.013c-1.036.69-1.85 1.267-2.476 1.798-.626.532-1.03.991-1.273 1.437a.622.622 0 0 1-.023.038c-.883 1.388-.726 3.205-.258 4.801a13.347 13.347 0 0 0 1.132 2.686l.021.037.005.008.009.015-.566.32z" fill="#34374C"/><path fill-rule="evenodd" clip-rule="evenodd" d="M46.441.416c1.702-.503 2.943-.536 3.965-.175.326.115.636.338.91.582.283.25.572.562.855.9.568.68 1.15 1.515 1.67 2.316a50.768 50.768 0 0 1 1.83 3.067l.03.052.001.004.235.386a901.188 901.188 0 0 1 3.263 5.43c2.169 3.637 5.168 8.72 8.492 14.502 6.647 11.56 14.603 25.933 19.812 37.147l.006.011c.848 1.923.37 3.407-.358 4.387a5.072 5.072 0 0 1-1.574 1.377l-.021.012a.684.684 0 0 1-.016.008l-1.2.661a5542.927 5542.927 0 0 1-13.262 7.281c-7.502 4.103-15.588 8.494-17.832 9.591-1.093.534-1.96.949-2.673 1.125-.37.092-.734.13-1.096.073a2.168 2.168 0 0 1-.995-.436c-.56-.428-1.045-1.154-1.594-2.088-.264-.447-.556-.967-.888-1.556l-.07-.126c-.362-.644-.773-1.374-1.253-2.198l-.002-.003c-1.758-3.054-4.36-7.664-7.084-12.494l-.578-1.023c-2.933-5.198-5.95-10.54-8.176-14.398-2.059-3.569-5.502-9.46-8.823-15.14-3.848-6.584-7.532-12.885-8.701-14.958-1.126-1.996-1.406-3.5-.634-4.902.36-.655.923-1.233 1.603-1.804.654-.549 1.46-1.128 2.372-1.782l.113-.08c1.987-1.427 6.703-3.782 11.603-6.158 1.137-.551 2.287-1.105 3.42-1.65 3.787-1.825 7.384-3.558 9.695-4.808 3.032-1.64 5.257-2.631 6.956-3.133zm38.5 68.853.016-.009.075-.043a3.771 3.771 0 0 0 1.076-.967c.484-.652.848-1.642.215-3.081C81.138 54.01 73.208 39.68 66.566 28.128A1074.662 1074.662 0 0 0 55.52 9.372l-.695-1.15-.242-.397.555-.339-.555.339a.692.692 0 0 1-.017-.03l-.002-.003-.006-.012-.027-.05a49.527 49.527 0 0 0-.492-.872 49.36 49.36 0 0 0-1.29-2.112c-.508-.782-1.057-1.568-1.576-2.189a7.229 7.229 0 0 0-.72-.761c-.226-.2-.387-.296-.481-.33-.662-.233-1.598-.266-3.163.197-1.568.463-3.7 1.403-6.705 3.03-2.341 1.265-5.98 3.019-9.775 4.846-1.127.543-2.268 1.093-3.392 1.638-4.95 2.4-9.539 4.698-11.412 6.043l-.088.063c-.934.67-1.704 1.223-2.319 1.74-.634.533-1.055.988-1.3 1.435-.442.8-.425 1.771.627 3.636 1.168 2.07 4.837 8.347 8.677 14.916 3.322 5.683 6.771 11.584 8.841 15.172 2.23 3.864 5.25 9.212 8.183 14.408l.577 1.023c2.725 4.83 5.322 9.433 7.078 12.483.485.833.9 1.57 1.262 2.214l.069.122c.333.594.619 1.102.875 1.538.564.956.934 1.462 1.264 1.714a.873.873 0 0 0 .407.185c.14.022.322.014.583-.05.55-.136 1.278-.477 2.413-1.032 2.21-1.08 10.26-5.45 17.78-9.563a5044.187 5044.187 0 0 0 13.26-7.28l1.202-.662c0-.001.001-.001.315.568l-.314-.569.023-.012z" fill="#34374C"/><path fill-rule="evenodd" clip-rule="evenodd" d="M49.12 6.205c1.1-.542 2.234-.123 2.798.722 6.402 9.578 13.664 22.37 19.32 32.754a861.318 861.318 0 0 1 8.999 16.978c.235.456.416.81.538 1.049l.139.272.046.091v.002l-.579.294.58-.294.002.004c.466.932.012 2.09-.862 2.543-2.21 1.304-7.457 4.075-12.008 6.252-4.84 2.37-16.407 8.5-20.865 10.877l-.015.008c-1.315.657-2.848.12-3.603-1.013a.625.625 0 0 1-.024-.04c-.81-1.425-2.063-3.586-3.437-5.956-2.136-3.684-4.564-7.87-6.069-10.58l.568-.316-.568.317c-2.772-4.951-16.031-28.797-19.303-34.745l.003.005.565-.323-.57.314.002.004c-.578-1.02-.148-2.393.834-2.958a.09.09 0 0 1-.004.003l.332.559-.323-.565-.005.003c5.855-3.473 11.817-6.653 17.983-9.338h-.003l.265.594-.26-.595 15.525-6.922zm1.716 1.444c-.226-.34-.668-.514-1.148-.274a.713.713 0 0 1-.026.012l-15.547 6.932c-6.106 2.659-12.02 5.813-17.845 9.268l-.009.005c-.399.228-.56.828-.352 1.192l.005.01c3.266 5.937 16.53 29.792 19.3 34.74l.002.002c1.503 2.706 3.91 6.858 6.039 10.527 1.371 2.365 2.626 4.529 3.449 5.978.434.634 1.264.88 1.921.556 4.457-2.377 16.039-8.514 20.899-10.894l.005-.003c4.544-2.173 9.772-4.936 11.928-6.21a.62.62 0 0 1 .04-.021c.299-.15.426-.562.304-.81l-.001-.001-.001-.002-.044-.086-.138-.27-.536-1.047a860.164 860.164 0 0 0-8.984-16.95c-5.653-10.378-12.893-23.127-19.26-32.654z" fill="#34374C"/></svg>