<svg xmlns="http://www.w3.org/2000/svg" xmlns:xlink="http://www.w3.org/1999/xlink"><symbol id="icon-angle-right" viewBox="0 0 256 512"><path d="M224.3 273l-136 136c-9.4 9.4-24.6 9.4-33.9 0l-22.6-22.6c-9.4-9.4-9.4-24.6 0-33.9l96.4-96.4-96.4-96.4c-9.4-9.4-9.4-24.6 0-33.9L54.3 103c9.4-9.4 24.6-9.4 33.9 0l136 136c9.5 9.4 9.5 24.6.1 34z" fill="var(--icon-color)"/></symbol><symbol id="icon-caret" viewBox="0 0 32 32"><path d="M2.733 6.998C2.528 7.062.704 8.835.551 9.123c-.109.211-.115.672-.006.864.045.077 3.43 3.501 7.526 7.603 7.987 7.994 7.622 7.654 8.179 7.558.218-.045.979-.781 7.686-7.482 4.096-4.09 7.488-7.514 7.539-7.61s.09-.346.09-.57v-.39l-.973-.986c-.723-.736-1.037-1.011-1.248-1.088-.589-.224-.166-.608-7.072 6.298l-6.253 6.246-6.118-6.157c-3.366-3.386-6.214-6.208-6.323-6.278-.256-.154-.595-.211-.845-.134z" fill="var(--icon-color)"/></symbol><symbol id="icon-check" viewBox="0 0 32 32"><path d="M20.096 11.837c-4.576 4.333-8.422 7.981-8.557 8.102l-.23.224-3.853-3.379a568.116 568.116 0 00-3.891-3.405c-.026-.006-.736.678-1.581 1.523L.448 16.438l.397.397c.211.224 2.746 2.829 5.626 5.792 2.886 2.957 5.261 5.395 5.286 5.408.019.006 4.352-4.557 9.619-10.157s9.715-10.31 9.875-10.483l.301-.301-3.136-3.136-8.32 7.878z" fill="var(--icon-color)"/></symbol><symbol id="icon-cog" viewBox="0 0 24 28"><path d="M16 14c0-2.203-1.797-4-4-4s-4 1.797-4 4 1.797 4 4 4 4-1.797 4-4zm8-1.703v3.469c0 .234-.187.516-.438.562l-2.891.438a8.86 8.86 0 01-.609 1.422c.531.766 1.094 1.453 1.672 2.156.094.109.156.25.156.391s-.047.25-.141.359c-.375.5-2.484 2.797-3.016 2.797a.795.795 0 01-.406-.141l-2.156-1.687a9.449 9.449 0 01-1.422.594c-.109.953-.203 1.969-.453 2.906a.573.573 0 01-.562.438h-3.469c-.281 0-.531-.203-.562-.469l-.438-2.875a9.194 9.194 0 01-1.406-.578l-2.203 1.672c-.109.094-.25.141-.391.141s-.281-.063-.391-.172c-.828-.75-1.922-1.719-2.578-2.625a.607.607 0 01.016-.718c.531-.719 1.109-1.406 1.641-2.141a8.324 8.324 0 01-.641-1.547l-2.859-.422A.57.57 0 010 15.705v-3.469c0-.234.187-.516.422-.562l2.906-.438c.156-.5.359-.969.609-1.437a37.64 37.64 0 00-1.672-2.156c-.094-.109-.156-.234-.156-.375s.063-.25.141-.359c.375-.516 2.484-2.797 3.016-2.797.141 0 .281.063.406.156L7.828 5.94a9.449 9.449 0 011.422-.594c.109-.953.203-1.969.453-2.906a.573.573 0 01.562-.438h3.469c.281 0 .531.203.562.469l.438 2.875c.484.156.953.344 1.406.578l2.219-1.672c.094-.094.234-.141.375-.141s.281.063.391.156c.828.766 1.922 1.734 2.578 2.656a.534.534 0 01.109.344c0 .141-.047.25-.125.359-.531.719-1.109 1.406-1.641 2.141.266.5.484 1.016.641 1.531l2.859.438a.57.57 0 01.453.562z"/></symbol><symbol id="icon-comments" viewBox="0 0 32 32"><path d="M32.153 26.218v-.52c-.004-.004-.011-.004-.015-.008-.031.046-.065.088-.088.138a.64.64 0 01-.383.325c-.115.042-.226.08-.348.061-.107-.019-.21-.054-.318-.077-.279-.069-.559-.134-.838-.207-.325-.084-.65-.176-.976-.26-.253-.065-.509-.13-.765-.191-.241-.057-.486-.103-.727-.161-.325-.08-.65-.172-.98-.26-.23-.061-.459-.119-.689-.172-.279-.065-.559-.122-.838-.184-.054-.011-.115-.057-.157-.042-.038.015-.05.092-.077.138l-.337.555c-.092.149-.176.306-.276.451-.134.191-.283.371-.421.559-.08.107-.153.222-.237.329a6.84 6.84 0 01-.306.363c-.088.096-.188.18-.276.276-.184.195-.356.394-.543.585-.122.122-.264.226-.398.341-.069.061-.126.13-.195.195a2.46 2.46 0 01-.157.13 6.975 6.975 0 01-.268.214c-.115.088-.23.168-.344.256-.065.05-.126.103-.195.149-.084.057-.176.107-.26.161-.168.111-.333.222-.505.329-.08.05-.172.084-.256.134-.08.046-.157.103-.237.153-.038.023-.08.034-.122.054-.065.034-.13.069-.195.107a1.67 1.67 0 01-.115.065c-.103.05-.207.103-.31.149-.21.088-.421.168-.631.256-.122.05-.245.107-.367.153-.08.031-.165.042-.245.069-.149.05-.295.107-.444.153-.157.046-.314.08-.471.122-.13.034-.26.073-.39.103-.119.027-.241.05-.363.073-.096.019-.188.042-.283.054-.096.015-.195.019-.291.034-.119.019-.233.042-.352.061-.061.011-.126.015-.191.023a3.807 3.807 0 01-.21.019c-.122.004-.241.004-.364.008-.272.015-.547.038-.819.046-.142.004-.283-.019-.425-.027-.08-.004-.157.015-.237.008-.153-.011-.302-.034-.451-.046-.096-.008-.191-.004-.283-.011-.084-.008-.168-.023-.253-.038-.061-.011-.126-.019-.188-.031-.195-.027-.39-.042-.585-.08-.241-.046-.474-.111-.716-.168-.18-.042-.36-.069-.536-.122-.241-.073-.478-.161-.716-.241-.168-.057-.337-.107-.505-.168-.188-.073-.375-.157-.559-.237l-.321-.153a.187.187 0 00-.099-.008c-.161.038-.321.084-.482.126-.107.027-.218.05-.325.077-.18.046-.356.099-.536.145-.115.031-.233.05-.352.08-.176.046-.352.099-.528.145-.115.031-.233.054-.352.084-.176.046-.352.099-.528.145-.115.031-.233.054-.352.084-.176.046-.352.099-.528.145-.115.031-.233.054-.352.084-.176.046-.352.099-.528.145-.115.031-.233.054-.352.084-.176.046-.352.096-.528.142-.115.031-.23.065-.348.088-.126.023-.253.034-.379.05-.084.011-.119.034-.191.138-.008.011-.031.015-.05.015H.536c-.011-.031-.019-.069-.031-.069-.161-.019-.226-.172-.337-.253-.046-.034-.057-.115-.092-.172-.011-.019-.042-.023-.077-.038 0-.115-.008-.249.004-.383.004-.046.057-.088.073-.138.36-1.071.716-2.139 1.071-3.21.233-.7.471-1.4.7-2.105.092-.279.176-.566.26-.849.008-.023-.008-.061-.023-.084l-.172-.341c-.046-.088-.096-.176-.142-.264-.027-.05-.054-.099-.077-.153-.057-.134-.119-.264-.172-.398-.05-.126-.084-.26-.13-.386-.023-.061-.061-.115-.08-.18-.054-.176-.096-.352-.149-.528-.038-.138-.092-.268-.122-.406-.046-.203-.08-.409-.122-.616-.034-.165-.073-.325-.103-.49-.019-.107-.019-.218-.031-.329-.015-.126-.046-.249-.061-.371-.011-.099-.008-.203-.015-.302-.008-.111-.027-.218-.038-.329a.893.893 0 01-.008-.103c-.004-.314-.004-.624-.008-.937-.004-.172-.015-.344-.008-.513.004-.153.031-.31.046-.463.008-.096 0-.195.011-.295.008-.092.031-.18.042-.268l.023-.168c.023-.184.038-.371.069-.555.031-.176.08-.352.119-.524.046-.207.084-.413.134-.616.031-.119.08-.233.115-.348.054-.176.099-.352.153-.524.038-.119.092-.233.138-.352l.126-.329c.027-.065.061-.13.092-.195.046-.111.088-.226.142-.333.073-.149.153-.298.233-.444.011-.027.031-.05.042-.073.05-.1.092-.203.145-.302.065-.119.13-.233.203-.344.08-.13.168-.256.253-.383.08-.122.153-.253.241-.371.103-.142.218-.279.325-.421.08-.107.153-.222.241-.325.08-.096.172-.18.253-.275.061-.069.107-.149.168-.218.115-.126.237-.245.36-.367.084-.088.172-.172.256-.256l.218-.203c.031-.027.046-.069.077-.096.08-.073.168-.138.249-.207.061-.05.115-.107.176-.157.107-.088.214-.176.321-.26.099-.077.203-.145.302-.218.054-.038.103-.084.157-.122.191-.13.379-.264.574-.39.065-.042.149-.065.207-.119.172-.153.253-.364.348-.562.034-.077.08-.145.122-.222l.115-.203c.054-.096.099-.195.153-.291a6.275 6.275 0 01.398-.604l.486-.666c.088-.119.168-.241.26-.356.092-.111.203-.21.298-.318.088-.099.165-.21.253-.306.172-.184.352-.36.536-.536.092-.088.203-.161.298-.249.103-.092.199-.199.306-.287.126-.107.264-.207.398-.31.103-.08.207-.165.318-.241.142-.096.287-.188.429-.279.199-.13.394-.26.597-.383.138-.08.283-.145.425-.222.096-.05.18-.115.275-.161.165-.077.333-.142.497-.214.142-.061.275-.134.417-.195.08-.034.168-.057.253-.088.103-.038.203-.088.306-.122.138-.046.275-.088.413-.126.115-.034.233-.065.348-.1l.333-.096c.165-.042.329-.084.497-.122.1-.023.199-.034.298-.054s.203-.042.302-.057c.111-.015.226-.019.341-.034.073-.008.142-.027.214-.038.084-.011.172-.023.256-.027.115-.008.226-.008.341-.008.352-.011.7-.023 1.052-.031.153-.004.306-.008.459 0 .161.008.325.034.486.046.096.008.191.004.283.011.084.008.168.027.249.042.057.008.111.015.168.027.119.019.233.034.352.054.092.011.188.019.279.034.096.015.195.038.291.057.138.031.276.061.409.096.077.019.153.046.23.065.119.031.237.057.352.096.241.08.474.168.716.253.119.042.237.073.352.115.107.042.21.099.318.145.096.042.191.08.287.122.057.023.119.046.176.073.122.061.249.119.367.188.168.096.333.199.501.295.119.069.241.126.356.199.122.077.245.157.363.241.226.157.451.31.673.474.142.103.268.23.402.341.099.08.207.149.302.23.092.077.172.168.256.253.027.027.069.034.092.061.069.069.13.145.199.214.073.069.157.13.226.203.119.13.23.272.344.406.092.103.195.203.287.306.073.084.134.18.203.268.111.145.233.283.341.432.138.191.26.394.394.593.073.111.153.218.226.333.05.08.088.172.134.256.031.054.065.107.096.157.061.099.126.199.176.302.08.161.149.329.226.49.031.065.077.122.103.188.046.111.084.226.13.341.05.119.111.233.157.356.054.149.092.302.142.451.046.142.107.283.149.429.061.207.107.417.161.628.038.157.084.31.115.471.027.119.034.245.057.364.015.096.046.188.061.283.019.115.023.233.038.352.011.08.027.161.038.237s.019.153.023.23c.008.126.004.253.011.379.004.042.027.084.027.126.008.245.015.486.015.731 0 .188-.004.371-.015.559-.008.153-.034.302-.046.455-.008.103 0 .21-.011.314-.008.1-.027.199-.042.298-.008.061-.015.119-.027.18-.027.172-.05.348-.077.52-.023.168-.038.341-.073.505-.038.195-.092.39-.142.585-.031.122-.054.245-.092.363-.065.199-.142.398-.21.597l-.115.325c-.034.096-.077.188-.115.283-.027.065-.05.13-.08.191a51.6 51.6 0 01-.337.662c-.038.077-.103.149-.115.23-.011.077.027.165.057.241.073.199.153.398.222.601.042.119.069.245.107.367.046.138.107.272.157.413.042.119.069.245.107.367.05.142.111.279.161.421.042.119.069.245.107.367.054.161.122.314.18.474.042.119.065.245.107.367.05.142.111.279.161.421.042.119.065.241.103.36.05.142.111.279.161.421.046.13.073.264.119.394.034.096.088.188.115.287.027.088.023.18.05.268.027.092.08.172.115.26s.088.168.084.276c-.011.268-.004.536-.004.8.015-.008.008-.008 0-.004zM10.366 29.52c.046.027.069.046.092.054.05.011.1.015.149.027.161.042.318.092.474.122.149.031.298.046.448.073.103.019.199.05.302.061.126.015.253.019.379.031.168.019.333.05.501.065.157.011.318.008.478.008h.746c.057 0 .115.015.168.008.153-.011.31-.034.463-.046.088-.008.176-.004.264-.011.065-.004.126-.015.188-.027l.337-.057c.092-.015.184-.023.275-.042.103-.019.207-.05.314-.073.08-.015.161-.019.241-.042.149-.038.295-.084.44-.126.126-.034.253-.054.375-.096.226-.077.448-.161.67-.241.165-.061.329-.111.49-.184.188-.084.367-.188.551-.279.057-.027.119-.042.176-.073.138-.08.276-.165.409-.245.188-.115.375-.23.559-.352.138-.088.272-.188.409-.279.08-.057.153-.115.233-.172.073-.054.153-.103.226-.165.088-.073.168-.157.256-.23.077-.061.165-.111.233-.176.122-.115.237-.237.352-.36.134-.142.272-.279.406-.421.023-.023.046-.046.069-.065.065-.065.134-.126.191-.195.054-.061.092-.134.145-.199.088-.107.191-.21.276-.321.134-.176.26-.356.383-.536.08-.115.145-.237.222-.356.069-.107.149-.207.214-.318.073-.126.119-.272.207-.39.077-.107.042-.226.084-.329.042-.111.096-.218.149-.325.057-.107.176-.157.214-.291.065-.233.168-.455.253-.681.046-.119.096-.233.13-.352s.057-.237.088-.36c.046-.184.096-.367.138-.551.023-.103.038-.21.057-.318.011-.057.027-.111.034-.168.015-.092.027-.184.042-.272.019-.115.046-.23.061-.344.011-.096.004-.191.011-.283l.034-.459c.011-.115.027-.233.031-.348.004-.13-.011-.26-.011-.39 0-.065.015-.134.011-.199-.004-.096-.023-.188-.027-.283-.008-.119-.004-.241-.008-.36a2.027 2.027 0 00-.027-.218c-.011-.08-.031-.161-.042-.241-.015-.111-.015-.222-.034-.329-.023-.13-.054-.26-.08-.386-.031-.145-.054-.287-.088-.432-.042-.172-.092-.341-.134-.509-.042-.157-.073-.314-.122-.463-.069-.207-.153-.409-.233-.612-.05-.134-.092-.268-.149-.398-.054-.122-.122-.237-.184-.352-.115-.214-.222-.432-.341-.647a12.589 12.589 0 00-.739-1.144 17.99 17.99 0 00-.436-.582c-.096-.119-.21-.222-.31-.337-.038-.042-.065-.103-.107-.145-.18-.18-.367-.352-.551-.528-.084-.08-.161-.168-.253-.245-.107-.096-.226-.176-.337-.268-.107-.088-.203-.184-.314-.268-.168-.126-.348-.241-.52-.356a23.559 23.559 0 00-.497-.325c-.115-.073-.237-.138-.356-.207-.115-.069-.226-.145-.344-.203a19.33 19.33 0 00-.804-.352c-.222-.092-.451-.172-.677-.26-.111-.042-.222-.092-.337-.126-.172-.05-.348-.088-.524-.13-.256-.061-.517-.126-.777-.184-.153-.034-.306-.054-.463-.077-.054-.008-.107-.011-.161-.015-.08-.008-.165-.008-.245-.015-.092-.011-.184-.038-.279-.042-.253-.011-.501-.011-.754-.019-.065-.004-.13-.023-.195-.019-.165.008-.329.019-.494.031-.05.004-.1-.008-.149-.004-.057.004-.119.019-.176.023-.096.008-.191 0-.283.011-.13.015-.26.046-.39.065-.145.019-.291.027-.432.054-.134.023-.268.065-.402.096-.214.046-.429.08-.639.138-.176.046-.348.115-.524.168-.138.042-.279.077-.417.126a8.104 8.104 0 00-.54.23c-.214.1-.429.203-.643.302-.057.027-.122.038-.172.073-.1.073-.18.172-.283.237s-.222.103-.333.153c-.057.023-.122.038-.172.069-.13.084-.256.18-.383.268-.145.1-.295.191-.432.302-.188.149-.367.31-.551.467a12.44 12.44 0 00-.413.375c-.145.138-.283.283-.429.425-.034.034-.08.054-.107.088-.077.092-.145.191-.226.283s-.172.172-.249.264c-.069.084-.119.18-.184.264-.138.188-.279.367-.417.555-.061.084-.103.18-.161.268-.088.142-.188.275-.272.417-.084.149-.157.306-.233.463a22 22 0 00-.279.578c-.034.069-.061.138-.092.207a6.62 6.62 0 00-.111.245 6.19 6.19 0 00-.107.279c-.019.05-.031.103-.046.153a2.272 2.272 0 01-.054.172c-.038.119-.084.237-.119.356-.027.088-.042.176-.065.264-.034.138-.077.272-.107.409-.031.134-.054.268-.077.402l-.069.413a3.723 3.723 0 00-.027.18c-.011.069-.027.142-.034.21-.008.092-.008.184-.015.276-.011.111-.042.218-.042.329-.008.295-.004.585-.008.88 0 .069-.015.138-.011.207.011.23.034.455.05.685.004.038-.011.08-.004.122.011.115.031.23.042.344.011.119.015.241.031.356.015.103.046.203.061.302.019.122.027.245.054.363.034.165.08.325.122.486.065.249.126.494.199.738.05.168.107.337.176.494.126.287.268.57.402.853.05.107.092.222.157.318.107.153.21.298.264.478a.686.686 0 01-.008.363c-.019.084-.065.165-.092.249-.034.111-.057.222-.096.333l-1.251 3.689c-.107.318-.214.635-.321.964.034.008.061.023.088.019.18-.046.356-.092.536-.142.145-.042.291-.092.436-.13.199-.05.398-.092.597-.142.119-.031.237-.073.356-.107.199-.054.402-.096.605-.149.145-.038.287-.084.432-.122.199-.05.398-.092.597-.142.122-.031.241-.077.364-.107l.746-.18c.099-.027.199-.061.298-.088.103-.031.214-.05.318-.08.096-.031.184-.08.276-.107.111-.034.23-.019.348-.054.195-.061.402-.099.601-.153.138-.034.279-.077.417-.111.138-.038.279-.073.417-.107.218-.057.436-.115.654-.168.161-.038.321-.069.482-.111.233-.061.463-.13.696-.191.165-.046.325-.107.497-.034.111.046.233.077.325.145a.68.68 0 01.256.432.882.882 0 01-.027.459c-.107.302-.367.421-.65.501-.195.054-.394.092-.589.138-.138.034-.279.069-.417.107l-.268.092zm15.313-6.282c.057 0 .08-.004.099 0 .191.05.379.107.57.153.279.069.559.122.834.191.363.092.727.195 1.091.287.413.103.83.195 1.247.295.168.038.337.08.509.119.05.011.099.015.149.023-.015-.046-.031-.088-.042-.134-.042-.142-.08-.283-.13-.421-.05-.149-.115-.291-.165-.44-.042-.126-.073-.26-.115-.386-.05-.149-.111-.291-.165-.44-.05-.149-.092-.306-.142-.455s-.111-.291-.161-.44c-.046-.13-.08-.264-.122-.394-.05-.149-.107-.295-.157-.44-.05-.149-.096-.302-.149-.455-.057-.168-.126-.333-.184-.501-.046-.134-.077-.272-.122-.402-.054-.153-.115-.295-.084-.467a.986.986 0 01.142-.375c.122-.199.245-.394.356-.601.069-.126.111-.268.168-.402s.13-.268.18-.402c.054-.145.092-.295.142-.444.019-.057.054-.107.069-.165.027-.092.042-.184.065-.276.038-.153.084-.302.122-.455.027-.107.054-.218.077-.329s.042-.226.061-.337c.019-.111.038-.222.054-.329.008-.057.015-.119.019-.176.008-.08.008-.165.015-.245.011-.103.038-.203.046-.306.011-.176.008-.356.011-.536.004-.115.015-.23.015-.348l-.015-.911c0-.046.015-.096.008-.142-.011-.111-.034-.218-.046-.329-.015-.134-.011-.272-.031-.409-.019-.142-.057-.283-.084-.425-.038-.207-.069-.417-.111-.624a4.664 4.664 0 00-.134-.513c-.05-.165-.107-.321-.161-.486-.092-.272-.18-.547-.279-.815-.057-.149-.142-.291-.214-.436-.084-.176-.161-.36-.249-.532-.065-.126-.149-.245-.226-.367-.126-.203-.245-.413-.375-.612-.088-.134-.191-.256-.283-.386-.065-.088-.122-.188-.188-.272-.061-.08-.138-.149-.203-.23-.088-.107-.165-.226-.256-.329s-.191-.191-.291-.287c-.21-.207-.409-.421-.631-.612-.115-.099-.218-.214-.337-.314-.126-.107-.26-.21-.394-.314-.138-.103-.279-.21-.425-.306-.21-.142-.425-.287-.643-.417-.18-.107-.367-.195-.555-.295-.195-.103-.39-.21-.589-.306-.122-.057-.256-.096-.383-.145-.203-.08-.402-.168-.608-.245-.119-.042-.245-.065-.371-.103-.119-.034-.237-.077-.36-.107-.195-.05-.39-.088-.589-.13-.184-.042-.367-.088-.555-.119-.161-.027-.321-.031-.482-.05s-.321-.05-.482-.065c-.134-.011-.268-.008-.402-.008h-.907c-.042 0-.08-.015-.122-.011-.145.011-.291.034-.432.046s-.287.019-.429.031a1.132 1.132 0 00-.168.027l-.306.057c-.122.023-.249.042-.371.065-.119.023-.233.057-.352.084-.122.027-.249.046-.371.08-.184.054-.364.115-.543.172-.222.073-.448.142-.67.222-.142.054-.275.13-.417.191-.157.069-.318.13-.471.203-.092.042-.172.107-.26.153-.08.046-.172.073-.249.122a20.632 20.632 0 00-1.003.669c-.084.061-.165.126-.249.188-.115.084-.237.165-.348.256-.122.103-.233.226-.352.333-.054.05-.126.084-.18.138-.126.126-.241.26-.364.386-.038.042-.092.065-.13.107-.092.107-.18.222-.272.329-.08.092-.168.18-.249.276-.08.099-.157.203-.23.306-.073.099-.142.199-.226.318.046-.011.069-.015.092-.023.149-.05.295-.107.444-.153.145-.046.295-.08.444-.119.168-.042.333-.088.501-.122.145-.031.291-.046.436-.073.191-.031.383-.061.578-.096.061-.011.119-.015.18-.027.092-.015.18-.034.272-.042.1-.008.203-.004.302-.011.153-.011.31-.038.463-.046a15.628 15.628 0 011.362.019c.092.004.184.011.279.023.088.011.172.034.26.042.13.015.26.015.386.034.176.027.348.069.52.103.218.042.436.077.65.122.149.034.291.084.436.126.157.042.321.077.478.122.18.054.36.111.536.176.134.05.264.107.394.161.142.057.287.103.421.165.145.065.279.145.421.218.142.069.287.13.429.203.046.023.088.061.134.084.073.038.149.073.222.111.122.069.241.145.36.218.077.046.157.088.23.138.184.13.363.26.547.394.145.103.295.203.436.314.126.1.237.214.36.318.142.122.295.237.432.36.145.134.287.275.425.413.05.05.08.111.13.161.115.122.241.233.356.356.08.084.157.18.233.268.107.134.218.264.321.402.142.188.276.383.409.574.126.18.253.36.367.547s.21.383.318.578c.088.161.184.318.272.482.042.08.069.168.107.253.031.073.065.145.099.218a.219.219 0 00.027.05c.034.065.073.126.099.195.042.103.069.214.111.318.061.165.138.321.191.486.057.168.096.344.145.517.046.153.103.298.142.451.042.176.073.352.107.528.027.126.05.249.077.375.019.092.046.184.061.276.015.107.023.214.034.321.008.065.011.126.023.191.015.092.034.188.042.279.008.099.004.195.011.295.015.191.038.386.046.578.004.099-.011.203-.011.302 0 .122.015.249.011.371-.004.134-.023.264-.031.394-.008.126-.004.253-.008.379a3.48 3.48 0 01-.027.287c-.011.08-.031.161-.038.241-.015.115-.015.233-.034.348-.015.103-.046.203-.061.306-.019.119-.031.237-.054.356-.034.161-.077.318-.115.478-.046.188-.092.379-.145.566-.042.149-.099.291-.149.436-.038.115-.065.23-.103.341-.015.092-.05.168-.088.268z"/><path d="M21.236 18.6c0-.23.004-.409-.004-.589-.004-.099-.031-.199-.046-.298-.008-.077-.008-.153-.015-.226a6.593 6.593 0 00-.038-.291c-.015-.084-.038-.168-.057-.256-.019-.084-.042-.168-.061-.253-.023-.103-.038-.207-.069-.306-.031-.103-.073-.207-.111-.31l-.099-.272a8.183 8.183 0 00-.134-.318c-.034-.084-.061-.168-.096-.249-.023-.05-.057-.096-.084-.145-.107-.207-.203-.417-.321-.616s-.264-.383-.398-.57c-.061-.088-.111-.18-.176-.26-.08-.1-.172-.188-.26-.279l-.103-.115c-.038-.042-.08-.084-.119-.126a3.39 3.39 0 00-.203-.214c-.042-.042-.096-.077-.142-.119-.119-.111-.233-.23-.36-.329-.142-.115-.298-.21-.448-.314-.111-.08-.222-.165-.337-.237-.092-.057-.191-.103-.287-.157l-.39-.218a.558.558 0 00-.103-.042c-.084-.034-.168-.061-.249-.096-.111-.05-.218-.103-.329-.149a2.395 2.395 0 00-.233-.084c-.149-.046-.302-.084-.451-.126-.157-.042-.31-.092-.467-.13-.088-.023-.18-.023-.272-.034-.119-.019-.237-.046-.356-.061-.084-.011-.168-.008-.256-.015l-.551-.046c-.046-.004-.096-.011-.142-.004-.199.023-.356-.054-.517-.165a.717.717 0 01-.256-.352.73.73 0 01-.031-.379c.023-.157.107-.268.18-.383.057-.088.18-.145.283-.195.264-.126.551-.057.826-.065.149-.004.302.015.451.034.134.015.268.046.402.065.103.015.207.015.31.034.134.023.268.057.402.084.107.023.218.042.325.073.161.046.318.103.474.157.176.061.36.115.532.18.111.042.21.107.318.153.21.096.425.18.631.283.168.084.325.195.486.295.191.119.383.233.566.356.119.08.226.176.341.264.08.061.168.115.245.18.061.05.115.115.176.168.034.031.08.046.115.08.149.142.298.279.44.425.099.103.18.222.276.329.107.126.226.241.329.371.088.107.153.23.233.341.088.122.184.241.268.367.088.134.157.279.237.417.096.165.199.325.287.494.069.134.122.272.18.409.057.13.119.256.168.386.038.1.065.207.099.306l.057.168c.046.145.096.295.138.44.042.149.084.295.119.444.031.142.046.287.073.429.019.103.046.203.061.306.011.073.008.149.015.226.008.088.023.172.038.26a.185.185 0 01.008.046c.004.184.004.367.008.555.004.107.019.214.004.314a1.062 1.062 0 01-.103.314c-.08.161-.23.249-.386.314a.68.68 0 01-.394.042c-.138-.023-.233-.092-.348-.149-.134-.069-.184-.195-.237-.318-.023-.084-.042-.191-.061-.249z"/></symbol><symbol id="icon-crop" viewBox="0 0 26 28"><path d="M8.703 20H18v-9.297zM8 19.297L17.297 10H8v9.297zM26 20.5v3c0 .281-.219.5-.5.5H22v3.5c0 .281-.219.5-.5.5h-3a.494.494 0 01-.5-.5V24H4.5a.494.494 0 01-.5-.5V10H.5a.494.494 0 01-.5-.5v-3c0-.281.219-.5.5-.5H4V2.5c0-.281.219-.5.5-.5h3c.281 0 .5.219.5.5V6h13.297l3.844-3.859a.53.53 0 01.719 0 .53.53 0 010 .719l-3.859 3.844v13.297h3.5c.281 0 .5.219.5.5z" fill="var(--icon-color)"/></symbol><symbol id="icon-cross-thin" viewBox="0 0 14 14"><path d="M14 1.4L12.6 0 7 5.6 1.4 0 0 1.4 5.6 7 0 12.6 1.4 14 7 8.4l5.6 5.6 1.4-1.4L8.4 7 14 1.4z"/></symbol><symbol id="icon-cross" viewBox="0 0 32 32"><path d="M2.528 2.56L.288 4.8l11.2 11.2L.301 27.187l4.506 4.518 11.194-11.194 11.168 11.168 2.259-2.253 2.253-2.259-11.168-11.168L31.687 4.825l-2.253-2.259L27.175.313 16.001 11.487 10.414 5.9C7.348 2.834 4.82.319 4.801.319S3.758 1.33 2.529 2.559z"/></symbol><symbol id="icon-dark-matter" viewBox="0 0 125 125"><g fill-rule="nonzero" stroke="none" stroke-width="1" fill="none"><path d="M62.5 121.4C30 121.4 3.6 95 3.6 62.5S30 3.6 62.5 3.6s58.9 26.4 58.9 58.9-26.4 58.9-58.9 58.9z" fill="#135786"/><path d="M84.4 104c-28 0-50.7-22.7-50.7-50.7 0-22.2 14.2-41 34.1-47.9-1.7-.2-3.4-.3-5.2-.3-31.8.1-57.4 25.7-57.4 57.4s25.7 57.3 57.3 57.3c18 0 34-8.3 44.5-21.2-6.8 3.5-14.5 5.4-22.6 5.4z" opacity=".5" fill="#0D1D46"/><g transform="translate(72 31)" fill="#0D1D46"><circle cx="7.9" cy="3.8" r="3"/><circle cx="24.4" cy="28.5" r="3"/><circle cx="2.8" cy="39.8" r="2.1"/><circle cx="33.5" cy="45.8" r="2.1"/></g><g transform="translate(17 19)" fill="#80D1F8"><circle cx="49.6" cy="4.6" r="4.1"/><circle cx="29.2" cy="47.6" r="4.1"/><circle cx="3.5" cy="38.5" r="2.9"/><circle cx="46.5" cy="87.6" r="2.9"/><circle cx="6.8" cy="59.9" r="2.1"/><circle cx="18.9" cy="66.1" r="2.1"/><path d="M41.2 25h3.7c.3 0 .6-.3.6-.6v-2.8c0-.3-.3-.6-.6-.6h-3.7c-.6-1.8-2.1-3.2-3.9-3.8v-3.8c0-.3-.3-.6-.6-.6h-2.8c-.3 0-.6.3-.6.6v3.9c-1.7.6-3.1 2-3.7 3.7h-3.9c-.3 0-.6.3-.6.6v2.8c0 .3.3.6.6.6h3.9c.6 1.8 2 3.2 3.8 3.9v3.8c0 .3.3.6.6.6h2.8c.3 0 .6-.3.6-.6V29c1.7-.6 3.2-2.1 3.8-4zM79.8 61.9H76c-.6-1.8-2.1-3.2-3.9-3.8v-3.8c0-.3-.3-.6-.6-.6h-2.8c-.3 0-.6.3-.6.6v3.9c-1.7.6-3.1 2-3.7 3.7h-3.9c-.3 0-.6.3-.6.6v2.8c0 .3.3.6.6.6h3.9c.6 1.8 2 3.2 3.8 3.9v3.8c0 .3.3.6.6.6h2.8c.3 0 .6-.3.6-.6v-3.7c1.9-.6 3.4-2.1 4-4h3.7c.3 0 .6-.3.6-.6v-2.8c-.1-.3-.4-.6-.7-.6z"/><circle cx="16.9" cy="8.7" r="2.1"/></g><path d="M62.5 5.2c31.7 0 57.3 25.7 57.3 57.3 0 31.6-25.7 57.3-57.3 57.3-31.6 0-57.3-25.6-57.3-57.3 0-31.7 25.6-57.3 57.3-57.3zm0-3.2C29.1 2 2 29.1 2 62.5S29.1 123 62.5 123 123 95.9 123 62.5 95.9 2 62.5 2z" stroke="#80D1F8" stroke-width="3" fill="#80D1F8"/></g></symbol><symbol id="icon-day-mode" viewBox="0 0 28 28"><path d="M23 14c0-4.969-4.031-9-9-9s-9 4.031-9 9 4.031 9 9 9 9-4.031 9-9zm4.312 4.328a.482.482 0 01-.313.313l-4.562 1.5v4.781a.517.517 0 01-.203.406.475.475 0 01-.453.063l-4.562-1.469-2.812 3.875c-.094.125-.25.203-.406.203s-.313-.078-.406-.203l-2.812-3.875-4.562 1.469a.472.472 0 01-.453-.063.518.518 0 01-.203-.406v-4.781l-4.562-1.5c-.141-.047-.266-.156-.313-.313s-.031-.328.063-.453L3.565 14 .753 10.125C.659 9.984.644 9.828.69 9.672s.172-.266.313-.313l4.562-1.5V3.078c0-.156.078-.313.203-.406a.475.475 0 01.453-.063l4.562 1.469L13.595.203c.187-.25.625-.25.812 0l2.812 3.875 4.562-1.469a.472.472 0 01.453.063c.125.094.203.25.203.406v4.781l4.562 1.5c.141.047.266.156.313.313s.031.313-.063.453L24.437 14l2.812 3.875a.514.514 0 01.063.453z"/></symbol><symbol id="icon-dots" viewBox="0 0 5 32"><path d="M5.376 16.448c-.032.102-.058.198-.09.301-.326 1.178-1.389 1.997-2.586 1.984S.466 17.914.146 16.749c-.026-.102-.058-.198-.09-.301v-.768c.154-.614.403-1.184.896-1.613a2.654 2.654 0 014.32 1.28l.096.333c.006.256.006.512.006.768zM5.376 3.136c-.019.038-.045.07-.051.115-.314 1.312-1.338 2.15-2.618 2.144C1.433 5.382.422 4.544.115 3.251c-.006-.045-.032-.077-.051-.115v-.832c.026-.07.051-.134.07-.205C.332 1.357.748.774 1.427.409c.275-.154.582-.23.877-.346h.832c.07.026.134.051.205.07.986.275 1.638.896 1.939 1.875.032.096.064.198.102.294-.006.275-.006.557-.006.832zM.064 28.992c.019-.058.051-.115.064-.173.294-1.242 1.35-2.086 2.611-2.08 1.248.006 2.285.845 2.579 2.08.013.058.045.115.064.173v.832c-.026.07-.051.134-.07.205-.25.909-.806 1.542-1.69 1.882-.154.058-.32.102-.474.154h-.832c-.07-.026-.134-.051-.205-.07-.96-.269-1.606-.864-1.914-1.818-.038-.115-.077-.237-.122-.352-.013-.275-.013-.557-.013-.832z"/></symbol><symbol id="icon-download" viewBox="0 0 36 36"><path class="st0" d="M24 14V0H12v14H4l14 14 14-14h-8zM2 34c0 1.1.9 2 2 2h28c1.1 0 2-.9 2-2s-.9-2-2-2H4c-1.1 0-2 .9-2 2z"/></symbol><symbol id="icon-en-link--dark" viewBox="0 0 41 41"><path d="M16 20.44A4.45 4.45 0 0120.44 16H23V2.44A2.45 2.45 0 0020.56 0H2.44A2.45 2.45 0 000 2.44v17.12A2.45 2.45 0 002.44 22H16zM15 35H8a3 3 0 01-3-3v-7a1 1 0 012 0v7a1 1 0 001 1h4.59l-1.79-1.79a1 1 0 011.41-1.41l3.5 3.5A1 1 0 0115 35z" fill="#202020"/><g fill="#fff"><path d="M5.72 13.89V7.45h2.73a4.68 4.68 0 011.5.17 1.48 1.48 0 01.75.62 1.86 1.86 0 01.28 1 1.72 1.72 0 01-.43 1.2 2 2 0 01-1.27.6 3 3 0 01.7.54 7.31 7.31 0 01.74 1l.79 1.26H10l-1-1.35a9.08 9.08 0 00-.69-.95 1 1 0 00-.39-.27 2.17 2.17 0 00-.66-.07H7v2.69zM7 10.17h1a5 5 0 001.17-.08.7.7 0 00.36-.27.84.84 0 00.13-.48.77.77 0 00-.17-.53.8.8 0 00-.49-.25H7zM12.2 7.45h1.3v3.49a7.26 7.26 0 000 1.08 1 1 0 00.4.64 1.39 1.39 0 00.86.24 1.31 1.31 0 00.83-.23.9.9 0 00.41-.57 7.4 7.4 0 000-1.1V7.45h1.3v3.38a8.69 8.69 0 01-.11 1.64 1.82 1.82 0 01-.39.81 2 2 0 01-.76.52 3.3 3.3 0 01-1.24.2 3.57 3.57 0 01-1.4-.21 2 2 0 01-.75-.55 1.76 1.76 0 01-.37-.71 7.83 7.83 0 01-.13-1.63z"/></g><rect x="18" y="18" width="23" height="23" rx="3.16" ry="3.16" fill="#202020"/><g fill="#fff"><path d="M24 32.89v-6.44h4.78v1.09h-3.47V29h3.23v1.09h-3.23v1.71h3.6v1.09zM30 32.89v-6.44h1.3l2.64 4.3v-4.3h1.21v6.44h-1.31l-2.6-4.2v4.2z"/></g></symbol><symbol id="icon-en-link--light" viewBox="0 0 41 41"><path d="M16 20.44A4.45 4.45 0 0120.44 16H23V2.44A2.45 2.45 0 0020.56 0H2.44A2.45 2.45 0 000 2.44v17.12A2.45 2.45 0 002.44 22H16zM15 35H8a3 3 0 01-3-3v-7a1 1 0 012 0v7a1 1 0 001 1h4.59l-1.79-1.79a1 1 0 011.41-1.41l3.5 3.5A1 1 0 0115 35z" fill="#fff"/><g fill="#172b53"><path d="M5.72 13.89V7.45h2.73a4.68 4.68 0 011.5.17 1.48 1.48 0 01.75.62 1.86 1.86 0 01.28 1 1.72 1.72 0 01-.43 1.2 2 2 0 01-1.27.6 3 3 0 01.7.54 7.31 7.31 0 01.74 1l.79 1.26H10l-1-1.35a9.08 9.08 0 00-.69-.95 1 1 0 00-.39-.27 2.17 2.17 0 00-.66-.07H7v2.69zM7 10.17h1a5 5 0 001.17-.08.7.7 0 00.36-.27.84.84 0 00.13-.48.77.77 0 00-.17-.53.8.8 0 00-.49-.25H7zM12.2 7.45h1.3v3.49a7.26 7.26 0 000 1.08 1 1 0 00.4.64 1.39 1.39 0 00.86.24 1.31 1.31 0 00.83-.23.9.9 0 00.41-.57 7.4 7.4 0 000-1.1V7.45h1.3v3.38a8.69 8.69 0 01-.11 1.64 1.82 1.82 0 01-.39.81 2 2 0 01-.76.52 3.3 3.3 0 01-1.24.2 3.57 3.57 0 01-1.4-.21 2 2 0 01-.75-.55 1.76 1.76 0 01-.37-.71 7.83 7.83 0 01-.13-1.63z"/></g><rect x="18" y="18" width="23" height="23" rx="3.16" ry="3.16" fill="#fff"/><g fill="#172b53"><path d="M24 32.89v-6.44h4.78v1.09h-3.47V29h3.23v1.09h-3.23v1.71h3.6v1.09zM30 32.89v-6.44h1.3l2.64 4.3v-4.3h1.21v6.44h-1.31l-2.6-4.2v4.2z"/></g></symbol><symbol id="icon-exclamation-circle" viewBox="0 0 24 28"><path d="M12 2c6.625 0 12 5.375 12 12s-5.375 12-12 12S0 20.625 0 14 5.375 2 12 2zm2 19.484v-2.969c0-.281-.219-.516-.484-.516h-3a.52.52 0 00-.516.516v2.969a.52.52 0 00.516.516h3c.266 0 .484-.234.484-.516zm-.031-5.375l.281-9.703a.313.313 0 00-.156-.281.602.602 0 00-.375-.125h-3.437a.602.602 0 00-.375.125.315.315 0 00-.156.281l.266 9.703c0 .219.234.391.531.391h2.891c.281 0 .516-.172.531-.391z" fill="var(--icon-color)"/></symbol><symbol id="icon-exclamation" viewBox="0 0 10 28"><path d="M8 19.5V23c0 .547-.453 1-1 1H3c-.547 0-1-.453-1-1v-3.5c0-.547.453-1 1-1h4c.547 0 1 .453 1 1zM8.469 3l-.438 12c-.016.547-.484 1-1.031 1H3a1.044 1.044 0 01-1.031-1L1.531 3A.97.97 0 012.5 2h5c.547 0 .984.453.969 1z" fill="var(--icon-color)"/></symbol><symbol id="icon-eye-slash" viewBox="0 0 28 28"><path d="M8.672 20.859l1.219-2.203A6.995 6.995 0 017 13c0-1.234.328-2.453.953-3.516C5.515 10.734 3.484 12.703 2 15c1.625 2.516 3.922 4.625 6.672 5.859zM14.75 9a.76.76 0 00-.75-.75c-2.609 0-4.75 2.141-4.75 4.75 0 .406.344.75.75.75s.75-.344.75-.75A3.258 3.258 0 0114 9.75a.76.76 0 00.75-.75zm5.672-2.984c0 .031 0 .109-.016.141-3.297 5.891-6.563 11.813-9.859 17.703l-.766 1.391a.52.52 0 01-.438.25c-.281 0-1.766-.906-2.094-1.094a.5.5 0 01-.25-.438c0-.25.531-1.094.688-1.359-3.031-1.375-5.578-3.719-7.375-6.531a1.981 1.981 0 01-.313-1.078c0-.375.109-.766.313-1.078 3.094-4.75 7.922-7.922 13.687-7.922.938 0 1.891.094 2.812.266l.844-1.516a.5.5 0 01.438-.25c.281 0 1.75.906 2.078 1.094.156.094.25.25.25.422zM21 13a6.99 6.99 0 01-4.5 6.531l4.375-7.844c.078.438.125.875.125 1.313zm7 2c0 .406-.109.734-.313 1.078-.484.797-1.094 1.563-1.703 2.266C22.921 21.86 18.703 24 14 24l1.156-2.063C19.703 21.546 23.562 18.781 26 15c-1.156-1.797-2.641-3.375-4.406-4.594l.984-1.75c1.937 1.297 3.891 3.25 5.109 5.266.203.344.313.672.313 1.078z" fill="var(--icon-color)"/></symbol><symbol id="icon-eye" viewBox="0 0 28 28"><path d="M26 15c-1.484-2.297-3.516-4.266-5.953-5.516A6.943 6.943 0 0121 13c0 3.859-3.141 7-7 7s-7-3.141-7-7c0-1.234.328-2.453.953-3.516C5.515 10.734 3.484 12.703 2 15c2.672 4.125 6.984 7 12 7s9.328-2.875 12-7zM14.75 9a.76.76 0 00-.75-.75c-2.609 0-4.75 2.141-4.75 4.75 0 .406.344.75.75.75s.75-.344.75-.75A3.268 3.268 0 0114 9.75a.76.76 0 00.75-.75zM28 15c0 .391-.125.75-.313 1.078C24.812 20.812 19.546 24 14 24S3.187 20.797.313 16.078C.126 15.75 0 15.39 0 15s.125-.75.313-1.078C3.188 9.203 8.454 6 14 6s10.813 3.203 13.687 7.922c.187.328.313.688.313 1.078z" fill="var(--icon-color)"/></symbol><symbol id="icon-keyboard" viewBox="0 0 32 32"><g fill="var(--icon-color)"><path d="M30.218 10.72h-4.895v-.795a2.863 2.863 0 00-2.86-2.86H9.535a1.83 1.83 0 01-1.828-1.828V.516a.516.516 0 10-1.032 0v4.721a2.863 2.863 0 002.86 2.86h12.928a1.83 1.83 0 011.828 1.828v.795H1.781c-.982 0-1.782.799-1.782 1.782v17.717c0 .982.799 1.782 1.782 1.782h28.437c.982 0 1.782-.799 1.782-1.782V12.502c0-.982-.799-1.782-1.782-1.782zm.75 19.498a.75.75 0 01-.749.749H1.782a.75.75 0 01-.749-.749V12.501a.75.75 0 01.749-.749h28.437a.75.75 0 01.749.749v17.717z"/><path d="M20.568 26.705h-9.136a.516.516 0 100 1.032h9.136a.516.516 0 100-1.032zM7.193 22.797H4.744a.516.516 0 100 1.032h2.449a.516.516 0 100-1.032zM27.255 22.797h-2.449a.516.516 0 100 1.032h2.449a.516.516 0 100-1.032zM20.568 22.797h-2.449a.516.516 0 100 1.032h2.449a.516.516 0 100-1.032zM11.432 23.83h2.449a.516.516 0 100-1.032h-2.449a.516.516 0 100 1.032zM7.193 18.89H4.744a.516.516 0 100 1.032h2.449a.516.516 0 100-1.032zM27.255 18.89h-2.449a.516.516 0 100 1.032h2.449a.516.516 0 100-1.032zM20.568 18.89h-2.449a.516.516 0 100 1.032h2.449a.516.516 0 100-1.032zM11.432 19.922h2.449a.516.516 0 100-1.032h-2.449a.516.516 0 100 1.032zM7.193 14.982H4.744a.516.516 0 100 1.032h2.449a.516.516 0 100-1.032zM27.255 14.982h-2.449a.516.516 0 100 1.032h2.449a.516.516 0 100-1.032zM20.568 14.982h-2.449a.516.516 0 100 1.032h2.449a.516.516 0 100-1.032zM11.432 16.015h2.449a.516.516 0 100-1.032h-2.449a.516.516 0 100 1.032z"/></g></symbol><symbol id="icon-lock" viewBox="0 0 11 12"><path d="M10 5H9V3.5a3.5 3.5 0 00-7 0V5H1a1 1 0 00-1 1v5a1 1 0 001 1h9a1 1 0 001-1V6a1 1 0 00-1-1zM4 3.5a1.5 1.5 0 013 0V5H4z"/></symbol><symbol id="icon-maximize-off" viewBox="0 0 14 14"><path d="M.5 8h5c.3 0 .5.2.5.5v5c0 .4-.5.7-.8.3l-5-5C-.2 8.5.1 8 .5 8zM13.5 6h-5c-.3 0-.5-.2-.5-.5v-5c0-.4.5-.7.8-.3l5 5c.4.3.1.8-.3.8z" fill="var(--icon-color)"/></symbol><symbol id="icon-maximize-on" viewBox="0 0 14 14"><path d="M5.5 14h-5c-.3 0-.5-.2-.5-.5v-5c0-.4.5-.7.8-.3l5 5c.4.3.1.8-.3.8zM8.5 0h5c.3 0 .5.2.5.5v5c0 .4-.5.7-.8.3l-5-5c-.4-.3-.1-.8.3-.8z" fill="var(--icon-color)"/></symbol><symbol id="icon-more" viewBox="0 0 32 32"><g fill="var(--icon-color)"><path d="M3.504 11.968a5.074 5.074 0 00-.925.24c-1.248.47-2.202 1.574-2.502 2.896C.013 15.389 0 15.526 0 16c0 .627.064.998.253 1.488.4 1.034 1.29 1.91 2.33 2.304a4.06 4.06 0 003.533-.307c.362-.218.557-.371.854-.682a4.166 4.166 0 001.008-1.811c.093-.349.099-.397.099-.992s-.006-.643-.099-.992a4.16 4.16 0 00-1.008-1.811 3.601 3.601 0 00-.854-.682 4.12 4.12 0 00-2.611-.547zM15.184 11.981c-.906.15-1.67.55-2.307 1.21a3.943 3.943 0 00-1.133 2.81c0 1.133.429 2.138 1.248 2.925.355.339.65.544 1.062.739.637.298 1.034.384 1.77.381.477 0 .586-.01.88-.083.826-.208 1.424-.544 2-1.13a3.964 3.964 0 001.149-2.832c0-1.904-1.258-3.491-3.126-3.955-.406-.099-1.142-.131-1.542-.064zM27.344 11.981a4.025 4.025 0 00-1.459.534 3.537 3.537 0 00-.854.682 4.166 4.166 0 00-1.008 1.811c-.093.349-.099.397-.099.992s.006.643.099.992a4.16 4.16 0 001.008 1.811c.298.31.493.464.854.682a4.06 4.06 0 003.533.307 4.115 4.115 0 002.33-2.304c.189-.49.253-.861.253-1.488 0-.477-.013-.611-.077-.896a4.04 4.04 0 00-1.699-2.477 3.85 3.85 0 00-1.344-.582c-.403-.102-1.142-.131-1.536-.064z"/></g></symbol><symbol id="icon-next" viewBox="0 0 9 28"><path d="M9.297 15a.54.54 0 01-.156.359L1.86 22.64c-.094.094-.234.156-.359.156s-.266-.063-.359-.156l-.781-.781a.508.508 0 01-.156-.359.54.54 0 01.156-.359L6.502 15 .361 8.859C.267 8.765.205 8.625.205 8.5s.063-.266.156-.359l.781-.781c.094-.094.234-.156.359-.156s.266.063.359.156l7.281 7.281a.536.536 0 01.156.359z" fill="var(--icon-color)"/></symbol><symbol id="icon-night-mode" viewBox="0 0 24 24"><path d="M21.5 11.9c-.3-.2-.8-.2-1.1.1-2.1 1.6-5 1.6-7.1 0-2.7-2-3.3-5.7-1.3-8.4.2-.3.3-.7.1-1.1-.2-.3-.6-.5-1-.5-4.8.4-8.6 4.2-9 9-.5 5.5 3.5 10.4 9 10.9h.9c2.3 0 4.6-.8 6.4-2.3 2.1-1.7 3.3-4.1 3.6-6.8 0-.3-.2-.7-.5-.9zm-4.3 6.2c-1.6 1.4-3.7 2-5.8 1.8-4.4-.4-7.6-4.3-7.2-8.7.3-3.1 2.4-5.8 5.2-6.8-1.2 3.2-.1 7 2.8 9.2 2.2 1.6 5 2 7.5 1.1-.6 1.3-1.4 2.5-2.5 3.4z"/></symbol><symbol id="icon-prev" viewBox="0 0 9 28"><path d="M9.797 8.5a.54.54 0 01-.156.359L3.5 15l6.141 6.141c.094.094.156.234.156.359s-.063.266-.156.359l-.781.781c-.094.094-.234.156-.359.156s-.266-.063-.359-.156L.861 15.359C.767 15.265.705 15.125.705 15s.063-.266.156-.359L8.142 7.36c.094-.094.234-.156.359-.156s.266.063.359.156l.781.781a.508.508 0 01.156.359z" fill="var(--icon-color)"/></symbol><symbol id="icon-question-mark" viewBox="0 0 32 32"><path d="M16.518 25.92h-1.546a1.975 1.975 0 00-1.973 1.973v2.134c0 1.088.885 1.973 1.973 1.973h1.546a1.975 1.975 0 001.973-1.973v-2.134a1.973 1.973 0 00-1.973-1.973zM5.62 9.398l2.851.355a1.974 1.974 0 002.088-1.259c.411-1.075.983-1.924 1.717-2.542 1.039-.875 2.332-1.315 3.877-1.315 1.601 0 2.877.421 3.824 1.259.947.842 1.417 1.848 1.417 3.029 0 .848-.266 1.624-.799 2.328-.345.447-1.407 1.388-3.18 2.825-1.776 1.437-2.956 2.733-3.548 3.884-.605 1.177-.816 2.483-.868 3.792a1.973 1.973 0 001.973 2.055h1.611a1.977 1.977 0 001.966-1.805c.066-.733.187-1.289.372-1.667.309-.648 1.108-1.503 2.391-2.568 2.483-2.055 4.101-3.68 4.86-4.877.756-1.194 1.138-2.46 1.138-3.798 0-2.417-1.029-4.538-3.091-6.36C22.16.912 19.385.001 15.899.001c-3.315 0-5.988.898-8.027 2.697C6.136 4.23 5.08 6.046 4.709 8.14a1.063 1.063 0 00.911 1.259z"/></symbol><symbol id="icon-rating-medal" viewBox="0 0 23.12 30"><path fill="#d6473c" d="M7.88 6.56h7.75L22.44 0h-7.75L7.88 6.56z"/><path d="M17.06 10.06h-11V5.25h11v4.81zM7.31 8.81h8.5V6.5h-8.5z" fill="#ed9d48"/><path fill="#ff5b47" d="M15.63 6.56H7.88L1 0h7.81l6.82 6.56z"/><circle cx="11.56" cy="18.44" r="11.56" fill="#ffd15c"/><path d="M11.56 27.19a8.75 8.75 0 118.75-8.75 8.78 8.78 0 01-8.75 8.75z" fill="#ed9d48"/><path d="M12 12l1.21 3.68a.51.51 0 00.48.35h3.87a.51.51 0 01.3.92l-3.18 2.3a.51.51 0 00-.18.57l1.2 3.64a.51.51 0 01-.78.57l-3.11-2.28a.51.51 0 00-.6 0l-3.05 2.31a.51.51 0 01-.78-.57l1.2-3.64a.51.51 0 00-.18-.57L5.21 17a.51.51 0 01.3-.92h3.87a.51.51 0 00.48-.35L11.08 12a.51.51 0 01.92 0z" fill="#ffd15c"/></symbol><symbol id="icon-rating" viewBox="0 0 386.61 386.61"><circle cx="193.31" cy="193.31" r="193.31" fill="#ffcf3f"/><path d="M193.31 339.59C112.85 339.59 47 273.76 47 193.31S112.85 47 193.31 47s146.28 65.83 146.28 146.29-65.83 146.3-146.28 146.3z" fill="#fb9830"/><path d="M201.38 86.16l20.3 61.6a8.52 8.52 0 008.08 5.84h64.77a8.5 8.5 0 015 15.39l-53.1 38.43a8.5 8.5 0 00-3.09 9.55l20 60.82a8.51 8.51 0 01-13.11 9.52l-51.92-38.07a8.48 8.48 0 00-10.05 0l-51.92 38.07a8.51 8.51 0 01-13.11-9.52l20-60.82a8.5 8.5 0 00-3.09-9.55L87.1 169a8.5 8.5 0 015-15.39h64.77a8.52 8.52 0 008.08-5.84l20.3-61.6a8.5 8.5 0 0116.13-.01z" fill="#ffcf3f"/></symbol><symbol id="icon-refresh" viewBox="0 0 24 28"><path d="M23.609 16.5c0 .031 0 .078-.016.109C22.265 22.14 17.702 26 11.937 26c-3.047 0-6-1.203-8.219-3.313l-2.016 2.016A.996.996 0 01.999 25c-.547 0-1-.453-1-1v-7c0-.547.453-1 1-1h7c.547 0 1 .453 1 1a.99.99 0 01-.297.703l-2.141 2.141A7.985 7.985 0 0011.998 22a7.976 7.976 0 006.813-3.813c.375-.609.562-1.203.828-1.828.078-.219.234-.359.469-.359h3c.281 0 .5.234.5.5zM24 4v7c0 .547-.453 1-1 1h-7c-.547 0-1-.453-1-1a.99.99 0 01.297-.703l2.156-2.156A8.036 8.036 0 0012 6a7.976 7.976 0 00-6.813 3.813c-.375.609-.562 1.203-.828 1.828-.078.219-.234.359-.469.359H.781a.503.503 0 01-.5-.5v-.109C1.625 5.844 6.234 2 12 2c3.063 0 6.047 1.219 8.266 3.313l2.031-2.016A.996.996 0 0123 3c.547 0 1 .453 1 1z"/></symbol><symbol id="icon-reload" viewBox="0 0 31 32"><path d="M13.405 1.458c-3.231.457-6.264 1.934-8.55 4.158C1.766 8.637.104 12.757.265 17.02c.087 2.156.537 3.991 1.47 5.961a15.01 15.01 0 006.876 7.024c5.313 2.669 11.608 1.995 16.272-1.748.612-.488 1.47-1.322 1.915-1.866.272-.327.321-.432.321-.636 0-.241-.043-.297-1.433-1.724-.791-.809-1.495-1.501-1.575-1.538s-.216-.068-.303-.068c-.167 0-.519.161-.519.235 0 .025-.192.259-.432.525-1.446 1.637-3.336 2.724-5.56 3.2-.951.204-2.817.21-3.812.006a10.087 10.087 0 01-5.214-2.792c-1.415-1.409-2.28-2.971-2.749-4.979-.167-.692-.173-.815-.173-2.125 0-1.205.019-1.476.136-2.014.47-2.162 1.643-4.188 3.212-5.56 3.138-2.743 7.623-3.317 11.256-1.439.667.346 1.847 1.161 2.125 1.47l.124.136-1.427 1.433c-.785.785-1.47 1.52-1.526 1.631s-.099.346-.099.525c0 .414.259.896.599 1.106l.235.148h4.788c4.72 0 4.794 0 5.035-.13a1.5 1.5 0 00.451-.42l.198-.297V8.309c0-3.225-.019-4.837-.068-4.954-.216-.568-1.044-.92-1.643-.692-.093.031-.803.692-1.569 1.452L25.78 5.511l-.395-.358c-1.989-1.785-4.584-3.046-7.407-3.589-.729-.136-1.025-.161-2.378-.179-1.13-.012-1.717.006-2.193.074z"/></symbol><symbol id="icon-search" viewBox="0 0 26 28"><path d="M18 13c0-3.859-3.141-7-7-7s-7 3.141-7 7 3.141 7 7 7 7-3.141 7-7zm8 13c0 1.094-.906 2-2 2a1.96 1.96 0 01-1.406-.594l-5.359-5.344a10.971 10.971 0 01-6.234 1.937c-6.078 0-11-4.922-11-11s4.922-11 11-11 11 4.922 11 11c0 2.219-.672 4.406-1.937 6.234l5.359 5.359c.359.359.578.875.578 1.406z"/></symbol></svg>