<svg xmlns="http://www.w3.org/2000/svg" xmlns:xlink="http://www.w3.org/1999/xlink">
  <symbol id="icon-caret" viewBox="0 0 16 16">
    <path d="M12.9556 6L7.97778 10.9778L3 6" fill="none" stroke="white" stroke-width="2" stroke-linecap="round" stroke-linejoin="round"/>
  </symbol>
  <symbol id="icon-logo-small" viewBox="0 0 16 16">
    <path fill-rule="evenodd" clip-rule="evenodd" d="M9.77106 15.593L14.1405 13.0777C14.5873 12.8099 14.9605 12.4353 15.2265 11.9874C15.4924 11.5395 15.6428 11.0325 15.6641 10.5121V5.48142C15.6581 4.9632 15.5187 4.45527 15.2594 4.00654C15.0001 3.55782 14.6296 3.18341 14.1837 2.91938L9.81418 0.404057C9.36565 0.139523 8.85445 0 8.33373 0C7.81301 0 7.3018 0.139523 6.85328 0.404057L2.48021 2.91938C2.03426 3.18341 1.66379 3.55782 1.4045 4.00654C1.14521 4.45527 1.00581 4.9632 0.999756 5.48142V10.5121C1.00539 11.0259 1.13995 11.53 1.39108 11.9783C1.64221 12.4265 2.00187 12.8046 2.43708 13.0777L6.81016 15.593C7.25805 15.8594 7.7695 16 8.29061 16C8.81172 16 9.32317 15.8594 9.77106 15.593ZM8.57819 12.934C8.88624 13.0627 9.21828 13.124 9.55197 13.1137L9.54478 13.1856H9.69211V11.9926C9.5695 11.986 9.44847 11.9618 9.33278 11.9207C9.24153 11.858 9.15722 11.7857 9.08125 11.7051L8.97344 11.4895C8.97344 11.4536 8.96356 11.4078 8.95368 11.362C8.9438 11.3161 8.93392 11.2703 8.93392 11.2344C8.90255 11.142 8.89033 11.0442 8.89799 10.9469V9.64614C8.89101 9.31291 8.79148 8.98819 8.61053 8.70829C8.38751 8.39231 8.07259 8.15268 7.7086 8.02196C8.07324 7.89066 8.38914 7.65122 8.61411 7.33564C8.79507 7.05574 8.89461 6.73101 8.90158 6.39778V5.13293C8.90158 5.07947 8.91042 5.03485 8.91933 4.98987C8.92839 4.94414 8.93752 4.89803 8.93752 4.84187C8.93123 4.75611 8.94475 4.67004 8.97704 4.59034L9.08484 4.37474C9.14054 4.27539 9.22967 4.199 9.33637 4.15914C9.45142 4.1152 9.5727 4.08973 9.6957 4.08368V2.89429H9.54838C9.22972 2.88644 8.9122 2.9351 8.61053 3.03803L8.61048 3.03804C8.43083 3.10991 8.25118 3.18176 8.10387 3.25362C7.83504 3.40698 7.59243 3.60228 7.3852 3.83215C7.21024 4.0275 7.08674 4.26339 7.02587 4.51847C6.9548 4.77721 6.91854 5.04428 6.91806 5.3126V6.36185C6.95376 6.62859 6.8884 6.89904 6.73481 7.12004C6.67286 7.22302 6.58174 7.30531 6.473 7.35648C6.36426 7.40766 6.24278 7.42541 6.12394 7.40751V8.60049C6.24092 8.59878 6.35676 8.62378 6.46261 8.6736C6.56847 8.72341 6.66157 8.79673 6.73481 8.88795C6.86832 9.11749 6.932 9.38097 6.91806 9.64614V10.6954C6.91636 10.9639 6.95266 11.2312 7.02587 11.4895C7.09527 11.7413 7.21779 11.9754 7.3852 12.1758C7.58185 12.393 7.81392 12.5753 8.07153 12.7148C8.15713 12.7501 8.23411 12.7846 8.31016 12.8186C8.39691 12.8574 8.48245 12.8957 8.57819 12.934Z"/>
  </symbol>
</svg>
