<svg width="690" height="655" viewBox="0 0 690 655" fill="none" xmlns="http://www.w3.org/2000/svg">
<path fill-rule="evenodd" clip-rule="evenodd" d="M145.603 328.825C126.418 336.981 104.053 343.385 81.3619 341.391C50.2637 338.659 12.1926 325.237 2.73208 284.344C-1.17297 267.464 1.75515 251.508 5.94088 239.057C10.2099 226.358 16.8092 214.241 24.0296 203.281C52.0831 160.696 103.247 115.237 145.374 86.9005C165.196 73.5677 192.073 78.8279 205.405 98.6495C218.738 118.471 213.478 145.348 193.656 158.681C157.128 183.251 115.861 221.133 96.2704 250.871C95.3375 252.287 94.4908 253.63 93.724 254.899C97.5673 254.288 103.456 252.742 111.758 249.213C124.472 243.808 139.655 235.135 156.984 223.412C191.68 199.94 230.372 167.432 268.68 133.844C279.736 124.149 290.852 114.28 301.795 104.564C327.715 81.5503 352.671 59.3936 373.597 42.4362C388.417 30.4274 403.377 19.216 416.827 11.694C423.424 8.00476 431.901 3.9088 441.293 1.73288C450.112 -0.310258 467.013 -2.27304 483.359 8.29721C500.624 19.4612 506.061 37.0417 506.428 50.1632C506.749 61.6236 503.559 71.7439 500.955 78.4577C495.535 92.4355 486.171 107.611 476.286 121.893C455.925 151.307 425.725 187.635 394.473 223.413C363.785 258.546 330.963 294.412 303.438 324.49L301.255 326.876C272.457 358.347 251.389 381.466 243.077 392.091C227.766 411.661 216.15 437.316 212.777 459.315C209.258 482.271 215.581 489.489 218.637 491.65C230.642 500.138 244.249 503.694 262.349 495.181C283.972 485.011 317.28 455.082 355.716 378.682C396.578 297.458 443.933 216.68 487.696 155.56C509.474 125.145 531.25 98.343 551.668 78.6454C561.858 68.8147 572.706 59.7773 583.947 52.9429C594.639 46.4419 609.345 39.6741 626.383 39.5368C641.349 39.4161 659.231 44.1234 672.713 59.3504C684.957 73.1781 688.156 89.7357 688.796 101.831C690.035 125.241 682.69 153.852 672.443 183.58C651.137 245.392 608.168 336.599 546.157 457C519.006 509.716 506.56 544.026 502.505 564.615C509.907 562.218 518.886 558.496 529.336 553.321C554.195 541.01 583.516 522.416 613.513 500.785C632.889 486.813 659.923 491.194 673.895 510.57C687.867 529.946 683.487 556.98 664.111 570.952C632.072 594.055 598.474 615.616 567.727 630.843C552.363 638.452 536.744 644.965 521.715 649.162C507.264 653.197 489.983 656.068 472.743 653.054C453.534 649.696 434.826 638.883 423.813 618.339C414.066 600.159 413.328 579.751 415.423 561.831C419.6 526.104 437.833 478.391 469.251 417.39C526.13 306.953 564.693 225.363 585.407 169.976C576.825 180.454 567.658 192.478 558.032 205.922C517.544 262.467 472.434 339.164 432.995 417.559C391.129 500.779 346.573 551.166 299.166 573.463C248.237 597.416 201.65 585.585 168.696 562.286C126.794 532.66 121.514 483.75 127.269 446.207C133.17 407.707 151.705 368.491 174.943 338.787C184.501 326.57 204.168 304.86 227.125 279.747C219.841 285.101 212.606 290.228 205.456 295.064C185.652 308.461 165.361 320.425 145.603 328.825Z" fill="#C4D9F6" fill-opacity="0.5"/>
</svg>
