<svg width="135" height="40" viewBox="0 0 135 40" fill="none" xmlns="http://www.w3.org/2000/svg">
<rect x="0.5" y="0.5" width="134" height="39" rx="4.5" fill="#0D1117" stroke="#30363D"/>
<path d="M47.4195 10.2402C47.436 10.6069 47.378 10.9732 47.2491 11.3169C47.1202 11.6606 46.923 11.9747 46.6695 12.2402C46.3854 12.5335 46.0426 12.7635 45.6635 12.9152C45.2844 13.0668 44.8775 13.1367 44.4695 13.1202C44.0592 13.1294 43.6513 13.0542 43.2712 12.8994C42.8911 12.7446 42.5467 12.5134 42.2595 12.2202C41.6768 11.6242 41.3506 10.8237 41.3506 9.99021C41.3506 9.15667 41.6768 8.35624 42.2595 7.76021C42.705 7.32489 43.2693 7.03095 43.8813 6.9153C44.4933 6.79965 45.1259 6.86746 45.6995 7.11021C46.0601 7.25844 46.3818 7.48769 46.6395 7.78021L46.1095 8.31021C45.9109 8.07098 45.6593 7.88135 45.3746 7.75636C45.09 7.63138 44.7801 7.57449 44.4695 7.59021C44.0776 7.59292 43.6922 7.6916 43.3472 7.87762C43.0021 8.06365 42.7079 8.33135 42.4902 8.65734C42.2726 8.98332 42.138 9.35767 42.0984 9.74765C42.0588 10.1376 42.1153 10.5314 42.263 10.8945C42.4107 11.2576 42.6451 11.579 42.9457 11.8306C43.2463 12.0821 43.6039 12.2563 43.9874 12.3378C44.3708 12.4192 44.7683 12.4055 45.1452 12.2979C45.5222 12.1902 45.867 11.9919 46.1495 11.7202C46.455 11.3853 46.6321 10.9531 46.6495 10.5002H44.4695V9.78021H47.3795C47.4023 9.93258 47.4157 10.0862 47.4195 10.2402Z" fill="white" stroke="white" stroke-width="0.2" stroke-miterlimit="10"/>
<path d="M51.9995 7.74H49.2995V9.64H51.7595V10.36H49.2995V12.26H51.9995V13H48.5195V7H51.9995V7.74Z" fill="white" stroke="white" stroke-width="0.2" stroke-miterlimit="10"/>
<path d="M55.2791 13H54.5091V7.74H52.8291V7H56.9991V7.74H55.2791V13Z" fill="white" stroke="white" stroke-width="0.2" stroke-miterlimit="10"/>
<path d="M59.9395 13V7H60.7094V13H59.9395Z" fill="white" stroke="white" stroke-width="0.2" stroke-miterlimit="10"/>
<path d="M64.1297 13H63.3597V7.74H61.6797V7H65.7997V7.74H64.1297V13Z" fill="white" stroke="white" stroke-width="0.2" stroke-miterlimit="10"/>
<path d="M73.6092 12.2201C73.3204 12.5092 72.9774 12.7385 72.5999 12.895C72.2224 13.0514 71.8178 13.1319 71.4092 13.1319C71.0006 13.1319 70.5959 13.0514 70.2185 12.895C69.841 12.7385 69.498 12.5092 69.2092 12.2201C68.6439 11.6192 68.3291 10.8252 68.3291 10.0001C68.3291 9.17508 68.6439 8.38109 69.2092 7.78014C69.4918 7.48294 69.8336 7.24838 70.2126 7.09162C70.5916 6.93487 70.9992 6.85941 71.4092 6.87014C71.8186 6.86367 72.225 6.94106 72.6033 7.09756C72.9817 7.25407 73.324 7.48636 73.6092 7.78014C73.8967 8.07263 74.1227 8.41978 74.2739 8.80107C74.425 9.18237 74.4982 9.59008 74.4892 10.0001C74.5023 10.4107 74.431 10.8196 74.2796 11.2015C74.1282 11.5833 73.9 11.9301 73.6092 12.2201V12.2201ZM69.7792 11.7201C69.9922 11.936 70.246 12.1074 70.5258 12.2244C70.8056 12.3414 71.1059 12.4017 71.4092 12.4017C71.7125 12.4017 72.0127 12.3414 72.2926 12.2244C72.5724 12.1074 72.8262 11.936 73.0392 11.7201C73.4707 11.2513 73.7102 10.6373 73.7102 10.0001C73.7102 9.36294 73.4707 8.74902 73.0392 8.28014C72.8262 8.06427 72.5724 7.89285 72.2926 7.77586C72.0127 7.65887 71.7125 7.59862 71.4092 7.59862C71.1059 7.59862 70.8056 7.65887 70.5258 7.77586C70.246 7.89285 69.9922 8.06427 69.7792 8.28014C69.3477 8.74902 69.1082 9.36294 69.1082 10.0001C69.1082 10.6373 69.3477 11.2513 69.7792 11.7201V11.7201Z" fill="white" stroke="white" stroke-width="0.2" stroke-miterlimit="10"/>
<path d="M75.5791 13V7H76.5091L79.4291 11.67V10.51V7H80.1991V13H79.3991L76.3491 8.11V9.26V13H75.5791Z" fill="white" stroke="white" stroke-width="0.2" stroke-miterlimit="10"/>
<path d="M68.14 21.7499C67.2974 21.7519 66.4744 22.0037 65.7749 22.4734C65.0755 22.9432 64.531 23.6098 64.2104 24.3889C63.8898 25.1681 63.8075 26.0248 63.9738 26.8508C64.1401 27.6768 64.5476 28.4349 65.1448 29.0293C65.742 29.6236 66.502 30.0276 67.3287 30.19C68.1555 30.3524 69.0118 30.2661 69.7895 29.9418C70.5671 29.6175 71.2311 29.07 71.6976 28.3683C72.164 27.6667 72.412 26.8425 72.41 25.9999C72.4181 25.4379 72.3131 24.8799 72.1012 24.3593C71.8892 23.8386 71.5746 23.366 71.1762 22.9694C70.7778 22.5729 70.3037 22.2606 69.7821 22.051C69.2604 21.8415 68.702 21.7391 68.14 21.7499V21.7499ZM68.14 28.5799C67.6236 28.616 67.1082 28.496 66.6609 28.2353C66.2137 27.9747 65.8552 27.5855 65.632 27.1184C65.4088 26.6512 65.3314 26.1278 65.4097 25.6161C65.4879 25.1043 65.7184 24.628 66.0709 24.249C66.4235 23.8699 66.882 23.6057 67.3867 23.4907C67.8915 23.3757 68.4192 23.4152 68.9012 23.604C69.3832 23.7929 69.7972 24.1223 70.0895 24.5496C70.3818 24.9769 70.5387 25.4822 70.54 25.9999C70.5561 26.3279 70.5063 26.6559 70.3937 26.9643C70.2811 27.2728 70.1078 27.5556 69.8841 27.7961C69.6604 28.0366 69.3909 28.2298 69.0913 28.3644C68.7918 28.499 68.4683 28.5723 68.14 28.5799ZM58.82 21.7499C57.9774 21.7519 57.1544 22.0037 56.4549 22.4734C55.7555 22.9432 55.211 23.6098 54.8904 24.3889C54.5698 25.1681 54.4875 26.0248 54.6538 26.8508C54.8201 27.6768 55.2276 28.4349 55.8248 29.0293C56.422 29.6236 57.182 30.0276 58.0087 30.19C58.8355 30.3524 59.6918 30.2661 60.4695 29.9418C61.2471 29.6175 61.9111 29.07 62.3776 28.3683C62.844 27.6667 63.0919 26.8425 63.09 25.9999C63.0981 25.4379 62.9931 24.8799 62.7812 24.3593C62.5692 23.8386 62.2546 23.366 61.8562 22.9694C61.4578 22.5729 60.9837 22.2606 60.4621 22.051C59.9404 21.8415 59.382 21.7391 58.82 21.7499V21.7499ZM58.82 28.5799C58.3036 28.616 57.7882 28.496 57.3409 28.2353C56.8937 27.9747 56.5352 27.5855 56.312 27.1184C56.0888 26.6512 56.0114 26.1278 56.0897 25.6161C56.1679 25.1043 56.3984 24.628 56.7509 24.249C57.1035 23.8699 57.562 23.6057 58.0667 23.4907C58.5715 23.3757 59.0992 23.4152 59.5812 23.604C60.0632 23.7929 60.4772 24.1223 60.7695 24.5496C61.0618 24.9769 61.2187 25.4822 61.22 25.9999C61.2361 26.3279 61.1863 26.6559 61.0737 26.9643C60.9611 27.2728 60.7878 27.5556 60.5641 27.7961C60.3404 28.0366 60.0709 28.2298 59.7713 28.3644C59.4718 28.499 59.1483 28.5723 58.82 28.5799ZM47.74 23.0599V24.8599H52.06C51.9922 25.7077 51.6398 26.5077 51.06 27.1299C50.6266 27.5714 50.1054 27.9171 49.5301 28.1444C48.9547 28.3718 48.3381 28.4759 47.72 28.4499C46.4469 28.4499 45.226 27.9442 44.3259 27.044C43.4257 26.1439 42.92 24.923 42.92 23.6499C42.92 22.3769 43.4257 21.156 44.3259 20.2558C45.226 19.3556 46.4469 18.8499 47.72 18.8499C48.9404 18.8318 50.1189 19.2952 51 20.1399L52.27 18.8699C51.674 18.2804 50.9663 17.8158 50.1884 17.5033C49.4106 17.1908 48.5782 17.0366 47.74 17.0499C46.851 17.0153 45.9641 17.1605 45.1326 17.4769C44.3011 17.7932 43.5419 18.2742 42.9007 18.8909C42.2595 19.5077 41.7494 20.2475 41.401 21.0661C41.0525 21.8847 40.8729 22.7652 40.8729 23.6549C40.8729 24.5446 41.0525 25.4251 41.401 26.2437C41.7494 27.0623 42.2595 27.8022 42.9007 28.4189C43.5419 29.0357 44.3011 29.5166 45.1326 29.833C45.9641 30.1493 46.851 30.2945 47.74 30.2599C48.5954 30.2941 49.4484 30.1469 50.2429 29.8281C51.0374 29.5092 51.7555 29.0259 52.35 28.4099C53.4001 27.2563 53.9596 25.7391 53.91 24.1799C53.9136 23.8046 53.8834 23.4298 53.82 23.0599H47.74ZM93.05 24.4599C92.7892 23.6927 92.3015 23.0227 91.6515 22.5388C91.0015 22.0548 90.2198 21.7797 89.41 21.7499C88.863 21.7489 88.3216 21.86 87.8192 22.0765C87.3169 22.2929 86.8643 22.6101 86.4894 23.0085C86.1145 23.4068 85.8252 23.8778 85.6396 24.3923C85.4539 24.9068 85.3758 25.454 85.41 25.9999C85.4014 26.9128 85.6884 27.8039 86.2281 28.5402C86.7678 29.2765 87.5312 29.8184 88.4042 30.0851C89.2773 30.3517 90.2132 30.3288 91.0722 30.0196C91.9311 29.7105 92.667 29.1318 93.17 28.3699L91.72 27.3699C91.5038 27.7302 91.1972 28.0277 90.8306 28.2329C90.464 28.4382 90.0501 28.544 89.63 28.5399C89.1965 28.5578 88.7678 28.4442 88.4002 28.214C88.0325 27.9837 87.7431 27.6477 87.57 27.2499L93.26 24.8999L93.05 24.4599ZM87.25 25.8799C87.2297 25.5693 87.2716 25.2578 87.3733 24.9635C87.4749 24.6693 87.6342 24.3983 87.8419 24.1664C88.0496 23.9346 88.3014 23.7464 88.5827 23.6131C88.864 23.4798 89.169 23.4039 89.48 23.3899C89.8022 23.3703 90.123 23.4461 90.4023 23.608C90.6816 23.7699 90.9069 24.0106 91.05 24.2999L87.25 25.8799ZM82.63 29.9999H84.5V17.4999H82.63V29.9999ZM79.57 22.6999H79.5C79.2206 22.3818 78.8759 22.1277 78.4893 21.9551C78.1027 21.7825 77.6833 21.6955 77.26 21.6999C76.1672 21.7529 75.1366 22.2243 74.382 23.0165C73.6273 23.8087 73.2063 24.8608 73.2063 25.9549C73.2063 27.049 73.6273 28.1012 74.382 28.8933C75.1366 29.6855 76.1672 30.1569 77.26 30.2099C77.6839 30.2184 78.1046 30.1332 78.4918 29.9603C78.879 29.7875 79.2233 29.5312 79.5 29.2099H79.57V29.8199C79.57 31.4499 78.7 32.3199 77.3 32.3199C76.8323 32.3096 76.3782 32.1606 75.9954 31.8918C75.6126 31.6229 75.3183 31.2464 75.15 30.8099L73.53 31.4799C73.8295 32.2322 74.3502 32.8758 75.0234 33.3258C75.6965 33.7757 76.4904 34.0108 77.3 33.9999C79.49 33.9999 81.3 32.7099 81.3 29.5699V21.9999H79.57V22.6999ZM77.42 28.5799C76.7648 28.5391 76.1498 28.25 75.7003 27.7716C75.2508 27.2932 75.0005 26.6614 75.0005 26.0049C75.0005 25.3485 75.2508 24.7167 75.7003 24.2383C76.1498 23.7598 76.7648 23.4708 77.42 23.4299C77.7402 23.4437 78.0544 23.5218 78.3438 23.6596C78.6333 23.7973 78.8921 23.9918 79.1048 24.2316C79.3175 24.4714 79.4798 24.7515 79.5821 25.0553C79.6843 25.3591 79.7244 25.6803 79.7 25.9999C79.7273 26.3206 79.6892 26.6435 79.5881 26.9491C79.4871 27.2546 79.3251 27.5365 79.1119 27.7777C78.8988 28.0189 78.639 28.2143 78.3482 28.3522C78.0573 28.4901 77.7416 28.5676 77.42 28.5799V28.5799ZM101.81 17.4999H97.33V29.9999H99.2V25.2599H101.81C102.343 25.2982 102.878 25.2263 103.382 25.0487C103.886 24.871 104.348 24.5915 104.739 24.2274C105.13 23.8634 105.442 23.4227 105.655 22.9328C105.869 22.4428 105.979 21.9142 105.979 21.3799C105.979 20.8456 105.869 20.317 105.655 19.8271C105.442 19.3372 105.13 18.8965 104.739 18.5324C104.348 18.1684 103.886 17.8888 103.382 17.7112C102.878 17.5336 102.343 17.4616 101.81 17.4999V17.4999ZM101.81 23.4999H99.2V19.2399H101.85C102.131 19.2399 102.409 19.2953 102.669 19.4028C102.929 19.5104 103.164 19.668 103.363 19.8667C103.562 20.0654 103.72 20.3013 103.827 20.561C103.935 20.8206 103.99 21.0989 103.99 21.3799C103.99 21.661 103.935 21.9392 103.827 22.1989C103.72 22.4585 103.562 22.6944 103.363 22.8931C103.164 23.0918 102.929 23.2495 102.669 23.357C102.409 23.4646 102.131 23.5199 101.85 23.5199L101.81 23.4999ZM113.35 21.7099C112.669 21.6679 111.991 21.8265 111.399 22.1659C110.807 22.5054 110.328 23.0109 110.02 23.6199L111.67 24.3099C111.837 24.0093 112.087 23.7634 112.39 23.602C112.694 23.4405 113.038 23.3703 113.38 23.3999C113.617 23.3722 113.858 23.392 114.088 23.4582C114.317 23.5245 114.531 23.6358 114.718 23.7856C114.904 23.9355 115.058 24.1209 115.172 24.3311C115.286 24.5413 115.356 24.7721 115.38 25.0099V25.1299C114.779 24.8138 114.109 24.6491 113.43 24.6499C111.65 24.6499 109.83 25.6499 109.83 27.4699C109.848 27.8568 109.943 28.2361 110.11 28.5855C110.277 28.9348 110.513 29.247 110.803 29.5035C111.093 29.7601 111.431 29.9557 111.799 30.0787C112.166 30.2018 112.554 30.2498 112.94 30.2199C113.409 30.2459 113.877 30.1466 114.295 29.9322C114.713 29.7178 115.067 29.3961 115.32 28.9999H115.38V29.9999H117.18V25.1899C117.18 22.9999 115.52 21.7299 113.39 21.7299L113.35 21.7099ZM113.12 28.5599C112.51 28.5599 111.66 28.2499 111.66 27.4999C111.66 26.4999 112.72 26.1599 113.66 26.1599C114.254 26.1453 114.841 26.2903 115.36 26.5799C115.297 27.123 115.04 27.6249 114.635 27.9926C114.231 28.3604 113.707 28.569 113.16 28.5799L113.12 28.5599ZM123.74 21.9999L121.6 27.4199H121.54L119.32 21.9999H117.32L120.65 29.5799L118.75 33.7899H120.7L125.82 21.9999H123.74ZM106.94 29.9999H108.8V17.4999H106.94V29.9999Z" fill="white"/>
<path d="M10.4401 7.5407C10.1106 7.93032 9.94245 8.43117 9.97012 8.9407V31.0607C9.93609 31.5711 10.105 32.0742 10.4401 32.4607L10.5101 32.5407L22.9001 20.1507V19.8507L10.5101 7.4707L10.4401 7.5407Z" fill="url(#paint0_linear_661_13620)"/>
<path d="M27.0004 24.2807L22.9004 20.1507V19.8507L27.0004 15.7207L27.0904 15.7807L32.0004 18.5607C33.4004 19.3507 33.4004 20.6507 32.0004 21.4507L27.1104 24.2307L27.0004 24.2807Z" fill="url(#paint1_linear_661_13620)"/>
<path d="M27.1204 24.22L22.9004 20L10.4404 32.46C10.723 32.7115 11.0847 32.8562 11.4628 32.869C11.8409 32.8818 12.2115 32.7619 12.5104 32.53L27.1204 24.22" fill="url(#paint2_linear_661_13620)"/>
<path d="M27.1204 15.7805L12.5104 7.48046C12.2135 7.24537 11.8431 7.12251 11.4645 7.13349C11.0859 7.14446 10.7233 7.28857 10.4404 7.54046L22.9004 20.0005L27.1204 15.7805Z" fill="url(#paint3_linear_661_13620)"/>
<path opacity="0.2" d="M26.9995 24.1309L12.5095 32.3809C12.2214 32.5983 11.8703 32.7159 11.5095 32.7159C11.1486 32.7159 10.7975 32.5983 10.5095 32.3809V32.3809L10.4395 32.4509L10.5095 32.5309C10.7975 32.7483 11.1486 32.8659 11.5095 32.8659C11.8703 32.8659 12.2214 32.7483 12.5095 32.5309L27.1195 24.2209L26.9995 24.1309Z" fill="#0D1117"/>
<path opacity="0.12" d="M10.4399 32.3202C10.1187 31.9235 9.96126 31.4191 9.99988 30.9102V31.0602C9.96585 31.5705 10.1348 32.0737 10.4699 32.4602L10.5399 32.3902L10.4399 32.3202Z" fill="#0D1117"/>
<path opacity="0.12" d="M32 21.3L27 24.13L27.09 24.22L32 21.44C32.2898 21.3174 32.5413 21.119 32.7278 20.8656C32.9143 20.6122 33.0291 20.3132 33.06 20C32.9975 20.2846 32.869 20.5505 32.6849 20.7763C32.5007 21.0021 32.2662 21.1815 32 21.3Z" fill="#0D1117"/>
<path opacity="0.25" d="M12.5097 7.62096L31.9997 18.701C32.2659 18.8195 32.5005 18.9989 32.6846 19.2247C32.8687 19.4505 32.9972 19.7164 33.0597 20.001C33.0288 19.6878 32.9141 19.3888 32.7275 19.1354C32.541 18.8819 32.2896 18.6835 31.9997 18.561L12.5097 7.48095C11.1197 6.68095 9.96973 7.34096 9.96973 8.94096V9.09096C9.99973 7.49096 11.1197 6.83096 12.5097 7.62096Z" fill="white"/>
<defs>
<linearGradient id="paint0_linear_661_13620" x1="21.8001" y1="8.7107" x2="5.02012" y2="25.4907" gradientUnits="userSpaceOnUse">
<stop stop-color="#00A0FF"/>
<stop offset="0.01" stop-color="#00A1FF"/>
<stop offset="0.26" stop-color="#00BEFF"/>
<stop offset="0.51" stop-color="#00D2FF"/>
<stop offset="0.76" stop-color="#00DFFF"/>
<stop offset="1" stop-color="#00E3FF"/>
</linearGradient>
<linearGradient id="paint1_linear_661_13620" x1="33.8304" y1="20.0007" x2="9.64039" y2="20.0007" gradientUnits="userSpaceOnUse">
<stop stop-color="#FFE000"/>
<stop offset="0.41" stop-color="#FFBD00"/>
<stop offset="0.78" stop-color="#FFA500"/>
<stop offset="1" stop-color="#FF9C00"/>
</linearGradient>
<linearGradient id="paint2_linear_661_13620" x1="24.8304" y1="22.3" x2="2.07043" y2="45.05" gradientUnits="userSpaceOnUse">
<stop stop-color="#FF3A44"/>
<stop offset="1" stop-color="#C31162"/>
</linearGradient>
<linearGradient id="paint3_linear_661_13620" x1="7.30043" y1="0.180458" x2="17.4604" y2="10.3405" gradientUnits="userSpaceOnUse">
<stop stop-color="#32A071"/>
<stop offset="0.07" stop-color="#2DA771"/>
<stop offset="0.48" stop-color="#15CF74"/>
<stop offset="0.8" stop-color="#06E775"/>
<stop offset="1" stop-color="#00F076"/>
</linearGradient>
</defs>
</svg>
