<svg width="135" height="40" viewBox="0 0 135 40" fill="none" xmlns="http://www.w3.org/2000/svg">
<rect x="0.5" y="0.5" width="134" height="39" rx="4.5" fill="#0D1117" stroke="#30363D"/>
<path fill-rule="evenodd" clip-rule="evenodd" d="M16.0589 7.33398C10.8904 7.33398 9 9.23725 9 14.4407V25.5606C9 30.764 10.8904 32.6673 16.0589 32.6673H27.0958C32.2642 32.6673 34.1581 30.764 34.1581 25.5606V14.4407C34.1581 9.23725 32.2677 7.33398 27.0992 7.33398H16.0589Z" fill="url(#paint0_linear_661_13642)"/>
<path fill-rule="evenodd" clip-rule="evenodd" d="M19.9734 22.0261H20.9834L20.4767 20.8395L19.9734 22.0261ZM19.7247 22.6241L19.4251 23.3146H18.7428L20.1936 20.0002H20.7833L22.2282 23.3146H21.5278L21.232 22.6241H19.7247ZM30.703 23.3122H31.3623V20H30.703V23.3122ZM28.0786 21.8893H29.294V21.2854H28.0786V20.6066H29.843V20.0024H27.4194V23.3144H29.9065V22.7103H28.0786V21.8893ZM25.4586 22.2807L24.7111 20H24.1655L23.418 22.2807L22.6904 20.0018H21.9791L23.1272 23.3164H23.6802L24.429 21.1392L25.1777 23.3164H25.7356L26.8807 20.0018H26.1878L25.4586 22.2807ZM17.7363 21.8985C17.7363 22.4376 17.4704 22.7258 16.9875 22.7258C16.502 22.7258 16.2347 22.4293 16.2347 21.8755V20.0022H15.5664V21.8985C15.5664 22.8312 16.0812 23.3661 16.9784 23.3661C17.8845 23.3661 18.4039 22.821 18.4039 21.8708V20.0002H17.7363V21.8985ZM13.972 20.0002H14.6399V23.3166H13.972V21.9697H12.4632V23.3166H11.7949V20.0002H12.4632V21.3379H13.972V20.0002Z" fill="white"/>
<path fill-rule="evenodd" clip-rule="evenodd" d="M21.5788 15.7789C19.2665 15.7789 17.3857 13.8848 17.3857 11.5566H17.978C17.978 13.5558 19.5935 15.1823 21.5788 15.1823C23.5641 15.1823 25.1795 13.5558 25.1795 11.5566H25.7718C25.7718 13.8848 23.8908 15.7789 21.5788 15.7789Z" fill="white"/>
<path d="M50.5343 29.8662L49.4016 26.6943H45.0646L43.9551 29.8662H42L46.2439 18.3975H48.2611L52.505 29.8662H50.5343ZM48.9128 25.085L47.8499 21.9756C47.7723 21.7673 47.6637 21.4391 47.524 20.9912C47.3895 20.5433 47.2964 20.2152 47.2447 20.0068C47.1051 20.6475 46.9008 21.348 46.6318 22.1084L45.6077 25.085H48.9128Z" fill="white"/>
<path d="M57.9225 30.0225C56.8363 30.0225 55.9933 29.6292 55.3933 28.8428H55.2847C55.3571 29.5719 55.3933 30.0146 55.3933 30.1709V33.71H53.57V21.2256H55.0441C55.0855 21.387 55.1709 21.7725 55.3002 22.3818H55.3933C55.9622 21.5068 56.8157 21.0693 57.9536 21.0693C59.0242 21.0693 59.857 21.46 60.4518 22.2412C61.0518 23.0225 61.3518 24.1188 61.3518 25.5303C61.3518 26.9417 61.0466 28.0433 60.4363 28.835C59.8311 29.6266 58.9932 30.0225 57.9225 30.0225ZM57.4803 22.5693C56.7562 22.5693 56.226 22.7829 55.8898 23.21C55.5588 23.637 55.3933 24.3193 55.3933 25.2568V25.5303C55.3933 26.5824 55.5588 27.3454 55.8898 27.8193C56.2208 28.2881 56.7614 28.5225 57.5113 28.5225C58.1424 28.5225 58.6286 28.262 58.9699 27.7412C59.3113 27.2204 59.482 26.4782 59.482 25.5146C59.482 24.5459 59.3113 23.8141 58.9699 23.3193C58.6337 22.8193 58.1372 22.5693 57.4803 22.5693Z" fill="white"/>
<path d="M67.584 30.0225C66.4978 30.0225 65.6547 29.6292 65.0547 28.8428H64.9461C65.0185 29.5719 65.0547 30.0146 65.0547 30.1709V33.71H63.2315V21.2256H64.7056C64.747 21.387 64.8323 21.7725 64.9616 22.3818H65.0547C65.6237 21.5068 66.4771 21.0693 67.615 21.0693C68.6857 21.0693 69.5184 21.46 70.1132 22.2412C70.7132 23.0225 71.0132 24.1188 71.0132 25.5303C71.0132 26.9417 70.7081 28.0433 70.0977 28.835C69.4926 29.6266 68.6547 30.0225 67.584 30.0225ZM67.1418 22.5693C66.4176 22.5693 65.8875 22.7829 65.5513 23.21C65.2202 23.637 65.0547 24.3193 65.0547 25.2568V25.5303C65.0547 26.5824 65.2202 27.3454 65.5513 27.8193C65.8823 28.2881 66.4228 28.5225 67.1728 28.5225C67.8038 28.5225 68.29 28.262 68.6314 27.7412C68.9728 27.2204 69.1434 26.4782 69.1434 25.5146C69.1434 24.5459 68.9728 23.8141 68.6314 23.3193C68.2952 22.8193 67.7986 22.5693 67.1418 22.5693Z" fill="white"/>
<path d="M77.7265 23.6709H81.9005V29.4053C81.2178 29.6292 80.5609 29.7881 79.9299 29.8818C79.304 29.9756 78.6265 30.0225 77.8972 30.0225C76.18 30.0225 74.8558 29.512 73.9248 28.4912C72.9938 27.4652 72.5283 26.0199 72.5283 24.1553C72.5283 22.3167 73.0533 20.8792 74.1033 19.8428C75.1532 18.8011 76.5989 18.2803 78.4403 18.2803C79.6247 18.2803 80.7471 18.5094 81.8074 18.9678L81.1557 20.5225C80.235 20.0954 79.3144 19.8818 78.3937 19.8818C77.1834 19.8818 76.2265 20.2646 75.5231 21.0303C74.8196 21.7959 74.4679 22.8428 74.4679 24.1709C74.4679 25.5667 74.7834 26.6292 75.4145 27.3584C76.0506 28.0824 76.9636 28.4443 78.1532 28.4443C78.7532 28.4443 79.3945 28.3688 80.0773 28.2178V25.2725H77.7265V23.6709Z" fill="white"/>
<path d="M89.5681 29.8662L89.2034 28.6631H89.1413C88.7276 29.1891 88.3112 29.5485 87.8922 29.7412C87.4733 29.9287 86.9353 30.0225 86.2785 30.0225C85.4354 30.0225 84.7759 29.7933 84.3001 29.335C83.8294 28.8766 83.594 28.2282 83.594 27.3896C83.594 26.499 83.9225 25.8271 84.5794 25.374C85.2362 24.9209 86.2371 24.6735 87.5819 24.6318L89.0638 24.585V24.124C89.0638 23.5719 88.9344 23.1605 88.6758 22.8896C88.4224 22.6136 88.0267 22.4756 87.4888 22.4756C87.0491 22.4756 86.6276 22.5407 86.2242 22.6709C85.8207 22.8011 85.4328 22.9548 85.0604 23.1318L84.4707 21.8193C84.9363 21.5745 85.4457 21.3896 85.9992 21.2646C86.5526 21.1344 87.075 21.0693 87.5664 21.0693C88.6577 21.0693 89.4801 21.3089 90.0336 21.7881C90.5922 22.2673 90.8715 23.0199 90.8715 24.0459V29.8662H89.5681ZM86.8526 28.6162C87.5146 28.6162 88.0448 28.4313 88.4431 28.0615C88.8465 27.6865 89.0482 27.1631 89.0482 26.4912V25.7412L87.9465 25.7881C87.0879 25.8193 86.4621 25.9652 86.069 26.2256C85.6811 26.4808 85.4871 26.874 85.4871 27.4053C85.4871 27.7907 85.6009 28.0902 85.8285 28.3037C86.0561 28.512 86.3974 28.6162 86.8526 28.6162Z" fill="white"/>
<path d="M95.0011 29.8662H93.1779V17.71H95.0011V29.8662Z" fill="white"/>
<path d="M99.2006 29.8662H97.3774V17.71H99.2006V29.8662Z" fill="white"/>
<path d="M105.324 30.0225C103.99 30.0225 102.945 29.6318 102.19 28.8506C101.44 28.0641 101.065 26.9834 101.065 25.6084C101.065 24.1969 101.414 23.0876 102.112 22.2803C102.811 21.473 103.77 21.0693 104.991 21.0693C106.123 21.0693 107.018 21.4157 107.675 22.1084C108.332 22.8011 108.66 23.7542 108.66 24.9678V25.96H102.942C102.968 26.7985 103.193 27.4443 103.617 27.8975C104.042 28.3454 104.639 28.5693 105.41 28.5693C105.916 28.5693 106.387 28.5225 106.822 28.4287C107.261 28.3297 107.732 28.1683 108.234 27.9443V29.4365C107.789 29.6501 107.339 29.8011 106.884 29.8896C106.429 29.9782 105.909 30.0225 105.324 30.0225ZM104.991 22.46C104.411 22.46 103.946 22.6449 103.594 23.0146C103.248 23.3844 103.041 23.9235 102.973 24.6318H106.868C106.858 23.9183 106.687 23.3792 106.356 23.0146C106.025 22.6449 105.57 22.46 104.991 22.46Z" fill="white"/>
<path d="M114.846 21.0693C115.213 21.0693 115.516 21.0954 115.754 21.1475L115.575 22.8584C115.317 22.7959 115.048 22.7646 114.768 22.7646C114.039 22.7646 113.447 23.0042 112.992 23.4834C112.542 23.9626 112.317 24.585 112.317 25.3506V29.8662H110.494V21.2256H111.921L112.162 22.749H112.255C112.539 22.2334 112.909 21.8245 113.364 21.5225C113.825 21.2204 114.318 21.0693 114.846 21.0693Z" fill="white"/>
<path d="M115.81 21.2256H117.796L119.542 26.124C119.806 26.8219 119.982 27.4782 120.07 28.0928H120.132C120.178 27.8063 120.264 27.46 120.388 27.0537C120.512 26.6422 121.169 24.6995 122.358 21.2256H124.329L120.659 31.0146C119.992 32.8115 118.88 33.71 117.323 33.71C116.92 33.71 116.527 33.6657 116.144 33.5771V32.124C116.418 32.1865 116.731 32.2178 117.083 32.2178C117.962 32.2178 118.58 31.7047 118.937 30.6787L119.255 29.8662L115.81 21.2256Z" fill="white"/>
<path d="M45.2081 14.1338H42V8.42285H45.2081V9.21191H42.9271V10.7666H45.0646V11.5479H42.9271V13.3408H45.2081V14.1338Z" fill="white"/>
<path d="M50.6158 14.1338H49.549L48.1292 11.7979L46.6977 14.1338H45.7047L47.5861 11.1729L45.8249 8.42285H46.8568L48.168 10.583L49.4792 8.42285H50.48L48.7072 11.1885L50.6158 14.1338Z" fill="white"/>
<path d="M55.1351 10.1494C55.1351 10.7458 54.9411 11.2028 54.5532 11.5205C54.1653 11.8382 53.6131 11.9971 52.8968 11.9971H52.3071V14.1338H51.38V8.42285H53.0131C53.7217 8.42285 54.2519 8.56868 54.6036 8.86035C54.9579 9.15202 55.1351 9.58171 55.1351 10.1494ZM52.3071 11.2119H52.7998C53.2756 11.2119 53.6248 11.1286 53.8472 10.9619C54.0696 10.7952 54.1808 10.5348 54.1808 10.1807C54.1808 9.85254 54.0812 9.60775 53.8821 9.44629C53.683 9.28483 53.3726 9.2041 52.9511 9.2041H52.3071V11.2119Z" fill="white"/>
<path d="M56.2678 14.1338V8.42285H57.1949V13.333H59.5962V14.1338H56.2678Z" fill="white"/>
<path d="M65.609 11.2705C65.609 12.2002 65.3775 12.9229 64.9146 13.4385C64.4543 13.9541 63.8013 14.2119 62.9556 14.2119C62.0996 14.2119 61.4414 13.9567 60.9811 13.4463C60.5233 12.9333 60.2945 12.2054 60.2945 11.2627C60.2945 10.32 60.5246 9.59603 60.985 9.09082C61.4479 8.58561 62.1073 8.33301 62.9634 8.33301C63.8065 8.33301 64.4582 8.58952 64.9185 9.10254C65.3788 9.61556 65.609 10.3382 65.609 11.2705ZM61.2798 11.2705C61.2798 11.9736 61.4207 12.5075 61.7026 12.8721C61.9845 13.234 62.4022 13.415 62.9556 13.415C63.5065 13.415 63.9215 13.2354 64.2008 12.876C64.4827 12.5166 64.6237 11.9814 64.6237 11.2705C64.6237 10.57 64.484 10.0387 64.2047 9.67676C63.928 9.31478 63.5142 9.13379 62.9634 9.13379C62.4073 9.13379 61.9871 9.31478 61.7026 9.67676C61.4207 10.0387 61.2798 10.57 61.2798 11.2705Z" fill="white"/>
<path d="M67.7542 11.0791H68.3982C68.8301 11.0791 69.143 10.9984 69.3369 10.8369C69.5309 10.6755 69.6279 10.4359 69.6279 10.1182C69.6279 9.79525 69.5231 9.56348 69.3137 9.42285C69.1042 9.28223 68.7887 9.21191 68.3671 9.21191H67.7542V11.0791ZM67.7542 11.8525V14.1338H66.8271V8.42285H68.4292C69.1611 8.42285 69.7029 8.56087 70.0546 8.83691C70.4063 9.11296 70.5822 9.52962 70.5822 10.0869C70.5822 10.7979 70.2149 11.3044 69.4805 11.6064L71.0826 14.1338H70.0274L68.6697 11.8525H67.7542Z" fill="white"/>
<path d="M75.117 14.1338H71.9089V8.42285H75.117V9.21191H72.836V10.7666H74.9735V11.5479H72.836V13.3408H75.117V14.1338Z" fill="white"/>
<path d="M78.4105 14.1338V8.42285H79.3376V14.1338H78.4105Z" fill="white"/>
<path d="M82.7979 14.1338H81.8707V9.22363H80.2027V8.42285H84.4659V9.22363H82.7979V14.1338Z" fill="white"/>
<path d="M92.4378 11.2705C92.4378 12.2002 92.2063 12.9229 91.7434 13.4385C91.283 13.9541 90.63 14.2119 89.7844 14.2119C88.9284 14.2119 88.2702 13.9567 87.8098 13.4463C87.3521 12.9333 87.1232 12.2054 87.1232 11.2627C87.1232 10.32 87.3534 9.59603 87.8137 9.09082C88.2766 8.58561 88.9361 8.33301 89.7921 8.33301C90.6352 8.33301 91.2869 8.58952 91.7473 9.10254C92.2076 9.61556 92.4378 10.3382 92.4378 11.2705ZM88.1085 11.2705C88.1085 11.9736 88.2495 12.5075 88.5314 12.8721C88.8133 13.234 89.2309 13.415 89.7844 13.415C90.3352 13.415 90.7503 13.2354 91.0296 12.876C91.3115 12.5166 91.4524 11.9814 91.4524 11.2705C91.4524 10.57 91.3128 10.0387 91.0335 9.67676C90.7568 9.31478 90.343 9.13379 89.7921 9.13379C89.2361 9.13379 88.8159 9.31478 88.5314 9.67676C88.2495 10.0387 88.1085 10.57 88.1085 11.2705Z" fill="white"/>
<path d="M98.3807 14.1338H97.2441L94.455 9.58301H94.4239L94.4433 9.83691C94.4795 10.3213 94.4976 10.764 94.4976 11.165V14.1338H93.6558V8.42285H94.7808L97.5622 12.9502H97.5855C97.5803 12.8903 97.57 12.6729 97.5545 12.2979C97.539 11.9202 97.5312 11.626 97.5312 11.415V8.42285H98.3807V14.1338Z" fill="white"/>
<defs>
<linearGradient id="paint0_linear_661_13642" x1="21.5791" y1="7.33398" x2="21.5791" y2="32.6673" gradientUnits="userSpaceOnUse">
<stop stop-color="#FB6361"/>
<stop offset="1" stop-color="#ED3E45"/>
</linearGradient>
</defs>
</svg>
