<svg width="96" height="96" fill="none" xmlns="http://www.w3.org/2000/svg"><path d="M47.274 88.879c23.261 0 42.068-1.782 42.068-4.058 0-2.178-18.807-4.059-42.068-4.059-23.262 0-41.97 1.881-41.97 4.059 0 2.276 18.807 4.058 41.97 4.058z" fill="#B0DE64"/><path d="M83.304 52.354c-1.88 0-3.662-.594-5.345-1.881l3.365-4.553c1.485 1.088 2.376.792 3.168.495 2.573-1.188 4.751-5.642 4.751-9.899.1-3.86-.99-7.127-2.771-9.007-.792-.693-1.485-1.09-2.277-1.09-2.079.1-4.058 2.772-4.553 3.663l-4.95-2.87c.396-.594 3.762-6.137 9.206-6.434 2.277-.1 4.652.792 6.533 2.672 2.97 2.97 4.652 7.721 4.454 13.165-.198 6.434-3.464 12.67-8.017 14.848a7.322 7.322 0 0 1-3.564.89z" fill="#C3DAF6"/><path d="M22.924 42.851s10.492 36.823 40.484 26.33C93.4 58.69 77.662 21.768 77.662 21.768s-16.135 19.5-54.739 21.083z" fill="#C3DAF6"/><path d="M46.383 20.679c-12.967 4.553-25.34 14.55-23.559 21.578 1.782 7.028 19.204 4.455 31.775-.89 12.57-5.346 24.746-14.353 23.063-19.698-1.683-5.445-12.967-7.325-31.28-.99z" fill="#DBE7F8"/><path d="M92.114 40.575c-.1 1.88-.792 3.464-1.881 4.949-.297.297.297.693.594.396 1.188-1.584 1.88-3.267 1.98-5.247 0-.494-.594-.593-.693-.099zM88.946 46.613c-.198.297-.297.495-.495.693-.297.297.1.791.495.494.297-.296.495-.593.594-.89.297-.297-.297-.693-.594-.297zM55.687 39.585c-.198.099-.297.198-.494.297-.396.198-.198.791.197.593.198-.099.297-.197.495-.296.396-.198.198-.792-.198-.594z" fill="#fff"/><path d="m59.053 63.935-.792.297c-1.782.693-3.86-.198-4.454-1.98l-.99-2.573c-.297-.792-1.188-1.188-2.079-.891-.495.198-.99-.1-1.188-.594-.198-.495.1-.99.594-1.188a1.658 1.658 0 0 0 .99-2.079l-.99-2.573c-.693-1.782.297-3.762 2.079-4.455l.792-.297c.495-.197.99.1 1.188.594.198.495-.1.99-.594 1.188l-.792.297a1.658 1.658 0 0 0-.99 2.079l.99 2.573c.297.891.297 1.881-.1 2.772.793.297 1.585.99 1.882 1.98l.99 2.573c.296.792 1.187 1.188 2.078.891l.792-.297c.495-.198.99.1 1.188.594.198.297 0 .89-.594 1.089zM65.19 61.56l-.89.395c-.496.198-.99-.099-1.189-.594-.198-.495.1-.99.594-1.188l.792-.297a1.658 1.658 0 0 0 .99-2.078l-.99-2.574c-.297-.89-.297-1.88.099-2.771-.792-.297-1.584-.99-1.88-1.98l-.99-2.574c-.297-.791-1.188-1.187-2.08-.89l-.791.297c-.495.198-.99-.1-1.188-.594-.198-.495.1-.99.594-1.188l.792-.297c1.782-.693 3.86.198 4.454 1.98l.99 2.573c.297.792 1.188 1.188 2.079.891.495-.198.99.099 1.188.594.198.495-.1.99-.594 1.188a1.658 1.658 0 0 0-.99 2.078l.99 2.574a3.436 3.436 0 0 1-1.98 4.454z" fill="#3E426A"/><path fill-rule="evenodd" clip-rule="evenodd" d="M90.07 24.009c-1.758-1.759-3.96-2.574-6.045-2.483-2.087.09-3.937 1.093-5.363 2.234a.65.65 0 0 1-.812-1.015c1.543-1.235 3.653-2.41 6.119-2.518 2.467-.107 5.018.86 7.02 2.863 3.126 3.125 4.847 8.066 4.645 13.646-.102 3.316-.994 6.58-2.452 9.305-1.456 2.72-3.5 4.943-5.935 6.107l-.011.006a9.189 9.189 0 0 1-3.833.85c-.838 0-1.813-.104-2.703-.438a.65.65 0 0 1 .457-1.217c.694.26 1.5.355 2.246.355a7.889 7.889 0 0 0 3.289-.731c2.115-1.014 3.98-2.997 5.344-5.546 1.362-2.546 2.203-5.615 2.299-8.733v-.004c.193-5.307-1.451-9.868-4.265-12.681z" fill="#34374C"/><path fill-rule="evenodd" clip-rule="evenodd" d="M81.597 26.832c.73-.56 1.64-1.062 2.598-1.062 1.032 0 1.877.525 2.705 1.25.015.013.03.027.043.042 1.936 2.043 3.05 5.496 2.95 9.463-.001 2.23-.57 4.5-1.475 6.374-.897 1.857-2.172 3.422-3.654 4.106l-.016.007c-.362.155-.852.346-1.439.362-.603.016-1.253-.153-1.95-.617a.65.65 0 0 1 .722-1.081c.492.328.88.407 1.193.398.326-.009.626-.113.953-.253 1.09-.506 2.187-1.761 3.02-3.487.827-1.712 1.346-3.794 1.346-5.818V36.5c.096-3.734-.958-6.8-2.573-8.521-.743-.647-1.28-.908-1.825-.908-.527 0-1.151.29-1.807.793-.638.49-1.221 1.118-1.65 1.64a.65.65 0 1 1-1.005-.822c.462-.566 1.117-1.275 1.864-1.849z" fill="#34374C"/><path fill-rule="evenodd" clip-rule="evenodd" d="M77.407 21.17a.65.65 0 0 1 .853.343l-.598.254.598-.253.001.001.003.006.009.022a16.203 16.203 0 0 1 .163.403c.11.278.267.686.455 1.208.376 1.043.88 2.542 1.388 4.372 1.016 3.658 2.059 8.659 2.153 14.002.094 5.342-.76 11.065-3.575 16.134-2.825 5.084-7.595 9.46-15.234 12.133-7.632 2.67-14.07 2.341-19.424.306-5.342-2.03-9.553-5.737-12.786-9.742-3.233-4.006-5.51-8.335-6.976-11.656a55.974 55.974 0 0 1-1.617-4.075 39.255 39.255 0 0 1-.488-1.485l-.025-.083-.006-.022-.002-.006v-.002l.625-.179-.626.178a.65.65 0 1 1 1.25-.356m0 0 .002.005.005.018.022.074c.02.066.05.166.092.297.082.26.207.645.377 1.131.341.973.862 2.354 1.58 3.98 1.438 3.256 3.66 7.476 6.799 11.364 3.139 3.89 7.174 7.42 12.235 9.344 5.048 1.918 11.169 2.258 18.534-.318C70.55 65.994 75.06 61.82 77.72 57.03c2.669-4.805 3.504-10.28 3.412-15.48-.091-5.198-1.108-10.084-2.106-13.677a60.051 60.051 0 0 0-1.358-4.279 41.734 41.734 0 0 0-.594-1.55l-.008-.018-.002-.004.516-.22-.516.22a.65.65 0 0 1 .343-.854" fill="#34374C"/><path fill-rule="evenodd" clip-rule="evenodd" d="M68.302 16.108c5.376.362 9.01 2.233 9.98 5.367.507 1.612-.06 3.39-1.202 5.131-1.153 1.757-2.966 3.6-5.194 5.415-4.462 3.635-10.704 7.253-17.033 9.944C48.515 44.66 40.946 46.66 34.71 47.1c-3.112.22-5.943.053-8.135-.646-2.2-.701-3.86-1.98-4.381-4.037-.501-1.975.01-4.092 1.168-6.172 1.16-2.083 3.001-4.19 5.28-6.193 4.562-4.008 10.971-7.686 17.524-9.987h.003c9.204-3.185 16.695-4.324 22.132-3.957zm-21.705 5.184c9.107-3.15 16.414-4.238 21.618-3.887 5.263.355 8.112 2.146 8.826 4.455l.001.004c.334 1.06.01 2.412-1.05 4.03-1.05 1.6-2.75 3.347-4.927 5.12-4.348 3.541-10.478 7.1-16.72 9.754-6.233 2.65-13.66 4.608-19.725 5.035-3.037.214-5.681.04-7.65-.588-1.961-.625-3.146-1.66-3.515-3.118-.39-1.538-.022-3.306 1.043-5.22 1.064-1.91 2.792-3.905 5.004-5.849 4.422-3.886 10.681-7.483 17.095-9.736z" fill="#34374C"/><path d="M73.9 22.955c-1.286-4.256-10.789-5.444-26.527 0-3.168 1.09-9.206 4.158-13.066 4.752-1.584.296-3.069-1.09-3.069-2.673 0-1.485-.297-2.87-2.078-3.267-2.574-.593-2.97 2.08-1.98 2.97.99.89 4.751 5.543 1.683 6.137-3.069.594-5.049-2.97-5.445-5.246-.296-2.376-1.187-7.424-3.86-5.94-2.574 1.486.99 3.861 2.574 6.83 1.583 2.97-.297 5.148-3.86 4.356-3.564-.792-7.029-5.94-7.92-2.178-.791 3.86 3.564 2.673 7.82 4.059 7.523 2.375 8.513 8.116 8.513 8.116 1.386 5.544 16.332 3.069 27.023-1.385 10.888-4.85 21.48-12.274 20.193-16.53zM16.588 16.224c-.395-2.177.693-3.563 1.287-5.642.594-1.98-2.078-4.355-3.068-.594-.891 3.96 1.781 6.236 1.781 6.236zM3.028 20.877c-4.752.693-2.97 4.355-.99 4.454 1.98.099 4.751-3.267 8.611-1.485 0-.099-2.87-3.662-7.621-2.97zM25.398 14.245c1.188 0 1.88-1.584.693-2.97-1.188-1.287-3.662 0-2.772 1.485.891 1.781 2.08 1.485 2.08 1.485zM36.385 14.047c.99-.792 1.287-3.86-2.97-1.881-4.156 1.98-4.057 6.335-4.057 6.335.791-2.178 5.939-3.564 7.027-4.454z" fill="#BC7D46"/><path d="M46.878 29.39c.792 0 .99-.298 1.484-1.387.594-1.286-.692-1.484-.692-1.484-.297-.1-.792 0-.891.297-.396 1.187-.693 2.573.099 2.573zM54.797 29.29c-.99 2.079-2.574 3.86-4.455 5.246-.792.594-2.672 1.386-4.355 1.683-.89.198-2.376 0-2.97-.495-.693-.495-.89-1.188-.099-2.771.792-1.485-1.286-2.079-2.177.099-.495 1.188-.495 2.276.396 3.464 1.188 1.386 3.761 1.287 5.246 1.089 1.287-.198 2.573-.693 3.86-1.386 2.87-1.485 5.345-4.355 6.434-6.137 1.188-1.683-1.286-2.079-1.88-.792zM50.837 28.4h.198s.594.098.99-.99c.099-.297.297-.594.495-.891.297-.495-.1-.891-.594-.891 0 0-.89-.1-1.386.693-.495.89-.594 2.078.297 2.078z" fill="#fff"/><path d="M73.9 22.955c-1.286-4.256-10.789-5.444-26.527 0-.594.297-1.287.495-1.881.693 30.784-9.403 24.746 5.84 24.746 5.84 2.574-2.375 4.157-4.751 3.663-6.533z" fill="#D39D5D"/></svg>