<svg width="1283" height="371" viewBox="0 0 1283 371" fill="none" xmlns="http://www.w3.org/2000/svg">
<path d="M130.993 370.068C103.428 370.068 78.5518 365.698 56.3651 356.958C34.1783 347.881 15.6893 334.771 0.898126 317.626L64.9372 241.99C74.3498 253.419 83.5943 262.16 92.6707 268.21C101.747 273.925 111.16 276.783 120.908 276.783C146.457 276.783 159.231 262.16 159.231 232.913V98.7842H39.2207V9.02865H276.72V225.854C276.72 274.261 264.282 310.399 239.406 334.267C214.53 358.134 178.392 370.068 130.993 370.068ZM516.347 370.068C487.773 370.068 461.216 365.53 436.676 356.453C412.472 347.377 391.462 334.603 373.645 318.131C355.829 301.323 341.878 281.657 331.793 259.134C322.044 236.611 317.17 212.071 317.17 185.514C317.17 158.621 322.044 134.081 331.793 111.895C341.878 89.3717 355.829 69.8742 373.645 53.4022C391.462 36.594 412.472 23.6518 436.676 14.5754C461.216 5.49895 487.773 0.960748 516.347 0.960748C545.257 0.960748 571.814 5.49895 596.017 14.5754C620.221 23.6518 641.231 36.594 659.048 53.4022C676.864 69.8742 690.647 89.3717 700.396 111.895C710.481 134.081 715.523 158.621 715.523 185.514C715.523 212.071 710.481 236.611 700.396 259.134C690.647 281.657 676.864 301.323 659.048 318.131C641.231 334.603 620.221 347.377 596.017 356.453C571.814 365.53 545.257 370.068 516.347 370.068ZM516.347 273.757C527.44 273.757 537.693 271.74 547.105 267.706C556.854 263.672 565.258 257.957 572.318 250.562C579.713 242.83 585.428 233.586 589.462 222.828C593.496 211.735 595.513 199.297 595.513 185.514C595.513 171.732 593.496 159.462 589.462 148.704C585.428 137.611 579.713 128.367 572.318 120.971C565.258 113.239 556.854 107.356 547.105 103.322C537.693 99.2885 527.44 97.2715 516.347 97.2715C505.253 97.2715 494.832 99.2885 485.083 103.322C475.671 107.356 467.267 113.239 459.871 120.971C452.812 128.367 447.265 137.611 443.231 148.704C439.197 159.462 437.18 171.732 437.18 185.514C437.18 199.297 439.197 211.735 443.231 222.828C447.265 233.586 452.812 242.83 459.871 250.562C467.267 257.957 475.671 263.672 485.083 267.706C494.832 271.74 505.253 273.757 516.347 273.757ZM758.715 362V9.02865H877.717V362H758.715ZM935.004 362V9.02865H1032.83L1212.34 223.837H1166.96V9.02865H1282.93V362H1185.11L1005.6 147.192H1050.98V362H935.004Z" fill="white" fill-opacity="0.25"/>
</svg>
