<svg width="448" height="481" viewBox="0 0 448 481" fill="none" xmlns="http://www.w3.org/2000/svg">
<path d="M81.5569 232.107C64.2761 232.107 48.6813 229.359 34.7723 223.863C20.8634 218.155 9.27262 209.911 0 199.13L40.1462 151.567C46.047 158.754 51.8424 164.251 57.5324 168.056C63.2224 171.649 69.1232 173.446 75.2347 173.446C91.251 173.446 99.2592 164.251 99.2592 145.86V61.5147H24.0245V5.07337H172.913V141.42C172.913 171.861 165.116 194.585 149.521 209.594C133.926 224.603 111.271 232.107 81.5569 232.107Z" fill="white" fill-opacity="0.25"/>
<path d="M323.136 232.107C305.223 232.107 288.574 229.253 273.19 223.546C258.017 217.838 244.845 209.805 233.676 199.447C222.507 188.878 213.761 176.511 207.439 162.348C201.327 148.185 198.271 132.753 198.271 116.053C198.271 99.1422 201.327 83.7107 207.439 69.7589C213.761 55.5957 222.507 43.3351 233.676 32.9769C244.845 22.4074 258.017 14.2689 273.19 8.56133C288.574 2.85377 305.223 0 323.136 0C341.259 0 357.908 2.85377 373.081 8.56133C388.255 14.2689 401.426 22.4074 412.595 32.9769C423.765 43.3351 432.405 55.5957 438.517 69.7589C444.839 83.7107 448 99.1422 448 116.053C448 132.753 444.839 148.185 438.517 162.348C432.405 176.511 423.765 188.878 412.595 199.447C401.426 209.805 388.255 217.838 373.081 223.546C357.908 229.253 341.259 232.107 323.136 232.107ZM323.136 171.544C330.09 171.544 336.518 170.275 342.419 167.739C348.53 165.202 353.799 161.608 358.224 156.958C362.86 152.096 366.443 146.282 368.972 139.518C371.501 132.542 372.765 124.72 372.765 116.053C372.765 107.386 371.501 99.6707 368.972 92.9062C366.443 85.9303 362.86 80.1171 358.224 75.4665C353.799 70.6045 348.53 66.9051 342.419 64.3685C336.518 61.8318 330.09 60.5634 323.136 60.5634C316.181 60.5634 309.648 61.8318 303.537 64.3685C297.636 66.9051 292.367 70.6045 287.731 75.4665C283.306 80.1171 279.828 85.9303 277.299 92.9062C274.771 99.6707 273.506 107.386 273.506 116.053C273.506 124.72 274.771 132.542 277.299 139.518C279.828 146.282 283.306 152.096 287.731 156.958C292.367 161.608 297.636 165.202 303.537 167.739C309.648 170.275 316.181 171.544 323.136 171.544Z" fill="white" fill-opacity="0.25"/>
<path d="M68.0518 481V259.04H142.654V481H68.0518Z" fill="white" fill-opacity="0.25"/>
<path d="M178.568 481V259.04H239.893L352.429 394.118H323.979V259.04H396.685V481H335.359L222.823 345.921H251.273V481H178.568Z" fill="white" fill-opacity="0.25"/>
</svg>
