<svg viewBox="0 0 144 32" fill="none" xmlns="http://www.w3.org/2000/svg">
  <path d="m46.44 7.469-5.252 16.973h4.863l.52-2.026h5.138l.616 2.026h4.864L52 7.47h-5.56zm1.8 10.245.973-3.923.972 3.924H48.24zM62.96 15.915l-2.156-8.446h-5.398l4.555 16.876h6.014l4.556-16.876h-5.399l-2.172 8.446zM73.822 7.469 68.57 24.442h4.863l.519-2.026h5.139l.616 2.026h4.863L79.366 7.47h-5.544zm1.783 10.245.99-3.923.972 3.924h-1.962zM34.622 7.469v4.393h1.475v5.674c.006.274-.049.545-.162.794a2.204 2.204 0 0 1-.437.633 1.962 1.962 0 0 1-.633.454 13.38 13.38 0 0 1-1.977.162h-1.135v1.264a8.543 8.543 0 0 1-.827 3.6h3.323a6.68 6.68 0 0 0 4.783-1.93 6.843 6.843 0 0 0 1.459-2.156 6.487 6.487 0 0 0 .551-2.642V7.469h-6.42z" fill="#fff"/>
  <path fill-rule="evenodd" clip-rule="evenodd" d="M128.747 17.197a5.134 5.134 0 0 0-.811-1.378 5.59 5.59 0 0 0-1.216-1.102 6.207 6.207 0 0 0-1.621-.73l-2.61-.891a1.134 1.134 0 0 1-.437-.438.404.404 0 0 1 .081-.535c.22-.178.482-.295.762-.34.301-.041.606-.041.907 0 .612.088 1.219.213 1.816.372.59.153 1.169.343 1.735.568 0-.703.042-1.286.075-1.751.018-.243.033-.454.038-.632.012-.369.007-.68.003-.923l-.003-.26V8.004a12.958 12.958 0 0 0-2.496-.6 15.88 15.88 0 0 0-2.481-.097 8.2 8.2 0 0 0-2.01.276 5.392 5.392 0 0 0-1.621.697c-.435.29-.823.646-1.151 1.053a4.566 4.566 0 0 0-.665 1.314 5.538 5.538 0 0 0-.211 1.459 4.863 4.863 0 0 0 2.659 4.523c.939.567 1.926 1.05 2.951 1.443.18.064.354.145.518.243.157.098.295.224.406.373.108.15.165.332.162.518a.702.702 0 0 1-.308.551c-.192.111-.411.167-.632.163a10.464 10.464 0 0 1-2.011-.34c-.859-.309-2.934-1.217-3.745-1.622v.195a7.886 7.886 0 0 1-.648 3.128 8.761 8.761 0 0 1-.875 1.508 15.253 15.253 0 0 0 7.603 1.864 6.777 6.777 0 0 0 4.604-1.831c.495-.5.881-1.096 1.135-1.751.283-.711.416-1.473.389-2.238a4.424 4.424 0 0 0-.292-1.637zm9.63-3.712V7.47h4.863v16.974h-4.863v-6.015h-2.902v6.015h-4.864V7.47h4.864v6.015h2.902zM101.398 21.2a7.993 7.993 0 0 0 1.735 2.561c.141.177.292.345.454.503a2.987 2.987 0 0 1-.908.567 8.117 8.117 0 0 1-1.33.47c-.48.115-.967.197-1.459.243h-1.394a7.912 7.912 0 0 1-1.621-.178 5.82 5.82 0 0 1-1.394-.519 12.294 12.294 0 0 1-1.475-1.021 9.88 9.88 0 0 1-1.103-1.054c-.253-.266-.477-.532-.694-.79l-.181-.215-.073-.086a22.75 22.75 0 0 0-.706-.806v3.567h-4.863V7.517h5.934c.34-.02.68-.02 1.02 0a6.955 6.955 0 0 1 4.443 2.724 7.282 7.282 0 0 1 1.102 2.35c.223.874.267 1.784.13 2.675a6.583 6.583 0 0 1-.989 2.691 6.661 6.661 0 0 1-1.864 1.832c.205.217.421.423.648.616.313.262.662.475 1.038.633.221.087.458.131.697.13.267 0 .534-.033.794-.098.27-.052.531-.14.778-.26.319-.187.628-.393.924-.615.095.343.214.679.357 1.005zm-8.321-5.437c.198-.084.377-.21.523-.367l.081.016a1.621 1.621 0 0 0 0-2.302 1.524 1.524 0 0 0-1.15-.47h-1.217v3.242h1.135c.216.005.43-.036.628-.12zm17.173 2.757c.079-.177.117-.368.113-.562V7.421h4.863v10.7a6.09 6.09 0 0 1-.535 2.431 6.322 6.322 0 0 1-1.41 2.01 6.386 6.386 0 0 1-4.539 1.881 6.481 6.481 0 0 1-2.318-.454 6.577 6.577 0 0 1-2.043-1.378 6.276 6.276 0 0 1-1.394-2.01 6.122 6.122 0 0 1-.519-2.48V7.42h4.863v10.537a1.381 1.381 0 0 0 .454 1.022 1.509 1.509 0 0 0 2.124 0 1.31 1.31 0 0 0 .341-.46zM17.47 30.928l8.593-5.025a5.804 5.804 0 0 0 2.918-5.042v-9.938a5.82 5.82 0 0 0-2.918-5.058L17.47.905a5.852 5.852 0 0 0-5.837 0l-8.592 4.96a5.869 5.869 0 0 0-2.918 5.058v9.938a5.837 5.837 0 0 0 2.918 5.042l8.592 5.025a5.787 5.787 0 0 0 5.837 0zm-6.079-13.246a1.46 1.46 0 0 0-.519-.421 1.62 1.62 0 0 0-.73-.098v-2.448a1.394 1.394 0 0 0 1.33-.632 2.676 2.676 0 0 0 .26-1.54v-2.188a5.367 5.367 0 0 1 .227-1.622c.156-.516.415-.996.761-1.41a4.96 4.96 0 0 1 1.443-1.151 7.896 7.896 0 0 1 2.173-.81l.73 1.88c-.286.1-.546.26-.763.47a2.69 2.69 0 0 0-.486.697 3.921 3.921 0 0 0-.243.908c-.053.343-.08.69-.081 1.037v2.19a3.42 3.42 0 0 1-.568 1.944 3.76 3.76 0 0 1-1.832 1.395c.765.25 1.43.738 1.897 1.394a3.42 3.42 0 0 1 .567 1.945v2.124c.002.347.03.694.082 1.038.042.306.123.606.243.891.12.264.284.506.486.713.214.21.476.366.762.454l-.746 1.978a9.093 9.093 0 0 1-2.172-.81 5.285 5.285 0 0 1-1.443-1.168 4.004 4.004 0 0 1-.762-1.41 5.363 5.363 0 0 1-.227-1.621v-2.189a3.613 3.613 0 0 0-.097-.875 1.928 1.928 0 0 0-.292-.665z" fill="#fff"/>
</svg>
