<?xml version="1.0" encoding="utf-8"?>
<svg viewBox="0 0 144 32" xmlns="http://www.w3.org/2000/svg">
  <defs>
    <linearGradient id="logo-gradient-2" x1="14.643" y1="-.108" x2="14.643" y2="31.813" gradientUnits="userSpaceOnUse">
      <stop stop-color="#F28F41"/>
      <stop offset="1" stop-color="#EB5E30"/>
    </linearGradient>
    <clipPath id="logo-clip">
      <path fill="#fff" d="M0 0h143.377v32H0z"/>
    </clipPath>
  </defs>
  <g clip-path="url(#logo-clip)">
    <path d="m26.231 26.142-8.717 5.018a5.779 5.779 0 0 1-5.907 0l-8.725-5.018a6.122 6.122 0 0 1-2.867-5.119V10.987a6.022 6.022 0 0 1 2.953-5.111L11.693.858a5.814 5.814 0 0 1 5.907 0l8.717 5.018a6.022 6.022 0 0 1 2.954 5.111v10.036a6.267 6.267 0 0 1-3.04 5.12Z" fill="url(#logo-gradient-2)"/>
    <text style="fill: rgb(255, 255, 255); font-family: Arial, sans-serif; font-size: 28px; white-space: pre;" transform="matrix(0.898022, 0, 0, 0.881514, 3.56481, 2.791542)" x="29.976" y="24.967">Study</text>
    <text style="fill: rgb(240, 126, 59); font-family: Arial, sans-serif; font-size: 28px; white-space: pre;" transform="matrix(0.911552, 0, 0, 0.927386, 8.584725, 0.3747)" x="94.228" y="27.157">Hub</text>
    <text style="fill: rgb(255, 255, 255); font-family: Arial, sans-serif; font-size: 28px; white-space: pre;" transform="matrix(0.872609, 0, 0, 0.899727, 1.77296, 2.045556)" x="5.071" y="25.732">S</text>
  </g>
</svg>