<svg viewBox="0 0 144 32" fill="none" xmlns="http://www.w3.org/2000/svg">
  <path d="m46.44 7.47-5.252 16.973h4.863l.52-2.027h5.138l.616 2.027h4.864L52 7.469h-5.56zm1.8 10.245.973-3.923.972 3.923H48.24zM62.96 15.915 60.804 7.47h-5.398l4.555 16.877h6.014l4.556-16.877h-5.399l-2.172 8.447zM73.822 7.47 68.57 24.442h4.863l.519-2.027h5.139l.616 2.027h4.863L79.366 7.469h-5.544zm1.783 10.245.99-3.923.972 3.923h-1.962zM34.622 7.47v4.393h1.476v5.674c.005.273-.05.545-.163.794a2.204 2.204 0 0 1-.437.632 1.962 1.962 0 0 1-.633.454 13.38 13.38 0 0 1-1.977.162h-1.135v1.265a8.546 8.546 0 0 1-.827 3.599h3.323a6.68 6.68 0 0 0 4.783-1.93 6.84 6.84 0 0 0 1.459-2.156 6.483 6.483 0 0 0 .551-2.642V7.469h-6.42z" fill="#fff"/>
  <path fill-rule="evenodd" clip-rule="evenodd" d="M128.747 17.196a5.135 5.135 0 0 0-.811-1.378 5.59 5.59 0 0 0-1.216-1.102 6.21 6.21 0 0 0-1.621-.73l-2.61-.891a1.143 1.143 0 0 1-.438-.438.409.409 0 0 1 .082-.535c.219-.178.482-.296.761-.34.302-.041.607-.041.908 0 .612.088 1.219.213 1.816.372.59.153 1.169.343 1.735.568 0-.703.042-1.286.075-1.751.017-.244.033-.454.038-.632.012-.369.007-.68.003-.923a13.042 13.042 0 0 1-.003-.26V8.003a12.958 12.958 0 0 0-2.496-.6 15.88 15.88 0 0 0-2.481-.097 8.2 8.2 0 0 0-2.01.276 5.392 5.392 0 0 0-1.621.697c-.435.29-.823.646-1.151 1.053a4.566 4.566 0 0 0-.665 1.314 5.498 5.498 0 0 0-.211 1.459 4.862 4.862 0 0 0 2.659 4.523c.939.567 1.926 1.05 2.951 1.442.18.065.353.146.518.244.157.098.295.224.406.373.108.15.165.332.162.518a.702.702 0 0 1-.308.551c-.192.111-.411.167-.633.163a10.467 10.467 0 0 1-2.01-.34c-.859-.309-2.934-1.217-3.745-1.622v.195a7.886 7.886 0 0 1-.648 3.128 8.702 8.702 0 0 1-.876 1.508 15.26 15.26 0 0 0 7.604 1.864 6.777 6.777 0 0 0 4.604-1.831c.495-.5.881-1.096 1.135-1.751.283-.711.416-1.473.389-2.238a4.424 4.424 0 0 0-.292-1.637zm9.629-3.712V7.469h4.864v16.974h-4.864v-6.015h-2.901v6.015h-4.864V7.469h4.864v6.015h2.901zm-36.978 7.715a7.993 7.993 0 0 0 1.735 2.561c.141.177.292.345.453.503a2.97 2.97 0 0 1-.907.567 8.117 8.117 0 0 1-1.33.47c-.48.116-.967.197-1.459.244h-1.394a7.91 7.91 0 0 1-1.621-.179 5.819 5.819 0 0 1-1.394-.519 12.295 12.295 0 0 1-1.476-1.02 9.888 9.888 0 0 1-1.102-1.055 16.768 16.768 0 0 1-.694-.79l-.181-.215-.073-.086c-.249-.292-.484-.569-.706-.805v3.566h-4.863V7.516h5.933c.34-.02.682-.02 1.022 0a6.955 6.955 0 0 1 4.442 2.724 7.278 7.278 0 0 1 1.102 2.35c.223.874.267 1.784.13 2.675a6.582 6.582 0 0 1-.99 2.691 6.66 6.66 0 0 1-1.863 1.832c.205.217.421.423.648.616.312.262.662.475 1.038.633.221.088.458.132.697.13.267 0 .534-.033.794-.098.27-.052.531-.14.778-.26.319-.187.628-.393.924-.615.095.343.214.679.357 1.005zm-8.321-5.437c.198-.084.377-.21.523-.367l.081.016a1.621 1.621 0 0 0 0-2.302 1.523 1.523 0 0 0-1.15-.47h-1.217v3.242h1.135c.215.005.43-.036.628-.12zm17.173 2.757c.078-.177.117-.368.113-.561V7.42h4.863v10.7a6.09 6.09 0 0 1-.535 2.431 6.322 6.322 0 0 1-1.41 2.01 6.378 6.378 0 0 1-4.539 1.881 6.493 6.493 0 0 1-2.319-.454 6.586 6.586 0 0 1-2.042-1.378 6.276 6.276 0 0 1-1.394-2.01 6.122 6.122 0 0 1-.519-2.48V7.42h4.863v10.537a1.365 1.365 0 0 0 .454 1.021 1.509 1.509 0 0 0 2.124 0c.146-.126.263-.283.341-.46z" fill="url(#a)"/>
  <path d="m26.063 25.902-8.592 5.026a5.787 5.787 0 0 1-5.837 0l-8.592-5.026A5.837 5.837 0 0 1 .124 20.86v-9.937a5.869 5.869 0 0 1 2.918-5.058L11.634.904a5.852 5.852 0 0 1 5.837 0l8.592 4.96a5.82 5.82 0 0 1 2.918 5.059v9.937a5.803 5.803 0 0 1-2.918 5.042z" fill="url(#b)"/>
  <path d="M10.872 17.261c.204.099.381.243.52.422.138.2.237.426.291.664.068.287.1.581.097.876v2.188a5.366 5.366 0 0 0 .227 1.621c.157.517.416.997.762 1.41.409.472.897.867 1.443 1.168a9.103 9.103 0 0 0 2.172.81l.746-1.977a1.88 1.88 0 0 1-.762-.454 2.511 2.511 0 0 1-.486-.713 3.583 3.583 0 0 1-.243-.892 7.095 7.095 0 0 1-.082-1.038v-2.123a3.42 3.42 0 0 0-.567-1.946 3.76 3.76 0 0 0-1.897-1.394 3.761 3.761 0 0 0 1.832-1.394 3.42 3.42 0 0 0 .568-1.946v-2.188c.001-.347.028-.694.08-1.038a3.92 3.92 0 0 1 .244-.907c.124-.257.288-.492.486-.698.217-.21.477-.37.762-.47l-.73-1.88a7.893 7.893 0 0 0-2.172.81 4.96 4.96 0 0 0-1.443 1.151 4.005 4.005 0 0 0-.761 1.41 5.367 5.367 0 0 0-.227 1.622v2.188a2.674 2.674 0 0 1-.26 1.54 1.393 1.393 0 0 1-1.33.633v2.448c.248-.024.498.01.73.097z" fill="#fff"/>
  <defs>
    <linearGradient id="a" x1="114.904" y1="7.501" x2="114.904" y2="25.645" gradientUnits="userSpaceOnUse">
      <stop stop-color="#F48F41"/>
      <stop offset="1" stop-color="#F05E2D"/>
    </linearGradient>
    <linearGradient id="b" x1="14.599" y1=".481" x2="14.599" y2="31.894" gradientUnits="userSpaceOnUse">
      <stop stop-color="#F48F41"/>
      <stop offset="1" stop-color="#F05E2D"/>
    </linearGradient>
  </defs>
</svg>
