<svg width="76" height="60" viewBox="0 0 76 60" fill="none" xmlns="http://www.w3.org/2000/svg">
<rect y="0.521973" width="76" height="59.4783" rx="4.13043" fill="white"/>
<path d="M22.0443 22.6776C21.4271 22.2149 20.8082 21.9835 20.191 21.9835H17.4167V38.653H20.1926C20.8098 38.653 21.4287 38.4216 22.0459 37.9589C22.6631 37.4962 22.9717 36.8021 22.9717 35.875V24.7615C22.9701 23.836 22.6599 23.1403 22.0443 22.6776ZM27.4657 35.9053C27.4657 38.9067 25.6188 43.4542 19.7726 43.4446H12.3914V17.0435H19.9285C25.5663 17.0435 27.4625 21.5846 27.4641 24.5876L27.4657 35.9053ZM43.4818 21.7585H35.0061V27.8889H40.1873V32.6072H35.0061V38.736H43.4834V43.4542H33.5919C31.8165 43.5005 30.3403 42.0932 30.2957 40.3124V20.3496C30.2528 18.5705 31.6575 17.0929 33.4312 17.0482H43.4834L43.4818 21.7585ZM59.9688 40.1545C57.869 45.061 54.1067 44.0845 52.4221 40.1545L46.2928 17.0498H51.474L56.2002 35.1953L60.9042 17.0498H66.087L59.9688 40.1545Z" fill="#0D1117"/>
</svg>
