<svg width="172" height="40" viewBox="0 0 172 40" fill="none" xmlns="http://www.w3.org/2000/svg">
<g clip-path="url(#clip0_661_13803)">
<path d="M34.9308 8.58294L21.5346 1.17424C19.927 0.288925 17.9933 0.288925 16.3857 1.17424L2.98952 8.58294C1.42856 9.42166 0.426758 11.0758 0.426758 12.8464V27.6638C0.450056 29.4578 1.42856 31.0886 2.98952 31.9273L16.3857 39.336C17.9933 40.2214 19.927 40.2214 21.5346 39.336L34.9308 31.9273C36.515 31.0886 37.4935 29.4345 37.5168 27.6638V12.8464C37.4935 11.0525 36.4917 9.42166 34.9308 8.58294ZM35.0473 27.6871C35.0473 28.619 34.5347 29.4811 33.696 29.9237L20.2765 37.3324C19.4378 37.7984 18.4127 37.7984 17.5739 37.3324L4.201 29.9237C3.38558 29.4811 2.87303 28.619 2.84973 27.6871V12.8464C2.84973 11.9145 3.36228 11.0525 4.201 10.6098L17.5972 3.20115C18.436 2.7352 19.4611 2.7352 20.2998 3.20115L33.696 10.6098C34.5114 11.0525 35.024 11.9145 35.0473 12.8464V27.6871Z" fill="white"/>
<path d="M30.6441 11.7048L20.8357 6.27636C19.6708 5.62402 18.2496 5.62402 17.0614 6.27636L7.22977 11.7048C6.08818 12.3338 5.36595 13.522 5.34265 14.8267V25.6834C5.34265 26.9881 6.06488 28.1996 7.22977 28.8053L17.0614 34.2337C18.2263 34.8861 19.6475 34.8861 20.8357 34.2337L30.6441 28.8053C31.7857 28.1763 32.5079 26.9881 32.5312 25.6834V14.8267C32.5312 13.522 31.8089 12.3105 30.6441 11.7048ZM30.7372 25.6834C30.7372 26.3591 30.3412 26.9881 29.7587 27.3143L19.9504 32.7427C19.3446 33.0921 18.5991 33.0921 17.9701 32.7427L8.16169 27.3143C7.55594 26.9881 7.18318 26.3591 7.18318 25.6834V14.8267C7.18318 14.151 7.57924 13.522 8.16169 13.1958L17.9701 7.76742C18.5758 7.41795 19.3213 7.41795 19.9504 7.76742L29.7587 13.1958C30.3645 13.522 30.7372 14.151 30.7372 14.8267V25.6834Z" fill="white"/>
<path d="M30.1315 13.4755L19.8805 18.9504V7.7209C19.2747 7.41803 18.5758 7.41803 17.9701 7.7442L16.7586 8.41984L7.15989 24.2856L6.97351 25.6835C6.97351 26.3125 7.34628 27.2212 8.06851 27.2678L18.04 21.9326V32.766C18.3195 32.9058 18.7389 33.232 19.0418 33.232C19.4378 33.232 19.8106 33.1621 20.1601 32.999L21.3017 31.9739L30.7373 16.7837L30.9236 14.7568C30.9236 14.2676 30.5043 13.8249 30.1315 13.4755ZM18.04 19.9289L9.02372 24.7283L18.0167 9.841V19.9289H18.04ZM19.8805 30.8789V20.9773L29.0831 16.0615L19.8805 30.8789Z" fill="white"/>
<path d="M7.18359 14.7569L29.7126 27.361L29.7592 27.3377C30.295 27.0348 30.6678 26.499 30.7377 25.8932L8.09221 13.2192C7.55636 13.5454 7.20689 14.1279 7.18359 14.7569Z" fill="white"/>
<path d="M167.263 29.9005C167.542 29.8539 167.845 29.8306 168.148 29.8306C168.637 29.8306 168.963 29.9238 169.173 30.1101C169.359 30.2732 169.453 30.5295 169.453 30.7858C169.453 31.2051 169.196 31.5779 168.777 31.6944V31.7177C169.057 31.8109 169.22 32.0672 169.29 32.4399C169.359 32.7661 169.453 33.0923 169.569 33.4184H169.103C169.01 33.1389 168.917 32.8593 168.87 32.5797C168.754 32.0905 168.567 31.9041 168.148 31.8808H167.729V33.4184H167.263V29.9005ZM167.729 31.508H168.195C168.684 31.508 168.987 31.2517 168.987 30.8324C168.987 30.3664 168.661 30.18 168.171 30.1567C168.008 30.1567 167.868 30.1567 167.705 30.2033L167.729 31.508Z" fill="white"/>
<path d="M168.263 34.9327C166.446 34.9327 164.955 33.4417 164.955 31.6245C164.955 29.8072 166.446 28.3162 168.263 28.3162C170.081 28.3162 171.572 29.8072 171.572 31.6245C171.572 33.465 170.104 34.9327 168.263 34.9327ZM168.263 28.852C166.726 28.852 165.491 30.0868 165.491 31.6245C165.491 33.1621 166.726 34.3969 168.263 34.3969C169.801 34.3969 171.036 33.1621 171.036 31.6245C171.036 30.1101 169.801 28.8753 168.263 28.852Z" fill="white"/>
<path d="M45.3445 35.6551C45.2746 25.4506 45.3212 15.2229 45.3445 5.01847C49.2353 5.01847 53.126 4.92528 57.0167 5.01847C62.0258 5.13496 66.5455 7.02208 69.4811 11.2157C72.8359 16.0383 73.0223 22.7481 70.2732 27.8503C67.9667 32.1138 63.2372 34.863 58.4845 35.4687C54.1278 36.0278 49.6779 35.725 45.3445 35.6551ZM49.5614 31.6944C55.1063 32.0905 62.282 31.8109 65.7534 26.8019C67.8036 23.8431 68.1997 19.8592 67.0814 16.4344C65.6835 12.1243 61.7928 9.30527 57.2963 9.00239C54.7335 8.81601 52.1475 8.9325 49.5614 8.9325V31.6944Z" fill="white"/>
<path d="M150.673 35.9812C147.878 35.4687 145.455 33.7913 144.01 31.345C141.82 27.6406 141.96 22.6083 144.36 19.0903C146.853 15.4326 151.396 13.9881 155.659 14.8501C159.829 15.6889 162.555 19.3932 163.021 23.4703C163.161 24.5886 163.208 25.7069 163.161 26.8252H146.69C146.736 29.5977 148.763 31.5314 151.256 32.3934C153.329 33.1156 155.636 32.7661 157.383 31.4382C158.059 30.9256 158.665 30.3199 159.2 29.6675L162.206 31.9973C160.389 34.2339 157.966 35.725 155.077 36.0977C153.586 36.2608 152.118 36.2375 150.673 35.9812ZM146.643 23.68H158.898C158.781 22.1424 158.432 20.6746 157.383 19.4864C155.915 17.8323 153.003 17.2731 150.953 18.1118C148.623 19.067 146.759 20.9775 146.643 23.68Z" fill="white"/>
<path d="M105.733 35.9346C101.516 35.0492 98.2539 31.4614 97.4851 27.2678C96.7163 22.981 98.8131 18.4379 102.541 16.178C105.127 14.6171 108.109 14.3142 110.998 14.9199C115.285 15.8053 118.43 19.6028 119.105 23.7731C119.851 28.3628 117.754 32.3001 113.933 34.7231C111.557 36.1908 108.412 36.4937 105.733 35.9346ZM105.733 32.0438C108.272 32.9757 111.79 32.4632 113.421 30.18C115.098 27.8502 115.378 25.0079 114.399 22.3053C113.444 19.7193 110.718 18.2282 108.062 18.2981C105.127 18.3447 102.587 20.3483 101.842 23.1907C100.933 26.5222 102.191 30.7857 105.733 32.0438Z" fill="white"/>
<path d="M136.089 35.6551C136.206 31.3683 136.765 25.5206 135.81 21.4434C135.251 19.533 133.62 18.438 131.709 18.2982C129.193 18.1352 127.073 19.6728 126.258 22.0259C126.002 22.7714 125.838 23.5635 125.792 24.3557V35.6551H121.854V15.153H125.792V18.1119C127.586 14.6405 132.152 14.1046 135.484 15.0832C138.21 15.8753 139.934 18.7642 140.003 21.4434C140.12 26.1729 140.003 30.9257 140.003 35.6551H136.089Z" fill="white"/>
<path d="M73.3722 35.6552C73.3023 34.3505 73.3023 33.0225 73.3489 31.7178L90.7057 8.95588H73.8614V5.01855H96.0409V8.95588L78.754 31.7178H96.2506V35.6552H73.3722Z" fill="white"/>
</g>
<defs>
<clipPath id="clip0_661_13803">
<rect width="172" height="40" fill="white"/>
</clipPath>
</defs>
</svg>
