<svg width="135" height="30" viewBox="0 0 135 30" fill="none" xmlns="http://www.w3.org/2000/svg">
<g clip-path="url(#clip0_661_13824)">
<path d="M10.1583 1.93848C4.71436 1.93848 0 1.93848 0 1.93848V29.2705H4.99497V20.2908C4.99497 20.2908 7.12766 20.2908 10.2144 20.2908C14.3676 20.2908 19.3625 17.5407 19.3625 10.9182C19.3064 3.90279 15.7706 1.93848 10.1583 1.93848ZM9.54096 15.5764H4.8266V6.20385C4.8266 6.20385 8.194 6.20385 9.6532 6.20385C11.1124 6.20385 14.3114 6.87733 14.3114 10.8621C14.3114 14.7907 12.1788 15.5764 9.54096 15.5764Z" fill="#E90000"/>
<path d="M40.8017 7.88753L41.3629 3.17317C41.3629 3.17317 37.7149 1.43335 33.8985 1.43335C30.0822 1.43335 20.429 4.23951 20.429 15.5764C20.429 26.9133 29.7454 29.6634 34.123 29.6634C38.5006 29.6634 41.4191 28.0358 41.4191 28.0358L40.8578 23.3776C40.8578 23.3776 36.6486 25.0051 33.8985 25.0051C31.1485 25.0051 25.8168 23.2092 25.8168 15.5764C25.8168 7.94365 31.0924 6.20383 33.9547 6.20383C36.8169 6.20383 40.8017 7.88753 40.8017 7.88753Z" fill="#E90000"/>
<path d="M42.5414 1.93848H47.5925L53.0926 21.0204L58.312 1.93848H61.5672L67.1234 21.0204L72.5112 1.93848H77.4501L69.4806 29.2144H64.9907L59.9957 11.6478L54.9446 29.2144H50.2864L42.5414 1.93848Z" fill="#E90000"/>
<path d="M84.3533 9.40283C78.9655 9.40283 74.5317 13.4437 74.5317 19.505C74.5317 25.5663 79.0777 29.6072 84.3533 29.6072C90.4708 29.6072 94.1188 24.8929 94.1188 19.505C94.1188 14.1172 90.6391 9.40283 84.3533 9.40283ZM84.3533 25.6225C81.3227 25.6225 79.4706 23.0969 79.4706 19.505C79.4706 15.9131 81.2665 13.3876 84.3533 13.3876C87.3278 13.3876 89.3483 15.5764 89.3483 19.505C89.3483 23.4337 86.6544 25.6225 84.3533 25.6225Z" fill="#E90000"/>
<path d="M95.8585 9.79583V29.2145H100.685V16.0255C100.685 16.0255 100.91 14.0051 106.017 14.0051L107.027 9.40297C107.027 9.40297 102.874 9.2346 100.573 11.7601V9.79583H95.8585Z" fill="#E90000"/>
<path d="M108.599 0.0864258H113.313V24.1072C113.313 24.1072 113.537 25.6786 115.67 25.6786L115.277 29.495C115.277 29.495 113.986 29.495 113.144 29.495C112.303 29.495 108.599 29.1022 108.599 24.8368C108.599 20.5714 108.599 0.0864258 108.599 0.0864258Z" fill="#E90000"/>
<path d="M130.038 0.0864258V10.6376C130.038 10.6376 128.354 9.40289 125.379 9.40289C122.293 9.40289 116.063 10.7498 116.063 19.3367C116.063 27.9236 122.742 29.495 125.379 29.495C128.017 29.495 130.374 28.2042 130.374 28.2042V29.2705H134.696V0.0864258H130.038ZM125.716 25.6225C122.629 25.6225 120.89 22.0306 120.89 19.5051C120.89 16.9795 121.956 13.3876 125.716 13.3876C128.635 13.3876 130.318 16.1938 130.318 19.2806C130.318 22.4235 128.803 25.6225 125.716 25.6225Z" fill="#E90000"/>
</g>
<defs>
<clipPath id="clip0_661_13824">
<rect width="135" height="30" fill="white"/>
</clipPath>
</defs>
</svg>
