<svg width="227" height="26" viewBox="0 0 227 26" fill="none" xmlns="http://www.w3.org/2000/svg">
<g clip-path="url(#clip0_661_13843)">
<path d="M38.2833 6.02157L38.7557 6.07682L39.2043 6.16132L39.6291 6.26532L40.0312 6.39099L40.4117 6.54374L40.7641 6.71491L41.097 6.91316L41.4029 7.13524L41.6915 7.37466L41.9542 7.64007L42.1931 7.92499L42.4082 8.23699L42.6006 8.57282L42.7714 8.92491L42.9184 9.30732L43.0416 9.70274L43.1454 10.1307L43.2254 10.5727L43.2805 11.0461L43.3141 11.5347L43.3259 12.0514V12.1771L43.3216 12.2952L43.3097 12.4089L43.2762 12.6267L43.2535 12.7231L43.2254 12.8195L43.1962 12.904L43.1162 13.0632L43.0784 13.1315L43.0254 13.1987L42.9746 13.2615L42.9184 13.3124L42.8557 13.3655L42.7941 13.4045L42.726 13.4457L42.6514 13.4717L42.5714 13.5009L42.4925 13.5247L42.4082 13.5345L42.3163 13.5464H32.7034V13.4673H32.6818V15.4574L32.6861 15.7239L32.7153 15.9839L32.7542 16.2309L32.8169 16.4627L32.8915 16.6848L32.9877 16.895L33.0936 17.0889L33.2266 17.2742L33.366 17.4464L33.5325 17.61L33.713 17.7573L33.9065 17.8949L34.1205 18.0206L34.354 18.1343L34.5983 18.2362L34.8653 18.3282L35.1475 18.3997L35.449 18.4702L35.7668 18.5211L36.0998 18.5601L36.4511 18.5937L36.8208 18.6099L37.2056 18.6175H37.3483L37.491 18.6099H37.625L37.7634 18.6056L37.8931 18.6012L38.0228 18.5882L38.1536 18.5839L38.4044 18.5601L38.5222 18.5503L38.6433 18.5308L38.8692 18.4972L38.9751 18.4799L39.0886 18.4582L39.3967 18.3911L39.4983 18.3618L39.5945 18.3369L39.6864 18.3109L39.7761 18.2773L39.8669 18.2481L39.9177 18.2307L39.9685 18.2069L40.0269 18.1896L40.082 18.1636L40.1447 18.1397L40.2074 18.1105L40.2744 18.0769L40.3425 18.0477L40.5641 17.9296L40.6506 17.883L40.7273 17.8375L40.9111 17.7357L40.9997 17.6804L41.097 17.6219L41.1932 17.5591L41.3975 17.4247L41.5067 17.3543L41.6202 17.2817L41.7326 17.2016L41.8677 17.0759L42.005 16.9632L42.0677 16.9123L42.1239 16.8657L42.1866 16.8202L42.2439 16.7747L42.3455 16.6946L42.446 16.6274L42.4925 16.5982L42.5379 16.5765L42.579 16.5472L42.6557 16.5137L42.6925 16.4963L42.726 16.4844L42.753 16.4747L42.8103 16.4627H42.9022L43.0157 16.4747L43.0708 16.4844L43.1216 16.4963L43.1746 16.5137L43.2178 16.5299L43.2978 16.5765L43.3378 16.6057L43.4059 16.6729L43.4351 16.7065L43.4632 16.7477L43.5075 16.8376L43.5238 16.8874L43.5356 16.9459L43.5529 17.0044L43.5605 17.0597L43.5702 17.1225V17.1897L43.5767 17.2644L43.5702 17.3327L43.5648 17.4074L43.5529 17.48L43.5432 17.5472L43.473 17.7692L43.4394 17.8375L43.4059 17.9122L43.367 17.987L43.3216 18.0596L43.2708 18.1343L43.2178 18.2026L43.1043 18.3499L42.9692 18.4972L42.8222 18.6467L42.6514 18.7941L42.5595 18.8667L42.4709 18.9457L42.312 19.0595L42.1477 19.1732L41.9769 19.2816L41.8007 19.391L41.6202 19.4874L41.4267 19.5838L41.2289 19.6683L41.0246 19.7528L40.8149 19.833L40.5933 19.9077L40.3663 19.9749L40.1328 20.0377L39.8961 20.1006L39.6507 20.1515L39.1416 20.2436L38.8746 20.2772L38.6022 20.3107L38.3244 20.3324L38.0358 20.3573L37.7461 20.3692L37.4499 20.379H37.1429L36.6175 20.3736L36.1117 20.3454L35.6296 20.2988L35.1712 20.2317L34.7335 20.1515L34.3205 20.0507L33.9346 19.9294L33.566 19.7897L33.2266 19.6347L32.9077 19.4582L32.6115 19.2653L32.3348 19.0497L32.0905 18.8201L31.8646 18.572L31.6592 18.299L31.4841 18.0141L31.3317 17.7064L31.1944 17.3836L31.0928 17.038L31.0085 16.6772L30.9458 16.2981L30.9123 15.8951L30.9004 15.4747V10.3701L30.9123 10.2206L30.922 10.0852L30.9393 9.94216L30.9631 9.80024L30.9847 9.66482L31.0182 9.52724L31.0517 9.39616L31.0982 9.26074L31.1436 9.13074L31.1944 9.00074L31.2517 8.87507L31.3749 8.62374L31.4495 8.50024L31.5241 8.37891L31.6041 8.26082L31.6884 8.14707L31.7803 8.03441L31.8765 7.92066L32.0786 7.70291L32.1878 7.59457L32.3348 7.45374L32.6526 7.19049L32.8212 7.07241L32.9974 6.95866L33.1801 6.85032L33.3736 6.74849L33.566 6.65207L33.7692 6.56757L33.9789 6.48091L34.1951 6.40832L34.4167 6.33791L34.6481 6.27074L34.8826 6.21441L35.1258 6.16132L35.3691 6.11799L35.6252 6.08441L35.8847 6.04866L36.1452 6.02157L36.4176 6.00424L36.6975 5.98799L36.9797 5.98041L37.2683 5.97607L37.785 5.98799L38.2833 6.02157ZM36.0782 7.76141L35.6414 7.83291L35.2156 7.94232L34.8026 8.07774L34.4102 8.24457L34.0319 8.43741L33.6838 8.71041L33.3898 8.99316L33.1401 9.29974L32.9423 9.61824L32.7996 9.95407L32.7077 10.3072L32.6818 10.6767V11.7232H41.5283L41.4321 10.6604L41.1597 9.75691L40.7014 9.01699L40.0528 8.44174L39.2259 8.02682L38.2044 7.78307L37.0034 7.69857L36.5311 7.71482L36.0782 7.76141Z" fill="white"/>
<path d="M220.046 0.187661C219.92 0.312244 219.794 0.493161 219.794 0.675161C219.793 0.989327 220.161 1.41508 220.842 2.11491C223.677 4.85141 225.104 8.20324 225.094 12.2441C225.084 16.7161 223.583 20.3073 220.667 23.0904C220.054 23.6407 219.802 24.0719 219.801 24.4413C219.801 24.6233 219.925 24.8118 220.051 24.9927C220.168 25.1195 220.419 25.2452 220.6 25.2452C221.274 25.2473 222.219 24.4478 223.451 22.8922C225.852 19.9433 226.937 16.6868 226.998 12.2495C227.054 7.80891 225.666 4.79833 222.946 1.68916C221.968 0.578744 221.153 0.00132747 220.595 0.000244141C220.415 0.000244141 220.227 0.0619941 220.046 0.187661Z" fill="white"/>
<path d="M15.3597 7.12334C15.3597 6.50909 15.7294 6.26534 16.4666 6.26534C16.8233 6.26534 19.6868 6.26534 20.051 6.26534C20.6629 6.26534 20.9688 6.81676 20.9688 7.82426C22.0757 6.65209 23.2593 5.95117 24.4905 5.95117C25.5347 5.95117 26.3519 6.26534 26.9064 6.87959C27.5204 7.49276 27.769 8.37459 27.769 9.36259C27.769 10.0386 27.4577 10.4091 26.9064 10.4091C26.5378 10.4091 26.2935 10.1599 26.1714 9.73201C25.9249 8.86751 25.8028 8.43742 25.7401 8.37459C25.4958 7.94667 25.0018 7.69859 24.39 7.69859C23.7144 7.69859 23.0399 7.94667 22.4659 8.43742C22.0973 8.68659 21.6033 9.23692 20.9688 10.0559C20.9688 10.6138 20.9688 13.3828 20.9688 18.3662C22.9696 18.3662 24.0841 18.3662 24.3024 18.3662C25.0407 18.3662 25.4093 18.6803 25.4093 19.2318C25.4093 19.8449 25.0407 20.1569 24.3024 20.1569C23.5144 20.1569 17.1746 20.1569 16.3801 20.1569C15.644 20.1569 15.2754 19.8449 15.2754 19.2946C15.2754 18.6803 15.644 18.429 16.3801 18.429C16.5628 18.429 17.4697 18.429 19.103 18.429C19.103 18.4247 19.103 18.3976 19.103 18.3499C19.1052 18.3499 19.1117 18.3499 19.1257 18.3499C19.1257 12.1327 19.1257 8.67901 19.1257 7.98784C17.4697 7.98784 16.5823 7.98784 16.4666 7.98784C15.7294 7.98784 15.3597 7.68126 15.3597 7.12334Z" fill="white"/>
<path d="M211.499 13.048C210.434 12.775 214.807 7.59776 207.035 1.39893C207.035 1.39893 208.055 4.64568 202.913 11.891C197.769 19.1342 205.2 23.448 205.2 23.448C205.2 23.448 201.713 21.5858 205.767 14.9547C206.493 13.7511 207.442 12.6613 208.622 10.2097C208.622 10.2097 209.665 11.6852 209.12 14.8864C208.305 19.7235 212.654 18.339 212.722 18.4062C214.24 20.1991 211.463 23.3494 211.295 23.448C211.126 23.5444 219.225 18.5654 213.471 11.072C213.076 11.4674 212.565 13.321 211.499 13.048Z" fill="white"/>
<path d="M1.0442 6.28263C1.18148 6.28263 1.83654 6.28263 3.03531 6.28263C3.03531 5.23613 3.03531 4.65655 3.03531 4.53847C3.03531 1.50188 4.58972 0.00146484 7.61747 0.00146484C8.84868 0.00146484 9.9145 0.250632 10.7068 0.682882C11.751 1.29605 12.3293 2.30355 12.3293 3.47572C12.3293 4.2698 12.0191 4.5818 11.4689 4.5818C11.1003 4.5818 10.7317 4.33263 10.5436 3.90038C10.3004 3.10522 10.0561 2.67296 9.93071 2.46821C9.56211 2.03596 8.8249 1.79113 7.75908 1.79113C5.89876 1.79113 4.97995 2.71197 4.97995 4.5818C4.97995 4.69013 4.97995 5.25347 4.97995 6.2653C7.12996 6.2653 8.32117 6.2653 8.56006 6.2653C9.35781 6.2653 9.72641 6.57188 9.72641 7.1233C9.72641 7.73646 9.35781 7.9878 8.56006 7.9878C8.32117 7.9878 7.12996 7.9878 4.97995 7.9878C4.97995 14.7987 4.97995 18.5763 4.97995 19.3325C4.97995 20.0095 4.66863 20.379 4.11735 20.379C3.50445 20.379 3.25691 20.0095 3.25691 19.3325C3.25691 18.5763 3.25691 14.8182 3.25691 8.0073C3.25367 8.0073 1.15338 8.00513 1.0442 8.00513C0.368605 8.00513 0 7.69855 0 7.14713C0 6.52638 0.368605 6.28263 1.0442 6.28263Z" fill="white"/>
<path d="M196.605 0.190835C196.73 0.315418 196.856 0.496335 196.856 0.678335C196.857 0.992501 196.489 1.41825 195.808 2.11808C192.973 4.85458 191.547 8.20642 191.556 12.2473C191.566 16.7192 193.067 20.3105 195.983 23.0936C196.596 23.6439 196.848 24.0751 196.849 24.4445C196.849 24.6265 196.725 24.815 196.599 24.9959C196.481 25.1227 196.232 25.2483 196.05 25.2483C195.376 25.2505 194.431 24.451 193.199 22.8953C190.798 19.9465 189.713 16.69 189.652 12.2527C189.596 7.81208 190.984 4.8015 193.703 1.69233C194.682 0.581918 195.498 0.0045013 196.055 0.00341797C196.235 0.00341797 196.423 0.065168 196.605 0.190835Z" fill="white"/>
<path d="M53.8234 6.02157L54.2958 6.07682L54.7444 6.16132L55.1681 6.26532L55.5713 6.39099L55.9518 6.54374L56.3031 6.71491L56.6361 6.91316L56.942 7.13524L57.2317 7.37466L57.4944 7.64007L57.7332 7.92499L57.9473 8.23699L58.1408 8.57282L58.3116 8.92491L58.4586 9.30732L58.5818 9.70274L58.6856 10.1307L58.7645 10.5727L58.8207 11.0461L58.8542 11.5347L58.8661 12.0514V12.1771L58.8607 12.2952L58.8488 12.4089L58.8153 12.6267L58.7937 12.7231L58.7645 12.8195L58.7353 12.904L58.6564 13.0632L58.6175 13.1315L58.5645 13.1987L58.5137 13.2615L58.4586 13.3124L58.3959 13.3655L58.3332 13.4045L58.2662 13.4457L58.1916 13.4717L58.1116 13.5009L58.0316 13.5247L57.9473 13.5345L57.8565 13.5464H48.2425V13.4673H48.2209V15.4574L48.2306 15.7239L48.2555 15.9839L48.3009 16.2309L48.356 16.4627L48.4306 16.6848L48.5279 16.895L48.6338 17.0889L48.7657 17.2742L48.9127 17.4464L49.0727 17.61L49.2532 17.7573L49.4456 17.8949L49.6607 18.0206L49.8942 18.1343L50.1374 18.2362L50.4055 18.3282L50.6876 18.3997L50.9881 18.4702L51.307 18.5211L51.6388 18.5601L51.9912 18.5937L52.3598 18.6099L52.7457 18.6175H52.8884L53.03 18.6099H53.1651L53.3024 18.6056L53.4332 18.6012L53.5629 18.5882L53.6926 18.5839L53.9434 18.5601L54.0623 18.5503L54.1823 18.5308L54.5228 18.4799L54.6287 18.4582L54.7325 18.4344L54.8406 18.4127L54.9368 18.3911L55.0384 18.3618L55.1346 18.3369L55.2265 18.3109L55.3152 18.2773L55.407 18.2481L55.4578 18.2307L55.5086 18.2069L55.5659 18.1896L55.6211 18.1636L55.6838 18.1397L55.7465 18.1105L55.8146 18.0769L55.8816 18.0477L56.0307 17.9707L56.1107 17.9296L56.1907 17.883L56.275 17.8375L56.3594 17.7866L56.4502 17.7357L56.5399 17.6804L56.6361 17.6219L56.7323 17.5591L56.9377 17.4247L57.0458 17.3543L57.1593 17.2817L57.2728 17.2016L57.4079 17.0759L57.5452 16.9632L57.6079 16.9123L57.663 16.8657L57.7257 16.8202L57.784 16.7747L57.8846 16.6946L57.9862 16.6274L58.0316 16.5982L58.0781 16.5765L58.1191 16.5472L58.1959 16.5137L58.2316 16.4963L58.2662 16.4844L58.2921 16.4747L58.3505 16.4627H58.4413L58.5548 16.4747L58.611 16.4844L58.6607 16.4963L58.7137 16.5137L58.758 16.5299L58.8369 16.5765L58.878 16.6057L58.945 16.6729L58.9742 16.7065L59.0034 16.7477L59.0466 16.8376L59.0639 16.8874L59.0758 16.9459L59.0931 17.0044L59.0996 17.0597L59.1093 17.1225V17.1897L59.1169 17.2644L59.1093 17.3327L59.105 17.4074L59.0931 17.48L59.0834 17.5472L59.0131 17.7692L58.9796 17.8375L58.945 17.9122L58.9072 17.987L58.8153 18.1343L58.758 18.2026L58.6445 18.3499L58.5094 18.4972L58.3624 18.6467L58.1916 18.7941L58.0997 18.8667L58.01 18.9457L57.8511 19.0595L57.6868 19.1732L57.516 19.2816L57.3398 19.391L57.1593 19.4874L56.9668 19.5838L56.769 19.6683L56.5637 19.7528L56.354 19.833L56.1324 19.9077L55.9064 19.9749L55.6719 20.0377L55.4362 20.1006L55.1898 20.1515L54.6817 20.2436L54.4136 20.2772L54.1412 20.3107L53.8645 20.3324L53.5802 20.3573L52.9889 20.379H52.683L52.1577 20.3736L51.6518 20.3454L51.1697 20.2988L50.7114 20.2317L50.2725 20.1515L49.865 20.0507L49.4748 19.9294L49.1062 19.7897L48.7657 19.6347L48.4479 19.4582L48.1517 19.2653L47.8793 19.0497L47.6307 18.8201L47.4037 18.572L47.1994 18.299L47.0232 18.0141L46.8718 17.7064L46.741 17.3836L46.6329 17.038L46.5486 16.6772L46.4859 16.2981L46.4524 15.8951L46.4395 15.4747V10.3701L46.4524 10.2206L46.4622 10.0852L46.4784 9.94216L46.5022 9.80024L46.5238 9.66482L46.5584 9.52724L46.5919 9.39616L46.6373 9.26074L46.6837 9.13074L46.7346 9.00074L46.7918 8.87507L46.9151 8.62374L46.9897 8.50024L47.0642 8.37891L47.1442 8.26082L47.2286 8.14707L47.3193 8.03441L47.4166 7.92066L47.6188 7.70291L47.7269 7.59457L47.8739 7.45374L48.1928 7.19049L48.3614 7.07241L48.5376 6.95866L48.7203 6.85032L48.9127 6.74849L49.1062 6.65207L49.3083 6.56757L49.518 6.48091L49.7353 6.40832L49.9569 6.33791L50.1882 6.27074L50.4217 6.21441L50.666 6.16132L50.9092 6.11799L51.1643 6.08441L51.4248 6.04866L51.6853 6.02157L51.9577 6.00424L52.2377 5.98799L52.5187 5.98041L52.8084 5.97607L53.324 5.98799L53.8234 6.02157ZM51.6172 7.76141L51.1816 7.83291L50.7546 7.94232L50.3428 8.07774L49.9493 8.24457L49.571 8.43741L49.2067 8.71041L48.9008 8.99316L48.65 9.29974L48.4652 9.61824L48.3279 9.95407L48.2479 10.3072L48.2209 10.6767V11.7232H57.0674L56.9712 10.6604L56.6988 9.75691L56.2404 9.01699L55.593 8.44174L54.766 8.02682L53.7434 7.78307L52.5436 7.69857L52.0712 7.71482L51.6172 7.76141Z" fill="white"/>
<path d="M171.643 5.88399L171.677 5.89157L171.745 5.91324L171.778 5.92949L171.807 5.94682L171.841 5.96307L171.874 5.98799L171.904 6.00965L171.937 6.0389L171.966 6.0649L172 6.09415L172.055 6.16132L172.113 6.24149L172.142 6.28699L172.168 6.32815L172.192 6.37907L172.221 6.42457L172.227 6.47115L172.248 6.55999L172.265 6.6109L172.277 6.6564L172.294 6.70299L172.306 6.74849L172.323 6.79507L172.339 6.8449L172.39 6.98032L172.407 7.03124L172.441 7.12332L172.453 7.16882L172.47 7.2154L172.492 7.30424L172.511 7.3454L172.515 7.3909L172.527 7.4299L172.8 7.2999L173.333 7.05074L173.588 6.93482L173.842 6.82865L174.087 6.72465L174.33 6.62824L174.569 6.53832L174.801 6.45924L175.028 6.37907L175.249 6.3119L175.463 6.24149L175.68 6.18624L176.088 6.0844L176.288 6.04324L176.474 6.00965L176.662 5.9804L176.842 5.96307L177.019 5.94682L177.195 5.9349H177.358L177.864 5.94682L178.34 5.97607L178.795 6.0259L179.224 6.09415L179.633 6.18624L180.019 6.29457L180.376 6.42457L180.716 6.5719L181.029 6.73657L181.319 6.92507L181.584 7.13524L181.827 7.35732L182.049 7.60107L182.247 7.86757L182.422 8.15249L182.573 8.45474L182.702 8.77107L182.804 9.1134L182.883 9.4709L182.946 9.84574L182.979 10.2401L182.992 10.6528V15.803L182.984 16.0088L182.975 16.2017L182.957 16.3956L182.934 16.5808L182.904 16.7693L182.867 16.9459L182.82 17.1225L182.769 17.2937L182.712 17.4583L182.652 17.6176L182.581 17.7768L182.502 17.9296L182.418 18.0834L182.326 18.2307L182.23 18.3737L182.128 18.5092L182.02 18.6467L181.902 18.7767L181.777 18.9078L181.652 19.0335L181.517 19.1516L181.374 19.2697L181.244 19.3737L181.113 19.4636L180.972 19.5546L180.829 19.6391L180.682 19.7192L180.535 19.794L180.376 19.8666L180.217 19.9294L180.053 19.9922L179.713 20.106L179.349 20.1981L179.169 20.236L178.975 20.2728L178.783 20.2988L178.385 20.3454L178.181 20.3617L177.971 20.3736L177.761 20.379H177.286L177.023 20.3692L176.77 20.3497L176.519 20.3324L176.271 20.3064L176.025 20.2728L175.789 20.2317L175.312 20.1298L175.078 20.067L174.851 20.0042L174.624 19.9294L174.403 19.8492L174.183 19.7604L173.967 19.6683L173.752 19.5676L173.542 19.4582L173.333 19.3444L173.128 19.2263L172.923 19.1007L172.725 18.9631L172.527 18.8201V24.7611L172.521 24.8748L172.511 24.9832L172.499 25.0796L172.482 25.1771L172.458 25.2681L172.437 25.3526L172.407 25.4371L172.378 25.5129L172.339 25.5877L172.306 25.6472L172.26 25.7101L172.221 25.761L172.168 25.8141L172.118 25.8574L172.062 25.8986L172.004 25.9278L171.941 25.9549L171.879 25.9787L171.812 25.9907L171.739 26.0004H171.59L171.522 25.9961L171.455 25.9787L171.392 25.9614L171.33 25.9376L171.216 25.8704L171.165 25.8314L171.116 25.7859L171.069 25.7274L171.028 25.6722L170.99 25.6093L170.956 25.5411L170.927 25.4663L170.898 25.3818L170.877 25.2973L170.852 25.2052L170.836 25.1045L170.826 25.0005L170.814 24.8867L170.809 24.773V7.1114L170.814 6.99765L170.818 6.89582L170.83 6.79507L170.843 6.69757L170.859 6.60657L170.881 6.52207L170.906 6.4419L170.932 6.36174L170.99 6.22415L171.024 6.1689L171.065 6.11149L171.103 6.06057L171.149 6.02157L171.2 5.9804L171.245 5.94682L171.3 5.91757L171.414 5.88399L171.477 5.87207H171.58L171.614 5.87857L171.643 5.88399ZM176.503 7.77115L176.247 7.7874L175.998 7.81124L175.76 7.8459L175.533 7.87949L175.312 7.92499L175.102 7.98132L174.897 8.04307L174.7 8.11349L174.512 8.19149L174.348 8.26624L174.177 8.35724L174.008 8.45907L173.832 8.57715L173.656 8.71474L173.475 8.86207L173.287 9.02674L173.094 9.20332L172.896 9.39182L172.684 9.59657L172.465 9.81215V16.895H172.527V16.8712L173.036 17.1734L173.53 17.4464L174.008 17.6977L174.465 17.9122L174.91 18.1007L175.341 18.2524L175.753 18.3835L176.145 18.4875L176.525 18.5601L176.888 18.6012L177.235 18.6175L177.534 18.6099L177.824 18.6012L178.103 18.572L178.373 18.5384L178.636 18.4972L178.884 18.4409L179.122 18.3781L179.349 18.299L179.566 18.2145L179.769 18.1105L179.957 18.0043L180.184 17.8613L180.382 17.7064L180.557 17.5428L180.711 17.3662L180.841 17.1777L180.95 16.9795L181.034 16.7693L181.101 16.5548L181.152 16.3197L181.176 16.076L181.189 15.8247V10.6767L181.176 10.3798L181.148 10.1014L181.092 9.84574L181.017 9.60199L180.917 9.37449L180.796 9.15782L180.648 8.95957L180.484 8.77757L180.292 8.61399L180.075 8.45474L179.839 8.31607L179.645 8.21965L179.441 8.13082L179.224 8.05607L178.998 7.98782L178.754 7.92499L178.498 7.87407L178.234 7.8329L177.954 7.79932L177.664 7.77765L177.366 7.76574L177.052 7.7614L176.774 7.76574L176.503 7.77115Z" fill="white"/>
<path d="M72.7918 1.91015C74.0219 2.83748 74.6575 4.15156 74.6575 5.7484C74.6575 6.48723 74.3516 6.85773 73.7322 6.85773C73.3009 6.85773 72.995 6.48723 72.8134 5.7484C72.6891 5.13523 72.4448 4.58165 72.1389 4.00206C71.5822 3.0184 70.3986 2.56881 68.5545 2.56881C66.9374 2.56881 65.8305 2.93931 65.156 3.73556C64.5387 4.47548 64.1701 5.60539 64.1701 7.26506C64.1701 7.9129 64.1701 13.0685 64.1701 13.7109C64.1701 15.3944 64.5387 16.5644 65.2133 17.3032C65.9515 18.1049 67.079 18.5306 68.6799 18.5306C71.0958 18.5306 72.5075 17.6726 72.8134 15.9913C72.9323 15.3706 72.995 15.064 72.995 15.0011C73.1204 14.6317 73.3636 14.4497 73.7322 14.4497C74.3516 14.4497 74.6575 14.8202 74.6575 15.5591C74.6575 17.1169 74.0381 18.2869 72.7291 19.2142C71.686 19.8902 70.3748 20.2607 68.6561 20.2607C66.6725 20.2607 65.1343 19.8274 64.0058 18.9001C62.6946 18.0421 62.1455 16.5644 62.1455 14.6317C62.1455 9.98314 62.1455 7.39615 62.1455 6.8794C62.1455 2.79089 64.2328 0.802979 68.5761 0.802979C70.3121 0.802979 71.6687 1.1724 72.7918 1.91015Z" fill="white"/>
<path d="M161.695 7.51418C162.187 6.89559 162.619 6.52618 163.05 6.34526C163.475 6.10151 164.094 5.97584 164.786 5.97584C166.895 5.97584 168.001 7.02126 168.001 9.07201C168.001 10.0795 168.001 18.1222 168.001 19.1297C168.001 19.992 167.695 20.3614 167.083 20.3614C166.463 20.3614 166.219 19.992 166.219 19.1297C166.219 18.185 166.219 10.6526 166.219 9.71009C166.219 8.41984 165.67 7.72001 164.604 7.72001C163.804 7.72001 162.987 8.20968 162.313 9.15759C162.313 10.1597 162.313 18.2067 162.313 19.2142C162.313 20.0722 162.001 20.4416 161.449 20.4416C160.895 20.4416 160.588 20.0722 160.588 19.2142C160.588 18.2814 160.588 10.8454 160.588 9.91376C160.588 8.47618 159.977 7.79909 158.846 7.79909C158.115 7.79909 157.417 8.29418 156.682 9.23668C156.682 10.2398 156.682 18.2305 156.682 19.2315C156.682 20.096 156.373 20.4654 155.756 20.4654C155.144 20.4654 154.901 20.096 154.901 19.2315C154.901 17.9965 154.901 8.13059 154.901 6.89559C154.901 6.28243 155.144 6.03868 155.638 6.03868C155.881 6.03868 156.124 6.21959 156.25 6.58901C156.373 6.75368 156.431 7.06026 156.431 7.42968C157.009 6.81651 157.378 6.44601 157.537 6.32143C157.906 6.07659 158.397 5.95093 159.097 5.95093C160.078 5.95093 160.957 6.44601 161.695 7.51418Z" fill="white"/>
<path d="M85.1844 6.00956L85.8351 6.10165L86.447 6.22406L87.0037 6.3909L87.5193 6.58915L87.9852 6.82856L88.3992 7.10156L88.7689 7.41248L89.0845 7.75373L89.3569 8.14048L89.5785 8.5554L89.7493 9.00932L89.8747 9.50548L89.9471 10.0266L89.9709 10.5899V15.6848L89.9471 16.2481L89.8747 16.7692L89.7547 17.2643L89.5861 17.7193L89.3688 18.1342L89.1083 18.5134L88.7948 18.8611L88.4381 19.1731L88.0306 19.4461L87.5776 19.6856L87.0718 19.886L86.5216 20.0506L85.9259 20.1752L85.2806 20.2651L84.5888 20.3236L83.8505 20.3399L83.0679 20.3323L82.335 20.289L81.6551 20.2023L81.0303 20.0842L80.4596 19.925L79.9364 19.7267L79.4662 19.4916L79.0468 19.2186L78.6782 18.9077L78.355 18.56L78.088 18.1732L77.8653 17.7529L77.6967 17.2936L77.5767 16.7909L77.5042 16.2568L77.4805 15.6848V10.5899L77.5042 10.0266L77.5767 9.50548L77.7021 9.00932L77.8728 8.5554L78.0923 8.14048L78.3647 7.75373L78.6825 7.41248L79.0522 7.10156L79.4662 6.82856L79.9321 6.58915L80.4423 6.3909L81.0044 6.22406L81.6162 6.10165L82.2669 6.00956L82.9717 5.95106L83.7262 5.93481L84.4796 5.95106L85.1844 6.00956ZM82.2918 7.76131L81.7221 7.86206L81.2141 8.00506L80.7579 8.18598L80.3634 8.41348L80.0283 8.67456L79.7559 8.98331L79.5386 9.32348L79.3873 9.70265L79.29 10.1306L79.2619 10.5899V15.6848L79.29 16.1441L79.3873 16.5645L79.5386 16.9501L79.7602 17.2936L80.0402 17.5936L80.3796 17.8536L80.7828 18.0714L81.2476 18.2523L81.7751 18.3834L82.3642 18.4798L83.0171 18.5253L83.7262 18.5307L84.4223 18.5253L85.059 18.4798L85.6417 18.3953L86.1584 18.2653L86.6178 18.0931L87.0155 17.8786L87.356 17.6218L87.6328 17.3206L87.85 16.9751L88.0014 16.5883L88.0987 16.1561L88.1268 15.6848V10.5899L88.0987 10.1306L88.0014 9.70265L87.85 9.32348L87.6284 8.98331L87.3442 8.67456L87.0037 8.41348L86.5961 8.18598L86.1238 8.00506L85.5865 7.86206L84.9909 7.76131L84.3261 7.69848L83.6008 7.68115L82.9209 7.69848L82.2918 7.76131Z" fill="white"/>
<path d="M146.205 5.82103L146.415 5.83295L146.612 5.85028L146.805 5.8622L146.993 5.88386L147.179 5.90011L147.363 5.92936L147.538 5.95103L147.706 5.98786L147.871 6.01386L148.029 6.05503L148.188 6.08861L148.335 6.12761L148.49 6.17311L148.633 6.2197L148.768 6.2652L148.905 6.31611L149.035 6.37461L149.166 6.42445L149.29 6.48728L149.409 6.54361L149.522 6.60645L149.635 6.67361L149.76 6.7657L149.879 6.86211L149.991 6.95853L150.101 7.06795L150.204 7.17411L150.305 7.29436L150.401 7.41245L150.493 7.53811L150.577 7.6692L150.657 7.80461L150.73 7.9422L150.804 8.08411L150.93 8.39178L150.985 8.55103L151.036 8.71028L151.081 8.87928L151.122 9.05045L151.156 9.22703L151.185 9.40795L151.206 9.59645L151.228 9.79036L151.241 9.9832L151.253 10.1814V16.7909L151.257 16.8786V16.9631L151.269 17.1224L151.281 17.2697L151.291 17.3444L151.303 17.4116L151.316 17.4744L151.332 17.5427L151.342 17.6055L151.378 17.7193L151.4 17.7767L151.467 17.9294L151.491 17.9749L151.518 18.0204L151.547 18.0594L151.614 18.1396L151.689 18.2144L151.7 18.2187L151.718 18.2306L151.727 18.2404L151.751 18.2479L151.769 18.2599L151.814 18.2815L151.841 18.2989L151.898 18.3205L151.933 18.3368L151.966 18.3498L152.086 18.3996L152.221 18.4538L152.272 18.47L152.323 18.4917L152.376 18.509L152.427 18.5307L152.482 18.5545L152.545 18.5762L152.578 18.5881L152.648 18.6228L152.674 18.6466L152.704 18.6639L152.762 18.7073L152.784 18.7354L152.805 18.7604L152.829 18.7864L152.846 18.8199L152.862 18.8492L152.896 18.9174L152.909 18.9586L152.921 18.9922L152.931 19.0377L152.942 19.0767L152.947 19.1222L152.959 19.1688L152.964 19.2186V19.2695L152.972 19.3226V19.5501L152.959 19.6054L152.954 19.6519L152.942 19.7018L152.931 19.7484L152.913 19.7939L152.896 19.8329L152.874 19.874L152.851 19.9076L152.795 19.9748L152.766 20.004L152.733 20.0333L152.612 20.1004L152.523 20.1351L152.472 20.147L152.415 20.1568L152.301 20.1687L152.239 20.1752H152.125L152.104 20.1687H152.086L152.063 20.1633H152.041L152.017 20.1568L151.904 20.1351L151.877 20.1221L151.841 20.1178L151.807 20.1059L151.773 20.1004L151.655 20.0669L151.61 20.0549L151.571 20.043L151.525 20.0333L151.475 20.0214L151.428 20.004L151.378 19.9921L151.218 19.9369L151.144 19.9076L151.071 19.8859L151.002 19.8567L150.867 19.8112L150.804 19.7895L150.742 19.77L150.686 19.7484L150.634 19.731L150.577 19.7148L150.532 19.6974L150.481 19.6801L150.436 19.6682L150.397 19.6519L150.356 19.6389L150.289 19.6173L150.204 19.5837L150.18 19.5761L150.163 19.5674L150.146 19.5599L150.107 19.5544L150.071 19.5501L150.033 19.5382L149.999 19.5263L149.965 19.5089L149.936 19.4873L149.903 19.4634L149.874 19.4418L149.844 19.4125L149.818 19.3789L149.789 19.3497L149.766 19.3107L149.744 19.2771L149.715 19.2316L149.693 19.1904L149.676 19.1471L149.652 19.1005L149.63 19.0496L149.597 18.9456L149.529 18.7192L149.509 18.6564L149.262 18.8275L149.023 18.9868L148.909 19.0669L148.695 19.2024L148.592 19.2695L148.398 19.3952L148.218 19.5089L148.133 19.5599L148.053 19.6054L147.906 19.6974L147.832 19.7364L147.769 19.7776L147.588 19.8664L147.538 19.8903L147.447 19.9369L147.4 19.9466L147.328 19.9824L147.253 20.004L147.094 20.0593L146.839 20.1297L146.755 20.147L146.663 20.1687L146.573 20.1849L146.381 20.2196L146.285 20.2315L146.189 20.2478L145.882 20.2824L145.774 20.2889L145.665 20.2987L145.556 20.3063L145.443 20.3106L145.337 20.316H144.809L144.633 20.3106L144.462 20.3063L144.122 20.2824L143.794 20.2478L143.635 20.2261L143.477 20.1979L143.171 20.1394L142.877 20.0723L142.734 20.0333L142.591 19.9878L142.454 19.9412L142.319 19.8903L142.059 19.7895L141.934 19.7267L141.809 19.6682L141.69 19.6054L141.57 19.5382L141.456 19.4699L141.343 19.3952L141.213 19.3064L141.088 19.2143L140.851 19.0084L140.743 18.9077L140.639 18.7983L140.537 18.6856L140.447 18.5719L140.357 18.4538L140.273 18.3281L140.198 18.2024L140.123 18.0714L140.055 17.9414L139.994 17.8038L139.937 17.6684L139.887 17.5254L139.796 17.2307L139.761 17.0812L139.733 16.9284L139.687 16.6099L139.665 16.2817V15.9404L139.675 15.7736L139.687 15.6046L139.712 15.4454L139.767 15.1269L139.846 14.8203L139.896 14.6729L140.01 14.3869L140.08 14.245L140.147 14.1096L140.306 13.8485L140.39 13.7229L140.482 13.6026L140.578 13.4834L140.686 13.3708L140.788 13.2614L140.902 13.1552L141.02 13.0512L141.27 12.8584L141.405 12.7684L141.644 12.5973L141.77 12.5171L142.03 12.3698L142.303 12.2322L142.444 12.1726L142.726 12.0567L142.877 12.0058L143.183 11.9159L143.334 11.8747L143.493 11.8368L143.653 11.8021L143.812 11.7739L143.975 11.7447L144.139 11.723L144.31 11.7057L144.474 11.6894L144.65 11.6764L144.821 11.6645L144.997 11.6602H145.321L145.468 11.6645L145.619 11.6699L145.925 11.6938L146.079 11.7111L146.238 11.7274L146.398 11.749L146.562 11.7783L146.72 11.8021L146.885 11.8368L147.049 11.8628L147.22 11.8996L147.559 11.9787L148.088 12.1141L148.264 12.165L148.449 12.2159L148.633 12.2734L148.818 12.3286L149.006 12.3914L149.199 12.4543L149.392 12.5225V10.3461L149.387 10.2204L149.38 10.1013L149.37 9.9832L149.353 9.86295L149.329 9.75678L149.307 9.64086L149.274 9.53361L149.24 9.4307L149.199 9.32886L149.153 9.23245L149.103 9.13495L148.989 8.95403L148.921 8.86195L148.854 8.78286L148.78 8.69836L148.621 8.55103L148.529 8.47628L148.335 8.34086L148.235 8.27803L148.126 8.21953L148.013 8.16428L147.894 8.10578L147.815 8.0722L147.644 8.00503L147.283 7.89128L146.993 7.82411L146.889 7.80461L146.793 7.78728L146.687 7.77103L146.583 7.7537L146.483 7.74395L146.268 7.72011L146.154 7.7082L146.046 7.70278L145.932 7.69086L145.819 7.68545H145.707L145.593 7.68111H145.082L144.814 7.69086L144.554 7.70278L144.31 7.72661L144.076 7.7537L143.849 7.78728L143.64 7.82411L143.435 7.86745L143.242 7.92053L143.061 7.9812L142.893 8.04295L142.726 8.11336L142.575 8.19136L142.432 8.27045L142.303 8.36253L142.182 8.45461L142.069 8.55536L141.968 8.66478L141.876 8.78286L141.791 8.90311L141.724 9.02661L141.656 9.1642L141.603 9.3072L141.56 9.45453L141.526 9.6062L141.515 9.68095L141.497 9.7492L141.474 9.87486L141.452 9.98861L141.43 10.0894L141.417 10.1359L141.411 10.1814L141.401 10.2204L141.394 10.2616L141.384 10.2952L141.377 10.3288L141.368 10.3873L141.355 10.4328V10.4544L141.35 10.4718V10.488L141.343 10.4999V10.5292L141.327 10.5682L141.292 10.6354L141.276 10.6646L141.229 10.7231L141.213 10.7491L141.184 10.7729L141.162 10.7946L141.133 10.8195L141.111 10.8358L141.082 10.8531L141.049 10.8704L141.02 10.8867L140.986 10.8964L140.957 10.9084L140.923 10.9203L140.885 10.9333L140.851 10.9376L140.81 10.9495L140.772 10.9549H140.731L140.692 10.9593H140.533L140.466 10.9549L140.328 10.9333L140.265 10.9203L140.096 10.8531L140.043 10.8195L139.994 10.7903L139.947 10.7491L139.904 10.7155L139.824 10.6256L139.79 10.5725L139.733 10.4718L139.704 10.4089L139.687 10.3461L139.665 10.2833L139.649 10.215L139.636 10.1479L139.632 10.0731L139.624 9.99295V9.80661L139.632 9.69395L139.636 9.58453L139.653 9.4762L139.665 9.37003L139.712 9.15228L139.767 8.93778L139.8 8.82836L139.834 8.72761L139.875 8.6182L139.921 8.51745L139.971 8.40803L140.073 8.20328L140.261 7.89561L140.328 7.7992L140.403 7.69845L140.639 7.40811L140.731 7.3117L140.833 7.19036L141.07 6.97586L141.201 6.87403L141.485 6.6812L141.64 6.59453L141.797 6.50895L141.968 6.42986L142.138 6.35511L142.319 6.28686L142.512 6.2197L142.705 6.1612L142.91 6.10595L143.12 6.05503L143.334 6.00953L143.555 5.96836L143.782 5.92936L144.26 5.87195L144.508 5.85028L144.764 5.83295L145.023 5.82103L145.291 5.81561L145.564 5.81128H145.778L145.995 5.81561L146.205 5.82103ZM143.602 13.7402L142.864 14.0013L142.291 14.375L141.876 14.8539L141.627 15.4378L141.548 16.1344L141.57 16.4962L141.64 16.8374L141.758 17.1603L141.921 17.4582L142.131 17.7193L142.399 17.9414L142.717 18.1223L142.989 18.2696L143.288 18.3953L143.612 18.4971L143.959 18.5762L144.327 18.6347L144.717 18.6683L145.133 18.6802L145.497 18.6683L145.846 18.6466L146.189 18.6011L146.52 18.5307L146.846 18.4462L147.169 18.3281L147.485 18.1851L147.702 18.0594L147.941 17.9002L148.206 17.7236L148.49 17.5254L148.796 17.3033L149.115 17.0639L149.45 16.8104V14.206L148.87 14.0294L148.292 13.8821L147.719 13.7564L147.157 13.66L146.608 13.5853L146.075 13.5419L145.564 13.53L144.503 13.5809L143.602 13.7402Z" fill="white"/>
<path d="M104.507 0.0414108L104.574 0.0630775L104.636 0.0966608L104.695 0.130244L104.75 0.171411L104.801 0.217994L104.892 0.318744L104.933 0.381577L104.967 0.449828L105 0.524578L105.03 0.597161L105.073 0.768328L105.106 0.962244L105.118 1.17674L105.126 1.29049V19.5317L105.118 19.6172L105.114 19.6963L105.106 19.7711L105.073 19.9065L105.056 19.9693L105.03 20.0278L105.006 20.0831L104.938 20.1871L104.859 20.2662L104.812 20.3052L104.767 20.3344L104.712 20.3637L104.661 20.3897L104.603 20.4135L104.54 20.4308L104.405 20.4525L104.336 20.4601H104.212L104.075 20.4427L104.029 20.4308L103.991 20.4135L103.95 20.4016L103.911 20.3799L103.877 20.3637L103.844 20.3387L103.81 20.3106L103.752 20.2542L103.723 20.2207L103.656 20.1004L103.639 20.056L103.622 20.0029L103.609 19.952L103.593 19.9022L103.588 19.8458V19.7592L103.583 19.7137V19.6747L103.576 19.6292V19.5902L103.571 19.5447V19.4981L103.564 19.4526L103.56 19.4017L103.554 19.3562V19.3052L103.542 19.2034V19.146L103.538 19.0951L103.53 19.0322V18.9142L103.525 18.8513V18.7127L103.378 18.8047L103.241 18.8968L103.101 18.9857L102.839 19.146L102.721 19.2251L102.595 19.2998L102.368 19.4352L102.26 19.4981L102.159 19.5609L102.057 19.6172L101.785 19.7711L101.706 19.8101L101.626 19.8556L101.479 19.9238L101.353 19.9812L101.291 20.0029L101.199 20.0397L101.103 20.0733L101.006 20.1004L100.804 20.1578L100.479 20.225L100.365 20.2499L100.138 20.2835L99.9006 20.3171L99.7817 20.329L99.5341 20.3507L99.4087 20.3561L99.2779 20.3637L99.1525 20.368L99.0228 20.3723H98.5288L98.3018 20.368L98.0878 20.3561L97.8705 20.3387L97.6608 20.3225L97.4511 20.2932L97.2533 20.2662L96.8555 20.1968L96.4815 20.1069L96.2945 20.056L96.1183 20.0029L95.9421 19.9433L95.6027 19.8177L95.4384 19.7418L95.2795 19.6703L95.1249 19.5902L94.9736 19.5035L94.8255 19.419L94.6763 19.3269L94.525 19.2207L94.231 18.9813L94.098 18.8557L93.9683 18.7257L93.8451 18.5881L93.7294 18.4472L93.6235 18.2977L93.5197 18.1504L93.3392 17.8341L93.2592 17.6672L93.1922 17.4982L93.1241 17.3217L93.0668 17.1451L93.016 16.9566L92.9771 16.7637L92.9414 16.5698L92.9144 16.3727L92.8906 16.1668L92.8809 15.9567V10.3179L92.8906 10.1077L92.9144 9.9095L92.936 9.71666L92.9695 9.52383L93.016 9.33533L93.0614 9.15333L93.1165 8.97783L93.1792 8.80558L93.2473 8.64199L93.3262 8.47733L93.4062 8.31808L93.4981 8.16316L93.5986 8.01583L93.7024 7.87391L93.8159 7.73091L93.9294 7.60091L94.0548 7.46983L94.1845 7.34416L94.4666 7.10799L94.6212 6.99858L94.7563 6.90758L94.8936 6.82199L95.0406 6.73749L95.1952 6.65841L95.3465 6.58366L95.5054 6.50891L95.834 6.38541L96.0048 6.32258L96.3572 6.21858L96.7182 6.12866L96.9063 6.09508L97.0987 6.06149L97.2922 6.03224L97.49 6.00408L97.8878 5.96941L98.0921 5.95749L98.3018 5.95316H98.7893L99.0617 5.96508L99.1915 5.96941L99.3287 5.97483L99.4541 5.98674L99.5838 5.99866L99.7027 6.00841L99.8281 6.02574L100.066 6.06149L100.179 6.07883L100.406 6.12216L100.515 6.14599L100.616 6.16766L100.922 6.25433L101.014 6.28899L101.11 6.32258L101.199 6.35616L101.296 6.38974L101.387 6.43091L101.484 6.46991L101.58 6.51541L101.681 6.56199L101.874 6.66274L102.18 6.83499L102.284 6.89458L102.59 7.10041L102.805 7.24775L102.909 7.32791L103.015 7.40699L103.123 7.49366L103.337 7.67566V1.29049L103.344 1.17674L103.354 0.962244L103.391 0.768328L103.407 0.683828L103.434 0.597161L103.458 0.524578L103.491 0.449828L103.525 0.381577L103.564 0.318744L103.605 0.268911L103.65 0.217994L103.697 0.171411L103.752 0.130244L103.803 0.0966608L103.86 0.0630775L103.923 0.0414108L104.058 0.00782747L104.126 0.000244141H104.285L104.359 0.00782747L104.507 0.0414108ZM98.3472 7.83491L98.0629 7.86091L97.7862 7.89016L97.5138 7.93675L97.2587 7.99416L97.0079 8.05483L96.7766 8.13391L96.5539 8.22166L96.3442 8.32241L96.1518 8.43183L95.9302 8.59108L95.7205 8.76008L95.5346 8.94316L95.3681 9.13708L95.2211 9.33533L95.0979 9.54983L94.9898 9.77733L94.9109 10.0167L94.8525 10.267L94.8136 10.5237L94.8017 10.7967V15.6956L94.8136 15.9783L94.8482 16.247L94.8979 16.5027L94.9779 16.7464L95.0741 16.9739L95.1952 17.1917L95.3422 17.3942L95.5108 17.5827L95.6989 17.7593L95.9129 17.911L96.1518 18.0605L96.3615 18.158L96.5788 18.2468L96.8047 18.327L97.0436 18.4061L97.2868 18.4743L97.5473 18.5317L97.8154 18.5827L98.0975 18.6238L98.3861 18.6509L98.6877 18.6672L98.999 18.6747L99.4974 18.6628L99.7438 18.6455L99.9795 18.6238L100.445 18.5534L100.667 18.5101L100.883 18.4527L101.093 18.3898L101.291 18.3216L101.479 18.2425L101.635 18.1331L101.802 18.0193L101.971 17.9012L102.141 17.7712L102.318 17.6402L102.498 17.4982L102.686 17.3509L102.872 17.196L103.065 17.0313L103.266 16.8602L103.462 16.6836V9.54008L103.231 9.37324L103.005 9.22158L102.788 9.06666L102.574 8.92474L102.368 8.79366L102.176 8.67558L101.988 8.56183L101.812 8.46541L101.647 8.38091L101.496 8.30616L101.353 8.24766L101.149 8.17074L100.944 8.10033L100.734 8.03749L100.52 7.98224L100.305 7.93675L100.083 7.90208L99.8562 7.86849L99.6346 7.84466L99.4012 7.82733L98.9364 7.81758L98.6423 7.82299L98.3472 7.83491Z" fill="white"/>
<path d="M134.85 1.91015C136.082 2.83748 136.716 4.15156 136.716 5.7484C136.716 6.48723 136.41 6.85773 135.793 6.85773C135.366 6.85773 135.06 6.48723 134.874 5.7484C134.749 5.13523 134.505 4.58165 134.2 4.00206C133.643 3.0184 132.456 2.56881 130.615 2.56881C128.997 2.56881 127.891 2.93931 127.216 3.73556C126.604 4.47548 126.235 5.60539 126.235 7.26506C126.235 7.9129 126.235 13.0685 126.235 13.7109C126.235 15.3944 126.604 16.5644 127.278 17.3032C128.017 18.1049 129.14 18.5306 130.737 18.5306C133.155 18.5306 134.568 17.6726 134.874 15.9913C134.997 15.3706 135.06 15.064 135.06 15.0011C135.18 14.6317 135.429 14.4497 135.793 14.4497C136.41 14.4497 136.716 14.8202 136.716 15.5591C136.716 17.1169 136.103 18.2869 134.794 19.2142C133.743 19.8902 132.434 20.2607 130.716 20.2607C128.73 20.2607 127.194 19.8274 126.071 18.9001C124.818 18.0421 124.205 16.5644 124.205 14.6317C124.205 9.98314 124.205 7.39615 124.205 6.8794C124.205 2.79089 126.314 0.802979 130.637 0.802979C132.377 0.802979 133.727 1.1724 134.85 1.91015Z" fill="white"/>
<path d="M115.883 6.02157L116.353 6.07682L116.802 6.16132L117.229 6.26532L117.631 6.39099L118.009 6.54374L118.369 6.71491L118.697 6.91316L119.007 7.13524L119.292 7.37466L119.552 7.64007L119.791 7.92499L120.012 8.23699L120.206 8.57282L120.377 8.92491L120.524 9.30732L120.647 9.70274L120.751 10.1307L120.83 10.5727L120.886 11.0461L120.919 11.5347L120.931 12.0514L120.927 12.1771L120.919 12.2952L120.91 12.4089L120.898 12.5172L120.876 12.6267L120.851 12.7231L120.823 12.8195L120.796 12.904L120.763 12.9842L120.721 13.0632L120.676 13.1315L120.625 13.1987L120.574 13.2615L120.461 13.3655L120.324 13.4457L120.177 13.5009L120.092 13.5247L120.008 13.5345L119.916 13.5464L110.281 13.5475L110.279 15.4574L110.291 15.7239L110.313 15.9839L110.358 16.2309L110.417 16.4627L110.496 16.6848L110.585 16.895L110.699 17.0889L110.824 17.2742L110.971 17.4464L111.13 17.61L111.313 17.7573L111.511 17.8949L111.72 18.0206L111.952 18.1343L112.202 18.2362L112.463 18.3282L112.747 18.3997L113.049 18.4702L113.364 18.5211L113.7 18.5601L114.052 18.5937L114.421 18.6099L114.806 18.6175H114.948L115.091 18.6099H115.226L115.498 18.6012L115.628 18.5882L115.753 18.5839L116.002 18.5601L116.122 18.5503L116.24 18.5308L116.58 18.4799L116.798 18.4344L117.002 18.3911L117.098 18.3618L117.195 18.3369L117.292 18.3109L117.38 18.2773L117.518 18.2307L117.568 18.2069L117.623 18.1896L117.682 18.1636L117.745 18.1397L117.807 18.1105L117.874 18.0769L117.942 18.0477L118.089 17.9707L118.168 17.9296L118.248 17.883L118.333 17.8375L118.419 17.7866L118.509 17.7357L118.601 17.6804L118.697 17.6219L118.793 17.5591L118.895 17.4919L119.111 17.3543L119.22 17.2817L119.334 17.2016L119.401 17.1387L119.473 17.0759L119.536 17.0207L119.605 16.9632L119.665 16.9123L119.728 16.8657L119.842 16.7747L119.895 16.7357L119.95 16.6946L120 16.661L120.047 16.6274L120.092 16.5982L120.138 16.5765L120.177 16.5472L120.257 16.5137L120.29 16.4963L120.357 16.4747L120.386 16.4671L120.41 16.4627H120.5L120.563 16.4671L120.62 16.4747L120.721 16.4963L120.772 16.5137L120.818 16.5299L120.864 16.5548L120.902 16.5765L120.935 16.6057L121.006 16.6729L121.033 16.7065L121.061 16.7477L121.107 16.8376L121.124 16.8874L121.141 16.9459L121.165 17.0597L121.17 17.1225L121.174 17.1897V17.3327L121.165 17.4074L121.158 17.48L121.141 17.5472L121.124 17.6219L121.102 17.6977L121.074 17.7692L121.039 17.8375L121.006 17.9122L120.965 17.987L120.876 18.1343L120.823 18.2026L120.767 18.2773L120.641 18.4247L120.42 18.6467L120.165 18.8667L120.069 18.9457L119.753 19.1732L119.581 19.2816L119.401 19.391L119.22 19.4874L119.027 19.5838L118.827 19.6683L118.622 19.7528L118.413 19.833L118.193 19.9077L117.966 19.9749L117.733 20.0377L117.494 20.1006L117.251 20.1515L117.002 20.1981L116.739 20.2436L116.474 20.2772L116.202 20.3107L115.922 20.3324L115.64 20.3573L115.05 20.379H114.744L114.215 20.3736L113.711 20.3454L113.229 20.2988L112.769 20.2317L112.338 20.1515L111.926 20.0507L111.532 19.9294L111.171 19.7897L110.824 19.6347L110.505 19.4582L110.211 19.2653L109.939 19.0497L109.691 18.8201L109.462 18.572L109.264 18.299L109.084 18.0141L108.929 17.7064L108.8 17.3836L108.69 17.038L108.606 16.6772L108.551 16.2981L108.51 15.8951L108.498 15.4747V10.5098L108.506 10.3701L108.51 10.2206L108.522 10.0852L108.539 9.94216L108.561 9.80024L108.618 9.52724L108.657 9.39616L108.698 9.26074L108.743 9.13074L108.794 9.00074L108.849 8.87507L108.975 8.62374L109.049 8.50024L109.122 8.37891L109.202 8.26082L109.294 8.14707L109.378 8.03441L109.474 7.92066L109.68 7.70291L109.792 7.59457L109.939 7.45374L110.094 7.32157L110.258 7.19049L110.421 7.07241L110.597 6.95866L110.785 6.85032L110.971 6.74849L111.171 6.65207L111.369 6.56757L111.579 6.48091L111.795 6.40832L112.249 6.27074L112.48 6.21441L112.723 6.16132L112.969 6.11799L113.223 6.08441L113.486 6.04866L113.75 6.02157L114.017 6.00424L114.295 5.98799L114.579 5.98041L114.869 5.97607L115.389 5.98799L115.883 6.02157ZM113.682 7.76141L113.241 7.83291L112.815 7.94232L112.408 8.07774L112.01 8.24457L111.636 8.43741L111.267 8.71041L110.962 8.99316L110.715 9.29974L110.523 9.61824L110.388 9.95407L110.309 10.3072L110.279 10.6767V11.7232H119.128L119.036 10.6604L118.76 9.75691L118.299 9.01699L117.653 8.44174L116.826 8.02682L115.804 7.78307L114.601 7.69857L114.136 7.71482L113.682 7.76141Z" fill="white"/>
</g>
<defs>
<clipPath id="clip0_661_13843">
<rect width="227" height="26" fill="white" transform="translate(0 0.000244141)"/>
</clipPath>
</defs>
</svg>
