<svg width="200" height="30" viewBox="0 0 200 30" fill="none" xmlns="http://www.w3.org/2000/svg">
<g clip-path="url(#clip0_661_13837)">
<path d="M29.9852 15.1394C29.9852 23.3 23.2728 29.9158 14.9924 29.9158C6.71192 29.9158 0 23.302 0 15.1394C0 6.97688 6.71243 0.363615 14.9924 0.363615C23.2723 0.363615 29.9852 6.97887 29.9852 15.1394ZM46.4326 15.1394C46.4326 22.8216 43.0761 29.0487 38.9362 29.0487C34.7962 29.0487 31.4397 22.8196 31.4397 15.1394C31.4397 7.45926 34.7962 1.2302 38.9362 1.2302C43.0761 1.2302 46.4326 7.45926 46.4326 15.1394ZM53.1598 15.1394C53.1598 22.0223 51.9792 27.6015 50.5232 27.6015C49.0672 27.6015 47.8866 22.0203 47.8866 15.1394C47.8866 8.25857 49.0672 2.67734 50.5237 2.67734C51.9802 2.67734 53.1598 8.25708 53.1598 15.1394ZM94.5376 1.64481L94.5793 1.63584V1.3194H86.053L78.136 19.5332L70.2191 1.3194H61.0309V1.63584L61.0722 1.64481C62.6285 1.98865 63.4186 2.50143 63.4186 4.35071V26.0004C63.4186 27.8497 62.6254 28.3625 61.0691 28.7063L61.0279 28.7153V29.0327H67.2617V28.7163L67.2205 28.7073C65.6642 28.3635 64.8741 27.8507 64.8741 26.0014V5.60649L75.0443 29.0327H75.6211L86.0876 4.95318V26.5361C85.9542 27.9967 85.1712 28.4477 83.762 28.7591L83.7203 28.7686V29.0826H94.5793V28.7686L94.5376 28.7591C93.1269 28.4477 92.325 27.9967 92.1917 26.5361L92.1845 4.35071H92.1917C92.1917 2.50143 92.9818 1.98865 94.5376 1.64481ZM99.4977 15.9866C99.6754 12.0967 101.102 9.28911 103.497 9.24077C104.236 9.25273 104.855 9.48993 105.337 9.9464C106.36 10.9186 106.841 12.9503 106.767 15.9866H99.4977ZM99.3903 17.0829H112.118V17.0306C112.081 14.0561 111.201 11.7424 109.504 10.1537C108.037 8.78081 105.864 8.02535 103.583 8.02535H103.532C102.348 8.02535 100.895 8.30641 99.8617 8.8157C98.6852 9.3489 97.6476 10.1462 96.7842 11.1927C95.3944 12.8785 94.5523 15.1569 94.3477 17.7173C94.341 17.794 94.3355 17.8708 94.3299 17.9475C94.3243 18.0242 94.3207 18.093 94.3172 18.1663C94.2991 18.5263 94.2929 18.8867 94.2988 19.2471C94.4368 25.0461 97.6369 29.6805 103.321 29.6805C108.31 29.6805 111.216 26.1105 111.94 21.3187L111.574 21.1926C110.301 23.7679 108.015 25.3287 105.414 25.1383C101.862 24.8782 99.1418 21.3535 99.3887 17.0839M126.508 24.9415C126.09 25.9107 125.219 26.4439 124.052 26.4439C122.885 26.4439 121.817 25.6596 121.059 24.2344C120.245 22.7045 119.816 20.5418 119.816 17.9799C119.816 12.6478 121.51 9.19891 124.133 9.19891C125.231 9.19891 126.095 9.73212 126.508 10.6625V24.9415ZM134.951 28.7427C133.394 28.3824 132.604 27.8457 132.604 25.9022V0.0441895L123.149 2.77102V3.1049L123.207 3.10041C124.511 2.99726 125.396 3.17367 125.91 3.63811C126.312 4.00188 126.508 4.56001 126.508 5.34537V8.89045C125.576 8.3079 124.467 8.02436 123.121 8.02436C120.393 8.02436 117.898 9.14908 116.1 11.1917C114.225 13.3205 113.234 16.2298 113.234 19.6039C113.233 25.6302 116.264 29.6805 120.774 29.6805C123.413 29.6805 125.536 28.2653 126.508 25.8783V29.0826H134.992V28.7507L134.951 28.7427ZM143.06 3.56087C143.06 1.67919 141.611 0.259964 139.688 0.259964C137.774 0.259964 136.277 1.71009 136.277 3.56087C136.277 5.41164 137.776 6.86177 139.688 6.86177C141.611 6.86177 143.06 5.44254 143.06 3.56087ZM145.292 28.7427C143.736 28.3824 142.945 27.8457 142.945 25.9022H142.939V8.08565L134.454 10.4701V10.794L134.505 10.7985C136.341 10.9585 136.843 11.5774 136.843 13.6774V29.0826H145.335V28.7507L145.292 28.7427ZM167.033 28.7427C165.477 28.3824 164.686 27.8457 164.686 25.9022V8.08565L156.608 10.3914V10.7163L156.656 10.7213C158.157 10.8758 158.59 11.5301 158.59 13.6395V24.9016C158.09 25.8709 157.151 26.4464 156.014 26.4853C154.169 26.4853 153.154 25.2659 153.154 23.0518V8.08615L144.669 10.4706V10.794L144.72 10.7985C146.556 10.958 147.059 11.5769 147.059 13.6774V23.2088C147.055 23.8742 147.114 24.5385 147.236 25.1931L147.388 25.8434C148.107 28.363 149.989 29.6805 152.937 29.6805C155.435 29.6805 157.624 28.1671 158.588 25.7991V29.088H167.073V28.7562L167.033 28.7427ZM199.993 29.0826V28.7502L199.952 28.7407C198.263 28.3595 197.606 27.6409 197.606 26.1778V14.0586C197.606 10.2798 195.437 8.02436 191.805 8.02436C189.158 8.02436 186.926 9.52182 186.066 11.8545C185.384 9.38279 183.419 8.02436 180.514 8.02436C177.963 8.02436 175.963 9.34243 175.105 11.5689V8.08715L166.62 10.374V10.6999L166.671 10.7043C168.485 10.8618 169.01 11.4987 169.01 13.5448V29.0826H176.926V28.7507L176.884 28.7407C175.537 28.4307 175.102 27.8656 175.102 26.4155V12.5242C175.459 11.7095 176.177 10.7442 177.597 10.7442C179.361 10.7442 180.255 11.9402 180.255 14.2963V29.0826H188.173V28.7507L188.131 28.7407C186.784 28.4307 186.349 27.8656 186.349 26.4155V14.0571C186.353 13.595 186.315 13.1335 186.237 12.6777C186.615 11.7922 187.375 10.7442 188.853 10.7442C190.641 10.7442 191.51 11.9058 191.51 14.2963V29.0826H199.993Z" fill="white"/>
</g>
<defs>
<clipPath id="clip0_661_13837">
<rect width="200" height="30" fill="white" transform="translate(0 0.000244141)"/>
</clipPath>
</defs>
</svg>
