<svg width="164" height="40" viewBox="0 0 164 40" fill="none" xmlns="http://www.w3.org/2000/svg">
<g clip-path="url(#clip0_661_13758)">
<path d="M161.733 19.57L160.263 19.97C158.85 15.17 156.483 13.096 153.141 13.096C150.793 13.096 149.141 14.643 149.141 17.096C149.141 19.444 151.089 20.696 156.321 22.824C161.151 24.6 163.156 26.776 163.156 30.576C163.156 36.361 158.612 39.989 151.156 39.989C147.556 39.989 143.5 39.187 141.208 38.271L140.922 30.233L142.335 29.947C144.455 35.447 147.165 37.527 150.698 37.527C153.753 37.527 155.358 35.407 155.358 33.231C155.358 31.055 154.118 29.794 149.344 28.076C144.799 26.576 141.688 24.639 141.688 19.809C141.688 15.055 145.868 11.026 152.991 11.026C156.351 11.026 159.406 11.599 161.411 12.526L161.733 19.57ZM130.973 22.09C131.145 18.31 130.381 12.85 127.269 12.85C124.069 12.85 122.324 17.948 122.267 22.32L130.973 22.09ZM128.033 11.016C135.861 11.016 139.633 16.744 139.699 24.266H122.095C122.038 30.929 125.57 35.97 132.175 35.97C135.058 35.97 136.719 35.168 138.475 33.908L139.295 34.824C137.348 37.459 133.338 39.979 127.992 39.979C119.4 39.979 113.442 34.079 113.442 25.755C113.422 18.232 118.312 11.015 128.029 11.015M102.639 24.955C102.467 18.998 100.291 14.282 96.1085 14.282C95.1155 14.282 94.3515 14.454 93.1685 14.855L93.5125 37.748C93.9325 37.92 94.9255 38.034 95.6325 38.034C99.6995 38.034 102.64 32.287 102.64 24.954M111.366 24.496C111.366 33.909 105.409 39.98 95.3455 39.98C91.7455 39.98 88.0325 39.407 84.8055 38.663C85.0915 34.883 85.0915 11.463 84.8055 7.063C84.5195 4.763 83.8695 3.683 82.1055 3.463L80.9215 3.348V2.298L93.3395 0C93.2825 1.947 93.1675 7.064 93.1675 13.08C95.3445 11.992 97.3475 11.362 100.061 11.362C106.534 11.362 111.364 16.862 111.364 24.498M79.7275 19.38C75.8895 16.86 71.7655 17.948 70.9445 19.38C70.5815 23.78 70.6585 30.58 71.0015 34.063C71.1735 36.363 71.8215 37.328 73.5985 37.5L75.9465 37.73V39.23H58.3995V37.73L59.7555 37.5C61.4555 37.328 62.0555 36.354 62.1615 34.063C62.5815 30.34 62.6965 22.531 62.1615 18.235C62.0465 15.772 61.4555 14.855 59.7555 14.635L58.3995 14.463V13.433L70.9435 11.027L70.7715 17.442C73.7115 10.798 79.5545 9.996 82.7235 11.772L79.7275 19.38ZM38.5625 25.528C38.5625 32.535 40.4625 38.263 44.2625 38.263C48.3865 38.263 49.5705 32.65 49.5705 25.528C49.5705 18.406 47.7465 12.85 43.8695 12.85C39.7265 12.85 38.5625 18.292 38.5625 25.528ZM58.4565 25.413C58.4565 33.451 53.1485 39.981 43.6785 39.981C34.3615 39.981 29.6645 33.776 29.6645 25.641C29.6645 17.661 34.9725 11.016 44.4425 11.016C53.7595 11.016 58.4565 17.26 58.4565 25.413ZM34.0755 11.6L32.1285 12.173C30.4865 6.541 27.5845 3.333 22.5815 3.333H16.0515C15.6885 7.075 15.5165 12.86 15.6885 19.103L20.0415 18.873C22.9815 18.873 24.2215 16.753 24.9295 13.661H26.5715V26.681H24.9295C24.2235 23.531 22.9825 21.381 20.0415 21.221L15.6885 21.164C15.6885 25.804 15.7455 29.764 16.0515 32.181C16.3375 35.618 17.2915 37.183 19.8115 37.508L22.1795 37.738V39.238H0.853516V37.738L2.62952 37.508C5.09252 37.164 6.10452 35.608 6.38952 32.181C6.86652 26.568 6.98152 14.577 6.38952 7.914C6.10352 4.364 5.09152 2.931 2.62952 2.644L0.853516 2.358V0.81H34.0195L34.0755 11.6Z" fill="white"/>
</g>
<defs>
<clipPath id="clip0_661_13758">
<rect width="164" height="40" fill="white"/>
</clipPath>
</defs>
</svg>
