<svg width="284" height="36" viewBox="0 0 284 36" fill="none" xmlns="http://www.w3.org/2000/svg">
<g clip-path="url(#clip0_661_13786)">
<path d="M5.75525 4V8H4.31775H2.88025V10.8854V13.7708H1.44275H0.00524902V18.0938V22.4167H1.44275H2.88025V25.2917V28.1667H4.31775H5.75525V32.0833V36H15.8386H25.9219V32.0833V28.1667H27.3698H28.8177V25.2917V22.4167H30.2552H31.6927V20.9687V19.5208H33.1302H34.5677V18.0833V16.6458H33.1302H31.6927V15.2083V13.7708H30.2552H28.8177V10.8854V8H27.3698H25.9219V4V0H15.8386H5.75525V4ZM14.4011 12.3229V19.5208H15.8386H17.2761V12.3229V5.125H18.724H20.1719V6.5625V8H23.0469H25.9219L25.9261 10.8792L25.9323 13.7604L27.3761 13.7667L28.8177 13.7708V18.0938V22.4167H27.3698H25.9219V25.2917V28.1667H23.0469H20.1719V29.6146V31.0625H15.849H11.5261V29.6146V28.1667H8.64067H5.75525V25.2917V22.4167H4.31775H2.88025V18.0938V13.7708H4.31775H5.75525V10.8854V8H8.64067H11.5261V6.5625V5.125H12.9636H14.4011V12.3229Z" fill="#00FF2C"/>
<path d="M44.4844 18.3333V28.4583H46.5156H48.5469V24.4062V20.3541H54.6198H60.6927V24.4062V28.4583H62.7135H64.7344V18.3333V8.20825H62.7135H60.6927V12.2603V16.3124H54.6198H48.5469V12.2603V8.20825H46.5156H44.4844V18.3333Z" fill="#00FF2C"/>
<path d="M68.7969 18.3333V28.4583H70.8177H72.8385L72.8427 24.4103L72.849 20.3645H78.9219H84.9948L85.001 24.4103L85.0052 28.4583H87.026H89.0469V18.3333V8.20825H78.9219H68.7969V18.3333ZM85.0052 14.2916V16.3124H78.9219H72.8385V14.2916V12.2708H78.9219H85.0052V14.2916Z" fill="#00FF2C"/>
<path d="M93.1094 18.3333V28.4583H103.234H113.359V26.4374V24.4166H105.255H97.151V18.3437V12.2708H105.255H113.359V10.2395V8.20825H103.234H93.1094V18.3333Z" fill="#00FF2C"/>
<path d="M117.401 18.3333V28.4583H119.432H121.464V24.4062V20.3541L125.512 20.3583L129.557 20.3645L129.564 22.3895L129.568 24.4166H131.589H133.609V26.4374V28.4583H135.641H137.672V26.4374V24.4166H135.641H133.609V22.3853V20.3541H131.589H129.568V18.3333V16.3124H131.589H133.609V14.2916V12.2708L135.637 12.2666L137.662 12.2603L137.668 10.2333L137.672 8.20825H135.641H133.609V10.2395V12.2708H131.589H129.568V14.2916V16.3124H125.516H121.464V12.2603V8.20825H119.432H117.401V18.3333Z" fill="#00FF2C"/>
<path d="M141.714 18.3333V28.4583H151.839H161.964V26.4374V24.4166H153.87H145.776V22.3853V20.3541H149.818H153.859V18.3333V16.3124H149.818H145.776V14.2916V12.2708H153.87H161.964V10.2395V8.20825H151.839H141.714V18.3333Z" fill="#00FF2C"/>
<path d="M166.026 18.3333V28.4583H168.047H170.068L170.072 24.4103L170.078 20.3645L174.126 20.3583L178.172 20.3541V22.3853V24.4166H180.203H182.234V26.4374V28.4583H184.255H186.276V26.4374V24.4166H184.255H182.234V22.3853V20.3541H184.255H186.276V14.2812V8.20825H176.151H166.026V18.3333ZM182.234 14.2916V16.3124H176.151H170.068V14.2916V12.2708H176.151H182.234V14.2916Z" fill="#00FF2C"/>
<path d="M190.339 18.3333V28.4583H192.359H194.38V20.3645V12.2708H200.453H206.526V20.3645V28.4583H208.557H210.589V18.3333V8.20825H200.464H190.339V18.3333Z" fill="#00FF2C"/>
<path d="M214.63 18.3333V28.4583H224.766H234.901V18.3333V8.20825H224.766H214.63V18.3333ZM230.839 18.3437V24.4166H224.766H218.693V18.3437V12.2708H224.766H230.839V18.3437Z" fill="#00FF2C"/>
<path d="M238.943 18.3333V28.4583H249.068H259.193V18.3333V8.20825H249.068H238.943V18.3333ZM255.151 18.3437V24.4166H249.068H242.985V18.3437V12.2708H249.068H255.151V18.3437Z" fill="#00FF2C"/>
<path d="M263.255 18.3333V28.4583H265.276H267.297V20.3645V12.2708H273.38H279.464V20.3645V28.4583H281.485H283.505V18.3333V8.20825H273.38H263.255V18.3333Z" fill="#00FF2C"/>
</g>
<defs>
<clipPath id="clip0_661_13786">
<rect width="283.516" height="36" fill="white"/>
</clipPath>
</defs>
</svg>
