<svg width="227" height="35" viewBox="0 0 227 35" fill="none" xmlns="http://www.w3.org/2000/svg">
<path d="M8.97567 13.1384C7.86219 13.1384 7.54405 13.2974 7.54405 14.1837V21.3418C7.54405 21.7054 7.65767 23.9323 8.02126 24.3414C8.45301 24.8186 9.74829 25.0913 11.0208 25.0913C14.0659 25.0913 16.2929 23.0234 16.2929 19.5466C16.2701 15.9334 13.316 13.1384 8.97567 13.1384ZM10.2937 1.98078C7.65767 1.98078 7.54405 2.34437 7.54405 3.13972V11.8204C7.54405 12.4566 8.0667 12.3885 9.02112 12.3885C11.4526 12.3885 13.1342 12.6384 13.1342 12.6384C14.2931 11.7522 15.6111 11.0023 15.6111 7.84362C15.5884 5.82117 13.9295 1.98078 10.2937 1.98078ZM10.7936 25.7957C9.11202 25.7957 7.43043 25.3867 5.68066 25.3867C3.99907 25.3867 3.11283 25.5458 1.84028 25.5458C1.43124 25.5458 1.15855 25.5003 1.15855 25.114C1.15855 24.705 1.40852 24.6368 2.27204 24.6368C4.06725 24.6368 4.15814 24.5686 4.15814 23.9551V5.5712C4.15814 2.41254 3.52187 2.04896 2.40838 2.04896C0.613171 2.07168 0.454102 2.02623 0.454102 1.54902C0.454102 1.27633 0.567722 1.23088 1.24945 1.23088C2.49928 1.23088 3.72638 1.27633 5.13528 1.27633C5.97608 1.27633 7.88491 1.02637 11.4981 1.02637C16.7019 1.02637 18.9289 3.70782 18.9289 6.54834C18.9289 9.38887 17.2018 10.775 15.9293 11.6613C15.1794 12.1839 14.2931 12.6157 14.2931 12.7293C14.2931 12.8202 15.043 13.002 15.8611 13.411C17.7472 14.3655 20.0878 15.7289 20.0878 19.2057C20.0651 23.6824 16.361 25.7957 10.7936 25.7957Z" fill="white"/>
<path d="M27.4507 11.7067C24.8147 11.7067 23.9739 15.6607 23.9739 16.1606C23.9739 16.3424 23.9739 16.3651 24.3829 16.3651C26.2009 16.3651 28.0642 15.9106 30.6775 15.5016C31.0638 15.4334 31.0866 15.3653 31.0866 15.1607C31.1093 14.2745 29.0641 11.7067 27.4507 11.7067ZM32.8136 15.8879C31.9046 16.0924 28.4278 16.8651 24.4738 17.115C23.9057 17.1605 23.8148 17.3195 23.8148 18.1149C23.8148 22.9097 27.5416 24.205 30.1776 24.205C32.4727 24.205 33.7226 23.3642 33.9271 23.3642C34.1089 23.3642 34.1998 23.5687 34.1998 23.6369C34.1998 23.8187 31.2456 26.0002 28.4278 26.0002C25.5873 26.0002 21.3379 24.614 21.3379 18.7966C21.3379 13.8882 24.6329 10.9795 27.7916 10.9795C29.6095 10.9795 31.8137 12.1157 33.0636 13.5928C33.6544 14.2972 34.1998 15.1153 34.1998 15.4107C34.2452 15.5243 33.7453 15.6607 32.8136 15.8879Z" fill="white"/>
<path d="M45.5384 14.9336C45.0612 14.9336 44.6295 13.5019 42.9024 13.5019C40.88 13.5019 40.1301 14.3427 40.1301 15.7971V22.9552C40.1301 24.6595 40.2437 24.6595 42.8115 24.6595C43.7205 24.6595 43.7432 24.7731 43.7432 25.0685C43.7432 25.4549 43.6978 25.4094 42.8115 25.4094C42.3343 25.4094 39.9937 25.2276 38.8803 25.2276C37.6986 25.2276 36.5169 25.4094 36.0397 25.4094C35.2444 25.4094 35.1762 25.4094 35.1762 25.0685C35.1762 24.7277 35.2217 24.6595 36.0397 24.6595C37.4714 24.6595 37.5623 24.6141 37.5623 24.1368V14.6154C37.5623 12.2521 37.6304 12.1839 35.6761 12.1839C35.0399 12.1839 35.0399 12.2294 35.0399 11.8431C35.0399 11.434 34.9944 11.3204 35.5853 11.3204C36.7669 11.3204 37.4259 11.3886 38.1304 11.3886C38.6757 11.3886 39.3575 11.2068 39.9028 11.2068C40.0392 11.2068 40.1755 11.3204 40.1755 11.5931C40.1755 11.7749 40.1074 12.5248 40.1074 12.6384C40.1074 12.9566 40.1528 13.1838 40.2892 13.1838C40.8118 13.1838 42.448 11.3659 44.0841 11.3659C44.7204 11.3659 46.3111 12.1385 46.3111 13.0247C46.2883 13.411 45.743 14.9336 45.5384 14.9336Z" fill="white"/>
<path d="M61.9685 25.5684C61.5594 25.5684 61.105 25.523 60.7868 25.523C60.3778 25.523 59.3325 25.5684 58.8325 25.5684C58.1963 25.5684 57.9008 24.7049 56.4238 23.0233C54.9694 21.3645 53.4924 19.1602 53.2878 19.1602C53.1515 19.1602 52.6516 19.5011 52.0607 19.8874C51.5154 20.2282 51.0154 20.4782 51.0154 20.7964V22.9779C51.0154 24.614 50.9472 24.614 53.106 24.614C53.9014 24.614 54.0377 24.7958 54.0377 25.0685C54.0377 25.4094 53.8559 25.4094 53.106 25.4094C52.5834 25.4094 50.9927 25.3412 49.8792 25.3412C48.6976 25.3412 47.4023 25.4094 46.9251 25.4094C46.1297 25.4094 45.9252 25.3639 45.9252 25.0685C45.9252 24.7958 46.107 24.614 46.9251 24.614C48.1067 24.614 48.4249 24.614 48.4249 24.0914C48.4249 23.0915 48.5385 12.7974 48.5385 5.45753C48.5385 2.98059 48.2658 2.68518 47.3114 2.68518C45.8798 2.68518 45.7434 2.57155 45.7434 2.34431C45.7434 2.00345 45.8116 1.8671 46.1979 1.8671C48.6976 1.8671 50.7427 1.09448 51.0609 1.09448C51.2427 1.09448 51.3108 1.2081 51.3108 1.41262C51.3108 1.8671 51.2427 3.32145 51.2427 4.43494C51.2427 9.70695 51.0381 13.6155 51.0381 19.2738C51.0381 19.4102 51.0836 19.5238 51.1745 19.5238C52.038 19.5238 55.6512 16.3197 56.7646 15.2744C58.1281 13.9791 58.4235 13.3883 58.4235 12.6611C58.4235 12.1157 58.3099 12.0248 56.7874 12.0248C56.2647 12.0248 56.0829 11.9566 56.0829 11.6385C56.0829 11.3658 56.2647 11.2976 56.7192 11.2976C57.0601 11.2976 57.7191 11.4113 58.1508 11.4113C58.6053 11.4113 60.6277 11.2976 61.0368 11.2976C61.3095 11.2976 61.4458 11.3431 61.4458 11.434C61.4458 11.7521 60.2642 13.2519 59.1961 14.2745C57.4691 15.9788 55.3103 17.5013 55.3103 17.7513C55.3103 18.0694 55.9466 18.7284 58.3781 21.6371C59.5597 23.0688 60.6732 24.7731 61.8549 24.7731C62.6957 24.7731 62.9683 24.9549 62.9683 25.2276C62.9683 25.5003 62.7411 25.5684 61.9685 25.5684Z" fill="white"/>
<path d="M67.99 11.7067C65.354 11.7067 64.5132 15.6607 64.5132 16.1606C64.5132 16.3424 64.5132 16.3651 64.9223 16.3651C66.7175 16.3651 68.6036 15.9106 71.2169 15.5016C71.6032 15.4334 71.6259 15.3653 71.6259 15.1607C71.6259 14.2745 69.5807 11.7067 67.99 11.7067ZM73.3302 15.8879C72.4212 16.0924 68.9444 16.8651 64.9904 17.115C64.445 17.1605 64.3314 17.3195 64.3314 18.1149C64.3314 22.9097 68.0582 24.205 70.6942 24.205C72.9893 24.205 74.2392 23.3642 74.4437 23.3642C74.6255 23.3642 74.7164 23.5687 74.7164 23.6369C74.7164 23.8187 71.7622 26.0002 68.9444 26.0002C66.1039 26.0002 61.8545 24.614 61.8545 18.7966C61.8545 13.8882 65.1495 10.9795 68.3082 10.9795C70.1261 10.9795 72.3303 12.1157 73.5802 13.5928C74.171 14.2972 74.7164 15.1153 74.7164 15.4107C74.7618 15.5243 74.2846 15.6607 73.3302 15.8879Z" fill="white"/>
<path d="M80.9887 25.4321C80.466 25.4321 79.6934 25.3639 79.0798 25.3639C77.8982 25.3639 76.0575 25.4321 75.5803 25.4321C74.785 25.4321 74.7168 25.3639 74.7168 25.0912C74.7168 24.8413 74.7622 24.6368 75.5803 24.6368C77.0119 24.6368 77.6028 24.6822 77.6028 24.0459V4.88944C77.6028 2.70792 77.3983 2.70792 75.8303 2.70792C75.194 2.70792 74.8531 2.63975 74.8531 2.25343C74.8531 1.8444 75.1258 1.86712 75.7167 1.8444C78.4208 1.66261 79.7388 1.07178 79.9434 1.07178C80.1252 1.07178 80.2842 1.25357 80.2842 1.61716C80.2842 2.02619 80.1024 3.27602 80.1024 4.32134C80.1024 17.5695 79.9206 20.3192 79.9206 21.319C79.9206 24.205 80.1706 24.5913 80.7842 24.5913C82.5112 24.5913 82.443 24.7958 82.443 25.0685C82.4885 25.4321 82.2385 25.4321 80.9887 25.4321Z" fill="white"/>
<path d="M88.0331 11.7067C85.3971 11.7067 84.5563 15.6607 84.5563 16.1606C84.5563 16.3424 84.5563 16.3651 84.9653 16.3651C86.7833 16.3651 88.6467 15.9106 91.2599 15.5016C91.6463 15.4334 91.669 15.3653 91.669 15.1607C91.6917 14.2745 89.6238 11.7067 88.0331 11.7067ZM93.3733 15.8879C92.4643 16.0924 88.9875 16.8651 85.0335 17.115C84.4881 17.1605 84.3745 17.3195 84.3745 18.1149C84.3745 22.9097 88.1013 24.205 90.7373 24.205C93.0324 24.205 94.2823 23.3642 94.4868 23.3642C94.6686 23.3642 94.7595 23.5687 94.7595 23.6369C94.7595 23.8187 91.8053 26.0002 88.9875 26.0002C86.147 26.0002 81.8976 24.614 81.8976 18.7966C81.8976 13.8882 85.1926 10.9795 88.374 10.9795C90.1919 10.9795 92.3962 12.1157 93.646 13.5928C94.2368 14.2972 94.7822 15.1153 94.7822 15.4107C94.8049 15.5243 94.3277 15.6607 93.3733 15.8879Z" fill="white"/>
<path d="M109.121 12.1612C108.348 12.1612 106.826 16.3424 104.076 23.0006C101.895 28.3181 100.327 31.1359 99.2134 33.431C98.827 34.2036 98.418 34.2263 97.6454 34.34C96.6001 34.4763 96.3501 34.749 95.6002 34.749C95.0094 34.749 94.6685 34.5672 94.6685 34.4081C94.6685 34.2036 96.3047 33.9991 97.4863 32.4993C98.7361 30.9313 101.736 26.841 101.736 25.7957C101.736 25.4094 98.9634 18.9784 97.0546 14.4563C96.191 12.3657 95.9411 12.2066 95.3275 12.2066C94.6231 12.2066 94.6003 12.1612 94.6003 11.8658C94.6003 11.5476 94.714 11.3885 95.3275 11.3885C96.3047 11.3885 96.5546 11.4567 97.3727 11.4567C98.3498 11.4567 99.5542 11.3431 100.668 11.3431C101.395 11.3431 101.531 11.4794 101.531 11.8658C101.531 12.1839 101.395 12.2066 100.668 12.2066C99.8269 12.2066 99.6224 12.4111 99.6224 13.2065C99.6224 14.2063 100.531 15.4334 102.622 20.7736C102.895 21.5008 103.326 22.0916 103.463 22.0916C103.713 22.0916 103.917 21.6144 104.463 19.9783C105.303 17.4786 106.553 13.8655 106.553 13.3655C106.553 12.3202 106.553 12.1157 105.372 12.1157C104.304 12.1157 104.144 12.1157 104.144 11.7749C104.144 11.3204 104.258 11.3204 104.872 11.3204C105.803 11.3204 106.44 11.3885 107.371 11.3885C107.894 11.3885 108.826 11.2522 109.326 11.2522C109.871 11.2522 110.053 11.2976 110.053 11.6612C110.03 11.9794 109.553 12.1612 109.121 12.1612Z" fill="white"/>
<path d="M116.848 25.3639V6.59375H128.21V8.36624H118.779V15.0926H126.665V16.8424H118.779V23.6142H128.21V25.3867H116.848V25.3639Z" fill="white"/>
<path d="M139.322 25.3639L135.595 19.5692L131.891 25.3639H129.777L134.527 18.2967L130.073 11.593H132.141L135.572 16.9332L138.935 11.593H141.003L136.617 18.2285L141.367 25.3412H139.322V25.3639Z" fill="white"/>
<path d="M148.23 25.8183C145.617 25.8183 144.435 24.3867 144.526 21.5007L144.753 13.3427L142.64 13.2291L142.731 12.0475L144.799 11.5703L144.889 8.43433H146.662L146.571 11.6612H151.161L151.07 13.32H146.503L146.298 21.5462C146.23 23.2959 146.866 24.1367 148.321 24.1367C149.23 24.1367 150.116 23.8413 150.957 23.4777L151.298 25.0912C150.343 25.5456 149.23 25.8183 148.23 25.8183Z" fill="white"/>
<path d="M155.183 18.7057C155.252 21.7962 157.115 24.0232 160.001 24.0232C161.501 24.0232 162.955 23.5687 164 22.887L164.364 24.5913C163.182 25.3185 161.66 25.773 159.956 25.773C155.979 25.773 153.32 22.7961 153.32 18.6149C153.32 14.2973 156.092 11.2295 159.819 11.2295C162.864 11.2295 164.841 13.2065 164.841 16.3197C164.841 17.0469 164.728 17.9104 164.546 18.524L155.229 18.5921V18.7057H155.183ZM162.932 17.0469C162.955 16.8878 162.955 16.5924 162.955 16.4561C162.955 14.3427 161.819 12.9111 159.66 12.9111C157.206 12.9111 155.592 14.7972 155.297 17.0923L162.932 17.0469Z" fill="white"/>
<path d="M177.385 25.3639V16.4788C177.385 14.07 176.431 13.002 174.34 13.002C172.84 13.002 171.295 13.82 170.159 14.9563V25.3867H168.295V11.6158L170.159 11.2295V13.4792C171.59 12.0476 173.408 11.2295 174.84 11.2295C177.612 11.2295 179.226 12.9338 179.226 15.9561V25.3867H177.385V25.3639Z" fill="white"/>
<path d="M186.838 25.773C185.225 25.773 183.498 25.2958 182.339 24.5459L182.839 22.8416C184.02 23.6142 185.475 24.1141 186.906 24.1141C188.565 24.1141 189.997 23.296 189.997 21.7962C189.997 20.1374 188.247 19.6602 186.543 19.1148C184.657 18.5467 182.543 17.615 182.543 15.2062C182.543 12.7066 184.611 11.2295 187.202 11.2295C188.702 11.2295 190.201 11.6613 191.383 12.2521L190.838 13.9337C189.701 13.2974 188.293 12.9111 187.088 12.9111C185.407 12.9111 184.316 13.6837 184.316 15.0244C184.316 16.5924 185.929 17.0696 187.702 17.615C189.656 18.1831 191.769 19.0921 191.769 21.6372C191.769 24.1368 189.588 25.773 186.838 25.773Z" fill="white"/>
<path d="M195.337 8.45711C194.496 8.45711 194.065 7.79811 194.065 7.07093C194.065 6.38921 194.496 5.75293 195.337 5.75293C196.178 5.75293 196.61 6.38921 196.61 7.07093C196.587 7.79811 196.178 8.45711 195.337 8.45711ZM194.405 25.3639V11.6158L196.269 11.2295V25.3866H194.405V25.3639Z" fill="white"/>
<path d="M205.631 25.773C201.814 25.773 198.996 22.9552 198.996 18.524C198.996 14.1382 201.95 11.2295 205.79 11.2295C209.631 11.2295 212.403 14.0473 212.403 18.4785C212.38 22.8415 209.449 25.773 205.631 25.773ZM205.677 12.8884C202.768 12.8884 200.836 15.2062 200.836 18.4558C200.836 21.819 202.791 24.0687 205.699 24.0687C208.608 24.0687 210.54 21.7508 210.54 18.5012C210.562 15.1608 208.608 12.8884 205.677 12.8884Z" fill="white"/>
<path d="M224.924 25.3639V16.4788C224.924 14.07 223.97 13.002 221.879 13.002C220.379 13.002 218.834 13.82 217.698 14.9563V25.3867H215.834V11.6158L217.698 11.2295V13.4792C219.129 12.0476 220.947 11.2295 222.379 11.2295C225.151 11.2295 226.765 12.9338 226.765 15.9561V25.3867H224.924V25.3639Z" fill="white"/>
</svg>
