<svg width="72" height="73" viewBox="0 0 72 73" fill="none" xmlns="http://www.w3.org/2000/svg">
<path d="M65.1121 63.3942L52.2399 70.9402C50.9205 71.7393 49.4138 72.1611 47.8787 72.1611C46.3435 72.1611 44.8368 71.7393 43.5174 70.9402L30.6346 63.3942C29.3525 62.5749 28.293 61.4408 27.5532 60.096C26.8134 58.7512 26.417 57.2387 26.4004 55.6974V40.6054C26.4182 39.0507 26.8289 37.5269 27.5927 36.1808C28.3566 34.8346 29.4479 33.7114 30.7617 32.9193L43.6444 25.3733C44.9657 24.5797 46.4717 24.1611 48.0057 24.1611C49.5397 24.1611 51.0456 24.5797 52.3669 25.3733L65.2391 32.9193C66.5528 33.7114 67.6442 34.8346 68.4081 36.1808C69.1719 37.5269 69.5825 39.0507 69.6004 40.6054V55.6974C69.5377 57.2587 69.0947 58.7797 68.3112 60.1233C67.5277 61.4669 66.4283 62.591 65.1121 63.3942Z" fill="#CDF567"/>
<path d="M39 51.1611H19.5C16.185 51.1611 13.5 48.4761 13.5 45.1611V21.1611C13.5 17.8461 16.185 15.1611 19.5 15.1611H48C51.315 15.1611 54 17.8461 54 21.1611V39.2061" stroke="#0D1117" stroke-width="2" stroke-linecap="round" stroke-linejoin="round"/>
<path d="M21 22.5562H24" stroke="#0D1117" stroke-width="2" stroke-linecap="round" stroke-linejoin="round"/>
<path d="M21 40.6611H22.5" stroke="#0D1117" stroke-width="2" stroke-linecap="round" stroke-linejoin="round"/>
<path d="M28.5 40.6611H31.5" stroke="#0D1117" stroke-width="2" stroke-linecap="round" stroke-linejoin="round"/>
<path d="M37.5 28.6611H40.5" stroke="#0D1117" stroke-width="2" stroke-linecap="round" stroke-linejoin="round"/>
<path d="M30 22.5562H46.5" stroke="#0D1117" stroke-width="2" stroke-linecap="round" stroke-linejoin="round"/>
<path d="M21 34.6611H37.5" stroke="#0D1117" stroke-width="2" stroke-linecap="round" stroke-linejoin="round"/>
<path d="M21 28.5562H31.5" stroke="#0D1117" stroke-width="2" stroke-linecap="round" stroke-linejoin="round"/>
<path d="M48.75 57.1611C54.1348 57.1611 58.5 52.7959 58.5 47.4111C58.5 42.0264 54.1348 37.6611 48.75 37.6611C43.3652 37.6611 39 42.0264 39 47.4111C39 52.7959 43.3652 57.1611 48.75 57.1611Z" stroke="#0D1117" stroke-width="2" stroke-linecap="round" stroke-linejoin="round"/>
<path d="M44.25 47.4111L47.175 50.3361L52.65 45.1611" stroke="#0D1117" stroke-width="2" stroke-linecap="round" stroke-linejoin="round"/>
</svg>
