<svg width="72" height="72" viewBox="0 0 72 72" fill="none" xmlns="http://www.w3.org/2000/svg">
<path d="M53.1121 39.4211L40.2399 46.9671C38.9205 47.7662 37.4138 48.188 35.8787 48.188C34.3435 48.188 32.8368 47.7662 31.5174 46.9671L18.6346 39.4211C17.3525 38.6017 16.293 37.4676 15.5532 36.1228C14.8134 34.778 14.417 33.2656 14.4004 31.7242V16.6323C14.4182 15.0776 14.8289 13.5538 15.5927 12.2076C16.3566 10.8614 17.4479 9.73822 18.7617 8.94614L31.6444 1.40016C32.9657 0.606558 34.4717 0.187988 36.0057 0.187988C37.5397 0.187988 39.0456 0.606558 40.3669 1.40016L53.2391 8.94614C54.5528 9.73822 55.6442 10.8614 56.4081 12.2076C57.1719 13.5538 57.5825 15.0776 57.6004 16.6323V31.7242C57.5377 33.2856 57.0947 34.8065 56.3112 36.1502C55.5277 37.4938 54.4283 38.6178 53.1121 39.4211Z" fill="#CDF567"/>
<path d="M29.1258 37.3531L27.025 38.7654C22.8234 41.6077 20.0518 46.4272 20.0518 51.8999C20.0518 53.9477 21.7112 55.6072 23.7591 55.6072H48.0508C50.0986 55.6072 51.7581 53.9477 51.7581 51.8999C51.7581 46.4272 48.9864 41.6077 44.7848 38.7654L42.7193 37.3531" stroke="#0D1117" stroke-width="2" stroke-linecap="round" stroke-linejoin="round"/>
<path d="M34.9514 16.7687H36.8757C42.1718 16.7687 46.4794 21.0763 46.4794 26.3724V29.25C46.4794 35.0758 41.7482 39.8247 35.9047 39.8247C30.079 39.8247 25.3301 35.0934 25.3301 29.25V26.3724C25.3477 21.0763 29.6553 16.7687 34.9514 16.7687Z" stroke="#0D1117" stroke-width="2" stroke-linecap="round" stroke-linejoin="round"/>
</svg>
