<svg width="72" height="73" viewBox="0 0 72 73" fill="none" xmlns="http://www.w3.org/2000/svg">
<path d="M41.1121 40.2063L28.2399 47.7522C26.9205 48.5514 25.4138 48.9731 23.8787 48.9731C22.3435 48.9731 20.8368 48.5514 19.5174 47.7522L6.63464 40.2063C5.35253 39.3869 4.293 38.2528 3.55319 36.908C2.81338 35.5632 2.41698 34.0507 2.40039 32.5094V17.4174C2.41823 15.8627 2.82887 14.339 3.59273 12.9928C4.35658 11.6466 5.44795 10.5234 6.7617 9.73129L19.6444 2.18531C20.9657 1.39171 22.4717 0.973145 24.0057 0.973145C25.5397 0.973145 27.0456 1.39171 28.3669 2.18531L41.2391 9.73129C42.5528 10.5234 43.6442 11.6466 44.4081 12.9928C45.1719 14.339 45.5825 15.8627 45.6004 17.4174V32.5094C45.5377 34.0707 45.0947 35.5917 44.3112 36.9353C43.5277 38.2789 42.4283 39.403 41.1121 40.2063Z" fill="#CDF567"/>
<path d="M57.5177 48.9439C57.5177 52.6681 54.4986 55.6873 50.7743 55.6873H20.429C16.7032 55.6873 13.6855 52.6696 13.6855 48.9439V28.7136C13.6855 24.9879 16.7032 21.9702 20.429 21.9702H50.7743C54.5001 21.9702 57.5177 24.9879 57.5177 28.7136V48.9439Z" stroke="#0D1117" stroke-width="2" stroke-linecap="round" stroke-linejoin="round"/>
<path d="M57.5177 28.7136C57.5177 32.4394 54.5001 35.457 50.7743 35.457H20.429C16.7032 35.457 13.6855 32.4394 13.6855 28.7136" stroke="#0D1117" stroke-width="2" stroke-linecap="round" stroke-linejoin="round"/>
<path d="M38.7037 35.457H32.5167C31.5856 35.457 30.8308 36.2118 30.8308 37.1429V38.8287C30.8308 39.7598 31.5856 40.5146 32.5167 40.5146H38.7037C39.6348 40.5146 40.3896 39.7598 40.3896 38.8287V37.1429C40.3896 36.2118 39.6348 35.457 38.7037 35.457Z" stroke="#0D1117" stroke-width="2" stroke-linecap="round" stroke-linejoin="round"/>
<path d="M42.0588 16.9127C43.9132 16.9127 45.4305 18.4299 45.4305 20.2844C45.4305 21.2116 44.6719 21.9702 43.7446 21.9702H27.4593C26.5321 21.9702 25.7734 21.2116 25.7734 20.2844C25.7734 18.4299 27.2907 16.9127 29.1451 16.9127H42.0756H42.0588Z" stroke="#0D1117" stroke-width="2" stroke-linecap="round" stroke-linejoin="round"/>
</svg>
