<svg xmlns="http://www.w3.org/2000/svg" width="37" height="33" fill="none"><path fill="#0C9EF0" d="M35.714 18.907a.986.986 0 0 0-.898.464c-.358-.226-1.328-.701-1.705-.897l-.136-.069a.088.088 0 0 0-.069 0v-.023a.593.593 0 0 0 0-.084c.38-7.89-7.545-14.021-15.219-11.648a12.023 12.023 0 0 0-4.867 2.987 12.149 12.149 0 0 0-2.959 4.907 14.112 14.112 0 0 0-.495 3.524l-.289.115-.209.088c-.38.169-.761.349-1.141.544-.38.196-.761.384-1.108.625a.119.119 0 0 0-.045.15.122.122 0 0 0 .156.057c.38-.176.76-.333 1.141-.479.38-.145.78-.276 1.176-.383h.023c.19-.058.38-.108.574-.157l.297-.07h.034l.266-.057c.4-.088.803-.142 1.207-.192h.045a.413.413 0 0 0 .348-.339.42.42 0 0 0-.208-.44.412.412 0 0 0-.334-.03c-.38.092-.76.192-1.107.31l.072-.022c.022-1.062.174-2.116.453-3.14a11.23 11.23 0 0 1 2.735-4.528 11.114 11.114 0 0 1 4.494-2.757c.305-.093.613-.174.924-.241.301-.066 1.503-.238.19.502a10.084 10.084 0 0 0-4.565 5.728c-.38 1.238-.529 3.68-.262 5.555.083.587-.115.702-.476.855-.761.326-2.093.917-2.777 1.753-.267.322-.38 0-.446-.23a11.856 11.856 0 0 1-.243-1.918.188.188 0 0 0-.15-.174.187.187 0 0 0-.082.002c-.187.046-.38.092-.556.153a.186.186 0 0 0-.125.184c.106 2.466.726 4.758 2.21 4.686a.198.198 0 0 0 .18-.242 1.146 1.146 0 0 1-.514-.575c-.491-1.48 4.06-3.416 9.892-4.294 5.357-.81 9.957-.441 10.756.79.165.21.183.502.045.732a3.627 3.627 0 0 1-1.45 1.438.222.222 0 0 0-.102.232c.006.029.018.057.034.082a.217.217 0 0 0 .282.077 4.236 4.236 0 0 0 1.788-1.672 4.58 4.58 0 0 0 .38-1.718c.38.12 1.385.526 1.77.683h.03c-.016.064-.026.13-.03.195-.011.284.086.561.271.775a1.1 1.1 0 0 0 .725.376.993.993 0 0 0 .955-.585c.056-.121.087-.252.092-.385a1.11 1.11 0 0 0-.256-.783 1.093 1.093 0 0 0-.722-.387v-.05Zm-7.503-2.492a.529.529 0 0 1-.336.511.518.518 0 0 1-.212.034c-1.28-.1-2.567-.077-3.843.069a.517.517 0 0 1-.524-.325.53.53 0 0 1-.039-.216v-.452a.247.247 0 0 1 .19-.238c1.51-.254 3.05-.272 4.566-.054a.228.228 0 0 1 .19.234l.008.437Zm2.686-1.284a.198.198 0 0 1-.24.077c-3.317-1.27-8.495-.553-8.495-.553a20.955 20.955 0 0 0-5.198 1.204.582.582 0 0 1-.733-.287.593.593 0 0 1-.062-.28c.014-.459.06-.916.137-1.369a6.99 6.99 0 0 1 1.434-3.385c.046-.054.092-.108.141-.157a.146.146 0 0 1 .03-.039l.023-.027.058-.06.026-.028c2.256-2.377 6.225-2.65 9.01-1.1a8.883 8.883 0 0 1 3.34 3.343c.122.23.89 2.02.53 2.66Z"/><path fill="#0C9EF0" d="M29.132 12.155a5.779 5.779 0 0 0-2.736-2.416 8.312 8.312 0 0 0-4.052-.62c-.49.038-.973.145-1.434.317a.194.194 0 0 0-.139.214.195.195 0 0 0 .189.17c1.04-.11 2.09-.082 3.123.084 3.805.767 5.022 2.611 5.156 2.684.038.02.083-.02.064-.057a4.023 4.023 0 0 0-.167-.384m-17.018 6.698a.38.38 0 0 0 .582.046 1.09 1.09 0 0 0 .27-.46 2.173 2.173 0 0 0-.08-1.346 1.3 1.3 0 0 0-.56-.648.206.206 0 0 0-.155-.026.735.735 0 0 0-.38.295.127.127 0 0 0 .033.188 1.144 1.144 0 0 1 .59.809 1.252 1.252 0 0 1-.3.977.127.127 0 0 0 0 .165Zm-7.115.56a1.224 1.224 0 0 0-.905.295 1.24 1.24 0 0 0-.427.855c-.005.344.122.676.354.927.233.25.554.401.894.419.322.023.64-.082.887-.293.246-.21.4-.51.43-.834a1.325 1.325 0 0 0-.34-.939 1.305 1.305 0 0 0-.893-.43Z"/><path fill="#0C9EF0" d="M32.695 16.74c0-7.497-5.155-13.993-12.413-15.64C13.024-.546 5.602 3.097 2.416 9.871c-3.187 6.774-1.29 14.87 4.569 19.49l.304.242c.104.08.21.157.304.234a15.797 15.797 0 0 0 5.421 2.484h.046l.27.065.083.015.256.055.1.018.25.046.097.019c.165.026.329.051.493.073l.098.016.185.021.189.022.177.018.204.019h2.51l.174-.016.222-.018.183-.022.213-.024.186-.025.204-.03.188-.031.198-.03.192-.038.195-.036.192-.043.188-.04.192-.046.186-.046.234-.034.177-.049.197-.055.174-.052.195-.065a1.63 1.63 0 0 0 .17-.055l.198-.067.164-.059.198-.073.158-.062.195-.076.152-.062.201-.086.15-.064.2-.092.143-.068.201-.098.137-.07.201-.102.134-.073c.07-.034.137-.07.2-.107l.132-.074.2-.117.123-.073.203-.123.116-.073.204-.13.11-.073.204-.138.103-.07.207-.148.094-.07.21-.157.086-.064.213-.166.076-.064.216-.175.064-.058.222-.187.052-.046.228-.209.033-.028.24-.23a15.98 15.98 0 0 0 3.631-5.28 16.083 16.083 0 0 0 1.273-6.295m-11.07 5.361c-.021-.178-.042-.359-.07-.537-.027-.178-.052-.355-.085-.53-.034-.175-.06-.353-.094-.528a7.47 7.47 0 0 0-.119-.512.24.24 0 0 1 .16-.278.236.236 0 0 1 .29.134c.067.19.113.362.162.546.049.184.091.359.13.54.077.365.138.727.195 1.092.073.478.122.96.162 1.438.304.015.63.037.943.068a12.1 12.1 0 0 1 2.502.53.216.216 0 0 1 .135.257.217.217 0 0 1-.238.163h-.015c-.408-.07-.804-.168-1.218-.214l-.304-.046-.153-.022h-.152l-.608-.058c-.104-.015-.207 0-.305-.021l-.304-.019h-.225v.157l.024.549v1.656c0 .368-.027.733-.04 1.098-.012.365-.051.733-.085 1.098a.24.24 0 0 1-.245.204.237.237 0 0 1-.227-.226c0-.361 0-.723.019-1.085.018-.362 0-.727 0-1.09 0-.361 0-.723-.019-1.082l-.018-.543V24.05h-1.017c-.207 0-.414.018-.608.024-.195.006-.414.022-.609.04a31.024 31.024 0 0 0-3.698.488.218.218 0 0 1-.256-.172.222.222 0 0 1 .155-.251c.417-.114.825-.203 1.242-.286.417-.082.831-.15 1.251-.214.207-.034.42-.056.63-.083.21-.028.42-.05.63-.068.21-.018.42-.04.633-.049.213-.009.424-.03.637-.034.334-.015.67-.018 1.007 0-.037-.45-.08-.898-.134-1.343m-8.127-2.175c-.152.51-.508 1.737-.73 2.697a77.707 77.707 0 0 0-1.245 8.471A14.965 14.965 0 0 1 7.76 28.99c.244-1.847.636-3.67 1.172-5.453a8.93 8.93 0 0 1 .797-1.856 2.59 2.59 0 0 1 1.072-.902l.079-.037.13-.073.168-.086c.116-.055.228-.11.34-.16l.174-.076.17-.07.348-.136a20.78 20.78 0 0 1 1.144-.368c.168-.049.256 0 .213.153Zm13.557 4.295c-.475-1.782-1.117-4.574-3.013-5.215-2.021-.693-4.194-.77-6.295-.635a19.78 19.78 0 0 0-4.41.795c-.636.187-2.675.975-3.08 1.184-.463.21-.86.544-1.148.966a9.57 9.57 0 0 0-.855 1.987 38.287 38.287 0 0 0-1.172 5.215 15.974 15.974 0 0 1-1.035-.954C.21 21.612.182 11.969 6.057 5.984a15.1 15.1 0 0 1 21.415-.173c5.969 5.89 6.096 15.532.283 21.578a24.977 24.977 0 0 0-.63-3.165"/></svg>