<svg width="32" height="33" fill="none" xmlns="http://www.w3.org/2000/svg"><path d="M16 .5a16 16 0 1 0 0 32 16 16 0 0 0 0-32zm.163 6.857c.6 0 1.2.059 1.789.176l-1.79 3.742a5.232 5.232 0 0 0-5.225 5.225 5.235 5.235 0 0 0 5.227 5.227c1.25 0 2.459-.451 3.404-1.268l1.977 3.429a9.142 9.142 0 1 1-5.382-16.53zm4.664.654h.034c.57 0 1.056.15 1.468.453.414.305.622.728.622 1.261 0 .852-.48 1.374-1.38 1.835l-.503.255c-.537.272-.803.513-.876.941h2.733v1.133h-4.134v-.192c0-.701.137-1.28.418-1.741.282-.46.768-.867 1.47-1.223l.322-.156c.57-.288.718-.534.718-.833 0-.355-.304-.61-.8-.61-.587 0-1.031.303-1.339.925l-.79-.794c.174-.372.451-.669.826-.9.362-.23.782-.353 1.21-.354zm-2.792 7.184h4.525l2.263 3.916-2.263 3.92-2.263-3.92h-4.524l2.262-3.916z" fill="#FF492C"/></svg>