<svg width="30" height="33" fill="none" xmlns="http://www.w3.org/2000/svg"><path d="m26.491 27.178-8.608 4.956a5.705 5.705 0 0 1-5.833 0l-8.616-4.956a6.046 6.046 0 0 1-2.831-5.054v-9.911a5.947 5.947 0 0 1 2.916-5.047l8.616-4.956a5.742 5.742 0 0 1 5.833 0l8.608 4.956a5.947 5.947 0 0 1 2.917 5.047v9.91a6.187 6.187 0 0 1-3.002 5.055z" fill="url(#a)"/><path d="M17.452 27.25a4.61 4.61 0 0 1-1.919-.355c-.354-.142-.637-.283-.998-.432a5.106 5.106 0 0 1-1.352-1.062 3.603 3.603 0 0 1-.708-1.352 5.61 5.61 0 0 1-.212-1.564v-2.067a2.69 2.69 0 0 0-.361-1.494 1.516 1.516 0 0 0-1.204-.566v-2.35a1.196 1.196 0 0 0 1.204-.567c.302-.435.431-.968.36-1.494V11.88a5.95 5.95 0 0 1 .213-1.564c.12-.503.363-.968.708-1.352a5.728 5.728 0 0 1 1.416-1.14c.29-.142.644-.283.998-.425a5.317 5.317 0 0 1 1.848-.283h.29v2.343a2.301 2.301 0 0 0-.708.149.948.948 0 0 0-.495.425l-.213.424c-.063.157-.09.327-.078.496 0 .22-.07.36-.07.573v2.492a3.54 3.54 0 0 1-.567 1.848 3.752 3.752 0 0 1-1.784 1.352c.717.257 1.338.73 1.777 1.352a3.54 3.54 0 0 1 .566 1.848v2.562c-.015.192.01.385.071.567 0 .141.078.36.078.502l.212.425c.15.159.316.301.496.425.228.08.466.128.708.141v2.35h-.29l.014-.14z" fill="#fff"/><defs><linearGradient id="a" x1="15.048" y1="1.257" x2="15.048" y2="32.778" gradientUnits="userSpaceOnUse"><stop stop-color="#F28F41"/><stop offset="1" stop-color="#EB5E30"/></linearGradient></defs></svg>