<svg width="35" height="42" fill="none" xmlns="http://www.w3.org/2000/svg"><path d="M7.322 27.902a21.923 21.923 0 0 0 9.063 7.847l.031.014 1.074 2.95a.75.75 0 0 0 .96.448l12.686-4.617a.75.75 0 0 0 .448-.96l-1.103-3.032a18.61 18.61 0 0 0-.647-10.546l-1.998-5.49a3.003 3.003 0 0 0-3.844-1.792 2.981 2.981 0 0 0-1.395 1.049 3.004 3.004 0 0 0-3.347-.92 2.98 2.98 0 0 0-1.394 1.05 3.004 3.004 0 0 0-4.619-.03l-2.343-6.437a2.999 2.999 0 1 0-5.638 2.052L8.95 19.634l-1.458 1.985a5.535 5.535 0 0 0-.17 6.283z" fill="#fff"/><path d="M26.613 21.346a.75.75 0 1 0-.514-1.41.75.75 0 0 0 .514 1.41z" fill="#1C1F34"/><path d="M7.322 27.902a21.923 21.923 0 0 0 9.063 7.847l.031.014 1.074 2.95a.75.75 0 0 0 .96.448l12.686-4.617a.75.75 0 0 0 .448-.96l-1.103-3.032c.803-3.483.59-7.147-.647-10.546l-1.998-5.49a3.003 3.003 0 0 0-3.844-1.792 2.98 2.98 0 0 0-1.395 1.049 3.005 3.005 0 0 0-3.347-.92 2.982 2.982 0 0 0-1.394 1.05 3.004 3.004 0 0 0-4.619-.03l-2.343-6.437a2.999 2.999 0 1 0-5.638 2.052L8.95 19.634l-1.458 1.985a5.535 5.535 0 0 0-.17 6.283zM8.7 22.507l.866-1.18 1.743 4.791a.75.75 0 1 0 1.41-.512L6.666 8.974a1.5 1.5 0 1 1 2.819-1.026l5.027 13.812a.75.75 0 1 0 1.41-.513l-1.796-4.933a1.5 1.5 0 1 1 2.819-1.026l1.795 4.933a.75.75 0 1 0 1.41-.513l-1.283-3.524c-.283-.777.12-1.64.896-1.922.777-.283 1.64.12 1.923.896l1.282 3.524a.75.75 0 1 0 1.41-.513l-.77-2.114c-.283-.777.12-1.64.896-1.923.778-.282 1.64.12 1.923.897l1.998 5.489c1.148 3.155 1.35 6.6.546 9.902a.751.751 0 0 0 .023.434l.924 2.537-11.275 4.103-.924-2.537a.75.75 0 0 0-.388-.423c-.21-.115-2.544-1.047-5.043-3.211a20.44 20.44 0 0 1-3.712-4.244 4.03 4.03 0 0 1 .124-4.573z" fill="#1C1F34"/><path d="M26.855 30.526a.75.75 0 0 0 .906-.55c.532-2.18.59-4.398.174-6.595a.75.75 0 0 0-1.474.28 13.98 13.98 0 0 1-.157 5.959.75.75 0 0 0 .551.906z" fill="#1C1F34"/></svg>