<svg xmlns="http://www.w3.org/2000/svg" xmlns:xlink="http://www.w3.org/1999/xlink" viewBox="0 0 184.43 176.14">
  <defs>
    <linearGradient id="e02520a5-ace7-49ea-a42d-a2245f0943e5" data-name="Безымянный градиент 3" x1="63.78" y1="34.73" x2="63.78" y2="23.62" gradientTransform="matrix(1, 0, 0, -1, 0, 132.56)" gradientUnits="userSpaceOnUse">
      <stop offset="0" stop-color="#f48f41"/>
      <stop offset="1" stop-color="#f05e2d"/>
    </linearGradient>
  </defs>
  <title>Ресурс 1</title>
  <g id="ecce36dc-8acf-4d78-a19b-59f9edc44723" data-name="Слой 2">
    <g id="b7f4f10f-f9ca-45bf-9ed8-faa80398e8fc" data-name="Слой 2">
      <circle cx="82.77" cy="86.98" r="77.5" fill="#00c0ff" opacity="0.4"/>
    </g>
    <g id="a7b28150-3a53-465b-9ead-6645449121d9" data-name="Слой 3">
      <g>
        <path d="M132.42,158.42l12.15-.68s12.19.29,16.69-1a49.27,49.27,0,0,0,8.53-3.46l7.91,5.55s0,1.29-7.34,5.36-19.29,10.6-19.29,10.6H149.8l-2.7-1.51-1.37-5.89s1.78-.76.12-3.24a10.53,10.53,0,0,0-3.86-3.52l-5.33-.79Z" fill="#eaeff0"/>
        <path d="M128.4,142.52s9.41,1.39,14.78,2.45,10.29,2.5,10.29,2.5l10.09,2.65,13.52-5.82,6.49-4.69a77.59,77.59,0,0,0-7.72-3.62c-2.88-1-39.39-8.09-39.39-8.09s-.86,5.8-3.37,9S128.4,142.52,128.4,142.52Z" fill="#eaeff0"/>
        <path d="M89.08,160.17l-8.49,3.6a19.71,19.71,0,0,0-2.3,7c-.23,3.34-.21,4.2-.21,4.2s16.07-4.32,32.41-3.93,37,4.53,37,4.53l-2.1-7s-14.81-6.24-18.18-9.71a75.18,75.18,0,0,1-5.52-6.36h-8.14Z" fill="#eaeff0"/>
        <path d="M51,155.6l-.78,1s12,7.06,16,8.74,5.21,2,5.21,2L84.89,162l5.42-2.24v-16l-4.5-3.69-23,6.29A11.27,11.27,0,0,1,58,153.4C54,155.86,51,155.6,51,155.6Z" fill="#eaeff0"/>
        <path d="M31.59,129l31.18,6.43L51,155.6l-4,5.31a172.26,172.26,0,0,1-23.62-3.83C9.05,153.88.64,151.61.64,151.61l7-4.85Z" fill="#eaeff0"/>
        <path d="M176.89,139.73c-.36-7.2-9.85-11.5-9.85-11.5s-5.75-3-15.74-3.93a77,77,0,0,0-14.24-.22S136,116.71,135.22,113a45.29,45.29,0,0,0-3.3-8.8s-6-10.41-7.2-13.2S120,78.83,120,78.83s-2.65-7-5.53-10.46a9.62,9.62,0,0,1-3.09-2.93c-1.63,4.19-5.74,8.16-8.9,10.55a30.79,30.79,0,0,1-13.11,5.83c-.56.33-1.14.66-1.73,1-1.26.55-9.9,1-13,.15-9.08-2.38-13.46-5.25-14.78-9-.92.53-3.54,5.93-3.82,6.84-.68,2.15-1.32,4.32-1.94,6.49Q51.37,97,49.31,106.8a13.18,13.18,0,0,0-2.06.94l-4,2.9s-4.62,4.54-5,9.24a35.93,35.93,0,0,0,.78,9.81l-1,1.64a15.23,15.23,0,0,0-1.65,6.85c0,3.92,4.27,9.23,4.27,9.23a80.51,80.51,0,0,0,5.38,6c2.32,2.23,6,2.17,9,1.09s3.73-2.07,6-4.79,1.61-4.46,1.61-4.46l-1.34-6.39,6-2.18a64.92,64.92,0,0,1,9.14-.34,23.09,23.09,0,0,1,9,2l.56,1.68.64,4.1-1.09,3.18a28.8,28.8,0,0,0-1.27,4.22C83.86,153,86,156.81,86,156.81s2.61,4.09,6.6,5.1,6.34.27,8.49-1.44,5.71-5,5.71-5,1.81-.87,2.13-1a66.87,66.87,0,0,0,5.81-3.75,20.76,20.76,0,0,0,4.8-4.92s7.27-1.82,10.8-5.71c2.16-2.35,3.08-2.75,4.12-5.76l9.44-.3,7.91.72s9.4,1.27,12.57,3.73,2.4,5-.87,6.33-8.59,2.83-17.08,2.83a116.42,116.42,0,0,0-18.47,1,9.71,9.71,0,0,0-7.81,7.2,9.6,9.6,0,0,0,3.12,8.7c3.06,3,9.91,4.66,9.91,4.66s5.2,1.89,8.49,1.35a4.94,4.94,0,0,0,4.41-5.43,5.18,5.18,0,0,0-.2-1c-.91-2.94-3.38-3.6-6.85-4.15a52.55,52.55,0,0,1-6.58-1.59l3-.6s12.42,0,20-.42a30.75,30.75,0,0,0,15.49-5.09C174.38,150.31,177.25,146.89,176.89,139.73Z" fill="#f39200"/>
        <g id="fb351110-e9d3-4597-ad51-87bd90534391" data-name="Рука">
          <path d="M106.44,70.3c2-2.32,3.9-3.6,5.56-6.18,1.44-2.23,1.49-3.36,2.11-6,1.78-7.34-.82-14.24-5.36-19.58a35.44,35.44,0,0,0-7-5.77c-.71-.47-.83-4.8-.83-4.8l-1.1-.55-3.26,2.49L95,29.07l-4.41-1.52a61.31,61.31,0,0,0-6.35-.39c-5.51-.21-14.15,0-19,2.6L62.47,31l-1.83-1.61-2-2.83H57.31l-.84,1.77-.31,3.13.78,2.64.75,1.2c-2,2.23-4.91,4-6.45,6.55-3,4.8-5.1,10.66-4.58,13.34s.85,5.32,3.32,8.4c2,2.47,4.59,5.09,6.66,7.45,2.4,2.74,3.22,2.81,6.69,4.8a45.08,45.08,0,0,0,6.83,3.09,53.75,53.75,0,0,0,7.12,1.32c5.5,1.06,8-.24,13-1.2,4.13-.75,6.9-2.57,10-4.29A20,20,0,0,0,106.44,70.3Z" fill="#f39200"/>
          <path d="M112.73,44.81A46.61,46.61,0,0,0,103.42,34a21.31,21.31,0,0,1-1.91-1.63c-.12-.53-.38-4.07-.56-4.35-.33-.51-1.51.28-1.48,2.22-.18,2.64,1.48,7.08.55,8.81-.33.61-.57,1.44-1,1.71A26.19,26.19,0,0,1,103,54c0,16.08-9.38,24.28-9.38,24.28S108,72.64,112,63.34,114.68,48.32,112.73,44.81Z" fill="#e98500"/>
          <circle cx="78.26" cy="49.16" r="7.4" fill="#fff"/>
          <circle cx="67.54" cy="47.78" r="6.36" fill="#fff"/>
          <polygon points="66.63 57.33 69.27 57.12 71.93 57.52 70.61 59.32 68.65 60.58 67.3 59.04 66.63 57.33" fill="#f9c9c3"/>
          <path d="M99.56,30.5a3.49,3.49,0,0,0-1.79,2c-.72,1.62-2,5.64-2,5.64l3.33,2.4s1.64-3.39,1.34-5.69A31.69,31.69,0,0,0,99.56,30.5Z" fill="#f9c9c3"/>
          <path d="M60.15,32.2s-3.78-2.94-3.11-5-1.51,4.12-.43,6.13l1.08,2Z" opacity="0.1" style="isolation: isolate"/>
          <path d="M91.42,28c-2.35-.48-.41,1.13-3.21,1.83A57,57,0,0,1,77,33.07a42.84,42.84,0,0,1-4.38.43,36.39,36.39,0,0,0,6.78-.43,41.86,41.86,0,0,0,5.8-1.36,7.32,7.32,0,0,1,7,1.46l0,0,1.4-.67a11.75,11.75,0,0,0,2.9-2.4l.3-.23A26.51,26.51,0,0,0,91.42,28Z" fill="#e98500"/>
        </g>
        <path d="M41.94,84.63V118l47.52,7.24L93,121.71l1.76-35.23L75.7,69.75S72.52,66.48,70,66.61s-9.21,5.26-9.21,5.26Z" fill="#eaeff0"/>
        <path d="M42.12,90.15a9.49,9.49,0,0,0-4.28,5.19,14,14,0,0,0,1.54,12c1.95,2.65,4.14,4.06,7.23,2.5a4.44,4.44,0,0,0,3.1-2c.83-1.64-1.6-4.27-1.6-4.27s1.1-.4,1.17-2.64-3.06-3.36-3.06-3.36l-4.08-3.16Z" fill="#f39200"/>
        <path d="M100.16,92.45a4.88,4.88,0,0,1-3.88,5.15c-4.34,1.18-8.42,2.43-9.08,4.93s.72,2.79.72,2.79a4.08,4.08,0,0,0-1.51,3.21,2.41,2.41,0,0,0,1.76,2.53s-1.06,3.38,3.55,4.67,11.4-2.41,11.4-2.41a29.88,29.88,0,0,0,9.73-8.85c3.76-5.69,3.91-13.33,3.91-13.33s.18-5.72-.94-8Z" fill="#f39200"/>
        <path d="M61.32,46.83a13.44,13.44,0,0,0,4.59,1.45,11.64,11.64,0,0,0,4.73.08s2.4,1.32,7.2,1.16a21.22,21.22,0,0,0,7.86-1.64s-.94-5.81-8-6.1c0,0-4,.93-5.29,2.33a5.41,5.41,0,0,0-4.87-2.69A6.07,6.07,0,0,0,61.32,46.83Z" fill="#b26500"/>
        <path d="M68.65,27.32s-4.93,1.73-4,3.69,6,2.49,12.37,1.55S91.42,28,91.42,28l.35-1.91V8.81a13.42,13.42,0,0,0-3.39-5.65C85.71.48,80.21.6,80.21.6A11.22,11.22,0,0,0,73,2.43C69.2,4.83,68.68,10,68.68,10Z" fill="#9ba7be"/>
        <path d="M102.1,143.72c.14.35,2.52,3.48,1.67,6.44s-4.56,6.45-4.56,6.45a9,9,0,0,1-6.33,1.78c-4.07-.26-3.59-6.15-3.59-6.15l2-6.88a17.42,17.42,0,0,1,2-3.46c1.2-1.49,4.17-2,4.17-2a5.29,5.29,0,0,0,2.05,2.74A24.06,24.06,0,0,0,102.1,143.72Z" fill="#f980a5"/>
        <path d="M52.29,133.35s3.3.67,4,3.45,1.49,8.27,1.49,8.27a6,6,0,0,1-2.06,5.77c-2.92,2.49-7.65-1.27-7.65-1.27a17.1,17.1,0,0,1-2.46-3.88c-1-2.21-2.24-3.07-1-6a8.08,8.08,0,0,1,2.62-3.76l2.4-.85Z" fill="#f980a5"/>
        <path d="M44.55,139.74s2-.37,2.61-1.29.89.37,3-.69h0a2.32,2.32,0,0,1,3.11,1.08l.06.12c1.44,3.47,3.6,10,.63,12.35A4.15,4.15,0,0,0,57.6,147a30.11,30.11,0,0,0-.79-7.51l-.94-3.6L54,134.12l-1.71-.77-3.73,2.17-1.4.48-2.08,1.79Z" fill="#992811" opacity="0.15" style="isolation: isolate"/>
        <path d="M91,157.68a7.81,7.81,0,0,0,7.4-4.54c2.6-5,2.46-9.34,1.2-10.45l2.56,1s2.4,3.6,1.66,6.44-4.55,6.45-4.55,6.45-1.2,1-4.8,1.74S91,157.68,91,157.68Z" fill="#992811" opacity="0.15" style="isolation: isolate"/>
        <path d="M89.46,125.29c-2.18,3.19-3.23,8.38-3.23,8.38l-.66,4.87a44.78,44.78,0,0,0-9-2,31.27,31.27,0,0,0-7,.15s-5.09,1-5.69,1.2a22.38,22.38,0,0,0-2.4,1.2,90.73,90.73,0,0,0-1.35-11.27c-1-4.93-6.88-5-6.88-5A40,40,0,0,0,41.93,118C40.53,117.71,89.71,124.92,89.46,125.29Z" fill="#992811" opacity="0.3" style="isolation: isolate"/>
        <path d="M161.93,137.45c-6.55-3.8-27.45-2.76-27.45-2.76l1.13-4.33c13-1.2,23.7,0,29.18,5,2.81,2.61,3.36,5.13,2,7.2C167.11,141.27,165.69,139.62,161.93,137.45Z" fill="#992811" opacity="0.1" style="isolation: isolate"/>
        <path d="M109.94,145.34l-1.2,1.95-1.63,1.05-2.84.45-2.15-5.08,3.51-1.2s-2,1.48.16,3.4C105.77,145.9,108.34,147.16,109.94,145.34Z" fill="#992811" opacity="0.1" style="isolation: isolate"/>
        <path d="M141.7,158.32c-5.39.2-8.4.46-9,.52-2.19-.78-4-1.66-4-1.66-3.27-3.6,4.2-3.06,4.2-3.06,5.55.31,19.45,2.26,30.94-2.13,10.14-3.88,13.37-7.43,13.14-11.57.29,3.29-.3,7.2-2.56,9.54-3.71,3.75-4.26,4.38-13.19,6.79S147.67,158.09,141.7,158.32Z" fill="#992811" opacity="0.1" style="isolation: isolate"/>
        <path d="M121.09,154.07v.14c.44,4.2,4.8,7.2,8.4,9,4.15,2.4,11.76,3.82,13.83,3.15,3.46-1.12.91-4.69.88-4.74,2.26,1.2,3,3.44,1.2,6.88-2.4,4.56-9.85,1.85-17.21-.59s-7.72-7.68-7.72-7.68A6.87,6.87,0,0,1,121.09,154.07Z" fill="#992811" opacity="0.1" style="isolation: isolate"/>
        <path d="M39.53,137.76s2.63,1.12,3.8-.43a3,3,0,0,0,.39-3.06l3.44,1.7-2.9,4.58-2.76-.87Z" fill="#992811" opacity="0.1" style="isolation: isolate"/>
        <path d="M87.59,158.82a26.61,26.61,0,0,0,3.4-1.14s2.84,2.19,5.53.56a28.21,28.21,0,0,0,5.58-5.11l1.67-3,.48-1.36s3.25.46,4.47-1.5.88-5.53.88-5.53-.74-5.81-2.51-8.13a17.19,17.19,0,0,1,4.7,7.34c1.8,5-1.46,10.69-1.46,10.69l-5.11,5.76s-4.8,4.93-8.7,4.94C90.32,162.39,87.59,158.82,87.59,158.82Z" fill="#992811" opacity="0.1" style="isolation: isolate"/>
        <path d="M91.61,137.41s2.59,2.49,4.18-.08l1.7,2.62-4.16,2,.23-.92-1.45-1.79Z" fill="#992811" opacity="0.1" style="isolation: isolate"/>
        <path d="M105.59,141.55s-6,1.14-9.73-6.24L98,141l5,2.61Z" fill="#992811" opacity="0.1" style="isolation: isolate"/>
        <path d="M61.87,142.5l-1.08-9.31c-.43-3.71-.88-8.53-4.87-9.85s-8.83.21-8.83.21,5,.42,5.61,4.45c-.24,1.56-1.2,2.94-3.27,4.58a9.31,9.31,0,0,1-5.71,1.69,4.94,4.94,0,0,0,5.88.85,3.14,3.14,0,0,0,1.08-.68,7.23,7.23,0,0,0,1.27-1.2,2.13,2.13,0,0,1,2,.94A17.41,17.41,0,0,1,57.12,141l.53,6-1.94,3.85s.14,3.72-2.57,4.1c0,0,5.19-.9,7.71-5.11S61.87,142.5,61.87,142.5Z" fill="#992811" opacity="0.1" style="isolation: isolate"/>
        <path d="M101.25,117.66s-6,5.25-3.76,11.49c0,0-4-.18-6,2.52a23.6,23.6,0,0,0-3.2,6.88l-1.74,5.71a30.25,30.25,0,0,1-.3-10.65,18.66,18.66,0,0,1,6.54-12.33C95.43,119.05,101.25,117.66,101.25,117.66Z" fill="#992811" opacity="0.1" style="isolation: isolate"/>
        <path d="M65.41,63.4a9.71,9.71,0,0,0-2,4.16c-.18,1.94.18,1.89.18,1.89s5.41-3,6.47-2.84a5.5,5.5,0,0,1,1.91.61l1.58-2.39a8.94,8.94,0,0,1-3.69-1.59L68.6,62.1Z" fill="#ea4468"/>
        <g opacity="0.5">
          <path d="M65.3,68.57c.06-2.3,1-3.12,1-3.13a.46.46,0,0,0,.18-.51.29.29,0,0,0-.42-.18,5.72,5.72,0,0,0-1.39,4.18C64.91,69,65.11,68.46,65.3,68.57Z" fill="#f76f93"/>
        </g>
        <path d="M71.64,64.23,69.26,62.3s-.59-.81-.85-.49a.85.85,0,0,0,0,.23l-2.91.75L65,63.9s2.69-1.27,4.26,0a7.35,7.35,0,0,1,1.4,1.37c.2.29,0,.85-.22,1.63a1,1,0,0,1,.42.14c.14.08.29.15.44.22L71,67.1c.24.1.47.19.7.3a3.52,3.52,0,0,1,.46.28l.14-.51,1.44-2.5Z" opacity="0.15"/>
        <path d="M68.68,8.65,83,8.55s2.45-.16,2.68,2S86,21,86,21s.3,2.67-3.34,3.23-13.75,0-13.75,0Z" fill="#fff"/>
        <path d="M41.94,84.63,65.3,68.57s2.81-2.57,4.72-2A31.17,31.17,0,0,1,75,69.06L94.79,86.48l-4.55-.14-13-12s-5.65-4.63-7.48-4.91-16.08,10.2-16.08,10.2l-7,5Z" fill="#ff9a9f"/>
        <polygon points="42.14 94.43 44.57 96.32 45.07 86.96 91.61 88.96 90.92 99.15 94.03 98.23 94.79 86.48 65.02 85.76 41.94 84.64 42.14 94.43" fill="#ff9a9f"/>
        <path d="M41.8,109.82l2.9.91L44.57,116l24.71,3,20.18,3.07.64-6.4,3.1.35L93,121.71l-3.58,3.57s-15-2.35-23.42-3.57S41.93,118,41.93,118Z" fill="#ff9a9f"/>
        <polygon points="81.52 90.8 80.88 97.93 87.01 98.74 87.59 91.46 81.52 90.8" fill="#c5ccd9"/>
        <path d="M112.45,63.34A66.17,66.17,0,0,1,103,73.07c-4.51,4-10.24,5.84-16,6.75.62.45,1.22.93,1.82,1.41.26.19.52.39.79.57a1.34,1.34,0,0,1,.42.5,45.63,45.63,0,0,0,6.64-2.2,23.07,23.07,0,0,0,11.59-9.72C112.73,62.93,112.45,63.34,112.45,63.34Z" fill="#c34491"/>
        <path d="M136.59,126.14a66.06,66.06,0,0,0-.71-10.32v-.11c.27-5.35-8.46-19.65-8.46-19.65l-4.22-8.57-3.6-9.92-3.67-7.19L111,65.25A39.6,39.6,0,0,1,95.79,77.32C94,78.91,90.57,79.7,87.5,80.1c2.55,2.05,5.07,3.45,6.19,6.34.73,1.89.77,9.32.34,11.79,1.83-1.38,3.45.48,5.27-3.27.76-1.56,3.39-13.41,7.52-12.43,4.52,1.08,5,26.5-14.63,27.1-4,.12-3.19-3-3.19-3l-1.08-1.32a8.71,8.71,0,0,0-1.46,2.58c-.66,1.71,1.71,3.16,1.71,3.16s-.43.66.17,2.25,4.19,2.53,4.19,2.53a8.13,8.13,0,0,0,1,.11l-.29.07-.15,5s4.07-1.79,6.19-2.49a35.59,35.59,0,0,1,8.39-1.21,16.44,16.44,0,0,1,14.81,8c1.84,3.16,2.49,6.86-1,10.06,0,0-1,1.2-2.34,2.93-3.65,4.6-7.19,1.92-7.19,1.92s1.2,4.49.31,7.28-5.17,8.14-5.17,8.14,6.74-2.81,9.73-6.25l3-3.46a17.68,17.68,0,0,0,10.86-5.71c4.19-4.59,5.46-8.4,5.87-12.26l.13-.2a4.79,4.79,0,0,0-.06-.64A2.27,2.27,0,0,1,136.59,126.14Zm-19.91-37.4h0l0-.12Zm-7,19.58a28,28,0,0,0,5.94-10.09C114.69,101.91,113,105.83,109.67,108.32Zm26.21,7.75c.07.79.12,1.68.12,2.65C136,117.84,135.92,117,135.88,116.07Z" fill="#e98500"/>
        <path d="M48.78,105.91s.31,2.34-3.07,1-8.16-4.61-7.92-9.58a13.36,13.36,0,0,0,.31,7.57c1.39,4.07,5.4,6.89,8.51,4.93a3.27,3.27,0,0,0,3.1-2C50.43,105.84,48.78,105.91,48.78,105.91Z" fill="#e98500"/>
        <path d="M2.81,152.34l30.25-4.14a68.67,68.67,0,0,0,7.13,7.55c3.94,3.52,6,5.26,6,5.26S35,159.39,21.6,156.94,2.81,152.34,2.81,152.34Z" fill="#c5ccd9"/>
        <path d="M73.15,153.05s-1.47,7.06-1.92,9.49a13.3,13.3,0,0,0,.14,4.84l-9.49-4.13-11.71-6.62.78-1s3.6.41,6-1.15,2.49-2.14,2.49-2.14Z" fill="#c5ccd9"/>
        <path d="M80.59,163.77a13.67,13.67,0,0,0-2.3,7l-.21,4.2,9.38-5.28,9.15-4.38,9.31-3.65-3.19-1.78s-4.42,3.32-7.29,2.69a33.53,33.53,0,0,1-6.36-2.37Z" fill="#c5ccd9"/>
        <polygon points="141.64 170.54 147.5 175.54 145.4 168.55 141.64 170.54" fill="#c5ccd9"/>
        <polygon points="134.43 134.3 130.59 140.16 147.19 138.49 143.87 134 134.43 134.3" fill="#c5ccd9"/>
        <path d="M154.59,141.66l4.5,5.1a18.09,18.09,0,0,0,5.35-2.46c2.36-1.71,1.89-2.6,1.89-2.6Z" fill="#c5ccd9"/>
        <polygon points="183.57 139.61 177.07 144.3 176.92 141.66 183.57 139.61" fill="#c5ccd9"/>
        <path d="M150.39,161.5v8.16s.52,3.55.6,4.34.7,1.62-1.19.8a12,12,0,0,1-2.7-1.51l-1.37-5.89s1.78-.76.12-3.24l-1.65-2.49Z" fill="#c5ccd9"/>
        <polygon points="161.25 156.75 177.7 158.84 169.79 153.29 161.25 156.75" fill="#c5ccd9"/>
        <path d="M61.11,138.86l.76,3.64.9,3.85,23-6.29-.24-1.52S79.2,135.31,73.15,136A60.83,60.83,0,0,0,61.11,138.86Z" fill="#eaeff0"/>
        <path d="M119.73,145.87l-3,3.46-3.19,3.15h8.14s2.48-4.13,11.51-4.44,19.28-.5,19.28-.5l-8.11-2.47-10.61-1.85-5.37-.7S123.36,145.52,119.73,145.87Z" fill="#eaeff0"/>
        <g>
          <path d="M41.94,84.63,65,68.83s3.17-2.42,5-2.26,3.72,1.69,6.3,3.7S94.79,86.55,94.79,86.55,63,85.83,56.63,85.43,41.94,84.63,41.94,84.63Z" fill="none" stroke="#000" stroke-linecap="round" stroke-linejoin="round" stroke-width="1.2"/>
          <path d="M42.14,94.43c0-4.37,0-8.09-.2-9.8" fill="none" stroke="#000" stroke-linecap="round" stroke-linejoin="round" stroke-width="1.2"/>
          <path d="M89.32,125.05c-2.57-.47-6.55-1.17-11.61-2-9.26-1.44-35.91-4.86-35.91-4.86s.09-3.57.17-8.42" fill="none" stroke="#000" stroke-linecap="round" stroke-linejoin="round" stroke-width="1.2"/>
          <path d="M93.2,116c-.13,2.18-.24,4.13-.34,5.69" fill="none" stroke="#000" stroke-linecap="round" stroke-linejoin="round" stroke-width="1.2"/>
          <path d="M94.79,86.55c-.07,2.32-.29,6.74-.57,11.8" fill="none" stroke="#000" stroke-linecap="round" stroke-linejoin="round" stroke-width="1.2"/>
          <line x1="73.46" y1="105.74" x2="86.01" y2="107.32" fill="none" stroke="#000" stroke-linecap="round" stroke-linejoin="round" stroke-width="1.2"/>
          <line x1="73.46" y1="108.89" x2="87.46" y2="110.73" fill="none" stroke="#000" stroke-linecap="round" stroke-linejoin="round" stroke-width="1.2"/>
          <line x1="73.46" y1="111.83" x2="88.17" y2="113.77" fill="none" stroke="#000" stroke-linecap="round" stroke-linejoin="round" stroke-width="1.2"/>
          <polygon points="81.19 91.14 80.81 98.11 87.3 98.77 87.92 91.5 81.19 91.14" fill="none" stroke="#000" stroke-linecap="round" stroke-linejoin="round" stroke-width="1.2"/>
          <g>
            <path d="M91.11,98.77c.25-4.63.49-8.47.61-9.81,0,0-29.41-1.23-46.67-2,0,0-.13,4.27-.18,9.73" fill="none" stroke="#000" stroke-linecap="round" stroke-linejoin="round" stroke-width="1.2"/>
            <path d="M44.71,110.49c-.05,2.51-.07,4.06-.14,5.76,0,0,33.76,3.39,45.31,6,0,0,.15-2.66.36-6.8" fill="none" stroke="#000" stroke-linecap="round" stroke-linejoin="round" stroke-width="1.2"/>
          </g>
          <g>
            <path d="M63.77,97.83a29.53,29.53,0,0,0-5.23,2.42c-.81.83-.53,4.7-.53,4.7s.21,1.82,2.86,3,3.38,1.22,5.07.44a7,7,0,0,0,3.61-2.94,21.52,21.52,0,0,0-.25-5.07l-4.51-2.57Z" fill="url(#e02520a5-ace7-49ea-a42d-a2245f0943e5)"/>
            <path d="M58.58,105.18V101.6a2.12,2.12,0,0,1,1.05-1.83L62.74,98a2.11,2.11,0,0,1,2.09,0l3.11,1.79a2.17,2.17,0,0,1,1,1.83v3.58a2.15,2.15,0,0,1-1,1.82l-3.11,1.79a2.11,2.11,0,0,1-2.09,0L59.63,107A2.13,2.13,0,0,1,58.58,105.18Z" fill="none" stroke="#000" stroke-linecap="round" stroke-linejoin="round" stroke-width="1.2"/>
            <g id="b1f0d04d-5516-4fcd-8572-396c4f7a752a" data-name=" ">
              <path d="M62.21,103.91a.7.7,0,0,1,.19.15,1.22,1.22,0,0,1,.1.24,1.71,1.71,0,0,1,0,.32v.79a1.88,1.88,0,0,0,0,.58,1.72,1.72,0,0,0,.27.52,2,2,0,0,0,.52.41,3.7,3.7,0,0,0,.78.3l.27-.69a1,1,0,0,1-.27-.17.85.85,0,0,1-.17-.25,1.19,1.19,0,0,1-.1-.32,2.41,2.41,0,0,1,0-.38v-.79a1.25,1.25,0,0,0-.15-.71,1.28,1.28,0,0,0-.66-.51,1.23,1.23,0,0,0,.86-1.2v-.79a2.29,2.29,0,0,1,0-.37.92.92,0,0,1,.1-.32,1,1,0,0,1,.17-.27.72.72,0,0,1,.27-.15l-.27-.7a3.26,3.26,0,0,0-.78.31,2,2,0,0,0-.52.4,1.56,1.56,0,0,0-.27.51,1.94,1.94,0,0,0,0,.59v.81a1.08,1.08,0,0,1-.14.56.53.53,0,0,1-.45.2v.93A.53.53,0,0,1,62.21,103.91Z" fill="#fff"/>
            </g>
          </g>
        </g>
        <g id="f4cfc7e4-5323-4757-a574-93449bfe3efb" data-name="Слой 3">
          <path d="M105.92,142.21s-2.55,2.82-5.56.83-4.9-5.67-4.37-7.57" fill="none" stroke="#000" stroke-linecap="round" stroke-linejoin="round" stroke-width="1.2"/>
          <path d="M109.71,141.9s1.92,7-5.47,6.89" fill="none" stroke="#000" stroke-linecap="round" stroke-linejoin="round" stroke-width="1.2"/>
          <path d="M93.83,132.73S89,138,94,141.13" fill="none" stroke="#000" stroke-linecap="round" stroke-linejoin="round" stroke-width="1.2"/>
          <path d="M102.17,144s3.47,4.8.75,8.4-3.72,5.59-8.14,6.1-5.4-3-5.46-5.14,1.08-4.36,1.76-7,2.07-5.78,6.37-6.12" fill="none" stroke="#000" stroke-linecap="round" stroke-linejoin="round" stroke-width="1.2"/>
          <path d="M87.92,141.2s1.11-10,7-11.58,13,3.1,16,9.1a12.9,12.9,0,0,1-.07,12.49c-1,1.66-8.32,9.67-12.47,11s-10-1.3-12.12-5.27S84,151.78,85,149.12,87.5,143.5,87.92,141.2Z" fill="none" stroke="#000" stroke-linecap="round" stroke-linejoin="round" stroke-width="1.2"/>
          <path d="M43.44,133.92s2,3.13,5.23,1.7S54.31,131,54.11,129" fill="none" stroke="#000" stroke-linecap="round" stroke-linejoin="round" stroke-width="1.2"/>
          <path d="M39.84,133s-3,6.41,4.17,7.53" fill="none" stroke="#000" stroke-linecap="round" stroke-linejoin="round" stroke-width="1.2"/>
          <path d="M56.64,126.74s3.84,5.86-1.56,8.07" fill="none" stroke="#000" stroke-linecap="round" stroke-linejoin="round" stroke-width="1.2"/>
          <path d="M46.78,136.26s-4.12,4.05-2.09,7.92,2.69,6,6.86,7.19,5.7-2.05,6.1-4.08-.34-4.37-.55-7-1.06-5.91-5.16-6.93" fill="none" stroke="#000" stroke-linecap="round" stroke-linejoin="round" stroke-width="1.2"/>
          <path d="M61,135.9s.54-9.79-4.8-12.3-13,.88-16.92,6.17a12.56,12.56,0,0,0-2,12c.63,1.77,6.44,10.67,10.23,12.61s9.82.38,12.53-3.1,3.06-4.6,2.49-7.32A53.78,53.78,0,0,1,61,135.9Z" fill="none" stroke="#000" stroke-linecap="round" stroke-linejoin="round" stroke-width="1.2"/>
          <path d="M111.15,65.44c3.6,2.23,7,7.41,8.57,12.28C126.35,98.12,129,96,134,108.62s4,33.46-13.76,37.27" fill="none" stroke="#000" stroke-linecap="round" stroke-linejoin="round" stroke-width="1.2"/>
          <path d="M101.36,117.81s-19.49,3-14.6,26.49" fill="none" stroke="#000" stroke-linecap="round" stroke-linejoin="round" stroke-width="1.2"/>
          <path d="M107.09,155.6c14.27-6.42,15.88-16.26,15.88-16.26" fill="none" stroke="#000" stroke-linecap="round" stroke-linejoin="round" stroke-width="1.2"/>
          <path d="M85.56,138.5s-13.19-5.16-23.68.21" fill="none" stroke="#000" stroke-linecap="round" stroke-linejoin="round" stroke-width="1.2"/>
          <path d="M39.18,129.74s-3.74-9.86,2.75-17.5" fill="none" stroke="#000" stroke-linecap="round" stroke-linejoin="round" stroke-width="1.2"/>
          <path d="M134.32,134.45c.12,0,13.29-1.2,25,1.94,5.35,1.44,7.08,3.51,7.08,5.27,0,1.38-.9,2.68-4.28,4.09-4.8,2-12.67,2-19.56,2a86.19,86.19,0,0,0-12.23.54c-5.52.84-8.86,3.19-9.94,7a8.82,8.82,0,0,0,1.2,7.43c2,3,5.82,5.15,11.68,6.68a54.88,54.88,0,0,0,7.19,1.36H141a5.14,5.14,0,0,0,.55-10.24c-3.26-.36-10.1-1.74-12.67-3.6" fill="none" stroke="#000" stroke-linecap="round" stroke-linejoin="round" stroke-width="1.2"/>
          <path d="M132.1,158.16c2.59-.15,8-.15,10.4-.15,7.85,0,16.8,0,23.48-2.79,10.55-4.36,11.25-11.4,11.07-14.24-.42-6.55-6.21-12.1-15.11-14.5A81.48,81.48,0,0,0,136.63,124" fill="none" stroke="#000" stroke-linecap="round" stroke-linejoin="round" stroke-width="1.2"/>
          <path d="M68.52,54.09a5.48,5.48,0,0,0-1.83,3.22s1.23,3.4,2.43,3S72,57.41,72,57.41s-3.43-1.08-5.32-.1" fill="none" stroke="#000" stroke-linecap="round" stroke-linejoin="round" stroke-width="1.2"/>
          <path d="M90,35.2s3.18-2,4.5-3a53.18,53.18,0,0,0,4.28-4.08,1.49,1.49,0,0,1,2.09,0,1.46,1.46,0,0,1,.43.82,21.47,21.47,0,0,1,.29,7.28,9.32,9.32,0,0,1-2.4,4.54" fill="none" stroke="#000" stroke-linecap="round" stroke-linejoin="round" stroke-width="1.2"/>
          <path d="M95.8,38.37a17.65,17.65,0,0,1,1.27-4c3-6.92,3.9-6.11,3.9-6.11" fill="none" stroke="#000" stroke-linecap="round" stroke-linejoin="round" stroke-width="1.2"/>
          <path d="M99.58,40.27a23.56,23.56,0,0,0,.88-5.21,15.43,15.43,0,0,0-1.2-5.14" fill="none" stroke="#000" stroke-linecap="round" stroke-linejoin="round" stroke-width="1.2"/>
          <path d="M62.56,31.16a9.63,9.63,0,0,1-3.06-3.89,1.34,1.34,0,0,0-1.83-.55,1.28,1.28,0,0,0-.57.58,8.42,8.42,0,0,0,.24,7.59" fill="none" stroke="#000" stroke-linecap="round" stroke-linejoin="round" stroke-width="1.2"/>
          <path d="M63.93,63.45A12.62,12.62,0,0,0,68.56,62s1.1,1.86,6.07,2.87" fill="none" stroke="#000" stroke-linecap="round" stroke-linejoin="round" stroke-width="1.2"/>
          <path d="M63.72,58.76s-7-1-15.63,4" fill="none" stroke="#000" stroke-linecap="round" stroke-linejoin="round" stroke-width="1.2"/>
          <path d="M63.93,60.08s-6.6-.07-14.14,6.53" fill="none" stroke="#000" stroke-linecap="round" stroke-linejoin="round" stroke-width="1.2"/>
          <path d="M64.54,57.59S60,55,50.26,57.53" fill="none" stroke="#000" stroke-linecap="round" stroke-linejoin="round" stroke-width="1.2"/>
          <path d="M75.56,60.78a24.37,24.37,0,0,1,15.36,6.78" fill="none" stroke="#000" stroke-linecap="round" stroke-linejoin="round" stroke-width="1.2"/>
          <path d="M75.06,62A23.14,23.14,0,0,1,88,72.24" fill="none" stroke="#000" stroke-linecap="round" stroke-linejoin="round" stroke-width="1.2"/>
          <path d="M75,59.59s6.49-1.85,15.39,2.72" fill="none" stroke="#000" stroke-linecap="round" stroke-linejoin="round" stroke-width="1.2"/>
          <ellipse cx="78.12" cy="49.25" rx="7.4" ry="7.58" transform="translate(27.5 126.49) rotate(-88.99)" stroke-width="1.2" stroke="#000" stroke-linecap="round" stroke-linejoin="round" fill="none"/>
          <path d="M72.57,44.24a6.45,6.45,0,0,0-5-2.58,6.22,6.22,0,1,0-.21,12.43,6.45,6.45,0,0,0,4.11-1.39" fill="none" stroke="#000" stroke-linecap="round" stroke-linejoin="round" stroke-width="1.2"/>
          <path d="M91.42,28.34a36.57,36.57,0,0,1,5.21,1.82" fill="none" stroke="#000" stroke-linecap="round" stroke-linejoin="round" stroke-width="1.2"/>
          <path d="M58.88,73c-1.44-1.15-2.9-2.44-4.4-3.88C45.82,60.84,46.35,54,47.94,48.48c1.48-5.08,7.19-13.72,16.49-18" fill="none" stroke="#000" stroke-linecap="round" stroke-linejoin="round" stroke-width="1.2"/>
          <path d="M101.78,33.12C111.93,40,117.2,50.13,113.66,60,110,70.19,99.87,77.92,87.57,80.1" fill="none" stroke="#000" stroke-linecap="round" stroke-linejoin="round" stroke-width="1.2"/>
          <path d="M90.35,82.57c7.26-1.78,16.14-6.26,20.8-17.13" fill="none" stroke="#000" stroke-linecap="round" stroke-linejoin="round" stroke-width="1.2"/>
        </g>
        <g>
          <circle cx="75.7" cy="53.26" r="1.2"/>
          <circle cx="66.65" cy="51.88" r="1.2"/>
        </g>
        <g>
          <path d="M48.18,103.9s2.4,2.16,1.2,4.21-4.66,1.43-6.66-.65" fill="none" stroke="#000" stroke-linecap="round" stroke-linejoin="round" stroke-width="1.2"/>
          <path d="M46.61,109.6s-1,1.34-3.6.77c-4.44-1.84-6.1-7.54-5.82-11.85a9.91,9.91,0,0,1,4.93-8.37" fill="none" stroke="#000" stroke-linecap="round" stroke-linejoin="round" stroke-width="1.2"/>
          <path d="M42.14,94.43a22.94,22.94,0,0,0,5.09,3.73h0c3.43,1.53,2.22,6-1.1,5.71s-3.6-1.72-3.6-1.72" fill="none" stroke="#000" stroke-linecap="round" stroke-linejoin="round" stroke-width="1.2"/>
        </g>
        <g>
          <path d="M65.52,63.24c-1,1.27-2.9,4.48-1.84,6.51" fill="none" stroke="#000" stroke-linecap="round" stroke-linejoin="round" stroke-width="1.2"/>
          <path d="M73.42,64.55A7.87,7.87,0,0,0,72,67.22" fill="none" stroke="#000" stroke-linecap="round" stroke-linejoin="round" stroke-width="1.2"/>
        </g>
        <g>
          <g>
            <path d="M91.77,10.7V26.64a2,2,0,0,1-.07.5,1.9,1.9,0,0,1-.43.79,2,2,0,0,1-1.23.65,84.5,84.5,0,0,1-19.66,0,1.93,1.93,0,0,1-1.67-1.47,1.84,1.84,0,0,1-.06-.47V10.7A10.11,10.11,0,0,1,78.75.6h2.92A10.11,10.11,0,0,1,91.77,10.7Z" fill="none" stroke="#000" stroke-linecap="round" stroke-linejoin="round" stroke-width="1.2"/>
            <path d="M90,28.58c-12.61,5.63-22.94,5-25,3.27a1.28,1.28,0,0,1-.56-1.28c.2-1,1.91-2.37,4.54-2.84" fill="none" stroke="#000" stroke-linecap="round" stroke-linejoin="round" stroke-width="1.2"/>
          </g>
          <path d="M68.65,24.2a56.14,56.14,0,0,0,7.14.46c1.33,0,2.65-.05,3.95-.15s2.59-.25,3.85-.45A2.86,2.86,0,0,0,86,21.22v-9.8a2.9,2.9,0,0,0-.92-2.11,2.83,2.83,0,0,0-2.18-.75,78.35,78.35,0,0,1-13.5.09" fill="none" stroke="#000" stroke-linecap="round" stroke-linejoin="round" stroke-width="1.2"/>
          <g>
            <path d="M72.53,15.36a.72.72,0,0,0-.3-.38.93.93,0,0,0-.45-.2,4,4,0,0,0-.61-.08L70,14.64c0,1.18,0,2.37,0,3.56l.47,0c0-.48,0-1,0-1.45l.84.05a1.5,1.5,0,0,0,1-.22c.29-.2.27-.48.31-.72A.86.86,0,0,0,72.53,15.36Zm-.56.92a1,1,0,0,1-.65.12l-.89,0c0-.43,0-.85,0-1.27l.85.05a2,2,0,0,1,.47.06.48.48,0,0,1,.31.24.57.57,0,0,1,.13.4C72.15,16,72.16,16.17,72,16.28Z"/>
            <path d="M76.3,15.82a1.72,1.72,0,0,0-.63-.68,1.64,1.64,0,0,0-.88-.26,1.49,1.49,0,0,0-1.2.46,1.88,1.88,0,0,0-.43,1.35,2,2,0,0,0,.24.89,1.9,1.9,0,0,0,.62.7,1.83,1.83,0,0,0,.91.28,1.52,1.52,0,0,0,.86-.18,1.27,1.27,0,0,0,.59-.62,2.26,2.26,0,0,0,.17-1A2.18,2.18,0,0,0,76.3,15.82Zm-.53,2a1,1,0,0,1-.86.33,1.25,1.25,0,0,1-.89-.42,1.71,1.71,0,0,1-.38-1,1.59,1.59,0,0,1,.3-1.09,1,1,0,0,1,.82-.32,1,1,0,0,1,.67.2,1.09,1.09,0,0,1,.46.53,1.8,1.8,0,0,1,.17.79A1.44,1.44,0,0,1,75.77,17.82Z"/>
            <path d="M79.89,17.42a1,1,0,0,1-.15.55,1,1,0,0,1-.45.42,1.67,1.67,0,0,1-.68.18,1.91,1.91,0,0,1-.79-.1,1.18,1.18,0,0,1-.55-.4,1.41,1.41,0,0,1-.23-.63c.13,0,.31-.12.42,0s.08.3.19.41a1.16,1.16,0,0,0,.39.26,1.58,1.58,0,0,0,.53.07,1.63,1.63,0,0,0,.47-.1.67.67,0,0,0,.3-.24.43.43,0,0,0,.09-.32.35.35,0,0,0-.12-.29A.67.67,0,0,0,79,17c-.17-.05-.43-.09-.63-.13a3.9,3.9,0,0,1-.67-.18.94.94,0,0,1-.4-.33.71.71,0,0,1-.15-.46.8.8,0,0,1,.13-.52,1,1,0,0,1,.42-.37,2,2,0,0,1,.64-.14A1.8,1.8,0,0,1,79,15a1,1,0,0,1,.49.35,1.33,1.33,0,0,1,.22.55l-.45.06a.85.85,0,0,0-.29-.49,1.1,1.1,0,0,0-.61-.14,1.08,1.08,0,0,0-.6.17.38.38,0,0,0-.18.39.33.33,0,0,0,.18.34,1.65,1.65,0,0,0,.69.21,4.56,4.56,0,0,1,.77.18,1,1,0,0,1,.49.34A.77.77,0,0,1,79.89,17.42Z"/>
            <path d="M81.81,15.16c.06,1.06.08,2.11.12,3.17h-.47c0-1.06-.07-2.11-.13-3.16l-1.18.06c0-.14,0-.28,0-.42.94-.06,1.88-.09,2.83-.1l0,.42Z"/>
          </g>
        </g>
        <line x1="68.56" y1="61.96" x2="68.68" y2="60.32" fill="none" stroke="#000" stroke-linecap="round" stroke-linejoin="round" stroke-width="1.2"/>
        <path d="M61.49,47.05c1.35.88,6,1.76,9.11,1.35A21.4,21.4,0,0,0,85.4,48" fill="none" stroke="#000" stroke-linecap="round" stroke-linejoin="round" stroke-width="1.2"/>
        <g>
          <path d="M88.07,111a3.66,3.66,0,0,0,2.11,4.11c7.24,3.91,22.07-5.67,25.11-15.54,2.9-9.43.67-15.86.67-15.86" fill="none" stroke="#000" stroke-linecap="round" stroke-linejoin="round" stroke-width="1.2"/>
          <path d="M94.22,111.88s-3.74.66-6.43-1c-2.35-1.48-1.29-4.51,0-5.5" fill="none" stroke="#000" stroke-linecap="round" stroke-linejoin="round" stroke-width="1.2"/>
          <path d="M94.1,106.35c-2.81,1-6.71-.34-7-2.47-.66-4.17,5.85-5.12,8.34-5.72,0,0,4.47-.87,4.77-5.26" fill="none" stroke="#000" stroke-linecap="round" stroke-linejoin="round" stroke-width="1.2"/>
        </g>
        <g>
          <path d="M121.2,152.32c-2.82,0-5.6,0-8.15,0" fill="none" stroke="#000" stroke-linecap="round" stroke-linejoin="round" stroke-width="1.2"/>
          <path d="M80.7,163.77c-3.06,4.7-2.62,11.17-2.62,11.17a124.36,124.36,0,0,1,29.88-4c15.6,0,39.54,4.63,39.54,4.63l-1.79-7.76" fill="none" stroke="#000" stroke-linecap="round" stroke-linejoin="round" stroke-width="1.2"/>
          <path d="M147,173.14s2.58,2.86,5.76,1.33c2.22-1.06,9.62-5.89,12.89-7.64s11.67-6.4,12.53-7.67a90.22,90.22,0,0,0-8.65-5.68" fill="none" stroke="#000" stroke-linecap="round" stroke-linejoin="round" stroke-width="1.2"/>
          <path d="M178.13,159.16S163.92,157.1,159.6,157" fill="none" stroke="#000" stroke-linecap="round" stroke-linejoin="round" stroke-width="1.2"/>
          <path d="M150.42,161.27s.06,4.56,0,6.75-.18,6.21,1.33,6.78" fill="none" stroke="#000" stroke-linecap="round" stroke-linejoin="round" stroke-width="1.2"/>
          <path d="M143,160.88c1.93.08,8.24.41,9.82.39,3,0,5.86,0,5.55-1.91a10.08,10.08,0,0,0-.51-2" fill="none" stroke="#000" stroke-linecap="round" stroke-linejoin="round" stroke-width="1.2"/>
          <path d="M89.16,160.14c-6.6,2.9-8.29,3.39-10.39,4.5s-6.41,2.78-7.4,2.74-8.83-3.49-13.46-6.11-7.65-4.33-7.65-4.33" fill="none" stroke="#000" stroke-linecap="round" stroke-linejoin="round" stroke-width="1.2"/>
          <path d="M58.61,152.7s16.89.78,21.15.7a19.12,19.12,0,0,0,4.76-.5" fill="none" stroke="#000" stroke-linecap="round" stroke-linejoin="round" stroke-width="1.2"/>
          <path d="M73.15,153.29s-1.84,7.42-2.09,9.76-.22,4.6,1,4.22" fill="none" stroke="#000" stroke-linecap="round" stroke-linejoin="round" stroke-width="1.2"/>
          <line x1="86.08" y1="139.68" x2="62.77" y2="146.76" fill="none" stroke="#000" stroke-linecap="round" stroke-linejoin="round" stroke-width="1.2"/>
          <path d="M51.26,155.21c-1.42,1.75-3.84,5.26-4.33,5.7s-7.47-.64-13.33-1.71-22.22-4.72-26.54-5.8-6-1.47-6.42-1.79,1.67-1.65,3.27-2.73,8.19-5.44,11-7.52C19.4,138,31.59,129,31.59,129l7.34,1.15" fill="none" stroke="#000" stroke-linecap="round" stroke-linejoin="round" stroke-width="1.2"/>
          <path d="M40.39,146.85s-11.3,2.16-15.55,2.68S7.73,152,1.5,152" fill="none" stroke="#000" stroke-linecap="round" stroke-linejoin="round" stroke-width="1.2"/>
          <path d="M47.31,160.47s-.63.6-2.05-.44a72.82,72.82,0,0,1-7.59-6.74c-1.85-2-4.61-5-4.61-5" fill="none" stroke="#000" stroke-linecap="round" stroke-linejoin="round" stroke-width="1.2"/>
        </g>
        <path d="M102.51,159.73l4.54,2.34a13.2,13.2,0,0,0,11.14.43l2.55-1.23" fill="none" stroke="#000" stroke-linecap="round" stroke-linejoin="round" stroke-width="1.2"/>
        <path d="M78.08,174.94S96,164.62,105.92,161.5" fill="none" stroke="#000" stroke-linecap="round" stroke-linejoin="round" stroke-width="1.2"/>
        <path d="M141,170.74c2,1.5,3.85,2.24,6.52,4.8" fill="none" stroke="#000" stroke-linecap="round" stroke-linejoin="round" stroke-width="1.2"/>
        <path d="M119.45,162l2.06.81" fill="none" stroke="#000" stroke-linecap="round" stroke-linejoin="round" stroke-width="1.2"/>
        <path d="M128.05,142.48s15.86,1.71,25.42,5" fill="none" stroke="#000" stroke-linecap="round" stroke-linejoin="round" stroke-width="1.2"/>
        <path d="M144.38,134.3s2.25,4.64,5,5.94,16.95,1.42,16.95,1.42" fill="none" stroke="#000" stroke-linecap="round" stroke-linejoin="round" stroke-width="1.2"/>
        <path d="M154.59,141.15a43,43,0,0,1,4.5,5.52" fill="none" stroke="#000" stroke-linecap="round" stroke-linejoin="round" stroke-width="1.2"/>
        <path d="M147.1,138.39s-11.61.7-16.31,1.64" fill="none" stroke="#000" stroke-linecap="round" stroke-linejoin="round" stroke-width="1.2"/>
        <path d="M177.05,141s6.08-.6,6.74-1-8.19-4-8.19-4" fill="none" stroke="#000" stroke-linecap="round" stroke-linejoin="round" stroke-width="1.2"/>
        <line x1="183.79" y1="139.95" x2="176.78" y2="144.3" fill="none" stroke="#000" stroke-linecap="round" stroke-linejoin="round" stroke-width="1.2"/>
        <path d="M46.58,84.62S67.57,69.15,70,69.45c3.27.4,20.36,17,20.36,17" fill="none" stroke="#000" stroke-linecap="round" stroke-linejoin="round" stroke-width="1.2"/>
      </g>
    </g>
  </g>
</svg>
