<svg width="96" height="96" fill="none" xmlns="http://www.w3.org/2000/svg"><path d="M11.221 58.118H4.489s-5.248.594-2.871 6.435c2.376 5.94 9.702 17.623 13.266 22.97 3.564 5.346 6.832 8.316 11.089 8.118 4.356-.297 41.78-6.337 41.78-6.337s6.04-1.485 3.762-5.94c-2.277-4.356-19.207-26.236-19.207-26.236l-41.087.99z" fill="#DBE7F8"/><path d="M8.449 19.407s12.376-2.674 25.642-6.04c13.267-3.366 21.286-4.554 23.366-3.663 2.178.99 3.86 5.643 4.95 12.97C63.496 30 73.495 65.642 74.882 70.592c1.386 4.95.395 6.139-15.643 10.792-13.267 3.861-26.732 5.643-33.662 6.138-2.178.1-3.465-.297-4.356-2.178-2.575-5.544-7.822-18.712-11.485-35.74-5.05-23.366-8.02-29.01-1.287-30.197z" fill="#4C4E83"/><path d="M13.3 25.248c-.495.099-.792.198-1.287.297 0 0-.99.099-.99.891.099.792.693.594 1.09.495.395-.099 1.286-.297 1.286-.297s.594-.099.495-.792c.1-.792-.594-.594-.594-.594zM14.488 32.673c-.495.1-.792.198-1.287.297 0 0-.99.396-1.089-.396-.099-.792.495-.792.891-.99a74.327 74.327 0 0 1 1.287-.297s.594-.198.792.495c.1.891-.594.891-.594.891zM12.508 28.713s-.99.198-.99.99c.1.495.1.693 1.485.396 1.287-.297 1.584-.495 1.485-1.089 0-.495-.198-.792-1.98-.297zM13.4 34.653s-1.09.198-.892.99c.1.495.198.693 1.584.396 1.386-.297 1.584-.594 1.485-1.089-.099-.594-.396-.792-2.178-.297zM15.38 37.327c-.496.099-.793.198-1.288.297 0 0-1.089.099-.89.89.098.793.791.496 1.088.397.396-.1 1.287-.297 1.287-.297s.594-.1.495-.792c-.099-.693-.693-.495-.693-.495zM16.864 44.356c-.495.099-.792.198-1.287.297 0 0-.99.396-1.188-.396-.198-.792.495-.792.792-.891a74.162 74.162 0 0 1 1.287-.297s.594-.198.792.495c.297.693-.396.792-.396.792zM14.587 40.594s-1.089.198-.89.89c.098.496.098.595 1.583.397 1.386-.297 1.584-.495 1.485-.99-.099-.594-.396-.792-2.178-.297zM15.874 46.237s-1.089.198-.792.891c.1.495.198.594 1.584.297 1.386-.297 1.584-.594 1.386-1.089-.198-.396-.396-.594-2.178-.099zM18.052 48.811c-.495.1-.792.198-1.287.297 0 0-1.089.1-.89.792.197.792.791.495 1.187.396.396-.099 1.287-.297 1.287-.297s.595-.099.396-.792c-.099-.594-.693-.396-.693-.396zM21.22 60.197c-.494.099-.791.198-1.287.297 0 0-1.088.099-.791.89.297.793.791.496 1.188.397.396-.1 1.287-.297 1.287-.297s.594-.1.396-.792c-.198-.693-.792-.495-.792-.495zM19.933 55.742c-.494.099-.791.198-1.287.297 0 0-.99.396-1.188-.396-.198-.694.396-.793.792-.892.396-.098 1.288-.296 1.288-.296s.593-.198.791.495c.198.693-.396.792-.396.792zM17.36 51.98s-1.09.197-.892.89c.1.495.198.595 1.584.397 1.387-.298 1.585-.496 1.486-.99-.1-.496-.396-.694-2.179-.298zM18.944 57.623s-1.09.198-.793.99c.198.495.297.594 1.683.297 1.288-.297 1.486-.594 1.288-1.09-.1-.494-.396-.692-2.178-.197z" fill="#DBE7F8"/><path d="M18.745 27.228s-1.089.099-.99.891c.1.792.99.495 1.288.396.396-.099 2.277-.495 2.277-.495s.99-.198.89-.891c-.098-.792-1.088-.495-1.088-.495-.892.297-1.387.297-2.377.594zM25.379 56.138s-1.09.099-.99.792c.198.792.99.396 1.386.396.396-.1 2.277-.594 2.277-.594s.99-.297.792-.891c-.099-.594-1.09-.297-1.09-.297-.89.198-1.385.297-2.375.594z" fill="#606BF1"/><path d="M23.102 47.623s-1.09.1-.99.792c.198.792.99.396 1.386.396.396 0 2.376-.594 2.376-.594s.99-.198.89-.89c-.098-.694-1.286-.397-1.286-.397-.99.297-1.485.495-2.376.693zM21.122 29.802s-1.288.198-1.189.792c.1.693.297.792 1.288.594.99-.198 2.673-.594 2.673-.594s.792-.198.693-.891c-.1-.693-.693-.594-1.188-.396-.594.198-2.277.495-2.277.495z" fill="#FFD52E"/><path d="M22.508 44.752s-1.287.198-1.188.792c.099.594.297.792 1.287.495.99-.198 2.673-.594 2.673-.594s.792-.198.693-.792c-.1-.594-.693-.594-1.287-.396-.396.099-2.178.495-2.178.495zM52.407 35.446s-1.287.198-1.188.791c.1.594.297.694 1.287.495.99-.197 7.327-1.682 7.327-1.682s.792-.199.693-.793c-.1-.594-.693-.495-1.287-.396-.495.198-6.832 1.585-6.832 1.585z" fill="#FF8578"/><path d="M41.12 37.822s-1.286.197-1.187.792c.099.594.297.693 1.287.495.99-.198 7.425-1.584 7.425-1.584s.792-.198.693-.792c-.099-.595-.693-.595-1.287-.397-.495.1-6.93 1.486-6.93 1.486zM27.062 28.515s-1.287.099-1.09.99c.199.792 1.684.396 1.684.396 1.881-.396 2.871-.594 4.752-.99 0 0 1.09-.198.99-.99-.198-.792-1.188-.396-1.188-.396-2.178.396-3.168.594-5.148.99z" fill="#DBE7F8"/><path d="M50.526 44.455s-1.287.198-1.089.891c.297.693 1.683.297 1.683.297 1.881-.396 2.871-.594 4.753-1.089 0 0 1.089-.198.99-.891-.198-.693-1.188-.396-1.188-.396-2.179.495-3.169.693-5.149 1.188zM22.21 35.742s-1.286.198-1.088.99c.198.793 1.683.397 1.683.397 1.88-.396 2.87-.595 4.752-.99 0 0 1.089-.199.99-.892-.198-.792-1.188-.396-1.188-.396-2.178.297-3.168.495-5.148.891z" fill="#FF8578"/><path d="M21.518 32.772s-1.09.297-.99.99c.198.693 1.188.495 1.188.495 3.069-.693 4.554-.99 7.623-1.683 0 0 .891-.198.792-.89-.099-.793-1.287-.397-1.287-.397-2.97.594-4.455.891-7.326 1.485zM25.577 50s-1.09.296-.891.99c.198.692 1.287.395 1.287.395 3.267-.792 4.851-1.089 8.118-1.782 0 0 .891-.198.792-.89-.099-.694-1.287-.397-1.287-.397-3.267.594-4.851.99-8.02 1.683z" fill="#DBE7F8"/><path d="M31.121 33.861s-1.089.297-.99.99c.198.693 1.287.396 1.287.396 4.554-.99 6.831-1.386 11.287-2.376 0 0 .89-.198.792-.89-.1-.694-1.287-.397-1.287-.397-4.456.891-6.634 1.386-11.089 2.277zM26.468 52.771s-1.09.297-.891.99c.297.694 1.287.396 1.287.396 5.247-1.188 7.821-1.782 13.069-2.97 0 0 .89-.198.792-.89-.1-.694-1.287-.397-1.287-.397-5.149 1.188-7.723 1.683-12.97 2.871z" fill="#FFD52E"/><path d="M23.3 41.584s-1.09.297-.99.99c.198.693 1.287.396 1.287.396 5.247-1.09 7.92-1.683 13.167-2.871 0 0 .892-.198.792-.891-.098-.693-1.287-.396-1.287-.396-5.247 1.089-7.821 1.584-12.97 2.772z" fill="#606BF1"/><path d="M44.19 48.811s-1.09.297-.891.891c.198.594 1.287.396 1.287.396 5.247-1.188 7.821-1.782 13.069-2.97 0 0 .89-.198.792-.89-.1-.694-1.287-.397-1.287-.397-5.149 1.188-7.723 1.782-12.97 2.97z" fill="#DBE7F8"/><path d="M32.111 30.594s-1.089.198-.99.99c.198.792 1.485.396 1.485.396 5.05-1.089 7.525-1.584 12.475-2.673 0 0 1.287-.099 1.089-.99-.297-.89-1.98-.297-1.98-.297-4.851.99-7.228 1.485-12.079 2.574z" fill="#606BF1"/><path d="M22.706 38.713s-1.09.297-.99.99c.198.693 1.287.396 1.287.396 5.247-1.09 7.92-1.683 13.167-2.871 0 0 .892-.199.792-.892-.099-.693-1.287-.396-1.287-.396-5.247 1.189-7.821 1.684-12.97 2.773z" fill="#DBE7F8"/><path d="M37.358 47.326s-1.089.297-.89.891c.197.594 1.286.396 1.286.396 3.763-.792 5.644-1.287 9.406-2.178 0 0 .891-.198.792-.891-.099-.693-1.287-.396-1.287-.396-3.762.99-5.742 1.386-9.306 2.178z" fill="#606BF1"/><path d="M46.269 63.266s-1.09.297-.792.99c.297.693 1.287.396 1.287.396 3.663-.891 5.643-1.386 9.306-2.277 0 0 .792-.198.694-.99-.199-.693-1.288-.396-1.288-.396-3.762.99-5.544 1.485-9.207 2.277z" fill="#DBE7F8"/><path d="M39.438 35.248s-1.09.198-.99.99c.198.792 1.485.396 1.485.396 5.049-1.09 7.524-1.584 12.474-2.674 0 0 1.287-.099 1.09-.99-.298-.792-1.98-.297-1.98-.297-4.852.99-7.327 1.485-12.08 2.575z" fill="#606BF1"/><path d="M34.586 62.969s-1.089.297-.792.99c.297.693 1.287.396 1.287.396 5.149-1.287 7.723-1.881 12.97-3.168 0 0 .792-.198.693-.891-.198-.693-1.287-.396-1.287-.396-5.247 1.287-7.821 1.88-12.87 3.069z" fill="#FF8578"/><path d="M51.021 59.009s-1.089.198-.89.99c.296.792 1.484.396 1.484.396 4.95-1.188 7.327-1.782 12.277-2.97 0 0 1.287-.1.99-.99-.297-.793-1.98-.297-1.98-.297-4.752 1.188-7.129 1.782-11.88 2.87z" fill="#606BF1"/><path d="M22.508 64.355c-.495.099-.792.198-1.287.297 0 0-.99.396-1.189-.396-.297-.792.396-.792.793-.99.396-.099 1.287-.297 1.287-.297s.594-.198.792.495c.198.693-.396.891-.396.891zM21.716 66.236s-.99.198-.792.99c.198.495.297.594 1.683.297 1.287-.297 1.485-.594 1.287-1.089-.198-.594-.495-.693-2.178-.198zM23.993 68.81c-.495.1-.792.198-1.287.297 0 0-1.09.1-.792.891.297.792.792.495 1.188.396a74.104 74.104 0 0 1 1.287-.297s.594-.099.396-.792c-.297-.792-.792-.495-.792-.495zM28.25 80.69c-.495.1-.792.199-1.287.298 0 0-1.09.099-.792.891.297.792.89.495 1.287.495a74.327 74.327 0 0 1 1.287-.297s.594-.099.396-.792c-.297-.891-.891-.594-.891-.594zM26.468 75.939c-.495.099-.792.198-1.287.297 0 0-.99.396-1.287-.396-.297-.792.396-.792.792-.99.396-.1 1.287-.297 1.287-.297s.594-.198.792.495c.396.792-.297.89-.297.89zM23.696 72.077s-1.09.198-.792.891c.198.495.297.694 1.683.397 1.287-.298 1.485-.496 1.287-1.09-.198-.495-.396-.693-2.178-.198zM25.775 77.919s-.99.198-.792.99c.198.495.297.693 1.683.396 1.287-.297 1.485-.594 1.287-1.09-.198-.593-.495-.791-2.178-.296z" fill="#DBE7F8"/><path d="M32.012 76.335s-1.089.099-.792.89c.297.793 1.09.496 1.485.397.396-.1 2.277-.594 2.277-.594s.99-.297.792-.99c-.297-.693-1.287-.396-1.287-.396-.99.396-1.485.495-2.475.693zM28.151 64.652s-1.287.198-1.09.792c.199.594.298.792 1.288.495.99-.198 2.673-.594 2.673-.594s.792-.198.594-.891c-.198-.594-.792-.594-1.287-.396-.396.198-2.178.594-2.178.594z" fill="#606BF1"/><path d="M46.269 57.227s-1.287.198-1.09.792c.1.594.298.693 1.288.495.99-.198 7.326-1.782 7.326-1.782s.792-.198.594-.792c-.198-.594-.792-.495-1.287-.396-.495.198-6.831 1.683-6.831 1.683z" fill="#FFD52E"/><path d="M56.269 63.96s-1.288.197-.99.99c.296.791 1.683.296 1.683.296 1.782-.396 2.772-.693 4.554-1.089 0 0 1.089-.198.792-.99-.297-.792-1.287-.396-1.287-.396-1.881.396-2.871.693-4.752 1.188z" fill="#DBE7F8"/><path d="M31.715 69.9s-1.089.296-.792.99c.297.692 1.287.395 1.287.395 3.168-.792 4.752-1.188 8.02-1.98 0 0 .792-.198.594-.99-.198-.792-1.386-.396-1.386-.396-3.07.891-4.654 1.188-7.723 1.98z" fill="#FF8578"/><path d="M32.903 72.87s-1.089.296-.792.99c.297.693 1.287.396 1.287.396 5.148-1.287 7.723-1.882 12.871-3.169 0 0 .792-.198.594-.99-.198-.792-1.386-.396-1.386-.396-5.05 1.287-7.524 1.882-12.574 3.169zM28.745 61.385s-1.09.297-.891.99c.297.693 1.287.396 1.287.396 5.148-1.287 7.822-1.881 12.97-3.168 0 0 .792-.198.693-.891-.1-.693-1.287-.396-1.287-.396-5.248 1.188-7.723 1.88-12.772 3.069z" fill="#DBE7F8"/><path d="M50.328 68.612s-1.089.297-.792.99c.297.693 1.287.396 1.287.396 5.148-1.287 7.723-1.88 12.87-3.168 0 0 .793-.198.595-.99-.198-.792-1.386-.396-1.386-.396-4.95 1.287-7.525 1.881-12.574 3.168zM27.854 58.613s-1.09.297-.891.99c.297.693 1.287.396 1.287.396 5.247-1.287 7.821-1.881 12.97-3.07 0 0 .89-.197.693-.89-.1-.694-1.287-.397-1.287-.397-5.149 1.09-7.723 1.684-12.772 2.97z" fill="#FF8578"/><path d="M43.2 67.028s-1.09.297-.792.99c.297.693 1.287.396 1.287.396 3.663-.99 5.643-1.386 9.306-2.277 0 0 .792-.198.693-.99-.198-.792-1.386-.396-1.386-.396-3.663.99-5.445 1.485-9.108 2.277z" fill="#606BF1"/><path d="M29.339 67.424s-1.485.396-1.188 1.09c.297.692 1.683.296 1.683.296 5.05-1.287 7.624-1.88 12.772-3.168 0 0 1.089-.297.99-.99-.1-.693-1.782-.297-1.782-.297-4.95 1.287-7.525 1.881-12.475 3.07z" fill="#FFD52E"/><path d="M48.15 27.129s-.792.297-.594.891c.099.594 1.09.495 1.09.495 2.177-.396 3.167-.693 5.345-1.188 0 0 .792-.297.594-.891-.099-.594-1.089-.495-1.089-.495-2.079.495-3.168.792-5.346 1.188z" fill="#FF8578"/><path d="m70.525 34.752-2.97-2.97-.495-2.475 2.772.396 2.673 2.673v2.475h-1.98v-.099z" fill="#C3DAF6"/><path d="M64.882 2.675S61.219.299 55.179.695c-6.039.396-11.781 3.96-14.85 10.791-3.169 6.831-.594 13.267 2.277 17.128 2.87 3.861 8.514 8.515 17.82 6.435 9.307-2.079 13.465-10 13.465-16.434 0-6.436-2.475-11.782-9.009-15.94z" fill="#DBE7F8"/><path d="M43.992 25.149s-2.97-4.95-1.287-10.89c1.782-6.04 6.633-10.396 14.158-10.396 7.623.099 13.563 6.237 13.86 13.762.297 7.524-6.633 14.85-15.742 14.355-7.029-.396-10.99-6.831-10.99-6.831z" fill="#3E426A"/><path d="m78.347 44.356-6.832-6.633s-2.277-1.782 0-4.555c2.278-2.772 6.832 1.98 6.832 1.98l14.455 14.06s2.178 1.88.99 3.663c-1.189 1.782-2.674 2.87-5.446.692s-10-9.207-10-9.207z" fill="#BC7D46"/><path d="M51.417 31.09c1.09.494 2.178.791 3.267.99.297-.298.595-.595.495-1.189-.198-1.287-2.376-.792-2.376-.792-.99.198-1.782.396-2.673.594.495 0 .792.198 1.287.396z" fill="#FFD52E"/><path d="M56.664 24.852c-.395-1.584-3.663-.594-3.663-.594-3.267.693-5.94 1.287-8.415 1.782 0 0 0 .099.099.099.198.297.297.594.495.792.396.495.99.792 1.485 1.287l.099.1c2.376-.496 4.95-1.09 8.02-1.684-.1 0 2.277-.198 1.88-1.782z" fill="#606BF1"/><path d="M70.525 20.495s0-.099 0 0h-.099c-4.059.892-6.039 1.288-10.098 2.179 0 0-1.386.396-1.09 1.683.298 1.188 2.08.99 2.08.99 3.366-.792 5.247-1.09 8.217-1.782.396-1.09.99-1.98.99-3.07z" fill="#DBE7F8"/><path d="M63.892 23.664c-5.247 1.88-10.198 1.386-10.198 1.386-1.089 1.485-2.178.792-2.178.792-.495 2.178-1.683 1.98-1.683 1.98-1.287-.891.99-2.475.99-2.475l-.297-.297c-3.267 2.079-3.267.693-3.267.693-.297-1.09 3.07-1.782 3.07-1.782v-.396s-3.664-.594-2.773-1.584c.891-.99 3.762.792 3.762.792l.594-.396s-1.089-1.485-.198-2.277 1.881.099 1.485.792c-.396.594-.396 1.485.297 1.782.594.297.693.89.693.89s4.357.99 9.307-.692M54.882 7.823s-.297 2.673.99 4.653h-.693s-1.485-1.98-.297-4.653zM58.05 5.249s-.395 2.277.1 3.861l-.693.099c-.1 0-.495-2.178.594-3.96z" fill="#F56861"/><path d="M62.803 10.793c-.792-.495-1.98-.792-3.663-.099 0 0-.198-.594-1.09-.495 0 0 .496.396.397.693 0 0-.792-.594-1.98.297 0 0 .792-.099.99.297 0 0-.594-.099-.99.297 0 0 .495-.099.594.198 0 0-1.188.792-1.288 2.475-.099.99-.396 1.782-.99 2.674-.396.693-.594 1.683.1 2.97 1.484 2.87 6.237 2.574 9.702.297 3.564-2.277 3.07-5.94 2.376-7.228-.495-.89-1.188-1.584-2.178-1.683-.594 0-1.386-.198-1.98-.693z" fill="#F56861"/><path d="M57.16 16.535c.89-.594 1.089-1.98.297-3.069-.694-1.188-2.08-1.584-2.97-.99-.892.594-1.09 1.98-.298 3.07.792 1.088 2.08 1.584 2.97.99z" fill="#fff"/><path d="M56.07 14.456c.1-.099.198-.297.1-.495 0-.099-.1-.099-.1-.099.297-.099.594 0 .693.297.198.297.099.594-.099.792-.297.099-.594 0-.791-.297 0-.099-.1-.099-.1-.099.198 0 .198-.099.297-.099z" fill="#3E426A"/><path d="M60.427 14.456c1.188-.792 1.386-2.475.495-3.96-.891-1.485-2.574-1.98-3.762-1.287-1.188.792-1.386 2.475-.495 3.96.89 1.386 2.574 1.98 3.762 1.287z" fill="#fff"/><path d="M59.04 11.783c.198-.1.198-.396.1-.594l-.1-.099c.297-.198.693 0 .891.297.297.396.198.792-.099.99-.297.197-.693.098-.99-.297 0-.1-.098-.1-.098-.1.099-.098.099-.098.297-.197zM64.585 13.367s.495 3.07-1.683 5.247c-2.178 2.179-4.851.99-4.851.99s1.98 1.98 5.049 0c2.97-1.98 1.485-6.237 1.485-6.237z" fill="#3E426A"/><path d="M62.704 21.387s.792 4.158 4.554 5.742c0 0 3.564-3.861 3.861-9.01 0 0-1.188-1.089-3.86-1.386l-4.555 4.654z" fill="#F56861"/><path fill-rule="evenodd" clip-rule="evenodd" d="M56.854 4.612c-7.307-.095-11.913 4.143-13.523 9.92v.003c-.802 2.825-.498 5.424.014 7.327.255.95.56 1.72.801 2.252a10.852 10.852 0 0 0 .379.757l.02.035.002.005.006.008.03.047c.028.042.07.107.128.19.115.167.289.408.52.701a17.107 17.107 0 0 0 2.051 2.172c1.804 1.6 4.418 3.214 7.736 3.401 8.745.475 15.337-6.558 15.056-13.68-.284-7.199-5.96-13.044-13.22-13.138zM43.992 25.248l-.558.334-.001-.002-.003-.005-.008-.014a12.201 12.201 0 0 1-.46-.911 16.152 16.152 0 0 1-.873-2.451c-.552-2.057-.892-4.904-.01-8.018 1.757-6.3 6.852-10.972 14.792-10.87 7.988.105 14.192 6.536 14.502 14.387.313 7.926-6.955 15.545-16.427 15.03h-.001c-3.711-.209-6.592-2.011-8.526-3.727a18.388 18.388 0 0 1-2.209-2.339 15.112 15.112 0 0 1-.717-.987 5.764 5.764 0 0 1-.039-.061l-.01-.017-.004-.006-.001-.001.553-.342zm0 0-.554.34-.004-.006.558-.334z" fill="#34374C"/><path fill-rule="evenodd" clip-rule="evenodd" d="M40.262 11.807a.65.65 0 0 1-.452.8c-1.185.33-2.378.617-3.616.916-.635.153-1.281.309-1.944.475a807.838 807.838 0 0 1-17.81 4.285 836.462 836.462 0 0 1-7.295 1.637l-.416.09-.142.032-.138-.636.138.636a1.032 1.032 0 0 1-.025.005c-1.599.282-2.442.796-2.892 1.608-.48.868-.608 2.232-.338 4.455.267 2.199.902 5.097 1.8 8.937.219.932.453 1.92.7 2.964.766 3.24 1.663 7.03 2.638 11.452v.004c3.652 16.974 8.882 30.094 11.438 35.601.397.838.845 1.274 1.377 1.516.56.256 1.297.337 2.353.29 6.897-.494 20.31-2.27 33.518-6.114 4.008-1.163 7.06-2.105 9.366-2.94 2.315-.84 3.828-1.554 4.792-2.248.94-.677 1.309-1.298 1.422-1.968.121-.721-.034-1.596-.38-2.831-1.095-3.684-6.737-23.68-10.104-37.05a.65.65 0 1 1 1.26-.317c3.364 13.355 9.005 33.345 10.092 37.001l.003.01c.346 1.237.586 2.366.41 3.404-.184 1.091-.805 1.986-1.944 2.806-1.115.804-2.77 1.568-5.108 2.415-2.348.85-5.434 1.802-9.446 2.966-13.32 3.877-26.83 5.665-33.797 6.163h-.017c-1.117.051-2.11-.017-2.96-.404-.878-.4-1.52-1.102-2.013-2.145l-.002-.004c-2.592-5.583-7.856-18.796-11.53-35.876-.972-4.41-1.866-8.187-2.632-11.425-.247-1.047-.482-2.037-.701-2.974-.896-3.827-1.548-6.795-1.826-9.076-.274-2.257-.203-3.987.492-5.242.724-1.307 2.03-1.944 3.79-2.256l.13-.028.415-.09 1.581-.35c1.366-.302 3.326-.741 5.7-1.285a806.307 806.307 0 0 0 17.782-4.279h.003c.687-.172 1.345-.331 1.985-.485 1.223-.295 2.379-.574 3.543-.897a.65.65 0 0 1 .8.452zM67.096 31.323a.65.65 0 0 1 .919 0l2.97 2.97a.65.65 0 1 1-.92.919l-2.97-2.97a.65.65 0 0 1 0-.92zM69.373 29.145a.65.65 0 0 1 .919 0l2.673 2.673a.65.65 0 1 1-.92.919l-2.672-2.673a.65.65 0 0 1 0-.92z" fill="#34374C"/><path fill-rule="evenodd" clip-rule="evenodd" d="M65.231 2.126h-.001l-.012-.008a3.587 3.587 0 0 0-.182-.109 9.918 9.918 0 0 0-.532-.282 15.107 15.107 0 0 0-2.007-.809C60.76.352 58.25-.158 55.137.046c-6.28.412-12.232 4.123-15.4 11.17-3.305 7.13-.6 13.822 2.347 17.786 2.968 3.991 8.847 8.835 18.484 6.682 9.656-2.157 13.974-10.386 13.974-17.07 0-3.302-.636-6.358-2.133-9.132-1.497-2.774-3.834-5.227-7.178-7.356zm-3.137.028c-1.605-.523-3.947-1.003-6.872-.81-5.797.38-11.33 3.795-14.3 10.408l-.004.008c-3.029 6.53-.585 12.708 2.21 16.466 2.774 3.731 8.181 8.194 17.157 6.19 8.958-2.002 12.957-9.614 12.957-15.801 0-3.133-.602-5.968-1.977-8.516-1.374-2.547-3.542-4.846-6.732-6.876l-.004-.002V3.22l-.004-.002-.025-.015a8.617 8.617 0 0 0-.573-.31 13.809 13.809 0 0 0-1.833-.739zM73.495 32.956c-.564-.042-1.06.116-1.477.625-1.005 1.223-.946 2.124-.745 2.684a2.359 2.359 0 0 0 .639.942l.007.007a.658.658 0 0 1 .05.042l6.83 6.634.082.079.234.226a379.53 379.53 0 0 0 3.638 3.475c2.159 2.035 4.636 4.315 5.995 5.382 1.314 1.033 2.17 1.17 2.753 1.02.62-.159 1.172-.696 1.75-1.562.396-.594.268-1.22-.073-1.817a4.222 4.222 0 0 0-.79-.983l-.01-.01a.652.652 0 0 1-.03-.027L77.894 35.614a.603.603 0 0 1-.016-.016l-.002-.001-.008-.008-.034-.035a13.706 13.706 0 0 0-.66-.614 12.068 12.068 0 0 0-1.72-1.262c-.675-.399-1.356-.677-1.959-.721zm5.312 1.733-.008-.008a15.062 15.062 0 0 0-.773-.722 13.366 13.366 0 0 0-1.91-1.4c-.748-.442-1.632-.832-2.524-.899-.93-.07-1.858.219-2.579 1.096-1.272 1.549-1.331 2.925-.963 3.949a3.66 3.66 0 0 0 1.032 1.503l6.812 6.614.082.08.235.227a379.493 379.493 0 0 0 3.65 3.487c2.148 2.025 4.67 4.348 6.084 5.459 1.457 1.145 2.73 1.552 3.88 1.257 1.113-.287 1.897-1.185 2.507-2.101.793-1.188.425-2.394-.026-3.183a5.512 5.512 0 0 0-1.043-1.3l-.02-.017-14.436-14.042z" fill="#34374C"/></svg>