<svg width="10" height="10" viewBox="0 0 10 10" fill="none" xmlns="http://www.w3.org/2000/svg">
<path d="M4.50242 0.553249C4.66626 0.0819021 5.33285 0.0819032 5.49669 0.553251L6.34361 2.98973C6.41589 3.19766 6.60994 3.33865 6.83003 3.34313L9.40897 3.39569C9.90788 3.40586 10.1139 4.03983 9.71622 4.3413L7.6607 5.89968C7.48528 6.03268 7.41116 6.2608 7.47491 6.4715L8.22186 8.94046C8.36636 9.41809 7.82708 9.80991 7.41748 9.52488L5.30018 8.05154C5.11948 7.9258 4.87963 7.9258 4.69893 8.05154L2.58163 9.52488C2.17203 9.80991 1.63274 9.41809 1.77725 8.94046L2.5242 6.4715C2.58795 6.2608 2.51383 6.03268 2.33841 5.89968L0.282889 4.3413C-0.11476 4.03983 0.0912294 3.40586 0.590137 3.39569L3.16908 3.34313C3.38917 3.33865 3.58322 3.19766 3.6555 2.98973L4.50242 0.553249Z" fill="#FFC531"/>
</svg>
