<svg width="120" height="16" viewBox="0 0 120 16" fill="none" xmlns="http://www.w3.org/2000/svg">
<g clip-path="url(#clip0_661_14669)">
<path d="M0 16L2.22307 12.6125H15.1169C15.8473 12.6125 16.3237 12.1587 16.3237 11.4631V9.4971H5.24009C1.93724 9.4971 0.4764 8.1059 0.4764 5.0208V3.69C0.4764 1.3913 1.90549 0 4.16032 0H4.41438V4.9603C4.41438 5.6559 4.89078 6.1096 5.6212 6.1096H16.3554C18.8008 6.1096 20.2617 7.5009 20.2617 9.7694V11.5236C20.2617 14.5179 18.7055 16 15.498 16H0ZM77.2654 12.552H87.2374C88.8889 12.552 89.9369 11.5841 89.9369 10.0718V5.9282C89.9369 4.4159 88.8889 3.448 87.2374 3.448H77.2654V12.552ZM73.2639 16V0H87.3328C91.5248 0 93.9385 2.2987 93.9385 6.1096V9.8903C93.9385 13.7013 91.5248 16 87.3328 16H73.2639ZM53.872 12.552H62.288C63.8123 12.552 64.7968 11.6446 64.7968 10.2231V5.7769C64.7968 4.3554 63.8123 3.448 62.288 3.448H53.872C52.3477 3.448 51.3632 4.3554 51.3632 5.7769V10.223C51.3632 11.6446 52.3477 12.552 53.872 12.552ZM62.3832 16H53.7768C49.7118 16 47.3616 13.7618 47.3616 10.0416V5.9584C47.3616 2.2382 49.7117 0 53.7768 0H62.3832C66.4482 0 68.7984 2.2382 68.7984 5.9584V10.0416C68.7984 13.7618 66.4483 16 62.3832 16ZM95.578 16L105.01 0H110.568L120 16H115.427L113.807 13.2476H105.772L103.613 9.9811L100.056 16H95.578ZM103.708 9.7996H111.775L107.741 2.9943L103.708 9.7996ZM8.3524 3.327L6.06581 0H19.8806L17.6575 3.327H8.3524ZM24.6649 16V0H28.6665V6.2306H33.9701L40.8616 0H46.1652L37.4 7.9546L46.324 16H40.7028L33.8113 9.6786H28.6665V16H24.6649Z" fill="#0E3A2F"/>
</g>
<defs>
<clipPath id="clip0_661_14669">
<rect width="120" height="16" fill="white"/>
</clipPath>
</defs>
</svg>
