<svg width="106" height="24" viewBox="0 0 106 24" fill="none" xmlns="http://www.w3.org/2000/svg">
<g clip-path="url(#clip0_661_13957)">
<path d="M34.5723 12.0952C34.5723 7.98749 36.6499 5.55725 40.6461 5.55725C44.6423 5.55725 46.6086 7.98748 46.6086 11.9178C46.6086 15.8481 44.6423 18.4558 40.4871 18.4558C36.4909 18.4719 34.5723 16.0417 34.5723 12.0952ZM42.8827 11.9339C42.8827 9.78328 42.1371 8.70795 40.6461 8.70795C39.1515 8.70795 38.3035 9.89619 38.3035 12.0038C38.3035 14.219 39.0985 15.3535 40.6461 15.3535C42.1937 15.3535 42.8827 14.2029 42.8827 11.9178V11.9339Z" fill="#3B3C46"/>
<path d="M47.9968 5.77271H52.947C57.9025 5.77271 59.1798 8.53091 59.1798 12.0418C59.1798 15.5528 57.7965 18.2572 52.947 18.2572H47.9968V5.77271ZM53.3657 15.1764C54.855 15.1764 55.4857 13.8807 55.4857 11.9881C55.4857 10.0955 54.8974 8.79974 53.3657 8.79974H51.6697V15.1764H53.3657Z" fill="#3B3C46"/>
<path d="M70.7925 18.2034C69.8778 17.3907 69.212 16.329 68.8739 15.1441H64.2947V13.5311H68.5347C68.4642 13.0669 68.4464 12.5961 68.4817 12.1278C68.4906 11.603 68.526 11.079 68.5877 10.5578H64.3477V8.94486H69.0382C69.3464 7.93164 69.892 7.00923 70.6282 6.25655C70.7737 6.09844 70.9334 5.95444 71.1052 5.82642H60.6748V18.2572H70.8561L70.7925 18.2034Z" fill="#3B3C46"/>
<path d="M84.005 18.2572V14.0689L79.765 5.7996H83.7029L85.7805 10.773L87.8051 5.7996H91.8013L87.5931 14.0151V18.2841L84.005 18.2572ZM102.433 18.2572L102.274 10.9074L100.196 15.8754H97.7478L95.7233 10.9612L95.5643 18.2572H91.9921L92.5221 5.77272H96.6773L98.9669 11.4988L101.256 5.77272H105.465L105.995 18.2572H102.433ZM76.9931 15.2302H76.6751C75.1805 15.2302 73.7442 14.6334 73.7442 12.0956C73.7442 9.55787 75.1805 8.86966 76.9242 8.86966C77.929 8.88886 78.9291 9.015 79.9081 9.24602L78.5195 6.55771L78.0955 5.69207C77.5655 5.63831 76.9772 5.63831 76.3889 5.63831C72.292 5.63831 69.9971 8.17607 69.9971 12.1763C69.9971 16.7679 72.6471 18.553 76.4472 18.553C77.8505 18.5421 79.2461 18.3414 80.5971 17.9561V12.9935H77.0302V15.2087L76.9931 15.2302Z" fill="url(#paint0_linear_661_13957)"/>
<path d="M33.3472 15.0152C32.6529 15.1228 32.0169 15.1765 31.3226 15.2303C29.616 15.2303 28.1797 14.6335 28.1797 12.0957C28.1797 9.55796 29.669 8.96115 31.3226 8.96115C32.0182 8.96138 32.7127 9.0153 33.4002 9.12245C33.7046 8.05694 34.2489 7.07774 34.9902 6.26209C34.1867 6.03924 33.3684 5.87572 32.5416 5.77282C32.5416 5.77282 31.6353 5.66528 31.1583 5.66528H30.0453C26.7434 5.93411 24.4485 7.77292 24.4485 11.9882V12.1495C24.4485 16.4185 26.7434 18.2573 30.0453 18.5262H31.1053C31.5823 18.5262 32.4886 18.4186 32.4886 18.4186C33.2959 18.3288 34.0963 18.1833 34.8842 17.9831C34.1584 17.1236 33.6331 16.1092 33.3472 15.0152Z" fill="#3B3C46"/>
<path d="M19.3928 19.6068L12.948 23.3704C12.2874 23.769 11.5331 23.9793 10.7644 23.9793C9.99583 23.9793 9.24146 23.769 8.58085 23.3704L2.13074 19.6068C1.48882 19.1981 0.95833 18.6324 0.587923 17.9617C0.217516 17.291 0.0190466 16.5366 0.0107422 15.7678V8.24057C0.0196761 7.46517 0.225275 6.70516 0.60772 6.03374C0.990166 5.36231 1.53659 4.8021 2.19436 4.40704L8.64445 0.643401C9.306 0.247585 10.06 0.0388184 10.828 0.0388184C11.5961 0.0388184 12.3501 0.247585 13.0116 0.643401L19.4564 4.40704C20.1142 4.8021 20.6606 5.36231 21.0431 6.03374C21.4255 6.70516 21.6311 7.46517 21.6401 8.24057V15.7678C21.6087 16.5466 21.3869 17.3052 20.9946 17.9753C20.6023 18.6455 20.0519 19.2061 19.3928 19.6068Z" fill="url(#paint1_linear_661_13957)"/>
<path d="M12.6248 19.6605C12.1326 19.6759 11.6429 19.5842 11.1885 19.3917C10.9235 19.2841 10.7115 19.1766 10.4412 19.0637C10.0613 18.8549 9.71896 18.5822 9.42891 18.2572C9.18199 17.9572 9.00127 17.607 8.89891 17.2303C8.79093 16.8438 8.73739 16.4437 8.7399 16.042V14.4721C8.76045 14.0753 8.66653 13.681 8.46961 13.3376C8.36158 13.2011 8.22427 13.0914 8.06813 13.0169C7.912 12.9423 7.74115 12.9049 7.5686 12.9075V11.1224C7.74389 11.1492 7.92306 11.1227 8.08345 11.0461C8.24384 10.9695 8.37824 10.8464 8.46961 10.6923C8.69614 10.3616 8.79255 9.95696 8.7399 9.55783V7.98786C8.7406 7.58637 8.79408 7.18677 8.89891 6.79962C8.98868 6.41794 9.17084 6.06499 9.42891 5.77269C9.73457 5.42874 10.0924 5.13652 10.4889 4.90705C10.7062 4.79952 10.9712 4.69199 11.2362 4.58446C11.6812 4.43045 12.1495 4.35764 12.6195 4.36939H12.8368V6.14905C12.6554 6.1581 12.4765 6.19621 12.3068 6.26196C12.1494 6.32159 12.018 6.4359 11.9358 6.58456L11.7768 6.90716C11.7292 7.02641 11.7092 7.15519 11.7185 7.28352C11.7185 7.4502 11.6655 7.55773 11.6655 7.71903V9.6116C11.6552 10.1102 11.5084 10.5961 11.2415 11.0149C10.9097 11.4871 10.4437 11.8454 9.90591 12.0418C10.4428 12.2374 10.9073 12.596 11.2362 13.0688C11.5031 13.4876 11.6499 13.9735 11.6602 14.4721V16.4184C11.6489 16.5639 11.6669 16.7103 11.7132 16.8485C11.7132 16.9561 11.7715 17.1227 11.7715 17.2303L11.9305 17.5529C12.0426 17.6734 12.1669 17.7816 12.3015 17.8755C12.4721 17.937 12.6507 17.9732 12.8315 17.983V19.768H12.6142L12.6248 19.6605Z" fill="white"/>
</g>
<defs>
<linearGradient id="paint0_linear_661_13957" x1="87.9959" y1="5.57379" x2="87.9959" y2="18.4884" gradientUnits="userSpaceOnUse">
<stop stop-color="#F28F41"/>
<stop offset="1" stop-color="#EB5E30"/>
</linearGradient>
<linearGradient id="paint1_linear_661_13957" x1="10.8254" y1="-0.0807845" x2="10.8254" y2="23.8597" gradientUnits="userSpaceOnUse">
<stop stop-color="#F28F41"/>
<stop offset="1" stop-color="#EB5E30"/>
</linearGradient>
<clipPath id="clip0_661_13957">
<rect width="106" height="24" fill="white"/>
</clipPath>
</defs>
</svg>
