<svg xmlns="http://www.w3.org/2000/svg" xmlns:xlink="http://www.w3.org/1999/xlink"><defs><clipPath id="clip0"><path d="M0 0h18v18H0z"/></clipPath><clipPath id="clip0"><path d="M0 0h18v18H0z"/></clipPath><clipPath id="clip0"><path d="M0 0h18v18H0z"/></clipPath><clipPath id="clip0"><path d="M0 0h18v18H0z"/></clipPath><clipPath id="clip0"><path d="M0 0h18v18H0z"/></clipPath></defs><symbol id="icon-activity" viewBox="0 0 18 18"><path d="M12.5 17c-.2 0-.4-.2-.5-.4L9.6 4.4 8 14.6c0 .2-.2.4-.5.4-.2 0-.4-.2-.5-.4L5.5 7.9 5 10.6c0 .2-.3.4-.5.4h-4c-.3 0-.5-.2-.5-.5s.2-.5.5-.5h3.6L5 5.4c.1-.2.3-.4.5-.4s.4.2.5.4l1.4 6.4L9 1.4c0-.2.2-.4.5-.4.2 0 .4.2.5.4l2.5 12.3.5-3.3c0-.2.3-.4.5-.4h4c.3 0 .5.2.5.5s-.2.5-.5.5h-3.6l-.9 5.6c0 .2-.3.4-.5.4z"/></symbol><symbol id="icon-articles" viewBox="0 0 18 18"><path d="M1 16c-.6 0-1-.4-1-1V7h2v8c0 .6-.4 1-1 1z"/><path d="M3 1v14c0 1.1-.9 2-2 2h15c1.1 0 2-.9 2-2V1H3zm7 14H5v-1h5v1zm0-3H5v-1h5v1zm0-3H5V8h5v1zm6 6h-5v-1h5v1zm0-3h-5v-1h5v1zm0-3h-5V8h5v1zm0-3H5V3h11v3z"/></symbol><symbol id="icon-bookmarks" viewBox="0 0 18 18"><path fill-rule="evenodd" clip-rule="evenodd" d="M13 18l-6-3-6 3V4c0-.6.4-1 1-1h10c.6 0 1 .4 1 1v14z"/><path fill-rule="evenodd" clip-rule="evenodd" d="M15 0H5c-.6 0-1 .4-1 1v1h8c1.1 0 2 .9 2 2v10l2 1V1c0-.6-.4-1-1-1z"/></symbol><symbol id="icon-chat" viewBox="0 0 18 18"><path d="M18 5.5c0-3-2.5-5.5-5.5-5.5C10 0 7.8 1.7 7.2 4c3.6.3 6.4 3.2 6.8 6.8.5-.1.9-.3 1.3-.6l2.7.8-.7-2.7c.4-.8.7-1.8.7-2.8z"/><path d="M6.5 5C2.9 5 0 7.9 0 11.5c0 1.2.3 2.3.9 3.3L0 18l3.2-.9c1 .6 2.1.9 3.3.9 3.6 0 6.5-2.9 6.5-6.5S10.1 5 6.5 5zm-2 7c-.3 0-.5-.2-.5-.5s.2-.5.5-.5.5.2.5.5-.2.5-.5.5zm2 0c-.3 0-.5-.2-.5-.5s.2-.5.5-.5.5.2.5.5-.2.5-.5.5zm2 0c-.3 0-.5-.2-.5-.5s.2-.5.5-.5.5.2.5.5-.2.5-.5.5z"/></symbol><symbol id="icon-course" viewBox="0 0 18 18"><g clip-path="url(#clip0)"><path d="M6.2 5.2h-.1c-1.1 0-2.1.3-2.8 1L1.7 7.8l2.2.6c.4-.5 1.2-1.8 2.3-3.2zM12.8 11.8v.1c.1 1.1-.3 2-1 2.8l-1.6 1.6-.6-2.2c.5-.4 1.8-1.2 3.2-2.3zM16.9 6.1c.9-1.7 1.2-3.7 1-6-2.3-.2-4.3.2-6 1l5 5zM5.7 7.6c-.7.9-1.2 1.6-1.2 1.6l4.2 4.2s.7-.5 1.7-1.2L5.7 7.6zM16.4 7L11 1.6c-.5.4-1 .8-1.5 1.3-1.1 1-2.3 2.6-3.2 3.8l5 5c1.3-.9 2.8-2.1 3.9-3.2L16.4 7zM9.5 8.5c-.8-.8-.8-2 0-2.8.8-.8 2-.8 2.8 0 .8.8.8 2 0 2.8-.8.8-2 .8-2.8 0z"/><path d="M10.9 8.1a1 1 0 100-2 1 1 0 000 2zM.5 18c-.1 0-.3 0-.4-.1-.2-.2-.2-.5 0-.7l5-5c.2-.2.5-.2.7 0 .2.2.2.5 0 .7l-5 5c0 .1-.2.1-.3.1zM1.5 14c-.1 0-.3-.1-.4-.2-.1 0-.1-.2-.1-.3 0-.1 0-.3.1-.4.2-.2.5-.2.7 0 .2.1.2.3.2.4 0 .1 0 .3-.2.3 0 .1-.2.2-.3.2zM2.5 13c-.1 0-.3 0-.4-.1-.2-.2-.2-.5 0-.7l1-1c.2-.2.5-.2.7 0 .2.2.2.5 0 .7l-1 1c0 .1-.2.1-.3.1zM4.5 17h-.2c-.1 0-.1-.1-.2-.1-.1-.1-.1-.3-.1-.4 0-.1 0-.3.1-.4 0-.1.1-.1.2-.1h.4c.1 0 .1.1.2.1.1.1.1.3.1.4 0 .1 0 .3-.2.3 0 .1-.2.2-.3.2zM5.5 16c-.1 0-.3 0-.4-.1-.2-.2-.2-.5 0-.7l1-1c.2-.2.5-.2.7 0 .2.2.2.5 0 .7l-1 1c0 .1-.2.1-.3.1z"/></g></symbol><symbol id="icon-dialogues" viewBox="0 0 18 18"><path d="M8.7 10.1c.2.1.4.1.6 0l8.5-6.7c-.2-.2-.5-.4-.8-.4H1c-.3 0-.6.2-.8.4l8.5 6.7z"/><path d="M9.9 10.9c-.2.2-.6.3-.9.3-.3 0-.7-.1-.9-.3L0 4.5V14c0 .6.4 1 1 1h16c.6 0 1-.4 1-1V4.5l-8.1 6.4z"/></symbol><symbol id="icon-forum" viewBox="0 0 18 18"><path d="M9 13a2 2 0 100-4 2 2 0 000 4zM11 14H7c-1.1 0-2 .9-2 2v1c0 .6.4 1 1 1h6c.6 0 1-.4 1-1v-1c0-1.1-.9-2-2-2zM14.5 13a1.5 1.5 0 100-3 1.5 1.5 0 000 3zM3.5 13a1.5 1.5 0 100-3 1.5 1.5 0 000 3zM5 6h2.5L9 7.5 10.5 6H13c.6 0 1-.4 1-1V1c0-.6-.4-1-1-1H5c-.6 0-1 .4-1 1v4c0 .6.4 1 1 1zM15.5 14h-2.3c.5.5.8 1.2.8 2v1h2.2c.4 0 .8-.3.8-.8v-.8c0-.7-.7-1.4-1.5-1.4zM1 15.5v.8c0 .4.3.7.8.7H4v-1c0-.8.3-1.5.8-2H2.5c-.8 0-1.5.7-1.5 1.5z"/><path d="M17 1h-2v4c0 1.1-.9 2-2 2l1.5 1.5L16 7h1c.6 0 1-.4 1-1V2c0-.6-.4-1-1-1zM2 7l1.5 1.5L5 7c-1.1 0-2-.9-2-2V1H1c-.6 0-1 .4-1 1v4c0 .6.4 1 1 1h1z"/></symbol><symbol id="icon-friends" viewBox="0 0 18 18"><path d="M6.5 8a2.5 2.5 0 100-5 2.5 2.5 0 000 5zM13 8a2 2 0 100-4 2 2 0 000 4zM9 9H4c-1.7 0-3 1.3-3 3v3c0 .6.4 1 1 1h9c.6 0 1-.4 1-1v-3c0-1.7-1.3-3-3-3zM15 9h-3.4c.9.7 1.4 1.8 1.4 3v2h3c.6 0 1-.4 1-1v-2c0-1.1-.9-2-2-2z"/></symbol><symbol id="icon-games" viewBox="0 0 18 18"><g clip-path="url(#clip0)"><path d="M13.5 12a.5.5 0 100-1 .5.5 0 000 1zM5 11H4v1h1v-1z"/><path d="M17.9 14.4c0-.1-.1-.5-.1-.5l-.8-3.5s-.1-.4-.1-.5C16.4 8.2 14.8 7 13 7c-.5 0-.9.1-1.3.2C11 6.5 10.1 6 9 6V4c0-.6.4-1 1-1s1 .4 1 1c0 1.1.9 2 2 2s2-.9 2-2V.5c0-.3-.2-.5-.5-.5s-.5.2-.5.5V4c0 .6-.4 1-1 1s-1-.4-1-1c0-1.1-.9-2-2-2s-2 .9-2 2v2.2c-.7.2-1.2.5-1.7 1C5.9 7.1 5.5 7 5 7 3.2 7 1.6 8.2 1.2 9.9l-.1.5-.8 3.4-.1.5c-.2.7-.1 1.5.6 2.4.4.8 1.2 1.2 2 1.3 1 .1 1.9-.4 2.5-1.1 0-.1.3-.4.3-.4L7.7 14h2.6l2.1 2.5s.3.3.3.4c.6.7 1.5 1.2 2.5 1.1.8 0 1.6-.5 2.1-1.2.7-.9.8-1.7.6-2.4zM6 12H5v1H4v-1H3v-1h1v-1h1v1h1v1zm4.5-2h-3c-.3 0-.5-.2-.5-.5s.2-.5.5-.5h3c.3 0 .5.2.5.5s-.2.5-.5.5zm3 3c-.8 0-1.5-.7-1.5-1.5s.7-1.5 1.5-1.5 1.5.7 1.5 1.5-.7 1.5-1.5 1.5z"/></g></symbol><symbol id="icon-groups" viewBox="0 0 38 32"><path d="M36.8 2.133H8c-.32 0-.533.213-.533.533v24.533c0 .853-.747 1.6-1.6 1.6H3.734c-.853 0-1.6-.747-1.6-1.6v-16c0-.32-.213-.533-.533-.533s-.533.213-.533.533v16a2.641 2.641 0 002.667 2.667h30.933a2.641 2.641 0 002.667-2.667V2.666c0-.32-.213-.533-.533-.533zM36.267 27.2c0 .853-.747 1.6-1.6 1.6H8c.32-.427.533-.96.533-1.6v-24h27.733v24z"/><path d="M4.8 26.667c.32 0 .533-.213.533-.533v-19.2c0-.32-.213-.533-.533-.533s-.533.213-.533.533v19.2c0 .32.213.533.533.533zM12.267 16H20.8c.32 0 .533-.213.533-.533s-.213-.533-.533-.533h-8.533c-.32 0-.533.213-.533.533s.213.533.533.533zM32.533 14.933H24c-.32 0-.533.213-.533.533s.213.533.533.533h8.533c.32 0 .533-.213.533-.533s-.213-.533-.533-.533zM12.267 19.2H20.8c.32 0 .533-.213.533-.533s-.213-.533-.533-.533h-8.533c-.32 0-.533.213-.533.533s.213.533.533.533zM32.533 18.133H24c-.32 0-.533.213-.533.533s.213.533.533.533h8.533c.32 0 .533-.213.533-.533s-.213-.533-.533-.533zM12.267 22.4H20.8c.32 0 .533-.213.533-.533s-.213-.533-.533-.533h-8.533c-.32 0-.533.213-.533.533s.213.533.533.533zM32.533 21.333H24c-.32 0-.533.213-.533.533s.213.533.533.533h8.533c.32 0 .533-.213.533-.533s-.213-.533-.533-.533zM12.267 25.6H20.8c.32 0 .533-.213.533-.533s-.213-.533-.533-.533h-8.533c-.32 0-.533.213-.533.533s.213.533.533.533zM32.533 24.533H24c-.32 0-.533.213-.533.533s.213.533.533.533h8.533c.32 0 .533-.213.533-.533s-.213-.533-.533-.533zM12.267 11.733h20.267c.32 0 .533-.213.533-.533V6.933c0-.32-.213-.533-.533-.533H12.267c-.32 0-.533.213-.533.533V11.2c0 .32.213.533.533.533zm.533-4.266H32v3.2H12.8v-3.2z"/></symbol><symbol id="icon-help" viewBox="0 0 18 18"><path d="M9 1C4.6 1 1 4.6 1 9c0 1.4.4 2.8 1.1 4.1L1 17l3.9-1.1C6.2 16.6 7.6 17 9 17c4.4 0 8-3.6 8-8s-3.6-8-8-8zm.5 12.5c0 .3-.2.5-.5.5s-.5-.2-.5-.5.2-.5.5-.5.5.2.5.5zm1-3.9c-.6.3-1 1.1-1 1.9 0 .3-.2.5-.5.5s-.5-.2-.5-.5v-.2c.1-1.1.6-2.1 1.5-2.6.6-.4 1-1 1-1.7 0-1.1-.9-2-2-2s-2 .9-2 2c0 .3-.2.5-.5.5S6 7.3 6 7c0-1.7 1.3-3 3-3s3 1.3 3 3c0 1.1-.6 2.1-1.5 2.6z"/></symbol><symbol id="icon-internship" viewBox="0 0 18 18"><path d="M13 1c0-.6-.4-1-1-1H5c-.6 0-1 .4-1 1v9h9V1z"/><path d="M16.5 7h-1c-.3 0-.5.2-.5.5v3c0 .3-.2.5-.5.5h-12c-.3 0-.5-.2-.5-.5v-3c0-.3-.2-.5-.5-.5h-1c-.3 0-.5.2-.5.5s.2.5.5.5H1v2.5c0 .8.7 1.5 1.5 1.5H3c0 .6.4 1 1 1h9c.6 0 1-.4 1-1h.5c.8 0 1.5-.7 1.5-1.5V8h.5c.3 0 .5-.2.5-.5s-.2-.5-.5-.5zM11.5 16H9v-1c.6 0 1-.4 1-1H7c0 .6.4 1 1 1v1H5.5c-.8 0-1.5.7-1.5 1.5 0 .3.2.5.5.5s.5-.2.5-.5.2-.5.5-.5H8v.5c0 .3.2.5.5.5s.5-.2.5-.5V17h2.5c.3 0 .5.2.5.5s.2.5.5.5.5-.2.5-.5c0-.8-.7-1.5-1.5-1.5z"/></symbol><symbol id="icon-kick" viewBox="0 0 18 18"><path d="M17.9 8.9l-.5-.9-6.7 3.8c-.4.2-.9.3-1.3.2-.5 0-.9 0-1.3.2l-4.7 2.5 1 1.7c.3.5.9.6 1.4.4l4.4-2.4-.5-.9 1.4.4 6.4-3.7c.5-.2.6-.8.4-1.3zM8.9 11.2c.4.1.9.1 1.3-.2l6.7-3.8c-.6-1-1.8-1.3-2.7-.7l-.9.5c-.5.3-1.1.5-1.7.5L11 8.7l-.9-.4.4-.8c-.3 0-.5-.1-.8-.2l-.8 1.4-.8-.4.6-1.3c-.3-.2-.6-.4-.8-.7l-1 1.5-.8-.6 1.2-1.8-.6-.8-.8 1.2-.8-.6 1-1.5L5 2 0 8l2.9 5.9 4.7-2.5c.4-.2.8-.3 1.3-.2z"/></symbol><symbol id="icon-notifications" viewBox="0 0 18 18"><path fill-rule="evenodd" clip-rule="evenodd" d="M9 18c1.1 0 2-.9 2-2H7c0 1.1.9 2 2 2zM15 13V8c0-3-2.2-5.4-5-5.9V1c0-.6-.4-1-1-1S8 .4 8 1v1.1C5.2 2.6 3 5 3 8v5l-2 1v1h16v-1l-2-1z"/></symbol><symbol id="icon-personal" viewBox="0 0 18 18"><path d="M9 9a4 4 0 100-8 4 4 0 000 8zM15 17H3c-.6 0-1-.4-1-1v-3c0-1.7 1.3-3 3-3h8c1.7 0 3 1.3 3 3v3c0 .6-.4 1-1 1z"/></symbol><symbol id="icon-quizzes" viewBox="0 0 18 18"><g clip-path="url(#clip0)"><path d="M13 16H2V3h3v1h6V3h1.6l1.7-1.7.2-.2c-.2 0-.3-.1-.5-.1H9.7C9.4.4 8.7 0 8 0S6.6.4 6.3 1H1c-.6 0-1 .4-1 1v15c0 .6.4 1 1 1h13c.6 0 1-.4 1-1V7.4l-2 2V16z"/><path d="M15.7 1.3L8.3 8.7c-.2.2-.3.4-.3.7v1.1l-.7.7.5.5.7-.7h1.1c.3 0 .5-.1.7-.3l7.4-7.4c.4-.4.4-1 0-1.4l-.6-.6c-.4-.4-1-.4-1.4 0zM6 6H4v2h2V6zM6 9H4v2h2V9zM6 12H4v2h2v-2z"/></g></symbol><symbol id="icon-rating" viewBox="0 0 18 18"><path fill-rule="evenodd" clip-rule="evenodd" d="M7 5L2 0h5l5 5H7zM9 6c-3.3 0-6 2.7-6 6s2.7 6 6 6 6-2.7 6-6-2.7-6-6-6zm3.4 5.5l-1.7 1.3c-.1.1-.1.2-.1.3l.7 2c0 .1 0 .2-.1.2-.1.2-.2.2-.4.1l-1.6-1.2c-.1-.1-.2-.1-.3 0l-1.6 1.2c-.1.1-.1.1-.2.1-.1-.1-.2-.2-.1-.4l.6-2c.1-.1 0-.2-.1-.3l-1.7-1.3c-.1 0-.1-.2-.1-.2 0-.2.1-.3.3-.3h2c-.1 0 0-.1 0-.2l.7-2.1c0-.1.1-.2.1-.2.1-.1.3 0 .4.2l.7 2.1c0 .1.1.2.2.2h2.1c.3 0 .4.4.2.5zM12.2 3.8L16 0h-5L9.7 1.3l2.5 2.5z"/></symbol><symbol id="icon-reviews" viewBox="0 0 18 18"><path d="M4 0C1.8 0 0 1.8 0 4s1.8 4 4 4 4-1.8 4-4-1.8-4-4-4zM2.5 2c.3 0 .5.2.5.5s-.2.5-.5.5-.5-.2-.5-.5.2-.5.5-.5zM6 4.6C5.9 5.1 5.3 6 4 6s-1.9-.9-2-1.4c-.1-.2.1-.5.4-.6.2-.1.5.1.6.4 0 .1.2.6 1 .6s1-.6 1-.6c.1-.3.4-.5.6-.4.3.1.5.4.4.6zM5.5 3c-.3 0-.5-.2-.5-.5s.2-.5.5-.5.5.2.5.5-.2.5-.5.5zM4 10c-2.2 0-4 1.8-4 4s1.8 4 4 4 4-1.8 4-4-1.8-4-4-4zm-1.5 2c.3 0 .5.2.5.5s-.2.5-.5.5-.5-.2-.5-.5.2-.5.5-.5zm3.1 4h-.1c-.2 0-.4-.1-.5-.4 0-.1-.2-.6-1-.6s-1 .6-1 .6c-.1.3-.3.4-.6.4-.3-.1-.4-.3-.4-.6.1-.5.7-1.4 2-1.4s1.9.9 2 1.4c.1.2-.1.5-.4.6zm-.1-3c-.3 0-.5-.2-.5-.5s.2-.5.5-.5.5.2.5.5-.2.5-.5.5zM17.5 3h-8c-.3 0-.5-.2-.5-.5s.2-.5.5-.5h8c.3 0 .5.2.5.5s-.2.5-.5.5zM17.5 5h-8c-.3 0-.5-.2-.5-.5s.2-.5.5-.5h8c.3 0 .5.2.5.5s-.2.5-.5.5zM15.5 7h-6c-.3 0-.5-.2-.5-.5s.2-.5.5-.5h6c.3 0 .5.2.5.5s-.2.5-.5.5zM17.5 12h-8c-.3 0-.5-.2-.5-.5s.2-.5.5-.5h8c.3 0 .5.2.5.5s-.2.5-.5.5zM17.5 14h-8c-.3 0-.5-.2-.5-.5s.2-.5.5-.5h8c.3 0 .5.2.5.5s-.2.5-.5.5zM15.5 16h-6c-.3 0-.5-.2-.5-.5s.2-.5.5-.5h6c.3 0 .5.2.5.5s-.2.5-.5.5z"/></symbol><symbol id="icon-sale" viewBox="0 0 184 161"><g fill-rule="nonzero" stroke="none" stroke-width="1" fill="none"><path d="M181.4 152.2s-11.9.1-17.8.8c-2 .2-4.1.5-6.1.8.1 0 .3-.1.4-.1l25-6.1-.6-3.6c-10 1-15.8 1.5-25.7 2.9-9.9 1.5-19.8 2.9-29.6 4.5-9.9 1.5-19.7 3-29.6 4.3-4.9.7-9.9 1.3-14.8 1.9-2.5.2-5 .6-7.4.7-1.1.1-2.2.2-3.3.2l.9-.3c1.6-.5 3.3-1 5-1.4 3.3-.9 6.7-1.7 10.1-2.5 6.7-1.5 13.5-3 20.3-4.3l20.4-3.9 10.2-1.9c3.4-.6 6.8-1.2 10.2-1.9l8.1-1.7-8.3-.1c-10-.1-19.9 1-29.7 2.1-9.8 1.2-19.6 2.6-29.4 4.1-6.5 1-13 2.1-19.5 3.3 1.4-.3 2.8-.7 4.2-1 7.1-1.7 14.2-3.4 21.3-4.9 7.1-1.5 14.3-2.8 21.4-3.6v-4.3c-2.5-.2-5.1-.5-7.5-.4h-3.7l-3.7.1-3.7.1-3.7.3-3.7.3-3.7.3c-9.8.9-19.5 2.2-29.2 3.5-9.7 1.4-19.4 2.8-29 4.3-4.1.6-8.2 1.2-12.3 1.9 3.5-1 7-2.1 10.5-3.1 8.9-2.6 17.9-4.8 27.1-6.6l-.1-.4c-4.6.7-9.2 1.5-13.8 2.4-4.6.9-9.1 2-13.6 3.1-9.1 2.2-18 4.8-27 6.8l.4 2.4c4.9-.3 9.8-.9 14.7-1.5 4.9-.6 9.7-1.2 14.6-1.8 9.7-1.3 19.4-2.6 29.1-3.8 9.7-1.2 19.4-2.3 29.1-3l3-.3c-5.9 1.3-11.7 2.6-17.5 4.1-7.1 1.8-14.2 3.7-21.3 5.7-7.1 2-14.1 4-21.1 6.4l.9 3.8c5-.7 9.8-1.7 14.7-2.6l14.6-2.8c9.7-1.9 19.4-3.7 29.1-5.4 9.7-1.7 19.4-3.4 29.2-4.8 4.9-.7 9.8-1.3 14.7-1.8 1.1-.1 2.3-.2 3.4-.3l-9.3 1.8-20.4 4.1c-6.8 1.4-13.6 2.8-20.4 4.3-3.4.8-6.8 1.5-10.1 2.4-1.7.4-3.4.9-5 1.4-.8.3-1.7.5-2.5.8-.4.1-.8.3-1.3.5-.4.2-.9.4-1.3.7l-2.3 1.4h6.6c1.3 0 2.5-.1 3.8-.2 2.5-.1 5-.3 7.5-.5 5-.4 10-.9 14.9-1.5 9.9-1.1 19.9-2.3 29.8-3.6 9.6-1.2 19.3-2.5 28.9-3.8-9.4 2.4-18.8 4.8-28.1 7.3l.6 2.8c11.7-2.1 23.4-4 35.2-5.7 5.9-.9 17.2-3.1 17.2-3.1z" fill="#000"/><path fill="#FF3329" d="M36.5 34.3L.7 36.6v27.1l3.7.5v75.9l85.9 19 88.4-17.9V65.9l3.5-.4.9-27.7-55.3-4.6z"/><path d="M59.8 152.4s-.7.1-2.8-.2c.2.3.5.4.9.4l1.9-.2zM124.5 152.8h-.2.2z" fill="#EA4468"/><path fill="#000" opacity=".2" d="M90.3 159.1L89.6 76l.5-31.4L.7 36.5v27.2l3.7.5v75.9z"/><path fill="#000" opacity=".15" d="M90.1 44.8l93-6.8-93-6.6L.7 36.8z"/><path fill="#000" opacity=".2" d="M4.1 64.2v2.1l85.7 12.2 88.6-10.2v-2.4L89.9 76z"/><path d="M57.6 71.3s-2.2 79.1-.2 79.9c-1.4.3-1.6-3.7-1.6-3.7l-1.5-62.3-.2-14.1 3.5.2zM125.7 71.9s1.1 79.1-.8 79.9c1.4.3 1.6-3.7 1.6-3.7l2.5-62.3.2-14.1-3.5.2z" fill="#000" opacity=".3"/><path d="M172.7 61.5s-3.4-14.9-6.8-19.5-7.3-6-7.3-6l-9.5-3.8 3.7-2.3 1.5-1.5 2.5-3.6s1.1-3.6 1.2-7.5c.1-3.9-2.9-10.9-10.6-12.7-7.7-1.8-8.4-2.2-14.6-.6-6.2 1.5-10.3 5.4-10.3 5.4l-9.5 8.2-7.5 4.8-6.6 4.6-.4-.8-1.5-.4s-6.3-.1-10.8-.1c-4.6 0-3.7 1.6-3.7 1.6l-3.7-1.6-.8-.8s-6.3-5.5-6.9-5.9c-.5-.4-9.7-6.4-9.7-6.4L48.5 4.9s-6.7-3.6-12.6-3.4c-5.9.2-10.7 2.5-13.2 8-2.5 5.6-1.3 9.5 2.5 12.5s8.3 2.9 8.3 2.9-.9-2-1.6-4.5c-.7-2.5.4-7.7 6.2-10 5.7-2.3 12.6.5 18.9 3.2 6.3 2.7 11.7 10.5 11.7 10.5l.5.8H58.5s-13.2.3-20.1.3c-6.9 0-10.8-1.1-10.8-1.1s2.3 1.9 5.9 4.4c3.6 2.6 9.4 4.3 9.4 4.3l-15.4 3.6-21.2 5 12.3-1.8-3.8 4.9 5.2-1.8 14.9-3.3s-.6 3.3-.5 3.5c.1.2.4 17.2.4 17.2s2 81.3 2.3 84.1c.3 2.8 1.6 3.9 1.6 3.9s3.2.9 11.2 2.6c3.4.7 5.7 1.1 7.2 1.3-1-1.2-.9-4.6-.9-4.6s-2.5-94.8-2.4-101.1c.1-6.2 1.5-4.8 1.5-4.8l10-1.6s21.9-2 23.8-2.5c1.9-.5 2.2-.2 2.2-.2l2.6 1.1 19.8 1.7s9.1.4 12.9 1.4c3.8 1 3 3.7 3 3.7l-.9 40.4s-2 58.1-2.3 62.6c-.2 3.6-1.4 4.3-1.9 4.5 2-.4 16.3-3.3 18-3.7 1.8-.4 2-3.8 2-3.8l1.6-25.6 3.5-73.9 2.7 9.8 2.4 19.9 9.2-15.1 4.6 5 6.4 6.1-2.2-9.8zm-32.4-23.7c-4-.4-14.4-1.5-14.4-1.5l2.6-.1c.7 0 10.2-1 10.7-1s3.1-.3 3.1-.3 2.9 2.6 3.1 3c.2.4 1.6 2.4 1.6 2.4s-2.7-2.2-6.7-2.5zm3-10.1l-2.7 1.4s-7-1.8-16.4-3c-9.4-1.2-10.2-.8-10.2-.8s2-2.3 5.5-5.7c3.5-3.3 9.6-10.1 9.6-10.1s4.3-4.2 10.7-4.2c6.4 0 9.4 3 10.5 7.3 1.1 4.3 1.4 6-.7 9.2-1.9 3.4-6.3 5.9-6.3 5.9z" fill="#FCB22D"/><path fill="#000" opacity=".2" d="M34.5 47l19.4 2.7 2.3 101.2 1.5 1.7-19.1-4.3-1.3-2.9z"/><path d="M34.3 42.1l19.4 2.6s-.4-2.7 2.2-3.3c2.6-.7 3.5-.5 3.5-.5l-20.2-2.1-4.4.9v2.6M21.9 11.7l10.4 4.7-.9 3.9-9.5-2.8zM142.8 35.4c.7 0 11.4-1 11.4-1l7.7 3.2 1.6 1.9-15.5 2-2.4-3.3-2.8-2.8zM125.1 41.3l20.5-2.4 2.3 3.3-18.3 2.6-.2-.9-1.2-1.7zM82.1 29.2s-.2-1.6 2.4-1.7c2.6-.1 12.6-.2 12.6-.2s1.6.1 1.3 1.9c0 0-2.6-.1-5.5 0-2.8.1-10.8 0-10.8 0z" fill="#FCB22D"/><path d="M22.7 9.5l10 5.5s3.8-8.1 14.6-4.7c6.2 1.9 9.6 3.2 9.6 3.2l6.3 3.9S50.8 3.9 40.2 1.9C27-.5 22.7 9.5 22.7 9.5z" fill="#000" opacity=".3"/><path fill="#000" opacity=".2" d="M32.8 22.7l.7 2.2-2.4-.3-3.7-1.3-4.5-3.5z"/><path d="M81.7 29.5s.2 1.7 2.5 2c2.3.3 13.2.5 14.3-.9l.2 4s.7.1-1 .6-9.9.4-9.9.4l-3.8-.3s-1.8-.7-1.6-.7c.2-.1-.7-5.1-.7-5.1zM141.1 34.8s6.8 2 6.3 14.8c-.4 9.8-1.2 28.3-1.7 28.1l7.9-8.9s-.5-6-2.4-18.9c-2.3-7.6-4.4-11.7-7.4-13.7-2.3-1.7-2.7-1.4-2.7-1.4z" fill="#000" opacity=".3"/><path d="M61.1 29.1l9.4 6.5s-14.4.5-14.6.2c-.3-.2-7.6-4.5-6.7-4.6 1 .1 11.9-2.1 11.9-2.1z" fill="#FCB22D"/><path d="M72.9 30s-4.5-3.4-6.5-3.3c0 0-2.1-.3-4.9-.1-2.7.2-2.9 3-3.1 3.2l2.7-.5 6.1-.3v-.1c1.8.2 3.4.4 3.4.4l2.3.7z" fill="#000" opacity=".15"/><path d="M59.4 40.8s17.9.4 22.7 0c4.8-.4 7.3-1.6 8.3-1.2 1 .4 7.3 1 11.8 1.3 4.5.3 19.1 1.4 19.8 1.3.7-.1 4.6-.8 4.6-.8l-28.5-2.6-5.9-1-1.1-.6-4.4.8-10.3 1.5-17 1.3z" fill="#000" opacity=".3"/><path d="M98.4 29.2s1.4-2.8 7.5-2.8 8.2.9 8.2.9l12.5 1.6 7.6 1.9-8.3-.1-5 .3-10.7 1.1-5.9.5h-3.9l-2-.4v-3zM53.7 37l19.9 2.3 7.5-.4 5.8-.8 4.4-.8v-1.2l-7.3-.8-3.3.8-8.6-.6z" fill="#000" opacity=".4"/><path fill="#000" opacity=".4" d="M91.3 37.3l2.6 1.1 14.3 1.2 22-2.9-9.9-.8-10.6-.5-7.4.7-2.1-.2-2.5-.7-6.4.9z"/><path fill="#FCB22D" d="M150.7 19.8l6.7 2.5-.6 2.4-2.5 3.6-6.4-3.1z"/><path d="M159.7 67.9c.3.6 7.1 4.7 9.1 5.6L166 63l-1.9-2.5-4.4 7.4zM141.1 34.8c-1.9.3-10.4-.8-16.8-1.6s-14-1.1-14-1.1l-5.9.5-5.9-.4.2 2.5s-.1 1.8 5.5 1.3 12.6-.2 12.6-.2 10.1-.2 11.8.4c1.6.5 12.5-1.4 12.5-1.4z" fill="#000" opacity=".3"/><path d="M155.8 10.6c-2.5-4.7-12.2-7.1-12.2-7.1s-7.8-1.1-14.5 1.5-9 8.6-12.4 13.8c-3.4 5.2-7.9 6-10.8 7.5l8.2-1 5.5-5.7s6.2-6.1 9.6-10.1c1.4-1.6 3.1-2.6 4.6-3.3-.7.4-1.4.8-2 1.4 0 0 6.1-3.8 13.1-1.4s6.2 11.2 6.2 11.2l6.9 2.3c.1.1.3-4.4-2.2-9.1zM65.1 19.8c.6 0 8.3 1.1 8.6 1.4.3.2 5.1 4.6 5.1 4.6s-9.3 0-9.7-.8c-.4-.8-4-5.2-4-5.2z" fill="#000" opacity=".2"/><path d="M67.2 29.1c3.4.4 7.9 6.6 7.9 6.6l5.6.5 2.7-.7-1-1.3-.5-1.3-3.7-1.3-3.3-1.5-7.7-1z" fill="#000" opacity=".3"/><path d="M74.9 30.1s3.7.4 3.9-1c.2-1.3-3.1-3.5-3.1-3.5l4.4.8 2.3.8-.8 2.2.8 3.5-4.2-1.3-3.3-1.5z" fill="#000" opacity=".3"/><path d="M183.6 37.7v-.2s0-.1-.1-.1c0 0-.1 0-.1-.1h-.1-.1l-24.5-1.8c-.9-.4-1.9-.7-2.9-1.1-1.4-.5-2.8-1-4.3-1.7-.4-.2-.7-.3-1.1-.5 2.4-1.2 5.9-4.5 7.4-8.2 1.9-4.7 1.7-14-6.8-18.5-7.8-4.2-15.6-4.2-23.3 0-4.9 2.6-7 4.6-9.8 7.2-.9.9-1.9 1.7-3 2.7-3.3 2.9-5 3.9-7.6 5.4-1 .6-2 1.2-3.3 2-2.4 1.5-3.7 2.7-4.5 3.6-.2-.4-.6-.9-1.6-1-.7-.1-10.9-.3-13.7 0-.6.1-1.2.4-1.6.9-.1.2-.2.3-.3.5-.2-.1-1-.6-2.6-1.1-.6-.7-4.3-4.7-10.5-8.9C62.4 12.2 49.6 5 49.5 4.9h-.1c-2-1.2-4.2-2.2-6.4-2.9-9.5-2.9-18.1.3-21 7.6-2.7 7 .2 11 3.4 13.2 2 1.8 5.1 4.3 7.7 6 3.2 2.1 5.6 3.2 7.9 3.8-1.7.4-3.3.8-4.8 1.1L.7 36.1H.5s-.1 0-.1.1H.3s0 .1-.1.1v27.5c0 .2.2.5.4.5l3.2.4v75.4c0 .2.2.4.4.5l33.5 7.4c.7 1.1 1.6 1.2 1.8 1.2l18.3 3.8h.1c.3.1.7.1 1.1.1.4 0 .9-.1 1.4-.2l29.7 6.6h.2l32.4-6.6c.3.2.7.4 1.1.4.1 0 .3 0 .4-.1h.1l17.9-3.6c.1 0 .9-.1 1.6-.9l34.9-7c.2 0 .4-.3.4-.5V66.4l3.1-.3c.2 0 .4-.2.4-.5l1-27.9zm-7.2.1l-12.6.9c-.9-.9-1.8-1.5-2.8-2.1l15.4 1.2zm-21-2.5c.9.3 1.7.6 2.6 1 .1.1.2.2.3.2h.1c2.5 1.1 4.7 2.5 7 5.8 3.6 5.2 7.9 22.9 9.2 28.2-2.5-2.2-8.4-7.5-10.3-10.3-.1-.1-.3-.2-.4-.2-.2 0-.3.1-.4.3 0 .1-3.7 7.1-5.8 10-1.2 1.7-2.1 3.3-2.8 4.5-.1-1.4-.4-3.7-.6-6-.1-1.1-.2-2.3-.3-3.4l-.1-.6c-.4-4.2-1.2-11.8-3.8-18.9-.6-1.7-1.4-3.5-2.3-5.1-.2-.4-.4-.8-.7-1.2-4.8-7.7-14.2-9.7-20.4-10.9-.8-.2-1.6-.3-2.3-.5-3-.7-7.8-1.3-11.7-1.7 4.1-.2 8.1-.2 15 .7 10.8 1.4 18.1 4.3 23.3 6.6 1.6.5 3 1 4.4 1.5zm13.4 31.2l-8.2.9c1.4-2.3 2.7-4.9 3.4-6.1 1.1 1.6 3 3.5 4.8 5.2zM153 64.7l.1.6c.1 1 .2 2 .3 2.9l-4.2.5 1-20.3c1.8 6.4 2.4 12.7 2.8 16.3zM99.3 29.3s0-.1 0 0c0-.1.8-2.1 7.3-2.6.7.1 12.2 1 17.6 2.2.7.2 1.5.3 2.3.5 1.2.2 2.5.5 3.8.8-3-.1-7.1-.1-10.2.2l-2.4.3c-5.4.6-12.1 1.4-14.8 1.3-2.1-.1-3.3-.2-3.8-.3.1-.8.2-1.6.2-2.4zm.1 4.9c-.1-.3-.1-.8-.2-1.5.6.1 1.8.2 3.8.3h.6c3.1 0 9.3-.7 14.4-1.3l2.4-.3c5.4-.6 13.7 0 14.3 0 2.2.7 4.4 1.7 6.4 3.1-2.4.3-7.9.8-14.3.9-4.7 0-8.1-.1-10.9-.2-2.4-.1-4.3-.2-6.2-.1-1.2 0-2.3.2-3.3.3-2.4.3-4.6.5-6.9-.1-.1-.3.1-.6-.1-1.1zm42.8 1.2c1.2.9 2.2 2 3.2 3.2-1-.5-2.2-1-3.8-1.2-1.9-.2-6.3-.7-10.4-1.1 5.7-.2 10.1-.8 11-.9zM127.8 26c-5.8-.8-9.6-.9-13.1-.8.7-.8 2.3-2.5 6-5.8 1.9-1.6 3.5-3.4 5-5.2 3.8-4.3 7.1-8 13.4-8.4 3.4-.2 6.2.6 8.2 2.5 3 2.7 3.3 6.8 3.4 8.5.1 4.9-5.6 10.4-10.4 11.7-3.6-1-7.7-1.9-12.5-2.5zm-23.5-2.4c1.3-.8 2.4-1.4 3.3-2 2.5-1.5 4.4-2.6 7.7-5.5 1.2-1 2.1-1.9 3.1-2.8 2.7-2.5 4.8-4.5 9.6-7 7.4-4 14.9-4 22.4 0 8.9 4.8 7.6 14.3 6.4 17.3-1.5 3.8-5.7 7.4-7.7 8-2.1-.9-4.4-1.7-7.1-2.6 4.9-2 9.9-7.3 9.8-12.2-.1-3.7-1.4-7.1-3.7-9.2-2.2-2-5.2-3-8.9-2.7-6.8.4-10.3 4.4-14.1 8.7-1.5 1.7-3.1 3.5-4.9 5.1-4.8 4.2-6.3 5.9-6.7 6.6-1.5.1-3 .2-4.7.3l-2.1.2c-3.7.3-5.7 1-6.8 1.8.4-.9 1.6-2.2 4.4-4zm-21 3.3c.2-.3.5-.5.9-.5 2.7-.3 12.9-.1 13.4 0 .9.1.9.5.8.7 0 .3 0 .8-.1 1.2-.1 2.9-.2 5.4.1 6.3v.1c-.1.1-.2.2-.4.2h-.1c-.5.1-1.5.3-3.2.3-.4 0-.9 0-1.5.1-1.9.1-6.7.3-9.1-.2-.1-.1-.1-.1-.2-.1-.7-.2-1.1-.4-1.1-.7-.4-1.7-.7-5.9.5-7.4zm42.6 122.2c-.2 1.2-.5 2-.7 2.4l-34.4 7-.1-82 38-4.3c-.2 7.7-.3 14.1-.3 14.3l-1.8 48.1c-.1 0-.2 11.6-.7 14.5zm-68.7 2.2c-.4-.6-.3-1.3-.3-1.3 0-.2-1.3-19.5-1.2-25.4.1-3.7-.5-30.9-.9-52.9l34.9 4.8.1 82-32.6-7.2zM55.6 42l34 3.1v30.4l-34.9-4.8c-.3-12.6-.5-22.5-.5-23.9 0-3.7.2-4.2.9-4.6.1 0 .3-.1.5-.2zm73 29.1l-38 4.3V45.1l37-2.8c.9.4 1.4 1.2 1.5 2.6.1 1.9-.2 15.2-.5 26.2zM90.5 44.2l-31-2.8c3.5-.5 8.7-1 14.4-1.4 9-.5 14.7-1.4 16.9-2.6.8 1 3 1.7 7 2l6.4.5c4.4.3 6.9.5 9.8.7 2.9.2 5.9.6 8.3.9.6.1 1.2.1 1.7.2l-33.5 2.5zM72.1 35c-3.8 0-20.6.2-25.3 1.2-.9.2-2 .4-3 .7-4.3 1-9.8 2.3-13.3 2.7-3.4.5-10.9 2.8-14.3 3.9l3.4-3.7c.1-.2.2-.4.1-.6-.1-.2-.3-.3-.5-.3l-2.9.5c5-1.2 10.2-2.3 13.4-3.1 1.4-.3 3.3-.8 5.4-1.3 9.3-2.2 23.4-5.6 27.4-5.6 7 0 11.9.6 13.7 1.7 2.1 1.2 4.8 2 5.6 2.2 0 .4.1.8.2 1.1.1.4.3.6.6.9-1.6.2-3.8 0-6-.1-1.7-.1-3.2-.2-4.5-.2zm-52.7 2.7L7.2 36.6l23.4-1.5c-.5.1-.9.2-1.3.3-2.4.6-6.1 1.5-9.9 2.3zm49.1-20c4.5 3.1 7.6 6 9.2 7.6-1.9-.4-4.6-.8-8.2-.9-.7-.9-3.6-4.6-6.2-7.6-1.1-1.2-3.3-3.7-6.3-6.3 3.9 2.2 8.3 5 11.5 7.2zm-34.7 6.7c-.6-1-3.3-6.3.8-11.2 1.4-1.7 3.9-2.8 7-3 7-.5 15.8 3 22.5 9.1 1.7 2 3.3 4 4.1 5.1-3.1 0-7.4 0-11.9.1-7.7.2-16.7.4-22.5-.1zM23 10.1C25 4.9 30.1 2 36.3 2c2.1 0 4.3.3 6.5 1 7.3 2.2 14 8.4 17.6 12.1-6-4.1-13-6.3-18.9-5.9-3.4.2-6.1 1.4-7.7 3.4-3.9 4.8-2.2 9.8-1.2 11.7-1.7-.2-3.1-.4-3.9-.8-.8-.3-1.8-.8-2.7-1.4-1-.9-1.8-1.6-2.1-1.9-1.7-2.2-2.7-5.4-.9-10.1zm10.8 18c-1.5-.9-3.1-2.1-4.5-3.3 1.1.3 2.5.5 4.3.6 5.8.5 14.7.3 22.8.1 5-.1 9.8-.2 12.9-.1 9.4.3 12.4 2.3 12.4 2.3.1 0 .1 0 .2.1-.4 1.4-.4 3.2-.3 4.6-1-.3-3.2-.9-5-2-2.5-1.5-9.1-1.8-14.2-1.8-2.9 0-10.9 1.7-18.6 3.5-3.2-.3-5.8-1.4-10-4zm-32.6 9l15.1 1.4C9 40.2 1.9 41.8 1.9 41.8c-.3.1-.4.3-.4.6.1.3.3.4.6.4l15.7-2.5-3.7 4c-.2.2-.2.4 0 .6.1.1.3.2.4.2h.2c.1 0 11.6-3.9 16-4.5 1-.1 2.2-.3 3.4-.6h.2c-.6 2-.4 6.1-.3 7l.4 20.7-33-4.5V37.1h-.2zm3.7 102.6V64.8l29.4 4.1c.2 7.6 2.2 71.1 2.4 75.4.1 1.1.2 1.9.5 2.6l-32.3-7.2zm34.7 8.5s-1.6-.1-1.9-4c-.3-4.5-2.4-75.4-2.5-76.1l-.5-21c-.2-3 0-6.6.5-7.2v-.1c2.1-.4 4.4-.9 6.5-1.4L72.1 36c1.3 0 2.8.1 4.2.2 3 .2 5.8.4 7.6-.2 1.2.3 2.9.4 5.1.4h1.5c-.9.6-4.2 1.9-16.7 2.6-7.5.4-15.4 1.3-18.3 2h-.1c-.4.1-.8.2-.9.3-1.2.8-1.3 1.8-1.3 5.4 0 1.4.2 11.6.5 24.6.4 20.8 1 49.4.9 53.1-.1 6 1.2 25.3 1.2 25.4 0 0 0 .9.4 1.7l-16.6-3.3zm102.5.5L126 152c.4-.6.6-1.5.8-2.7.5-3 .7-14.3.7-14.7l1.8-48.1c0-1.6.9-38.3.9-41.5-.1-3.7-3-4-5.2-4.2-.7-.1-1.5-.2-2.5-.3-2.4-.3-5.4-.6-8.3-.9-2.9-.2-5.4-.4-9.8-.7l-6.4-.5c-5-.4-6-1.2-6.3-1.6.1-.1.1-.2.2-.3v-.2c.5 0 1 0 1.6-.1.6 0 1.1 0 1.5-.1 1.6 0 2.7-.1 3.5-.3 1.5.5 2.9.7 4.3.7 1.3 0 2.5-.1 3.9-.3 1.1-.1 2.1-.2 3.3-.3 1.9-.1 3.7 0 6.1.1 1.8.1 3.8.2 6.2.2.5 0 15.5 1.5 19.5 2 3.6.4 5.4 2.5 5.5 2.7.8 1.5 1.6 3.2 2.2 4.8L146 112c0 .3-1.4 29.8-1.8 33.3-.4 3.1-2 3.4-2.1 3.4zm36.1-7.8l-33.6 6.7c.2-.6.4-1.2.6-2.1.4-3.6 1.7-32.2 1.8-33.4l2.1-42.2 4.4-.5c.4 3.8.7 7.2.7 7.2 0 .2.2.4.4.4h.1c.2 0 .4-.1.5-.3 0 0 1.4-2.9 3.5-5.8.4-.6.9-1.4 1.4-2.2l9.8-1.1c2.7 2.5 5.1 4.6 5.3 4.8.2.1.4.2.6 0 .2-.1.3-.3.2-.5-.1-.3-.5-2.1-1.1-4.8l3.4-.4v74.2h-.1zm3.5-75.8l-7.2.8c-1.8-7.5-5.2-19.9-8.3-24.3-.5-.8-1.1-1.4-1.6-2l18-1.3-.9 26.8z" fill="#000"/></g></symbol><symbol id="icon-settings" viewBox="0 0 18 18"><path fill-rule="evenodd" clip-rule="evenodd" d="M15.1 9.8c0-.2.1-.5.1-.8 0-.3 0-.5-.1-.8l1.7-1.3c.2-.1.2-.3.1-.5l-1.6-2.8c-.1-.2-.3-.2-.5-.2l-2 .8c-.4-.3-.9-.6-1.4-.8l-.3-2.1c0-.2-.2-.3-.4-.3H7.4c-.2 0-.4.1-.4.3l-.3 2.2c-.5.2-1 .5-1.4.8l-2-.8c-.2-.1-.4-.1-.5.1L1 6.4c-.1.2 0 .4.1.5l1.7 1.3c0 .2-.1.5-.1.8 0 .3 0 .5.1.8l-1.7 1.3c-.1.1-.2.3-.1.5l1.6 2.8c.1.2.3.2.5.2l2-.8c.4.3.9.6 1.4.8l.3 2.1c0 .2.2.3.4.3h3.3c.2 0 .4-.1.4-.3l.3-2.1c.5-.2 1-.5 1.4-.8l2 .8c.2.1.4 0 .5-.2l1.6-2.8c.1-.2.1-.4-.1-.5.2 0-1.5-1.3-1.5-1.3zM9 12c-1.6 0-3-1.4-3-3s1.4-3 3-3 3 1.4 3 3-1.4 3-3 3z"/></symbol><symbol id="icon-subscriptions" viewBox="0 0 18 18"><path d="M1.5 5h14c.3 0 .5-.2.5-.5s-.2-.5-.5-.5h-14c-.3 0-.5.2-.5.5s.2.5.5.5zM2.5 3h12c.3 0 .5-.2.5-.5s-.2-.5-.5-.5h-12c-.3 0-.5.2-.5.5s.2.5.5.5zM9 13c.6-.1 1-.4 1-.7 0-.3-.4-.7-1-.8V13zM6.9 9.8c0 .3.4.6 1 .7V9c-.6.1-1 .5-1 .8z"/><path d="M16 6H1c-.5 0-1 .5-1 1v8c0 .5.5 1 1 1h15c.5 0 1-.5 1-1V7c0-.5-.5-1-1-1zm-5.1 6.2c0 .8-.8 1.5-2 1.7v.6c.1.3-.2.5-.4.5s-.5-.2-.5-.5v-.6c-1.1-.2-2-.8-2-1.7 0-.2.2-.4.5-.4s.5.2.5.5.4.6 1 .7v-1.6c-1.2-.1-2-.8-2-1.6s.8-1.5 2-1.7v-.6c0-.3.2-.5.5-.5s.5.2.5.5v.6c1.1.2 2 .8 2 1.7 0 .3-.2.5-.5.5s-.5-.3-.5-.5c0-.3-.4-.7-1-.8v1.6c1.1.1 1.9.8 1.9 1.6z"/></symbol><symbol id="icon-success-stories" viewBox="0 0 18 18"><g clip-path="url(#clip0)"><path d="M7.5.8C7.3.2 6.7-.1 6.1 0L0 1.7l1.9 7.2L8 7.2c.6-.1 1.2.2 1.4.8.2.6.8 1 1.4.8l2.2-.6L11.1 1l-2.2.7c-.6.1-1.3-.2-1.4-.9z"/><path d="M1.5 2.5l3 12" stroke="currentColor" stroke-miterlimit="10"/><path d="M9 13c-3.6 0-6.8 1.9-9 5h18c-2.2-3.1-5.4-5-9-5zm-3.6 3.7c-.8.4-1.6.4-1.8 0-.2-.4.3-1.1 1.1-1.5.8-.4 1.6-.4 1.8 0 .2.4-.4 1.1-1.1 1.5zm7.6-1c-.2.6-1.2.7-2.3.4-1.1-.3-1.9-1-1.7-1.6.2-.6 1.2-.7 2.3-.4 1.1.3 1.8 1.1 1.7 1.6z"/></g></symbol><symbol id="icon-support" viewBox="0 0 18 18"><path d="M16 9c0-.4 0-.9-.1-1.3C16.6 7 17 6.1 17 5c0-2.2-1.8-4-4-4-1.1 0-2 .4-2.7 1.1C9.9 2 9.4 2 9 2s-.9 0-1.3.1C7 1.4 6.1 1 5 1 2.8 1 1 2.8 1 5c0 1.1.4 2 1.1 2.7C2 8.1 2 8.6 2 9s0 .9.1 1.3C1.4 11 1 11.9 1 13c0 2.2 1.8 4 4 4 1.1 0 2-.4 2.7-1.1.4.1.9.1 1.3.1s.9 0 1.3-.1c.7.7 1.6 1.1 2.7 1.1 2.2 0 4-1.8 4-4 0-1.1-.4-2-1.1-2.7.1-.4.1-.9.1-1.3zm0 4c0 1.7-1.3 3-3 3-.6 0-1.1-.2-1.5-.5.8-.3 1.5-.7 2.1-1.3l-2.1-2.1c-.7.6-1.6.9-2.5.9-.9 0-1.8-.3-2.4-.9l-2.1 2.1c.6.5 1.3 1 2.1 1.3-.5.3-1 .5-1.6.5-1.7 0-3-1.3-3-3 0-.6.2-1.1.4-1.6.3.8.7 1.5 1.3 2.1l2.1-2.1C5.3 10.8 5 9.9 5 9c0-.9.3-1.8.9-2.4L3.7 4.4c-.5.6-1 1.4-1.3 2.2-.2-.5-.4-1-.4-1.6 0-1.7 1.3-3 3-3 .6 0 1.1.2 1.5.5-.7.2-1.5.7-2.1 1.2l2.1 2.1C7.2 5.3 8.1 5 9 5c.9 0 1.8.3 2.4.9l2.1-2.1c-.6-.5-1.3-1-2.1-1.3.5-.3 1-.5 1.6-.5 1.7 0 3 1.3 3 3 0 .6-.2 1.1-.4 1.6-.3-.8-.7-1.5-1.3-2.1l-2.1 2.1c.5.6.8 1.5.8 2.4 0 .9-.3 1.8-.9 2.4l2.1 2.1c.5-.6 1-1.3 1.3-2.1.3.5.5 1 .5 1.6z"/></symbol><symbol id="icon-tasks" viewBox="0 0 18 18"><path d="M16 1H1c-.5 0-1 .5-1 1v1h17V2c0-.5-.5-1-1-1zM0 4v12c0 .5.5 1 1 1h15c.5 0 1-.5 1-1V4H0zm5 4c-.6 0-1 .4-1 1s-.3 1.1-.7 1.5c.4.4.7.9.7 1.5s.4 1 1 1v1c-1.1 0-2-.9-2-2 0-.6-.4-1-1-1v-1c.6 0 1-.4 1-1 0-1.1.9-2 2-2v1zm1.5 3c-.3 0-.5-.2-.5-.5s.2-.5.5-.5.5.2.5.5-.2.5-.5.5zm2 0c-.3 0-.5-.2-.5-.5s.2-.5.5-.5.5.2.5.5-.2.5-.5.5zm2 0c-.3 0-.5-.2-.5-.5s.2-.5.5-.5.5.2.5.5-.2.5-.5.5zm4.5 0c-.6 0-1 .4-1 1 0 1.1-.9 2-2 2v-1c.6 0 1-.4 1-1s.3-1.1.7-1.5c-.4-.4-.7-.9-.7-1.5s-.4-1-1-1V7c1.1 0 2 .9 2 2 0 .6.4 1 1 1v1z"/></symbol><symbol id="icon-university" viewBox="0 0 32 29"><path d="M16.423.093L31.348 7.15a.864.864 0 010 1.676l-8.291 3.828v-1.182a.9.9 0 00-.477-.706l-7.056-3.528a.882.882 0 00-1.225 1.075.9.9 0 00.43.513l6.563 3.193v1.464l-4.869 2.4a1.006 1.006 0 01-.846 0L.652 8.825a.864.864 0 010-1.676L15.577.093a1.006 1.006 0 01.846 0zm3.916 20.763a2.187 2.187 0 00-.352 1.2c-.002.174.022.346.07.512-1.34.237-2.697.36-4.057.37-5.84 0-10.585-1.975-10.585-4.41v-5.592l9.403 4.446a2.77 2.77 0 002.364 0l4.11-1.94v4.604c-.39.171-.72.453-.953.81zm2.717-6.261v5.45c.536.242.955.686 1.165 1.236 1.464-.759 2.346-1.765 2.346-2.752v-5.593l-3.51 1.659zm-.846 6.58a.882.882 0 00-.847.882.71.71 0 000 .264.9.9 0 00.282.424.812.812 0 00.476.159.882.882 0 00.883-.883.88.88 0 000-.229.865.865 0 00-.794-.617zm1.94 1.764a2.17 2.17 0 01-1.958 1.252 2.206 2.206 0 01-1.976-1.252l-2.328 3.898a.883.883 0 00.758 1.324h7.057a.881.881 0 00.758-1.324l-2.31-3.898z"/></symbol></svg>