<svg xmlns="http://www.w3.org/2000/svg" xmlns:xlink="http://www.w3.org/1999/xlink"><defs><clipPath id="clip0"><path d="M0 0h18v18H0z"/></clipPath><clipPath id="clip0"><path d="M0 0h18v18H0z"/></clipPath><clipPath id="clip0"><path d="M0 0h18v18H0z"/></clipPath><clipPath id="clip0"><path d="M0 0h18v18H0z"/></clipPath><clipPath id="clip0"><path d="M0 0h18v18H0z"/></clipPath></defs><symbol id="icon-activity" viewBox="0 0 18 18"><path d="M12.5 17c-.2 0-.4-.2-.5-.4L9.6 4.4 8 14.6c0 .2-.2.4-.5.4-.2 0-.4-.2-.5-.4L5.5 7.9 5 10.6c0 .2-.3.4-.5.4h-4c-.3 0-.5-.2-.5-.5s.2-.5.5-.5h3.6L5 5.4c.1-.2.3-.4.5-.4s.4.2.5.4l1.4 6.4L9 1.4c0-.2.2-.4.5-.4.2 0 .4.2.5.4l2.5 12.3.5-3.3c0-.2.3-.4.5-.4h4c.3 0 .5.2.5.5s-.2.5-.5.5h-3.6l-.9 5.6c0 .2-.3.4-.5.4z"/></symbol><symbol id="icon-articles" viewBox="0 0 18 18"><path d="M1 16c-.6 0-1-.4-1-1V7h2v8c0 .6-.4 1-1 1z"/><path d="M3 1v14c0 1.1-.9 2-2 2h15c1.1 0 2-.9 2-2V1H3zm7 14H5v-1h5v1zm0-3H5v-1h5v1zm0-3H5V8h5v1zm6 6h-5v-1h5v1zm0-3h-5v-1h5v1zm0-3h-5V8h5v1zm0-3H5V3h11v3z"/></symbol><symbol id="icon-bookmarks" viewBox="0 0 18 18"><path fill-rule="evenodd" clip-rule="evenodd" d="M13 18l-6-3-6 3V4c0-.6.4-1 1-1h10c.6 0 1 .4 1 1v14z"/><path fill-rule="evenodd" clip-rule="evenodd" d="M15 0H5c-.6 0-1 .4-1 1v1h8c1.1 0 2 .9 2 2v10l2 1V1c0-.6-.4-1-1-1z"/></symbol><symbol id="icon-chat" viewBox="0 0 18 18"><path d="M18 5.5c0-3-2.5-5.5-5.5-5.5C10 0 7.8 1.7 7.2 4c3.6.3 6.4 3.2 6.8 6.8.5-.1.9-.3 1.3-.6l2.7.8-.7-2.7c.4-.8.7-1.8.7-2.8z"/><path d="M6.5 5C2.9 5 0 7.9 0 11.5c0 1.2.3 2.3.9 3.3L0 18l3.2-.9c1 .6 2.1.9 3.3.9 3.6 0 6.5-2.9 6.5-6.5S10.1 5 6.5 5zm-2 7c-.3 0-.5-.2-.5-.5s.2-.5.5-.5.5.2.5.5-.2.5-.5.5zm2 0c-.3 0-.5-.2-.5-.5s.2-.5.5-.5.5.2.5.5-.2.5-.5.5zm2 0c-.3 0-.5-.2-.5-.5s.2-.5.5-.5.5.2.5.5-.2.5-.5.5z"/></symbol><symbol id="icon-course" viewBox="0 0 18 18"><g clip-path="url(#clip0)"><path d="M6.2 5.2h-.1c-1.1 0-2.1.3-2.8 1L1.7 7.8l2.2.6c.4-.5 1.2-1.8 2.3-3.2zM12.8 11.8v.1c.1 1.1-.3 2-1 2.8l-1.6 1.6-.6-2.2c.5-.4 1.8-1.2 3.2-2.3zM16.9 6.1c.9-1.7 1.2-3.7 1-6-2.3-.2-4.3.2-6 1l5 5zM5.7 7.6c-.7.9-1.2 1.6-1.2 1.6l4.2 4.2s.7-.5 1.7-1.2L5.7 7.6zM16.4 7L11 1.6c-.5.4-1 .8-1.5 1.3-1.1 1-2.3 2.6-3.2 3.8l5 5c1.3-.9 2.8-2.1 3.9-3.2L16.4 7zM9.5 8.5c-.8-.8-.8-2 0-2.8.8-.8 2-.8 2.8 0 .8.8.8 2 0 2.8-.8.8-2 .8-2.8 0z"/><path d="M10.9 8.1a1 1 0 100-2 1 1 0 000 2zM.5 18c-.1 0-.3 0-.4-.1-.2-.2-.2-.5 0-.7l5-5c.2-.2.5-.2.7 0 .2.2.2.5 0 .7l-5 5c0 .1-.2.1-.3.1zM1.5 14c-.1 0-.3-.1-.4-.2-.1 0-.1-.2-.1-.3 0-.1 0-.3.1-.4.2-.2.5-.2.7 0 .2.1.2.3.2.4 0 .1 0 .3-.2.3 0 .1-.2.2-.3.2zM2.5 13c-.1 0-.3 0-.4-.1-.2-.2-.2-.5 0-.7l1-1c.2-.2.5-.2.7 0 .2.2.2.5 0 .7l-1 1c0 .1-.2.1-.3.1zM4.5 17h-.2c-.1 0-.1-.1-.2-.1-.1-.1-.1-.3-.1-.4 0-.1 0-.3.1-.4 0-.1.1-.1.2-.1h.4c.1 0 .1.1.2.1.1.1.1.3.1.4 0 .1 0 .3-.2.3 0 .1-.2.2-.3.2zM5.5 16c-.1 0-.3 0-.4-.1-.2-.2-.2-.5 0-.7l1-1c.2-.2.5-.2.7 0 .2.2.2.5 0 .7l-1 1c0 .1-.2.1-.3.1z"/></g></symbol><symbol id="icon-dialogues" viewBox="0 0 18 18"><path d="M8.7 10.1c.2.1.4.1.6 0l8.5-6.7c-.2-.2-.5-.4-.8-.4H1c-.3 0-.6.2-.8.4l8.5 6.7z"/><path d="M9.9 10.9c-.2.2-.6.3-.9.3-.3 0-.7-.1-.9-.3L0 4.5V14c0 .6.4 1 1 1h16c.6 0 1-.4 1-1V4.5l-8.1 6.4z"/></symbol><symbol id="icon-forum" viewBox="0 0 18 18"><path d="M9 13a2 2 0 100-4 2 2 0 000 4zM11 14H7c-1.1 0-2 .9-2 2v1c0 .6.4 1 1 1h6c.6 0 1-.4 1-1v-1c0-1.1-.9-2-2-2zM14.5 13a1.5 1.5 0 100-3 1.5 1.5 0 000 3zM3.5 13a1.5 1.5 0 100-3 1.5 1.5 0 000 3zM5 6h2.5L9 7.5 10.5 6H13c.6 0 1-.4 1-1V1c0-.6-.4-1-1-1H5c-.6 0-1 .4-1 1v4c0 .6.4 1 1 1zM15.5 14h-2.3c.5.5.8 1.2.8 2v1h2.2c.4 0 .8-.3.8-.8v-.8c0-.7-.7-1.4-1.5-1.4zM1 15.5v.8c0 .4.3.7.8.7H4v-1c0-.8.3-1.5.8-2H2.5c-.8 0-1.5.7-1.5 1.5z"/><path d="M17 1h-2v4c0 1.1-.9 2-2 2l1.5 1.5L16 7h1c.6 0 1-.4 1-1V2c0-.6-.4-1-1-1zM2 7l1.5 1.5L5 7c-1.1 0-2-.9-2-2V1H1c-.6 0-1 .4-1 1v4c0 .6.4 1 1 1h1z"/></symbol><symbol id="icon-friends" viewBox="0 0 18 18"><path d="M6.5 8a2.5 2.5 0 100-5 2.5 2.5 0 000 5zM13 8a2 2 0 100-4 2 2 0 000 4zM9 9H4c-1.7 0-3 1.3-3 3v3c0 .6.4 1 1 1h9c.6 0 1-.4 1-1v-3c0-1.7-1.3-3-3-3zM15 9h-3.4c.9.7 1.4 1.8 1.4 3v2h3c.6 0 1-.4 1-1v-2c0-1.1-.9-2-2-2z"/></symbol><symbol id="icon-games" viewBox="0 0 18 18"><g clip-path="url(#clip0)"><path d="M13.5 12a.5.5 0 100-1 .5.5 0 000 1zM5 11H4v1h1v-1z"/><path d="M17.9 14.4c0-.1-.1-.5-.1-.5l-.8-3.5s-.1-.4-.1-.5C16.4 8.2 14.8 7 13 7c-.5 0-.9.1-1.3.2C11 6.5 10.1 6 9 6V4c0-.6.4-1 1-1s1 .4 1 1c0 1.1.9 2 2 2s2-.9 2-2V.5c0-.3-.2-.5-.5-.5s-.5.2-.5.5V4c0 .6-.4 1-1 1s-1-.4-1-1c0-1.1-.9-2-2-2s-2 .9-2 2v2.2c-.7.2-1.2.5-1.7 1C5.9 7.1 5.5 7 5 7 3.2 7 1.6 8.2 1.2 9.9l-.1.5-.8 3.4-.1.5c-.2.7-.1 1.5.6 2.4.4.8 1.2 1.2 2 1.3 1 .1 1.9-.4 2.5-1.1 0-.1.3-.4.3-.4L7.7 14h2.6l2.1 2.5s.3.3.3.4c.6.7 1.5 1.2 2.5 1.1.8 0 1.6-.5 2.1-1.2.7-.9.8-1.7.6-2.4zM6 12H5v1H4v-1H3v-1h1v-1h1v1h1v1zm4.5-2h-3c-.3 0-.5-.2-.5-.5s.2-.5.5-.5h3c.3 0 .5.2.5.5s-.2.5-.5.5zm3 3c-.8 0-1.5-.7-1.5-1.5s.7-1.5 1.5-1.5 1.5.7 1.5 1.5-.7 1.5-1.5 1.5z"/></g></symbol><symbol id="icon-groups" viewBox="0 0 38 32"><path d="M36.8 2.133H8c-.32 0-.533.213-.533.533v24.533c0 .853-.747 1.6-1.6 1.6H3.734c-.853 0-1.6-.747-1.6-1.6v-16c0-.32-.213-.533-.533-.533s-.533.213-.533.533v16a2.641 2.641 0 002.667 2.667h30.933a2.641 2.641 0 002.667-2.667V2.666c0-.32-.213-.533-.533-.533zM36.267 27.2c0 .853-.747 1.6-1.6 1.6H8c.32-.427.533-.96.533-1.6v-24h27.733v24z"/><path d="M4.8 26.667c.32 0 .533-.213.533-.533v-19.2c0-.32-.213-.533-.533-.533s-.533.213-.533.533v19.2c0 .32.213.533.533.533zM12.267 16H20.8c.32 0 .533-.213.533-.533s-.213-.533-.533-.533h-8.533c-.32 0-.533.213-.533.533s.213.533.533.533zM32.533 14.933H24c-.32 0-.533.213-.533.533s.213.533.533.533h8.533c.32 0 .533-.213.533-.533s-.213-.533-.533-.533zM12.267 19.2H20.8c.32 0 .533-.213.533-.533s-.213-.533-.533-.533h-8.533c-.32 0-.533.213-.533.533s.213.533.533.533zM32.533 18.133H24c-.32 0-.533.213-.533.533s.213.533.533.533h8.533c.32 0 .533-.213.533-.533s-.213-.533-.533-.533zM12.267 22.4H20.8c.32 0 .533-.213.533-.533s-.213-.533-.533-.533h-8.533c-.32 0-.533.213-.533.533s.213.533.533.533zM32.533 21.333H24c-.32 0-.533.213-.533.533s.213.533.533.533h8.533c.32 0 .533-.213.533-.533s-.213-.533-.533-.533zM12.267 25.6H20.8c.32 0 .533-.213.533-.533s-.213-.533-.533-.533h-8.533c-.32 0-.533.213-.533.533s.213.533.533.533zM32.533 24.533H24c-.32 0-.533.213-.533.533s.213.533.533.533h8.533c.32 0 .533-.213.533-.533s-.213-.533-.533-.533zM12.267 11.733h20.267c.32 0 .533-.213.533-.533V6.933c0-.32-.213-.533-.533-.533H12.267c-.32 0-.533.213-.533.533V11.2c0 .32.213.533.533.533zm.533-4.266H32v3.2H12.8v-3.2z"/></symbol><symbol id="icon-help" viewBox="0 0 18 18"><path d="M9 1C4.6 1 1 4.6 1 9c0 1.4.4 2.8 1.1 4.1L1 17l3.9-1.1C6.2 16.6 7.6 17 9 17c4.4 0 8-3.6 8-8s-3.6-8-8-8zm.5 12.5c0 .3-.2.5-.5.5s-.5-.2-.5-.5.2-.5.5-.5.5.2.5.5zm1-3.9c-.6.3-1 1.1-1 1.9 0 .3-.2.5-.5.5s-.5-.2-.5-.5v-.2c.1-1.1.6-2.1 1.5-2.6.6-.4 1-1 1-1.7 0-1.1-.9-2-2-2s-2 .9-2 2c0 .3-.2.5-.5.5S6 7.3 6 7c0-1.7 1.3-3 3-3s3 1.3 3 3c0 1.1-.6 2.1-1.5 2.6z"/></symbol><symbol id="icon-internship" viewBox="0 0 18 18"><path d="M13 1c0-.6-.4-1-1-1H5c-.6 0-1 .4-1 1v9h9V1z"/><path d="M16.5 7h-1c-.3 0-.5.2-.5.5v3c0 .3-.2.5-.5.5h-12c-.3 0-.5-.2-.5-.5v-3c0-.3-.2-.5-.5-.5h-1c-.3 0-.5.2-.5.5s.2.5.5.5H1v2.5c0 .8.7 1.5 1.5 1.5H3c0 .6.4 1 1 1h9c.6 0 1-.4 1-1h.5c.8 0 1.5-.7 1.5-1.5V8h.5c.3 0 .5-.2.5-.5s-.2-.5-.5-.5zM11.5 16H9v-1c.6 0 1-.4 1-1H7c0 .6.4 1 1 1v1H5.5c-.8 0-1.5.7-1.5 1.5 0 .3.2.5.5.5s.5-.2.5-.5.2-.5.5-.5H8v.5c0 .3.2.5.5.5s.5-.2.5-.5V17h2.5c.3 0 .5.2.5.5s.2.5.5.5.5-.2.5-.5c0-.8-.7-1.5-1.5-1.5z"/></symbol><symbol id="icon-kick" viewBox="0 0 18 18"><path d="M17.9 8.9l-.5-.9-6.7 3.8c-.4.2-.9.3-1.3.2-.5 0-.9 0-1.3.2l-4.7 2.5 1 1.7c.3.5.9.6 1.4.4l4.4-2.4-.5-.9 1.4.4 6.4-3.7c.5-.2.6-.8.4-1.3zM8.9 11.2c.4.1.9.1 1.3-.2l6.7-3.8c-.6-1-1.8-1.3-2.7-.7l-.9.5c-.5.3-1.1.5-1.7.5L11 8.7l-.9-.4.4-.8c-.3 0-.5-.1-.8-.2l-.8 1.4-.8-.4.6-1.3c-.3-.2-.6-.4-.8-.7l-1 1.5-.8-.6 1.2-1.8-.6-.8-.8 1.2-.8-.6 1-1.5L5 2 0 8l2.9 5.9 4.7-2.5c.4-.2.8-.3 1.3-.2z"/></symbol><symbol id="icon-notifications" viewBox="0 0 18 18"><path fill-rule="evenodd" clip-rule="evenodd" d="M9 18c1.1 0 2-.9 2-2H7c0 1.1.9 2 2 2zM15 13V8c0-3-2.2-5.4-5-5.9V1c0-.6-.4-1-1-1S8 .4 8 1v1.1C5.2 2.6 3 5 3 8v5l-2 1v1h16v-1l-2-1z"/></symbol><symbol id="icon-personal" viewBox="0 0 18 18"><path d="M9 9a4 4 0 100-8 4 4 0 000 8zM15 17H3c-.6 0-1-.4-1-1v-3c0-1.7 1.3-3 3-3h8c1.7 0 3 1.3 3 3v3c0 .6-.4 1-1 1z"/></symbol><symbol id="icon-quizzes" viewBox="0 0 18 18"><g clip-path="url(#clip0)"><path d="M13 16H2V3h3v1h6V3h1.6l1.7-1.7.2-.2c-.2 0-.3-.1-.5-.1H9.7C9.4.4 8.7 0 8 0S6.6.4 6.3 1H1c-.6 0-1 .4-1 1v15c0 .6.4 1 1 1h13c.6 0 1-.4 1-1V7.4l-2 2V16z"/><path d="M15.7 1.3L8.3 8.7c-.2.2-.3.4-.3.7v1.1l-.7.7.5.5.7-.7h1.1c.3 0 .5-.1.7-.3l7.4-7.4c.4-.4.4-1 0-1.4l-.6-.6c-.4-.4-1-.4-1.4 0zM6 6H4v2h2V6zM6 9H4v2h2V9zM6 12H4v2h2v-2z"/></g></symbol><symbol id="icon-rating" viewBox="0 0 18 18"><path fill-rule="evenodd" clip-rule="evenodd" d="M7 5L2 0h5l5 5H7zM9 6c-3.3 0-6 2.7-6 6s2.7 6 6 6 6-2.7 6-6-2.7-6-6-6zm3.4 5.5l-1.7 1.3c-.1.1-.1.2-.1.3l.7 2c0 .1 0 .2-.1.2-.1.2-.2.2-.4.1l-1.6-1.2c-.1-.1-.2-.1-.3 0l-1.6 1.2c-.1.1-.1.1-.2.1-.1-.1-.2-.2-.1-.4l.6-2c.1-.1 0-.2-.1-.3l-1.7-1.3c-.1 0-.1-.2-.1-.2 0-.2.1-.3.3-.3h2c-.1 0 0-.1 0-.2l.7-2.1c0-.1.1-.2.1-.2.1-.1.3 0 .4.2l.7 2.1c0 .1.1.2.2.2h2.1c.3 0 .4.4.2.5zM12.2 3.8L16 0h-5L9.7 1.3l2.5 2.5z"/></symbol><symbol id="icon-reviews" viewBox="0 0 18 18"><path d="M4 0C1.8 0 0 1.8 0 4s1.8 4 4 4 4-1.8 4-4-1.8-4-4-4zM2.5 2c.3 0 .5.2.5.5s-.2.5-.5.5-.5-.2-.5-.5.2-.5.5-.5zM6 4.6C5.9 5.1 5.3 6 4 6s-1.9-.9-2-1.4c-.1-.2.1-.5.4-.6.2-.1.5.1.6.4 0 .1.2.6 1 .6s1-.6 1-.6c.1-.3.4-.5.6-.4.3.1.5.4.4.6zM5.5 3c-.3 0-.5-.2-.5-.5s.2-.5.5-.5.5.2.5.5-.2.5-.5.5zM4 10c-2.2 0-4 1.8-4 4s1.8 4 4 4 4-1.8 4-4-1.8-4-4-4zm-1.5 2c.3 0 .5.2.5.5s-.2.5-.5.5-.5-.2-.5-.5.2-.5.5-.5zm3.1 4h-.1c-.2 0-.4-.1-.5-.4 0-.1-.2-.6-1-.6s-1 .6-1 .6c-.1.3-.3.4-.6.4-.3-.1-.4-.3-.4-.6.1-.5.7-1.4 2-1.4s1.9.9 2 1.4c.1.2-.1.5-.4.6zm-.1-3c-.3 0-.5-.2-.5-.5s.2-.5.5-.5.5.2.5.5-.2.5-.5.5zM17.5 3h-8c-.3 0-.5-.2-.5-.5s.2-.5.5-.5h8c.3 0 .5.2.5.5s-.2.5-.5.5zM17.5 5h-8c-.3 0-.5-.2-.5-.5s.2-.5.5-.5h8c.3 0 .5.2.5.5s-.2.5-.5.5zM15.5 7h-6c-.3 0-.5-.2-.5-.5s.2-.5.5-.5h6c.3 0 .5.2.5.5s-.2.5-.5.5zM17.5 12h-8c-.3 0-.5-.2-.5-.5s.2-.5.5-.5h8c.3 0 .5.2.5.5s-.2.5-.5.5zM17.5 14h-8c-.3 0-.5-.2-.5-.5s.2-.5.5-.5h8c.3 0 .5.2.5.5s-.2.5-.5.5zM15.5 16h-6c-.3 0-.5-.2-.5-.5s.2-.5.5-.5h6c.3 0 .5.2.5.5s-.2.5-.5.5z"/></symbol><symbol id="icon-settings" viewBox="0 0 18 18"><path fill-rule="evenodd" clip-rule="evenodd" d="M15.1 9.8c0-.2.1-.5.1-.8 0-.3 0-.5-.1-.8l1.7-1.3c.2-.1.2-.3.1-.5l-1.6-2.8c-.1-.2-.3-.2-.5-.2l-2 .8c-.4-.3-.9-.6-1.4-.8l-.3-2.1c0-.2-.2-.3-.4-.3H7.4c-.2 0-.4.1-.4.3l-.3 2.2c-.5.2-1 .5-1.4.8l-2-.8c-.2-.1-.4-.1-.5.1L1 6.4c-.1.2 0 .4.1.5l1.7 1.3c0 .2-.1.5-.1.8 0 .3 0 .5.1.8l-1.7 1.3c-.1.1-.2.3-.1.5l1.6 2.8c.1.2.3.2.5.2l2-.8c.4.3.9.6 1.4.8l.3 2.1c0 .2.2.3.4.3h3.3c.2 0 .4-.1.4-.3l.3-2.1c.5-.2 1-.5 1.4-.8l2 .8c.2.1.4 0 .5-.2l1.6-2.8c.1-.2.1-.4-.1-.5.2 0-1.5-1.3-1.5-1.3zM9 12c-1.6 0-3-1.4-3-3s1.4-3 3-3 3 1.4 3 3-1.4 3-3 3z"/></symbol><symbol id="icon-subscriptions" viewBox="0 0 18 18"><path d="M1.5 5h14c.3 0 .5-.2.5-.5s-.2-.5-.5-.5h-14c-.3 0-.5.2-.5.5s.2.5.5.5zM2.5 3h12c.3 0 .5-.2.5-.5s-.2-.5-.5-.5h-12c-.3 0-.5.2-.5.5s.2.5.5.5zM9 13c.6-.1 1-.4 1-.7 0-.3-.4-.7-1-.8V13zM6.9 9.8c0 .3.4.6 1 .7V9c-.6.1-1 .5-1 .8z"/><path d="M16 6H1c-.5 0-1 .5-1 1v8c0 .5.5 1 1 1h15c.5 0 1-.5 1-1V7c0-.5-.5-1-1-1zm-5.1 6.2c0 .8-.8 1.5-2 1.7v.6c.1.3-.2.5-.4.5s-.5-.2-.5-.5v-.6c-1.1-.2-2-.8-2-1.7 0-.2.2-.4.5-.4s.5.2.5.5.4.6 1 .7v-1.6c-1.2-.1-2-.8-2-1.6s.8-1.5 2-1.7v-.6c0-.3.2-.5.5-.5s.5.2.5.5v.6c1.1.2 2 .8 2 1.7 0 .3-.2.5-.5.5s-.5-.3-.5-.5c0-.3-.4-.7-1-.8v1.6c1.1.1 1.9.8 1.9 1.6z"/></symbol><symbol id="icon-success-stories" viewBox="0 0 18 18"><g clip-path="url(#clip0)"><path d="M7.5.8C7.3.2 6.7-.1 6.1 0L0 1.7l1.9 7.2L8 7.2c.6-.1 1.2.2 1.4.8.2.6.8 1 1.4.8l2.2-.6L11.1 1l-2.2.7c-.6.1-1.3-.2-1.4-.9z"/><path d="M1.5 2.5l3 12" stroke="currentColor" stroke-miterlimit="10"/><path d="M9 13c-3.6 0-6.8 1.9-9 5h18c-2.2-3.1-5.4-5-9-5zm-3.6 3.7c-.8.4-1.6.4-1.8 0-.2-.4.3-1.1 1.1-1.5.8-.4 1.6-.4 1.8 0 .2.4-.4 1.1-1.1 1.5zm7.6-1c-.2.6-1.2.7-2.3.4-1.1-.3-1.9-1-1.7-1.6.2-.6 1.2-.7 2.3-.4 1.1.3 1.8 1.1 1.7 1.6z"/></g></symbol><symbol id="icon-support" viewBox="0 0 18 18"><path d="M16 9c0-.4 0-.9-.1-1.3C16.6 7 17 6.1 17 5c0-2.2-1.8-4-4-4-1.1 0-2 .4-2.7 1.1C9.9 2 9.4 2 9 2s-.9 0-1.3.1C7 1.4 6.1 1 5 1 2.8 1 1 2.8 1 5c0 1.1.4 2 1.1 2.7C2 8.1 2 8.6 2 9s0 .9.1 1.3C1.4 11 1 11.9 1 13c0 2.2 1.8 4 4 4 1.1 0 2-.4 2.7-1.1.4.1.9.1 1.3.1s.9 0 1.3-.1c.7.7 1.6 1.1 2.7 1.1 2.2 0 4-1.8 4-4 0-1.1-.4-2-1.1-2.7.1-.4.1-.9.1-1.3zm0 4c0 1.7-1.3 3-3 3-.6 0-1.1-.2-1.5-.5.8-.3 1.5-.7 2.1-1.3l-2.1-2.1c-.7.6-1.6.9-2.5.9-.9 0-1.8-.3-2.4-.9l-2.1 2.1c.6.5 1.3 1 2.1 1.3-.5.3-1 .5-1.6.5-1.7 0-3-1.3-3-3 0-.6.2-1.1.4-1.6.3.8.7 1.5 1.3 2.1l2.1-2.1C5.3 10.8 5 9.9 5 9c0-.9.3-1.8.9-2.4L3.7 4.4c-.5.6-1 1.4-1.3 2.2-.2-.5-.4-1-.4-1.6 0-1.7 1.3-3 3-3 .6 0 1.1.2 1.5.5-.7.2-1.5.7-2.1 1.2l2.1 2.1C7.2 5.3 8.1 5 9 5c.9 0 1.8.3 2.4.9l2.1-2.1c-.6-.5-1.3-1-2.1-1.3.5-.3 1-.5 1.6-.5 1.7 0 3 1.3 3 3 0 .6-.2 1.1-.4 1.6-.3-.8-.7-1.5-1.3-2.1l-2.1 2.1c.5.6.8 1.5.8 2.4 0 .9-.3 1.8-.9 2.4l2.1 2.1c.5-.6 1-1.3 1.3-2.1.3.5.5 1 .5 1.6z"/></symbol><symbol id="icon-tasks" viewBox="0 0 18 18"><path d="M16 1H1c-.5 0-1 .5-1 1v1h17V2c0-.5-.5-1-1-1zM0 4v12c0 .5.5 1 1 1h15c.5 0 1-.5 1-1V4H0zm5 4c-.6 0-1 .4-1 1s-.3 1.1-.7 1.5c.4.4.7.9.7 1.5s.4 1 1 1v1c-1.1 0-2-.9-2-2 0-.6-.4-1-1-1v-1c.6 0 1-.4 1-1 0-1.1.9-2 2-2v1zm1.5 3c-.3 0-.5-.2-.5-.5s.2-.5.5-.5.5.2.5.5-.2.5-.5.5zm2 0c-.3 0-.5-.2-.5-.5s.2-.5.5-.5.5.2.5.5-.2.5-.5.5zm2 0c-.3 0-.5-.2-.5-.5s.2-.5.5-.5.5.2.5.5-.2.5-.5.5zm4.5 0c-.6 0-1 .4-1 1 0 1.1-.9 2-2 2v-1c.6 0 1-.4 1-1s.3-1.1.7-1.5c-.4-.4-.7-.9-.7-1.5s-.4-1-1-1V7c1.1 0 2 .9 2 2 0 .6.4 1 1 1v1z"/></symbol><symbol id="icon-university" viewBox="0 0 32 29"><path d="M16.423.093L31.348 7.15a.864.864 0 010 1.676l-8.291 3.828v-1.182a.9.9 0 00-.477-.706l-7.056-3.528a.882.882 0 00-1.225 1.075.9.9 0 00.43.513l6.563 3.193v1.464l-4.869 2.4a1.006 1.006 0 01-.846 0L.652 8.825a.864.864 0 010-1.676L15.577.093a1.006 1.006 0 01.846 0zm3.916 20.763a2.187 2.187 0 00-.352 1.2c-.002.174.022.346.07.512-1.34.237-2.697.36-4.057.37-5.84 0-10.585-1.975-10.585-4.41v-5.592l9.403 4.446a2.77 2.77 0 002.364 0l4.11-1.94v4.604c-.39.171-.72.453-.953.81zm2.717-6.261v5.45c.536.242.955.686 1.165 1.236 1.464-.759 2.346-1.765 2.346-2.752v-5.593l-3.51 1.659zm-.846 6.58a.882.882 0 00-.847.882.71.71 0 000 .264.9.9 0 00.282.424.812.812 0 00.476.159.882.882 0 00.883-.883.88.88 0 000-.229.865.865 0 00-.794-.617zm1.94 1.764a2.17 2.17 0 01-1.958 1.252 2.206 2.206 0 01-1.976-1.252l-2.328 3.898a.883.883 0 00.758 1.324h7.057a.881.881 0 00.758-1.324l-2.31-3.898z"/></symbol></svg>