<svg xmlns="http://www.w3.org/2000/svg" xmlns:xlink="http://www.w3.org/1999/xlink"><symbol id="icon-apple" viewBox="0 0 15.05 18.48"><path d="M7.64 5.31c-.73 0-1.86-.83-3-.8A4.5 4.5 0 00.77 6.83c-1.63 2.83-.42 7 1.17 9.31.78 1.12 1.7 2.38 2.92 2.34s1.61-.76 3-.76 1.81.76 3.05.73 2.06-1.14 2.83-2.27a10.05 10.05 0 001.28-2.63 4.08 4.08 0 01-2.48-3.74 4.15 4.15 0 012-3.51 4.33 4.33 0 00-3.38-1.83c-1.51-.12-2.8.84-3.52.84zM10.24 3a4 4 0 00.96-3 4.16 4.16 0 00-2.72 1.4 3.87 3.87 0 00-1 2.86A3.45 3.45 0 0010.24 3"/></symbol><symbol id="icon-bilibili" viewBox="0 0 16 16"><path d="M11.875 3.102h.57c1.006.036 1.846.385 2.515 1.05.67.663 1.016 1.499 1.04 2.506v4.907c-.024 1.006-.37 1.846-1.04 2.515-.67.67-1.508 1.016-2.515 1.04h-8.89c-1.006-.024-1.846-.37-2.515-1.04C.37 13.41.024 12.572 0 11.565V6.658C.024 5.65.37 4.815 1.04 4.15c.67-.664 1.508-1.013 2.515-1.05h.516l-.782-.746a.823.823 0 01-.249-.604c0-.237.083-.438.249-.604l.018-.018a.872.872 0 01.613-.25c.231 0 .435.084.613.25l1.902 1.83c.048.048.09.096.125.143h2.845a.557.557 0 01.106-.142l1.902-1.831a.872.872 0 01.614-.25c.231 0 .441.102.619.268a.79.79 0 01.26.604.822.822 0 01-.248.604l-.783.747zm-8.32 1.725a1.786 1.786 0 00-1.253.515c-.337.332-.513.753-.524 1.263v5.013c.011.51.187.93.524 1.262a1.78 1.78 0 001.253.515h8.89a1.78 1.78 0 001.253-.515c.337-.332.513-.753.524-1.262V6.605c-.011-.51-.187-.931-.524-1.263a1.786 1.786 0 00-1.253-.515h-8.89zm1.778 2.578c.249 0 .456.082.622.248.167.166.256.38.267.64v.782a.924.924 0 01-.267.64.842.842 0 01-.622.25.844.844 0 01-.622-.25.924.924 0 01-.266-.64v-.782a.86.86 0 01.257-.631.861.861 0 01.631-.257zm5.334 0c.248 0 .456.082.622.248.166.166.255.38.266.64v.782a.924.924 0 01-.266.64.842.842 0 01-.622.25.844.844 0 01-.622-.25.924.924 0 01-.267-.64v-.782c.011-.26.1-.474.267-.64a.844.844 0 01.622-.248z"/></symbol><symbol id="icon-csdn" viewBox="0 0 17 20"><path d="M9.003 19.378C3.556 19.378 0 15.644 0 9.863 0 3.961 4.715 0 9.124 0c4.145 0 5.688 2.005 5.824 2.233a1.422 1.422 0 01-2.304 1.664c-.072-.085-.96-1.053-3.556-1.053s-6.244 2.504-6.244 7.02c0 4.18 2.304 6.67 6.159 6.67 3.306 0 4.366-1.266 4.373-1.28a1.424 1.424 0 012.41 1.514c-.142.299-1.784 2.61-6.783 2.61z" fill="var(--color, #000000)"/></symbol><symbol id="icon-facebook" viewBox="0 0 24 24"><path d="M16.75 9H13.5V7a1 1 0 011-1h2V3H14a4 4 0 00-4 4v2H8v3h2v9h3.5v-9H16z"/></symbol><symbol id="icon-github" viewBox="0 0 32.58 31.77"><path d="M16.29 0a16.29 16.29 0 00-5.15 31.75c.82.15 1.11-.36 1.11-.79v-2.77C7.7 29.18 6.74 26 6.74 26a4.36 4.36 0 00-1.81-2.39c-1.47-1 .12-1 .12-1a3.43 3.43 0 012.49 1.68 3.48 3.48 0 004.74 1.36 3.46 3.46 0 011-2.18c-3.62-.41-7.42-1.81-7.42-8a6.3 6.3 0 011.67-4.37 5.94 5.94 0 01.16-4.31s1.37-.44 4.48 1.67a15.41 15.41 0 018.16 0c3.11-2.11 4.47-1.67 4.47-1.67a5.91 5.91 0 01.2 4.28 6.3 6.3 0 011.67 4.37c0 6.26-3.81 7.63-7.44 8a3.85 3.85 0 011.11 3v4.47c0 .53.29.94 1.12.78A16.29 16.29 0 0016.29 0z" fill-rule="evenodd"/></symbol><symbol id="icon-google" viewBox="0 0 23.516 28"><path d="M12 12.281h11.328c.11.61.188 1.203.188 2C23.516 21.125 18.922 26 12 26 5.36 26 0 20.64 0 14S5.36 2 12 2c3.234 0 5.953 1.188 8.047 3.14L16.78 8.282c-.89-.86-2.453-1.86-4.781-1.86-4.094 0-7.438 3.391-7.438 7.579S7.906 21.578 12 21.578c4.75 0 6.531-3.406 6.813-5.172H12v-4.125z"/></symbol><symbol id="icon-instagram" viewBox="0 0 24 24"><path d="M15.5 3h-7A5.5 5.5 0 003 8.5v7A5.5 5.5 0 008.5 21h7a5.5 5.5 0 005.5-5.5v-7A5.5 5.5 0 0015.5 3zm4 12.5a4.005 4.005 0 01-4 4h-7a4.005 4.005 0 01-4-4v-7a4.005 4.005 0 014-4h7a4.005 4.005 0 014 4z"/><path d="M12 7.5a4.5 4.5 0 104.5 4.5A4.5 4.5 0 0012 7.5zm0 7.5a3 3 0 113-3 3.003 3.003 0 01-3 3z"/><circle cx="16.7" cy="7.3" r="1"/></symbol><symbol id="icon-linkedin" viewBox="0 0 24 24"><path d="M3 9h4v11H3z"/><circle cx="5" cy="5" r="2"/><path d="M16.5 8.25A4.473 4.473 0 0013 9.953V9H9v11h4v-7a2 2 0 014 0v7h4v-7.25a4.5 4.5 0 00-4.5-4.5z"/></symbol><symbol id="icon-medium" viewBox="0 0 21 17"><path d="M3.159 4.033a.78.78 0 00-.254-.658L1.023 1.108V.769h5.843l4.516 9.905 3.97-9.905h5.57v.339L19.315 2.65a.47.47 0 00-.179.452v11.335a.47.47 0 00.179.451l1.571 1.543v.338h-7.903v-.338l1.628-1.58c.16-.16.16-.208.16-.452V5.237l-4.526 11.495h-.612L4.363 5.237v7.704c-.044.324.064.65.292.884l2.117 2.568v.339H.769v-.339l2.117-2.568c.226-.234.328-.563.273-.884V4.033z"/></symbol><symbol id="icon-stackoverflow" viewBox="0 0 17 20"><path fill-rule="evenodd" clip-rule="evenodd" d="M14.216 12.892h1.777V20H0v-7.108h1.777v5.331h12.439v-5.33z" fill="#BBB"/><path d="M3.714 12.364l8.727 1.834.367-1.744-8.728-1.836-.366 1.746zm1.154-4.179l8.085 3.765.753-1.617L5.62 6.568l-.753 1.617zM7.105 4.22l6.854 5.707 1.142-1.37-6.854-5.708-1.142 1.37zM11.53 0l-1.432 1.065 5.323 7.156 1.43-1.065L11.53 0zM3.554 16.446h8.885V14.67H3.554v1.777z" fill="#F58025"/></symbol><symbol id="icon-telegram" viewBox="0 0 48 48"><path d="M5.83 23.616c12.568-5.529 28.832-12.27 31.077-13.203 5.889-2.442 7.696-1.974 6.795 3.434-.647 3.887-2.514 16.756-4.002 24.766-.883 4.75-2.864 5.313-5.979 3.258-1.498-.989-9.059-5.989-10.7-7.163-1.498-1.07-3.564-2.357-.973-4.892.922-.903 6.966-6.674 11.675-11.166.617-.59-.158-1.559-.87-1.086-6.347 4.209-15.147 10.051-16.267 10.812-1.692 1.149-3.317 1.676-6.234.838-2.204-.633-4.357-1.388-5.195-1.676-3.227-1.108-2.461-2.543.673-3.922z"/></symbol><symbol id="icon-twitter" viewBox="0 0 24 24"><path d="M17.751 3h3.067l-6.7 7.658L22 21.078h-6.172l-4.833-6.32-5.531 6.32h-3.07l7.167-8.19L2 3h6.328l4.37 5.777L17.75 3zm-1.076 16.242h1.7L7.404 4.74H5.58l11.094 14.503z"/></symbol><symbol id="icon-vkontakte" viewBox="0 0 24 24"><path d="M21.547 7h-3.29a.743.743 0 00-.655.392s-1.312 2.416-1.734 3.23C14.734 12.813 14 12.126 14 11.11V7.604A1.104 1.104 0 0012.896 6.5h-2.474a1.982 1.982 0 00-1.751.813s1.256-.204 1.256 1.49c0 .419.022 1.626.041 2.64a.73.73 0 01-1.273.503 21.54 21.54 0 01-2.498-4.543.693.693 0 00-.63-.403h-2.99a.508.508 0 00-.48.685C3.005 10.175 6.916 18 11.38 18h1.879a.742.742 0 00.742-.742v-1.135a.73.73 0 011.229-.531l2.248 2.113a1.09 1.09 0 00.746.295h2.953c1.424 0 1.424-.988.647-1.753-.546-.538-2.518-2.617-2.518-2.617a1.019 1.019 0 01-.078-1.323c.637-.839 1.68-2.212 2.122-2.8.604-.804 1.698-2.507.198-2.507z"/></symbol><symbol id="icon-wechat" viewBox="0 0 145.97 118.03"><path d="M116.66 71.22a5.86 5.86 0 115.86-5.86 5.86 5.86 0 01-5.86 5.86m-29.32 0a5.86 5.86 0 115.87-5.86 5.86 5.86 0 01-5.87 5.86m43.43 33.56C140 98.06 146 88.12 146 77.09c0-20.24-19.69-36.64-44-36.64s-44 16.4-44 36.64 19.68 36.63 44 36.63a52 52 0 0014.35-2 4.25 4.25 0 011.29-.2 4.59 4.59 0 012.34.68l9.62 5.55a1.62 1.62 0 00.85.28 1.46 1.46 0 001.46-1.47 4.45 4.45 0 00-.23-1.07c-.06-.21-1.24-4.63-2-7.39a3.3 3.3 0 01-.16-.93 2.93 2.93 0 011.23-2.39"/><path d="M70.34 36.93a7 7 0 117-7 7 7 0 01-7 7m-35.17 0a7 7 0 117-7 7 7 0 01-7 7M52.76 0C23.62 0 0 19.69 0 44c0 13.21 7.11 25.14 18.23 33.2a3.51 3.51 0 011.48 2.86 4.24 4.24 0 01-.19 1.12c-.89 3.32-2.31 8.62-2.38 8.87a5.22 5.22 0 00-.28 1.29 1.75 1.75 0 001.76 1.75 2.08 2.08 0 001-.32l11.56-6.67a5.56 5.56 0 012.82-.81 5.28 5.28 0 011.55.23 62.4 62.4 0 0017.22 2.41c1 0 1.94 0 2.9-.07a33.78 33.78 0 01-1.78-10.77C53.88 54.94 75.43 37 102 37c1 0 1.92 0 2.87.08C100.89 16.06 79.08 0 52.76 0"/></symbol><symbol id="icon-youtube" viewBox="0 0 24 24"><path d="M21.807 7.805a2.8 2.8 0 00-2.549-2.54A82.512 82.512 0 0012.5 5c-3.452 0-6.059.141-7.743.273a2.8 2.8 0 00-2.564 2.542A44.905 44.905 0 002 12.042c0 1.667.089 3.075.191 4.146a2.799 2.799 0 002.564 2.539C6.44 18.859 9.047 19 12.5 19c2.867 0 5.19-.136 6.758-.266a2.799 2.799 0 002.55-2.539C21.91 15.115 22 13.692 22 12s-.09-3.115-.193-4.195zM9.776 14.939V9.06L15.574 12z"/></symbol></svg>