<svg viewBox="0 0 40 120" version="1.1" xmlns="http://www.w3.org/2000/svg" xmlns:xlink="http://www.w3.org/1999/xlink">
  <g stroke="none" stroke-width="1" fill="none" fill-rule="evenodd">
    <g transform="translate(0.000000, 1.000000)" fill="#62FAFF" fill-rule="nonzero">
      <path fill="#f9b114"
            d="M39.2228899,15.876114 L30.5308707,24.3520587 L32.5904747,36.3235069 C32.6149937,36.4905432 32.6149937,36.6345929 32.6149937,36.8031617 C32.6149937,37.4253337 32.3284268,38 31.6326975,38 C31.2970924,38 30.9614873,37.8804694 30.6749204,37.7134331 L19.9232972,32.0633141 L9.17167399,37.7134331 C8.86058797,37.8804694 8.54950196,38 8.21389684,38 C7.51969996,38 7.20861395,37.4253337 7.20861395,36.8031617 C7.20861395,36.6361253 7.23313304,36.4920757 7.25611969,36.3235069 L9.31572368,24.3520587 L0.599185385,15.876114 C0.312618462,15.565028 0,15.1573981 0,14.7267815 C0,14.0080655 0.741702625,13.7214986 1.34088801,13.6249546 L13.3613744,11.8764367 L18.7494455,0.982296246 C18.96552,0.527160544 19.3716175,0 19.9232972,0 C20.4749768,0 20.8810743,0.527160544 21.0971488,0.982296246 L26.48522,11.8764367 L38.5057063,13.6249546 C39.0803726,13.7214986 39.8465943,14.0080655 39.8465943,14.7267815 C39.8450619,15.1573981 39.5339759,15.565028 39.2228899,15.876114 Z M27.2292497,63.274751 L34.556488,56.162681 L24.4506923,54.6777433 L19.925,45.5305884 L15.3993077,54.6777433 L5.29351204,56.162681 L12.6207503,63.274751 L10.8720829,73.3551639 L19.9234674,68.5907973 L28.9518633,73.3551639 L27.2292497,63.274751 Z M39.8484674,54.7267815 C39.8484674,55.1573981 39.5373548,55.565028 39.2262422,55.876114 L30.5334801,64.3520587 L32.5932601,76.3235069 C32.6177813,76.4905432 32.6177813,76.6345929 32.6177813,76.8031617 C32.6177813,77.4498528 32.3311899,78 31.6354011,78 C31.2997673,78 30.9641335,77.8804694 30.6775421,77.7134331 L19.925,72.0633141 L9.17245789,77.7134331 C8.86134528,77.8804694 8.55023267,78 8.21459888,78 C7.52034267,78 7.20923006,77.4253337 7.20923006,76.8031617 C7.20923006,76.6361253 7.23375125,76.4920757 7.25673987,76.3235069 L9.31651988,64.3520587 L0.599236597,55.876114 C0.312645181,55.565028 0,55.1573981 0,54.7267815 C0,54.0080655 0.741766018,53.7214986 1.34100262,53.6249546 L13.3625163,51.8764367 L18.751048,40.9822962 C18.967141,40.5271605 19.3732732,40 19.925,40 C20.4767268,40 20.882859,40.5271605 21.098952,40.9822962 L26.4874837,51.8764367 L38.5089974,53.6249546 C39.0837128,53.7214986 39.85,54.0080655 39.85,54.7267815 L39.8484674,54.7267815 Z M28.402243,102.149937 L34.5575353,96.1642134 L24.4509622,94.6792757 L23.7321295,93.2418438 L19.9249218,85.5321208 L19.9249218,108.590797 L21.3380642,109.3325 L28.9540122,113.355164 L27.5163468,104.8547 L27.2297334,103.274751 L28.402243,102.149937 Z M39.2276488,95.876114 L30.534218,104.352059 L32.5941565,116.323507 C32.7612199,117.377828 32.3780468,118 31.6362238,118 C31.3726007,118 31.0369411,117.903456 30.6782911,117.713433 L19.9249218,112.063314 L9.17155261,117.713433 C8.81290261,117.904989 8.477243,118 8.21361992,118 C7.47179684,118 7.08862377,117.377828 7.25568723,116.323507 L9.31562569,104.352059 L0.597671844,95.876114 C-0.432297387,94.8463121 -0.0966377715,93.8410292 1.33949492,93.6249546 L13.3619334,91.8764367 L18.7508795,80.9822962 C19.0620161,80.3356051 19.4927026,80 19.9249218,80 C20.3556084,80 20.7633045,80.3356051 21.0989642,80.9822962 L26.4879103,91.8764367 L38.5103488,93.6249546 C39.9480142,93.8410292 40.2821411,94.8463121 39.2291815,95.876114 L39.2276488,95.876114 Z"></path>
    </g>
  </g>
</svg>
