<svg xmlns="http://www.w3.org/2000/svg" xmlns:xlink="http://www.w3.org/1999/xlink">
  <symbol id="icon-training-feature-achievements" viewBox="0 0 48 48" fill="none"><path d="m35.883 26.155-8.939 5.031a6.028 6.028 0 0 1-3.028.814 6.029 6.029 0 0 1-3.03-.814l-8.945-5.03a6.199 6.199 0 0 1-2.14-2.2A6.032 6.032 0 0 1 9 21.025V10.963a5.934 5.934 0 0 1 .828-2.95 6.106 6.106 0 0 1 2.2-2.174l8.947-5.03A6.066 6.066 0 0 1 24.004 0c1.065 0 2.11.279 3.028.808l8.94 5.03a6.106 6.106 0 0 1 2.2 2.175c.53.898.816 1.913.828 2.95v10.061a6.179 6.179 0 0 1-.895 2.95 6.354 6.354 0 0 1-2.222 2.181z" fill="#CDF567"/><path d="M24 31c6.075 0 11-4.925 11-11S30.075 9 24 9s-11 4.925-11 11 4.925 11 11 11z" stroke="#0D1117" stroke-width="2" stroke-linecap="round" stroke-linejoin="round"/><path d="m24 12.94 1.95 3.95 4.36.64-3.16 3.07.75 4.34-3.9-2.05-3.9 2.05.75-4.34-3.16-3.07 4.36-.64L24 12.94zM31 29v10l-6.98-4L17 39V29" stroke="#0D1117" stroke-width="2" stroke-linecap="round" stroke-linejoin="round"/></symbol>
  <symbol id="icon-training-feature-certificate" viewBox="0 0 48 48" fill="none"><path d="m35.883 42.155-8.939 5.031a6.028 6.028 0 0 1-3.028.814 6.029 6.029 0 0 1-3.03-.814l-8.945-5.03a6.199 6.199 0 0 1-2.14-2.2A6.032 6.032 0 0 1 9 37.025V26.963a5.934 5.934 0 0 1 .828-2.95 6.105 6.105 0 0 1 2.2-2.174l8.947-5.03A6.066 6.066 0 0 1 24.004 16c1.065 0 2.11.279 3.028.808l8.94 5.03a6.105 6.105 0 0 1 2.2 2.175c.53.897.816 1.913.828 2.95v10.061a6.179 6.179 0 0 1-.895 2.95 6.354 6.354 0 0 1-2.222 2.181z" fill="#CDF567"/><g clip-path="url(#a)" stroke="#0D1117" stroke-width="2" stroke-linecap="round" stroke-linejoin="round"><path d="M18 30h-5c-2.21 0-4-1.79-4-4V13c0-2.21 1.79-4 4-4h22c2.21 0 4 1.79 4 4v13c0 2.21-1.79 4-4 4h-5M18 16h11M15 20h17"/><path d="M24 35.26A5.13 5.13 0 1 0 24 25a5.13 5.13 0 0 0 0 10.26z"/><path d="M27.27 34.33V39l-3.26-1-3.28 1v-4.67"/></g><defs><clipPath><path fill="#fff" transform="translate(8 8)" d="M0 0h32v32H0z"/></clipPath></defs></symbol>
  <symbol id="icon-training-feature-code-style" viewBox="0 0 48 48" fill="none"><path d="m35.883 26.155-8.939 5.031a6.028 6.028 0 0 1-3.028.814 6.029 6.029 0 0 1-3.03-.814l-8.945-5.03a6.199 6.199 0 0 1-2.14-2.2A6.032 6.032 0 0 1 9 21.025V10.963a5.934 5.934 0 0 1 .828-2.95 6.106 6.106 0 0 1 2.2-2.174l8.947-5.03A6.066 6.066 0 0 1 24.004 0c1.065 0 2.11.279 3.028.808l8.94 5.03a6.106 6.106 0 0 1 2.2 2.175c.53.898.816 1.913.828 2.95v10.061a6.179 6.179 0 0 1-.895 2.95 6.354 6.354 0 0 1-2.222 2.181z" fill="#CDF567"/><path d="M33 20c0-5.06-4.18-9.15-9.28-9-4.8.15-8.74 4.23-8.72 9.03a8.958 8.958 0 0 0 3.51 7.09c.96.74 1.49 1.9 1.49 3.11V34h8v-3.77c0-1.24.59-2.4 1.56-3.16 2.09-1.65 3.44-4.2 3.44-7.06V20zM20 30.23h8M27 34c0 1.66-1.34 3-3 3s-3-1.34-3-3" stroke="#0D1117" stroke-width="2" stroke-linecap="round" stroke-linejoin="round"/><path d="m28 19-4 3v-3l-4 3" stroke="#0D1117" stroke-width="2" stroke-linecap="round" stroke-linejoin="round"/></symbol>
  <symbol id="icon-training-feature-dev-courses" viewBox="0 0 48 48" fill="none"><path d="m43.883 26.155-8.939 5.031a6.028 6.028 0 0 1-3.029.814 6.029 6.029 0 0 1-3.028-.814l-8.947-5.03a6.198 6.198 0 0 1-2.14-2.2 6.031 6.031 0 0 1-.8-2.932V10.963a5.935 5.935 0 0 1 .828-2.95 6.106 6.106 0 0 1 2.2-2.174l8.947-5.03A6.066 6.066 0 0 1 32.004 0c1.065 0 2.11.279 3.028.808l8.94 5.03a6.106 6.106 0 0 1 2.2 2.175c.53.898.816 1.913.828 2.95v10.061a6.179 6.179 0 0 1-.895 2.95 6.354 6.354 0 0 1-2.222 2.181z" fill="#CDF567"/><path d="M9 11h2M20 15.07h2M15 11h9M9 19.07l9-.07M9 15h7M15.09 37h12.8c.73 0 1.21-.76.91-1.42l-5.08-11c-.16-.35-.52-.58-.91-.58h-12.8c-.73 0-1.21.76-.91 1.42l5.08 11c.16.35.52.58.91.58v0zM35 28v5h-6.62M35.79 29.5H39" stroke="#0D1117" stroke-width="2" stroke-linecap="round" stroke-linejoin="round"/><path d="M35.16 22.58C37.42 23.6 39 25.86 39 28.5V35c0 1.1-.9 2-2 2H26M29.84 22.57A6.499 6.499 0 0 0 26 28.5v1.02M32 11h1c2.76 0 5 2.24 5 5v1.5c0 3.04-2.46 5.5-5.5 5.5S27 20.54 27 17.5V16c0-2.76 2.24-5 5-5z" stroke="#0D1117" stroke-width="2" stroke-linecap="round" stroke-linejoin="round"/></symbol>
  <symbol id="icon-training-feature-extra-courses" viewBox="0 0 48 48" fill="none"><path d="m43.883 42.155-8.939 5.031a6.028 6.028 0 0 1-3.029.814 6.029 6.029 0 0 1-3.028-.814l-8.947-5.03a6.198 6.198 0 0 1-2.14-2.2 6.031 6.031 0 0 1-.8-2.932V26.963a5.935 5.935 0 0 1 .828-2.95 6.105 6.105 0 0 1 2.2-2.174l8.947-5.03A6.066 6.066 0 0 1 32.004 16c1.065 0 2.11.279 3.028.808l8.94 5.03a6.105 6.105 0 0 1 2.2 2.175c.53.897.816 1.913.828 2.95v10.061a6.179 6.179 0 0 1-.895 2.95 6.354 6.354 0 0 1-2.222 2.181z" fill="#CDF567"/><g clip-path="url(#a)" stroke="#0D1117" stroke-width="2" stroke-linecap="round" stroke-linejoin="round"><path d="M30.63 28h.73s.92-.08 1.05.84c.02.13.03.27.03.42v.88c0 .29.08.55.23.79.15.24.4.42.74.56-.34.14-.59.33-.74.56-.15.23-.23.5-.23.79v.88c0 .15-.01.29-.03.42-.13.92-1.05.84-1.05.84h-.73M24 32H13c-2.21 0-4-1.79-4-4V16c0-2.21 1.79-4 4-4h18c2.21 0 4 1.79 4 4v8"/><path d="M31.5 39a7.5 7.5 0 1 0 0-15 7.5 7.5 0 0 0 0 15zM35 16c0 2.21-1.79 4-4 4H13c-2.21 0-4-1.79-4-4M23.84 20h-3.67a1 1 0 0 0-1 1v1a1 1 0 0 0 1 1h3.67a1 1 0 0 0 1-1v-1a1 1 0 0 0-1-1zM25.83 9c1.1 0 2 .9 2 2 0 .55-.45 1-1 1h-9.66c-.55 0-1-.45-1-1 0-1.1.9-2 2-2h7.67-.01z"/></g><defs><clipPath><path fill="#fff" transform="translate(8 8)" d="M0 0h32v32H0z"/></clipPath></defs></symbol>
  <symbol id="icon-training-feature-homework" viewBox="0 0 48 48" fill="none"><path d="m27.883 26.155-8.939 5.031a6.028 6.028 0 0 1-3.028.814 6.029 6.029 0 0 1-3.03-.814l-8.946-5.03a6.2 6.2 0 0 1-2.14-2.2 6.032 6.032 0 0 1-.8-2.932V10.963a5.934 5.934 0 0 1 .828-2.95 6.106 6.106 0 0 1 2.2-2.174l8.947-5.03A6.066 6.066 0 0 1 16.004 0c1.065 0 2.11.279 3.028.808l8.94 5.03a6.106 6.106 0 0 1 2.2 2.175c.53.898.816 1.913.828 2.95v10.061a6.179 6.179 0 0 1-.895 2.95 6.354 6.354 0 0 1-2.222 2.181z" fill="#CDF567"/><path d="M9 28h30M35 10H13a4 4 0 0 0-4 4v14a4 4 0 0 0 4 4h22a4 4 0 0 0 4-4V14a4 4 0 0 0-4-4zM21 16.67h7M21 22.42h11" stroke="#0D1117" stroke-width="2" stroke-linecap="round" stroke-linejoin="round"/><path d="m14.33 16.55 1.04 1.04 1.96-1.85M14.33 22.3l1.04 1.05 1.96-1.85M27.99 32v2.03c0 .8.65 1.45 1.45 1.45a1.261 1.261 0 0 1 0 2.52H18.55a1.261 1.261 0 0 1 0-2.52c.8 0 1.45-.65 1.45-1.45V32" stroke="#0D1117" stroke-width="2" stroke-linecap="round" stroke-linejoin="round"/></symbol>
  <symbol id="icon-training-feature-ide" viewBox="0 0 48 48" fill="none"><path d="m27.883 26.155-8.939 5.031a6.028 6.028 0 0 1-3.028.814 6.029 6.029 0 0 1-3.03-.814l-8.946-5.03a6.2 6.2 0 0 1-2.14-2.2 6.032 6.032 0 0 1-.8-2.932V10.963a5.934 5.934 0 0 1 .828-2.95 6.106 6.106 0 0 1 2.2-2.174l8.947-5.03A6.066 6.066 0 0 1 16.004 0c1.065 0 2.11.279 3.028.808l8.94 5.03a6.106 6.106 0 0 1 2.2 2.175c.53.898.816 1.913.828 2.95v10.061a6.179 6.179 0 0 1-.895 2.95 6.354 6.354 0 0 1-2.222 2.181z" fill="#CDF567"/><path d="M35 11H13a4 4 0 0 0-4 4v18a4 4 0 0 0 4 4h22a4 4 0 0 0 4-4V15a4 4 0 0 0-4-4zM10 16.08h28" stroke="#0D1117" stroke-width="2" stroke-linecap="round" stroke-linejoin="round"/><g filter="url(#a)"><path d="M20.09 31.92s-1.44.13-1.65-1.31c-.03-.21-.05-.43-.05-.66v-1.38c0-.45-.12-.86-.36-1.23s-.63-.66-1.16-.88c.53-.22.92-.51 1.16-.88.24-.37.36-.78.36-1.23v-1.38c0-.23.02-.45.05-.66.2-1.44 1.65-1.31 1.65-1.31" stroke="#0D1117" stroke-width="2" stroke-linecap="round" stroke-linejoin="round"/></g><g filter="url(#b)"><path d="M27.91 21s1.44-.13 1.65 1.31c.03.21.05.43.05.66v1.38c0 .45.12.86.36 1.23s.63.66 1.16.88c-.53.22-.92.51-1.16.88-.24.37-.36.78-.36 1.23v1.38c0 .23-.02.45-.05.66-.2 1.44-1.65 1.31-1.65 1.31" stroke="#0D1117" stroke-width="2" stroke-linecap="round" stroke-linejoin="round"/></g><defs><filter x="15.55" y="19.677" width="5.54" height="13.246" filterUnits="userSpaceOnUse" color-interpolation-filters="sRGB"><feFlood flood-opacity="0" result="BackgroundImageFix"/><feColorMatrix in="SourceAlpha" values="0 0 0 0 0 0 0 0 0 0 0 0 0 0 0 0 0 0 127 0" result="hardAlpha"/><feOffset dx="-.18" dy="-.18"/><feGaussianBlur stdDeviation=".07"/><feColorMatrix values="0 0 0 0 0.137255 0 0 0 0 0.121569 0 0 0 0 0.12549 0 0 0 0.17 0"/><feBlend in2="BackgroundImageFix" result="effect1_dropShadow_661_14965"/><feBlend in="SourceGraphic" in2="effect1_dropShadow_661_14965" result="shape"/></filter><filter id="icon-b" x="26.59" y="19.677" width="5.54" height="13.246" filterUnits="userSpaceOnUse" color-interpolation-filters="sRGB"><feFlood flood-opacity="0" result="BackgroundImageFix"/><feColorMatrix in="SourceAlpha" values="0 0 0 0 0 0 0 0 0 0 0 0 0 0 0 0 0 0 127 0" result="hardAlpha"/><feOffset dx="-.18" dy="-.18"/><feGaussianBlur stdDeviation=".07"/><feColorMatrix values="0 0 0 0 0.137255 0 0 0 0 0.121569 0 0 0 0 0.12549 0 0 0 0.17 0"/><feBlend in2="BackgroundImageFix" result="effect1_dropShadow_661_14965"/><feBlend in="SourceGraphic" in2="effect1_dropShadow_661_14965" result="shape"/></filter></defs></symbol>
  <symbol id="icon-training-feature-mentor-chat" viewBox="0 0 48 48" fill="none"><path d="m27.883 42.155-8.939 5.031a6.028 6.028 0 0 1-3.028.814 6.029 6.029 0 0 1-3.03-.814l-8.946-5.03a6.2 6.2 0 0 1-2.14-2.2 6.032 6.032 0 0 1-.8-2.932V26.963a5.934 5.934 0 0 1 .828-2.95 6.105 6.105 0 0 1 2.2-2.174l8.947-5.03A6.066 6.066 0 0 1 16.004 16c1.065 0 2.11.279 3.028.808l8.94 5.03a6.105 6.105 0 0 1 2.2 2.175c.53.897.816 1.913.828 2.95v10.061a6.179 6.179 0 0 1-.895 2.95 6.354 6.354 0 0 1-2.222 2.181z" fill="#CDF567"/><path d="M21 32h14c2.21 0 4-1.79 4-4V15c0-2.21-1.79-4-4-4H13c-2.21 0-4 1.79-4 4v13c0 2.21 1.79 4 4 4h1v5.4l7-5.4zM18.5 24h11M15.5 19h17" stroke="#0D1117" stroke-width="2" stroke-linecap="round" stroke-linejoin="round"/></symbol>
  <symbol id="icon-training-feature-online-classes" viewBox="0 0 48 48" fill="none"><path d="m35.883 26.155-8.939 5.031a6.028 6.028 0 0 1-3.028.814 6.029 6.029 0 0 1-3.03-.814l-8.945-5.03a6.199 6.199 0 0 1-2.14-2.2A6.032 6.032 0 0 1 9 21.025V10.963a5.934 5.934 0 0 1 .828-2.95 6.106 6.106 0 0 1 2.2-2.174l8.947-5.03A6.066 6.066 0 0 1 24.004 0c1.065 0 2.11.279 3.028.808l8.94 5.03a6.106 6.106 0 0 1 2.2 2.175c.53.898.816 1.913.828 2.95v10.061a6.179 6.179 0 0 1-.895 2.95 6.354 6.354 0 0 1-2.222 2.181z" fill="#CDF567"/><path d="M11 31V16c0-2.21 1.79-4 4-4h18c2.21 0 4 1.79 4 4v15M27 31c0 .55-.45 1-1 1h-4c-.55 0-1-.45-1-1H9v2c0 1.66 1.34 3 3 3h24c1.66 0 3-1.34 3-3v-2H27z" stroke="#0D1117" stroke-width="2" stroke-linecap="round" stroke-linejoin="round"/><path d="M27.36 24.32A5.998 5.998 0 0 1 30 29.29v1.2M20.64 24.33A5.998 5.998 0 0 0 18 29.3v1.2M23.64 16h.73a3.64 3.64 0 0 1 3.64 3.64v1.09c0 2.21-1.79 4-4 4s-4-1.79-4-4v-1.09A3.64 3.64 0 0 1 23.65 16h-.01z" stroke="#0D1117" stroke-width="2" stroke-linecap="round" stroke-linejoin="round"/></symbol>
  <symbol id="icon-training-feature-platforms" viewBox="0 0 48 48" fill="none"><path d="m43.883 26.155-8.939 5.031a6.028 6.028 0 0 1-3.029.814 6.029 6.029 0 0 1-3.028-.814l-8.947-5.03a6.198 6.198 0 0 1-2.14-2.2 6.031 6.031 0 0 1-.8-2.932V10.963a5.935 5.935 0 0 1 .828-2.95 6.106 6.106 0 0 1 2.2-2.174l8.947-5.03A6.066 6.066 0 0 1 32.004 0c1.065 0 2.11.279 3.028.808l8.94 5.03a6.106 6.106 0 0 1 2.2 2.175c.53.898.816 1.913.828 2.95v10.061a6.179 6.179 0 0 1-.895 2.95 6.354 6.354 0 0 1-2.222 2.181z" fill="#CDF567"/><g clip-path="url(#a)" stroke="#0D1117" stroke-width="2" stroke-linecap="round" stroke-linejoin="round"><path d="M30 31H13c-2.21 0-4-1.79-4-4V15c0-2.21 1.79-4 4-4h20c2.21 0 4 1.79 4 4v3M9 27h21M34.05 30.02h.93"/><path d="M37.02 18h-5a2 2 0 0 0-2 2v11a2 2 0 0 0 2 2h5a2 2 0 0 0 2-2V20a2 2 0 0 0-2-2zM25.99 31v2.03c0 .8.65 1.45 1.45 1.45a1.261 1.261 0 0 1 0 2.52h-8.89a1.261 1.261 0 0 1 0-2.52c.8 0 1.45-.65 1.45-1.45V31"/></g><defs><clipPath><path fill="#fff" transform="translate(8 8)" d="M0 0h32v32H0z"/></clipPath></defs></symbol>
  <symbol id="icon-training-feature-quest" viewBox="0 0 48 48" fill="none"><path d="m35.883 42.155-8.939 5.031a6.028 6.028 0 0 1-3.028.814 6.029 6.029 0 0 1-3.03-.814l-8.945-5.03a6.199 6.199 0 0 1-2.14-2.2A6.032 6.032 0 0 1 9 37.025V26.963a5.934 5.934 0 0 1 .828-2.95 6.105 6.105 0 0 1 2.2-2.174l8.947-5.03A6.066 6.066 0 0 1 24.004 16c1.065 0 2.11.279 3.028.808l8.94 5.03a6.105 6.105 0 0 1 2.2 2.175c.53.897.816 1.913.828 2.95v10.061a6.179 6.179 0 0 1-.895 2.95 6.354 6.354 0 0 1-2.222 2.181z" fill="#CDF567"/><g clip-path="url(#a)" stroke="#0D1117" stroke-width="2" stroke-linecap="round" stroke-linejoin="round"><path d="M9 29h30M33.5 15.64H35c2.21 0 4 1.79 4 4V29c0 2.21-1.79 4-4 4H13c-2.21 0-4-1.79-4-4v-9.36c0-2.21 1.79-4 4-4h4M27.99 33v2.03c0 .8.65 1.45 1.45 1.45a1.261 1.261 0 0 1 0 2.52H18.55a1.261 1.261 0 0 1 0-2.52c.8 0 1.45-.65 1.45-1.45V33"/><path d="M33.41 12.38 24 16l-9.41-3.62L24 9l9.41 3.38z"/><path d="M30.53 14.12v6.02l-5.82 2.24c-.46.18-.97.18-1.44 0l-5.82-2.24v-6.26M33.41 18.89v-6.51"/></g><defs><clipPath><path fill="#fff" transform="translate(8 8)" d="M0 0h32v32H0z"/></clipPath></defs></symbol>
  <symbol id="icon-training-feature-individual-schedule" viewBox="0 0 48 48" fill="none"><path d="m27.883 26.155-8.939 5.031a6.028 6.028 0 0 1-3.028.814 6.029 6.029 0 0 1-3.03-.814l-8.946-5.03a6.2 6.2 0 0 1-2.14-2.2 6.032 6.032 0 0 1-.8-2.932V10.963a5.934 5.934 0 0 1 .828-2.95 6.106 6.106 0 0 1 2.2-2.174l8.947-5.03A6.066 6.066 0 0 1 16.004 0c1.065 0 2.11.279 3.028.808l8.94 5.03a6.106 6.106 0 0 1 2.2 2.175c.53.898.816 1.913.828 2.95v10.061a6.179 6.179 0 0 1-.895 2.95 6.354 6.354 0 0 1-2.222 2.181z" fill="#CDF567"/><path d="M33 13H15a4 4 0 0 0-4 4v16a4 4 0 0 0 4 4h18a4 4 0 0 0 4-4V17a4 4 0 0 0-4-4zM11 20h26M18 11v4M30 11v4" stroke="#0D1117" stroke-width="2" stroke-linecap="round" stroke-linejoin="round"/></symbol>
  <symbol id="icon-training-feature-support" viewBox="0 0 48 48" fill="none"><path d="m27.883 42.155-8.939 5.031a6.028 6.028 0 0 1-3.028.814 6.029 6.029 0 0 1-3.03-.814l-8.946-5.03a6.2 6.2 0 0 1-2.14-2.2 6.032 6.032 0 0 1-.8-2.932V26.963a5.934 5.934 0 0 1 .828-2.95 6.105 6.105 0 0 1 2.2-2.174l8.947-5.03A6.066 6.066 0 0 1 16.004 16c1.065 0 2.11.279 3.028.808l8.94 5.03a6.105 6.105 0 0 1 2.2 2.175c.53.897.816 1.913.828 2.95v10.061a6.179 6.179 0 0 1-.895 2.95 6.354 6.354 0 0 1-2.222 2.181z" fill="#CDF567"/><path d="m28.96 19.06 4.23-4.24M19 19l-4.04-4.18M29 29l4.19 4.06M19 29l-4.04 4.06M24 37c7.18 0 13-5.82 13-13s-5.82-13-13-13-13 5.82-13 13 5.82 13 13 13z" stroke="#0D1117" stroke-width="2" stroke-linecap="round" stroke-linejoin="round"/><path d="M24 31a7 7 0 1 0 0-14 7 7 0 0 0 0 14zM12.43 18.07A3.995 3.995 0 0 1 11 15c0-2.21 1.79-4 4-4 1.23 0 2.33.56 3.07 1.43M35.64 18.07c.87-.73 1.43-1.83 1.43-3.07 0-2.21-1.79-4-4-4-1.23 0-2.33.56-3.07 1.43M12.43 30c-.87.73-1.43 1.83-1.43 3.07 0 2.21 1.79 4 4 4 1.23 0 2.33-.56 3.07-1.43M35.64 30c.87.73 1.43 1.83 1.43 3.07 0 2.21-1.79 4-4 4-1.23 0-2.33-.56-3.07-1.43" stroke="#0D1117" stroke-width="2" stroke-linecap="round" stroke-linejoin="round"/></symbol>
  <symbol id="icon-training-feature-task-validation" fill="none"><path d="m43.883 42.155-8.939 5.031a6.028 6.028 0 0 1-3.029.814 6.029 6.029 0 0 1-3.028-.814l-8.947-5.03a6.198 6.198 0 0 1-2.14-2.2 6.031 6.031 0 0 1-.8-2.932V26.963a5.935 5.935 0 0 1 .828-2.95 6.105 6.105 0 0 1 2.2-2.174l8.947-5.03A6.066 6.066 0 0 1 32.004 16c1.065 0 2.11.279 3.028.808l8.94 5.03a6.105 6.105 0 0 1 2.2 2.175c.53.897.816 1.913.828 2.95v10.061a6.179 6.179 0 0 1-.895 2.95 6.354 6.354 0 0 1-2.222 2.181z" fill="#CDF567"/><path d="M26 34H13c-2.21 0-4-1.79-4-4V14c0-2.21 1.79-4 4-4h19c2.21 0 4 1.79 4 4v12.03M14 14.93h2M14 27h1M19 27h2M25 19h2M20 14.93h11M14 23h11M14 18.93h7" stroke="#0D1117" stroke-width="2" stroke-linecap="round" stroke-linejoin="round"/><path d="M32.5 38a6.5 6.5 0 1 0 0-13 6.5 6.5 0 0 0 0 13z" stroke="#0D1117" stroke-width="2" stroke-linecap="round" stroke-linejoin="round"/><path d="m29.5 31.5 1.95 1.95L35.1 30" stroke="#0D1117" stroke-width="2" stroke-linecap="round" stroke-linejoin="round"/></symbol>
  <symbol id="icon-training-feature-free-schedule" viewBox="0 0 48 48" fill="none"><path d="m27.883 26.155-8.939 5.031a6.028 6.028 0 0 1-3.028.814 6.029 6.029 0 0 1-3.03-.814l-8.946-5.03a6.2 6.2 0 0 1-2.14-2.2 6.032 6.032 0 0 1-.8-2.932V10.963a5.934 5.934 0 0 1 .828-2.95 6.106 6.106 0 0 1 2.2-2.174l8.947-5.03A6.066 6.066 0 0 1 16.004 0c1.065 0 2.11.279 3.028.808l8.94 5.03a6.106 6.106 0 0 1 2.2 2.175c.53.898.816 1.913.828 2.95v10.061a6.179 6.179 0 0 1-.895 2.95 6.354 6.354 0 0 1-2.222 2.181z" fill="#CDF567"/><path d="M23.04 22h11.93c.57 0 1.03.46 1.03 1.03V34.9c0 1.71-1.39 3.1-3.1 3.1h-7.8c-1.71 0-3.1-1.39-3.1-3.1V23.03c0-.57.46-1.03 1.03-1.03h.01z" stroke="#0D1117" stroke-width="2" stroke-miterlimit="10"/><path d="M19.82 38h18M18.5 15.2V21h-4.43" stroke="#0D1117" stroke-width="2" stroke-linecap="round" stroke-linejoin="round"/><path d="M36 27h1c1.1 0 2 .9 2 2v2c0 1.1-.9 2-2 2h-1v-6z" stroke="#0D1117" stroke-width="2" stroke-miterlimit="10"/><path d="M22.01 29.33c-1.08.43-2.27.67-3.51.67-5.25 0-9.5-4.25-9.5-9.5s4.25-9.5 9.5-9.5a9.496 9.496 0 0 1 9.38 11M31 18v-1c0-1.1.9-2 2-2h1c1.1 0 2-.9 2-2v-1c0-1.1.9-2 2-2" stroke="#0D1117" stroke-width="2" stroke-linecap="round" stroke-linejoin="round"/></symbol>
  <symbol id="icon-training-feature-resume" viewBox="0 0 48 48" fill="none"><path d="m43.883 42.155-8.939 5.031a6.028 6.028 0 0 1-3.029.814 6.029 6.029 0 0 1-3.028-.814l-8.947-5.03a6.198 6.198 0 0 1-2.14-2.2 6.031 6.031 0 0 1-.8-2.932V26.963a5.935 5.935 0 0 1 .828-2.95 6.105 6.105 0 0 1 2.2-2.174l8.947-5.03A6.066 6.066 0 0 1 32.004 16c1.065 0 2.11.279 3.028.808l8.94 5.03a6.105 6.105 0 0 1 2.2 2.175c.53.897.816 1.913.828 2.95v10.061a6.179 6.179 0 0 1-.895 2.95 6.354 6.354 0 0 1-2.222 2.181z" fill="#CDF567"/><path d="M26.33 22.954a4.497 4.497 0 0 1 1.604 2.27m-6.259-2.27a4.48 4.48 0 0 0-1.587 2.206" stroke="#0D1117" stroke-width="2" stroke-linecap="round" stroke-linejoin="round"/><path d="M24.288 17.36h-.57c-1.568 0-2.838 1.165-2.838 2.602v.78c0 1.578 1.398 2.858 3.12 2.858 1.723 0 3.12-1.28 3.12-2.859v-.78c0-1.436-1.27-2.6-2.838-2.6h.006z" stroke="#0D1117" stroke-width="2" stroke-linecap="round" stroke-linejoin="round"/><circle cx="24" cy="20" r="7" stroke="#0D1117" stroke-width="2" stroke-linecap="round" stroke-linejoin="round"/><path d="M12 13.16A4.16 4.16 0 0 1 16.16 9h15.68A4.16 4.16 0 0 1 36 13.16v21.68A4.16 4.16 0 0 1 31.84 39H16.16A4.16 4.16 0 0 1 12 34.84V13.16zM16 31h2M21 31h11M18 35h12" stroke="#0D1117" stroke-width="2" stroke-linecap="round" stroke-linejoin="round"/></symbol>
</svg>
