<svg width="72" height="72" viewBox="0 0 72 72" fill="none" xmlns="http://www.w3.org/2000/svg">
<path d="M61.3505 58.8497L42.2807 70.1686C40.326 71.3673 38.0938 72 35.8195 72C33.5452 72 31.3131 71.3673 29.3584 70.1686L10.2728 58.8497C8.37342 57.6206 6.80374 55.9195 5.70772 53.9023C4.61171 51.8851 4.02445 49.6164 3.99988 47.3043V24.6664C4.02631 22.3344 4.63467 20.0487 5.7663 18.0294C6.89794 16.0102 8.51477 14.3253 10.4611 13.1372L29.5466 1.81825C31.504 0.627855 33.7351 0 36.0077 0C38.2803 0 40.5114 0.627855 42.4689 1.81825L61.5387 13.1372C63.485 14.3253 65.1018 16.0102 66.2335 18.0294C67.3651 20.0487 67.9734 22.3344 67.9999 24.6664V47.3043C67.9071 49.6464 67.2507 51.9278 66.0899 53.9432C64.9292 55.9587 63.3005 57.6448 61.3505 58.8497Z" fill="#C9B7EC"/>
<path d="M39.6117 36.8016L38.1867 37.7266C35.3742 39.6267 33.5242 42.8517 33.5242 46.5142C33.5242 47.8767 34.6367 48.9892 35.9992 48.9892H52.2493C53.6118 48.9892 54.7243 47.8767 54.7243 46.5142C54.7243 42.8517 52.8743 39.6267 50.0493 37.7266L48.6368 36.8141" stroke="#0D1117" stroke-width="2" stroke-linecap="round" stroke-linejoin="round"/>
<path d="M43.4869 23.0142H44.7744C48.3244 23.0142 51.1994 25.8892 51.1994 29.4392V31.3642C51.1994 35.2642 48.0369 38.4267 44.1369 38.4267C40.2369 38.4267 37.0743 35.2642 37.0743 31.3642V29.4392C37.0743 25.8892 39.9494 23.0142 43.4994 23.0142H43.4869Z" stroke="#0D1117" stroke-width="2" stroke-linecap="round" stroke-linejoin="round"/>
<path d="M34.7745 48.9891H19.3244C18.1994 48.9891 17.2744 48.0766 17.2744 46.9391C17.2744 43.9266 18.7994 41.2641 21.1244 39.689L22.3369 38.9515" stroke="#0D1117" stroke-width="2" stroke-linecap="round" stroke-linejoin="round"/>
<path d="M25.4999 27.5515H26.5624C29.4874 27.5515 31.8624 29.9265 31.8624 32.8515V34.4391C31.8624 37.6641 29.2499 40.2766 26.0249 40.2766C22.7999 40.2766 20.1874 37.6641 20.1874 34.4391V32.8515C20.1874 29.9265 22.5624 27.5515 25.4874 27.5515H25.4999Z" stroke="#0D1117" stroke-width="2" stroke-linecap="round" stroke-linejoin="round"/>
<path d="M34.275 48.2769C33.9 48.7144 33.35 48.9769 32.725 48.9769" stroke="#0D1117" stroke-width="2" stroke-linecap="round" stroke-linejoin="round"/>
<path d="M34 43.3518C33.325 41.8642 32.2625 40.6017 30.925 39.7017L29.725 38.9642" stroke="#0D1117" stroke-width="2" stroke-linecap="round" stroke-linejoin="round"/>
</svg>
