<svg width="72" height="72" viewBox="0 0 72 72" fill="none" xmlns="http://www.w3.org/2000/svg">
<path d="M61.3505 58.8497L42.2807 70.1686C40.326 71.3673 38.0938 72 35.8195 72C33.5452 72 31.3131 71.3673 29.3584 70.1686L10.2728 58.8497C8.37342 57.6206 6.80374 55.9195 5.70772 53.9023C4.61171 51.8851 4.02445 49.6164 3.99988 47.3043V24.6664C4.02631 22.3344 4.63467 20.0487 5.7663 18.0294C6.89794 16.0102 8.51477 14.3253 10.4611 13.1372L29.5466 1.81825C31.504 0.627855 33.7351 0 36.0077 0C38.2803 0 40.5114 0.627855 42.4689 1.81825L61.5387 13.1372C63.485 14.3253 65.1018 16.0102 66.2335 18.0294C67.3651 20.0487 67.9734 22.3344 67.9999 24.6664V47.3043C67.9071 49.6464 67.2507 51.9278 66.0899 53.9432C64.9292 55.9587 63.3005 57.6448 61.3505 58.8497Z" fill="#C9B7EC"/>
<path d="M31.175 36.8252L29.6875 37.8252C26.7125 39.8377 24.75 43.2502 24.75 47.1252C24.75 48.5752 25.925 49.7502 27.375 49.7502H44.575C46.025 49.7502 47.2 48.5752 47.2 47.1252C47.2 43.2502 45.2375 39.8377 42.2625 37.8252L40.8 36.8252" stroke="#0D1117" stroke-width="2" stroke-linecap="round" stroke-linejoin="round"/>
<path d="M35.3018 22.25H36.6643C40.4143 22.25 43.4643 25.3 43.4643 29.05V31.0875C43.4643 35.2125 40.1143 38.575 35.9768 38.575C31.8518 38.575 28.4893 35.225 28.4893 31.0875V29.05C28.5018 25.3 31.5518 22.25 35.3018 22.25Z" stroke="#0D1117" stroke-width="2" stroke-linecap="round" stroke-linejoin="round"/>
</svg>
