<svg width="25" height="24" viewBox="0 0 25 24" fill="none" xmlns="http://www.w3.org/2000/svg">
<path d="M8.1416 2.5C8.1416 2.08579 7.80582 1.75 7.3916 1.75C6.97739 1.75 6.6416 2.08579 6.6416 2.5V4.07926C5.20227 4.19451 4.25737 4.47737 3.56317 5.17157C2.86898 5.86577 2.58611 6.81067 2.47086 8.25H22.3123C22.1971 6.81067 21.9142 5.86577 21.22 5.17157C20.5258 4.47737 19.5809 4.19451 18.1416 4.07926V2.5C18.1416 2.08579 17.8058 1.75 17.3916 1.75C16.9774 1.75 16.6416 2.08579 16.6416 2.5V4.0129C15.9763 4 15.2306 4 14.3916 4H10.3916C9.55257 4 8.80687 4 8.1416 4.0129V2.5Z" fill="#725DFF"/>
<path fill-rule="evenodd" clip-rule="evenodd" d="M2.3916 12C2.3916 11.161 2.3916 10.4153 2.4045 9.75H22.3787C22.3916 10.4153 22.3916 11.161 22.3916 12V14C22.3916 17.7712 22.3916 19.6569 21.22 20.8284C20.0485 22 18.1628 22 14.3916 22H10.3916C6.62037 22 4.73475 22 3.56317 20.8284C2.3916 19.6569 2.3916 17.7712 2.3916 14V12ZM17.3916 14C17.9439 14 18.3916 13.5523 18.3916 13C18.3916 12.4477 17.9439 12 17.3916 12C16.8393 12 16.3916 12.4477 16.3916 13C16.3916 13.5523 16.8393 14 17.3916 14ZM17.3916 18C17.9439 18 18.3916 17.5523 18.3916 17C18.3916 16.4477 17.9439 16 17.3916 16C16.8393 16 16.3916 16.4477 16.3916 17C16.3916 17.5523 16.8393 18 17.3916 18ZM13.3916 13C13.3916 13.5523 12.9439 14 12.3916 14C11.8393 14 11.3916 13.5523 11.3916 13C11.3916 12.4477 11.8393 12 12.3916 12C12.9439 12 13.3916 12.4477 13.3916 13ZM13.3916 17C13.3916 17.5523 12.9439 18 12.3916 18C11.8393 18 11.3916 17.5523 11.3916 17C11.3916 16.4477 11.8393 16 12.3916 16C12.9439 16 13.3916 16.4477 13.3916 17ZM7.3916 14C7.94389 14 8.3916 13.5523 8.3916 13C8.3916 12.4477 7.94389 12 7.3916 12C6.83932 12 6.3916 12.4477 6.3916 13C6.3916 13.5523 6.83932 14 7.3916 14ZM7.3916 18C7.94389 18 8.3916 17.5523 8.3916 17C8.3916 16.4477 7.94389 16 7.3916 16C6.83932 16 6.3916 16.4477 6.3916 17C6.3916 17.5523 6.83932 18 7.3916 18Z" fill="#725DFF"/>
</svg>
