<svg width="25" height="24" viewBox="0 0 25 24" fill="none" xmlns="http://www.w3.org/2000/svg">
<path fill-rule="evenodd" clip-rule="evenodd" d="M2.3916 6.63415C2.3916 4.07478 4.46638 2 7.02575 2C9.58512 2 11.6599 4.07478 11.6599 6.63415C11.6599 9.19351 9.58512 11.2683 7.02575 11.2683C4.46638 11.2683 2.3916 9.19351 2.3916 6.63415Z" fill="#725DFF"/>
<path fill-rule="evenodd" clip-rule="evenodd" d="M13.1233 17.3659C13.1233 14.8065 15.1981 12.7317 17.7575 12.7317C20.3168 12.7317 22.3916 14.8065 22.3916 17.3659C22.3916 19.9252 20.3168 22 17.7575 22C15.1981 22 13.1233 19.9252 13.1233 17.3659Z" fill="#725DFF"/>
<path d="M2.3916 17.5C2.3916 15.3787 2.3916 14.318 3.05061 13.659C3.70962 13 4.77028 13 6.8916 13C9.01292 13 10.0736 13 10.7326 13.659C11.3916 14.318 11.3916 15.3787 11.3916 17.5C11.3916 19.6213 11.3916 20.682 10.7326 21.341C10.0736 22 9.01292 22 6.8916 22C4.77028 22 3.70962 22 3.05061 21.341C2.3916 20.682 2.3916 19.6213 2.3916 17.5Z" fill="#725DFF"/>
<path d="M13.3916 6.5C13.3916 4.37868 13.3916 3.31802 14.0506 2.65901C14.7096 2 15.7703 2 17.8916 2C20.0129 2 21.0736 2 21.7326 2.65901C22.3916 3.31802 22.3916 4.37868 22.3916 6.5C22.3916 8.62132 22.3916 9.68198 21.7326 10.341C21.0736 11 20.0129 11 17.8916 11C15.7703 11 14.7096 11 14.0506 10.341C13.3916 9.68198 13.3916 8.62132 13.3916 6.5Z" fill="#725DFF"/>
</svg>
