<svg width="25" height="25" viewBox="0 0 25 25" fill="none" xmlns="http://www.w3.org/2000/svg">
<path fill-rule="evenodd" clip-rule="evenodd" d="M2.41943 11.9082C2.80296 6.73565 7.12118 2.6582 12.3917 2.6582C11.5609 2.6582 10.8211 3.02241 10.2125 3.57933C9.60701 4.13346 9.09531 4.90698 8.68143 5.82136C8.26512 6.74112 7.94173 7.81688 7.72286 8.98432C7.5474 9.92015 7.44063 10.9067 7.40504 11.9082H2.41943ZM2.41943 13.4082H7.40504C7.44063 14.4097 7.5474 15.3963 7.72286 16.3321C7.94173 17.4995 8.26512 18.5753 8.68143 19.4951C9.09531 20.4094 9.60701 21.1829 10.2125 21.7371C10.8211 22.294 11.5609 22.6582 12.3917 22.6582C7.12118 22.6582 2.80296 18.5808 2.41943 13.4082Z" fill="#725DFF"/>
<path d="M12.3917 4.05355C12.1167 4.05355 11.7615 4.17057 11.3483 4.54862C10.9322 4.92946 10.5155 5.52635 10.1474 6.33957C9.7818 7.14741 9.48489 8.12261 9.28057 9.2124C9.11966 10.0706 9.01984 10.9804 8.98481 11.9082H15.7987C15.7636 10.9804 15.6638 10.0706 15.5029 9.2124C15.2986 8.12261 15.0017 7.14741 14.636 6.33958C14.2679 5.52635 13.8513 4.92947 13.4351 4.54862C13.022 4.17057 12.6667 4.05355 12.3917 4.05355Z" fill="#725DFF"/>
<path d="M9.28057 16.104C9.48489 17.1938 9.7818 18.169 10.1474 18.9768C10.5155 19.7901 10.9322 20.3869 11.3483 20.7678C11.7615 21.1458 12.1167 21.2629 12.3917 21.2629C12.6667 21.2629 13.022 21.1458 13.4351 20.7678C13.8513 20.3869 14.2679 19.7901 14.636 18.9768C15.0017 18.169 15.2986 17.1938 15.5029 16.104C15.6638 15.2458 15.7636 14.336 15.7987 13.4082H8.98481C9.01984 14.336 9.11966 15.2458 9.28057 16.104Z" fill="#725DFF"/>
<path d="M12.3917 2.6582C13.2226 2.6582 13.9624 3.02241 14.5709 3.57933C15.1765 4.13346 15.6882 4.90698 16.102 5.82136C16.5183 6.74113 16.8417 7.81689 17.0606 8.98432C17.2361 9.92015 17.3428 10.9067 17.3784 11.9082H22.364C21.9805 6.73565 17.6623 2.6582 12.3917 2.6582Z" fill="#725DFF"/>
<path d="M17.0606 16.3321C16.8417 17.4995 16.5183 18.5753 16.102 19.4951C15.6882 20.4094 15.1765 21.1829 14.5709 21.7371C13.9624 22.294 13.2226 22.6582 12.3917 22.6582C17.6623 22.6582 21.9805 18.5808 22.364 13.4082H17.3784C17.3428 14.4097 17.2361 15.3963 17.0606 16.3321Z" fill="#725DFF"/>
</svg>
