<svg width="25" height="24" viewBox="0 0 25 24" fill="none" xmlns="http://www.w3.org/2000/svg">
<path fill-rule="evenodd" clip-rule="evenodd" d="M10.9403 21.5277L11.1904 21.1053C11.5912 20.4282 11.7915 20.0897 12.1107 19.9009C12.4299 19.712 12.8463 19.6987 13.679 19.6721C14.4598 19.6471 14.9846 19.579 15.4333 19.3931C16.378 19.0018 17.1285 18.2513 17.5198 17.3066C17.8133 16.5981 17.8133 15.6999 17.8133 13.9035V13.1324C17.8133 10.6083 17.8133 9.34622 17.2452 8.4191C16.9273 7.90033 16.4911 7.46416 15.9723 7.14626C15.0452 6.57813 13.7832 6.57812 11.2591 6.57812H8.94582C6.42173 6.57812 5.15968 6.57813 4.23257 7.14626C3.7138 7.46416 3.27764 7.90033 2.95974 8.4191C2.3916 9.34622 2.3916 10.6083 2.3916 13.1324V13.9035C2.3916 15.6999 2.3916 16.5981 2.68508 17.3066C3.07638 18.2513 3.82693 19.0018 4.77162 19.3931C5.22031 19.579 5.74508 19.6471 6.52587 19.6721C7.35858 19.6987 7.77494 19.712 8.09413 19.9009C8.41332 20.0897 8.6137 20.4282 9.01446 21.1053L9.26451 21.5277C9.63707 22.1572 10.5678 22.1572 10.9403 21.5277ZM13.4759 14.289C14.0083 14.289 14.4398 13.8574 14.4398 13.3251C14.4398 12.7928 14.0083 12.3613 13.4759 12.3613C12.9436 12.3613 12.5121 12.7928 12.5121 13.3251C12.5121 13.8574 12.9436 14.289 13.4759 14.289ZM11.0663 13.3251C11.0663 13.8574 10.6348 14.289 10.1024 14.289C9.57012 14.289 9.13859 13.8574 9.13859 13.3251C9.13859 12.7928 9.57012 12.3613 10.1024 12.3613C10.6348 12.3613 11.0663 12.7928 11.0663 13.3251ZM6.72895 14.289C7.26127 14.289 7.69281 13.8574 7.69281 13.3251C7.69281 12.7928 7.26127 12.3613 6.72895 12.3613C6.19663 12.3613 5.7651 12.7928 5.7651 13.3251C5.7651 13.8574 6.19663 14.289 6.72895 14.289Z" fill="#725DFF"/>
<path d="M15.5612 2C16.713 1.99999 17.6288 1.99999 18.3633 2.06982C19.1165 2.14143 19.7533 2.29154 20.3205 2.63915C20.9041 2.9968 21.3948 3.48748 21.7525 4.0711C22.1001 4.63836 22.2502 5.27514 22.3218 6.02829C22.3916 6.76279 22.3916 7.67871 22.3916 8.83039V9.61699C22.3916 10.4367 22.3916 11.0886 22.3555 11.6173C22.3186 12.1581 22.2416 12.6226 22.0614 13.0575C21.6212 14.1202 20.7769 14.9646 19.7141 15.4048C19.6875 15.4158 19.6608 15.4265 19.6339 15.4367C19.5056 15.4858 19.3958 15.5278 19.2993 15.5591C19.3133 15.0903 19.3133 14.5563 19.3133 13.9537V13.0614C19.3133 11.8598 19.3133 10.8532 19.2355 10.0349C19.1541 9.17817 18.9769 8.37421 18.5241 7.63536C18.0825 6.91475 17.4767 6.30889 16.7561 5.8673C16.0172 5.41453 15.2133 5.23733 14.3565 5.15588C13.5382 5.07807 12.5316 5.07809 11.33 5.07812H8.87487C8.05877 5.0781 7.33265 5.07809 6.69436 5.10245C6.7241 4.9994 6.76484 4.88128 6.81266 4.74264C6.894 4.50682 6.99679 4.28381 7.12714 4.0711C7.48478 3.48748 7.97546 2.9968 8.55908 2.63915C9.12633 2.29154 9.76312 2.14143 10.5163 2.06982C11.2508 1.99999 12.1666 1.99999 13.3184 2H15.5612Z" fill="#725DFF"/>
</svg>
