<svg width="25" height="25" viewBox="0 0 25 25" fill="none" xmlns="http://www.w3.org/2000/svg">
<path d="M19.3181 8.77243C19.7199 8.67197 20.1271 8.91629 20.2276 9.31813C20.3281 9.71998 20.0837 10.1272 19.6819 10.2276L15.6819 11.2276C15.2801 11.3281 14.8729 11.0838 14.7724 10.6819C14.6719 10.2801 14.9163 9.87289 15.3181 9.77243L19.3181 8.77243Z" fill="#BDC1C6"/>
<path d="M19.3181 12.7724C19.7199 12.672 20.1271 12.9163 20.2276 13.3181C20.3281 13.72 20.0837 14.1272 19.6819 14.2276L15.6819 15.2276C15.2801 15.3281 14.8729 15.0838 14.7724 14.6819C14.6719 14.2801 14.9163 13.8729 15.3181 13.7724L19.3181 12.7724Z" fill="#BDC1C6"/>
<path d="M4.77239 9.31813C4.87285 8.91629 5.28006 8.67197 5.6819 8.77243L9.6819 9.77243C10.0837 9.87289 10.3281 10.2801 10.2276 10.6819C10.1271 11.0838 9.71994 11.3281 9.3181 11.2276L5.3181 10.2276C4.91625 10.1272 4.67193 9.71998 4.77239 9.31813Z" fill="#BDC1C6"/>
<path d="M4.77239 13.3181C4.87285 12.9163 5.28006 12.672 5.6819 12.7724L9.6819 13.7724C10.0837 13.8729 10.3281 14.2801 10.2276 14.6819C10.1271 15.0838 9.71994 15.3281 9.3181 15.2276L5.3181 14.2276C4.91625 14.1272 4.67193 13.72 4.77239 13.3181Z" fill="#BDC1C6"/>
<path fill-rule="evenodd" clip-rule="evenodd" d="M23.25 5.43323C23.25 3.96992 22.0847 2.71498 20.5559 2.76824C19.4175 2.80789 17.9296 2.9263 16.7849 3.26899C15.7899 3.56687 14.6706 4.14872 13.7982 4.65366C12.9801 5.12712 11.9617 5.15074 11.1328 4.71248C10.1374 4.18609 8.82766 3.56215 7.69136 3.2623C6.73055 3.00876 5.51517 2.88698 4.52841 2.82634C2.97017 2.73057 1.75 3.99868 1.75 5.49784V16.6436C1.75 18.1798 2.99378 19.3792 4.46804 19.4714C5.4268 19.5314 6.50566 19.6467 7.30864 19.8586C8.3012 20.1205 9.5286 20.7029 10.5196 21.2311C11.7529 21.8885 13.2471 21.8885 14.4804 21.2311C15.4714 20.7029 16.6988 20.1205 17.6914 19.8586C18.4943 19.6467 19.5732 19.5314 20.532 19.4714C22.0062 19.3792 23.25 18.1798 23.25 16.6436V5.43323ZM20.6081 4.26733C21.2229 4.24591 21.75 4.75164 21.75 5.43323V16.6436C21.75 17.3294 21.1817 17.9278 20.4383 17.9743C19.4582 18.0356 18.2591 18.1574 17.3086 18.4082C16.1383 18.7171 14.7827 19.3701 13.7748 19.9074C13.6065 19.9971 13.4305 20.0678 13.25 20.1194V6.44207C13.7023 6.35153 14.1421 6.18771 14.5495 5.95191C15.4 5.45972 16.3949 4.95152 17.2151 4.70597C18.1643 4.42182 19.4892 4.3063 20.6081 4.26733ZM11.75 6.47501C11.295 6.40426 10.849 6.25918 10.4317 6.03851C9.45486 5.522 8.27076 4.96654 7.30864 4.71266C6.49643 4.49833 5.40238 4.38288 4.43639 4.32351C3.80243 4.28455 3.25 4.80065 3.25 5.49784V16.6436C3.25 17.3294 3.81831 17.9278 4.56168 17.9743C5.54176 18.0356 6.74092 18.1574 7.69136 18.4082C8.8617 18.7171 10.2173 19.3701 11.2252 19.9074C11.3935 19.9971 11.5695 20.0678 11.75 20.1194V6.47501Z" fill="#BDC1C6"/>
</svg>
