<svg width="25" height="25" viewBox="0 0 25 25" fill="none" xmlns="http://www.w3.org/2000/svg">
<path fill-rule="evenodd" clip-rule="evenodd" d="M14.6418 5.13774L14.6418 8.1954C14.6416 8.30663 14.6414 8.46519 14.6626 8.60131C14.6886 8.76772 14.7742 9.08899 15.1069 9.28432C15.4273 9.47242 15.7406 9.40257 15.8896 9.35627C16.0194 9.3159 16.1618 9.24808 16.268 9.19751L17.3918 8.66366L18.5156 9.1975C18.6218 9.24807 18.7641 9.3159 18.894 9.35627C19.0429 9.40257 19.3563 9.47242 19.6767 9.28432C20.0093 9.08899 20.0949 8.76772 20.1209 8.60131C20.1422 8.4652 20.142 8.30665 20.1418 8.19543L20.1418 3.68951C20.2546 3.6842 20.3653 3.67972 20.4736 3.67595C21.5454 3.63862 22.3916 4.51895 22.3916 5.5914V16.8018C22.3916 17.9128 21.4856 18.8117 20.3767 18.881C19.4073 18.9417 18.2683 19.0602 17.3916 19.2916C16.3101 19.5769 15.0187 20.1947 14.0192 20.7274C13.7401 20.8762 13.4447 20.9839 13.1418 21.0507V5.83207C13.4625 5.75351 13.774 5.62962 14.0654 5.46096C14.2497 5.3543 14.443 5.24552 14.6418 5.13774ZM20.1194 13.4763C20.2198 13.8781 19.9755 14.2853 19.5737 14.3858L15.5737 15.3858C15.1718 15.4863 14.7646 15.242 14.6642 14.8401C14.5637 14.4383 14.808 14.0311 15.2099 13.9306L19.2099 12.9306C19.6117 12.8301 20.0189 13.0745 20.1194 13.4763Z" fill="#725DFF"/>
<path fill-rule="evenodd" clip-rule="evenodd" d="M11.6418 5.87217C11.3075 5.80869 10.981 5.69605 10.6739 5.53366C9.68771 5.01221 8.44081 4.42251 7.3916 4.14565C6.50509 3.91171 5.35037 3.7931 4.374 3.73309C3.2779 3.66573 2.3916 4.55783 2.3916 5.656V16.8018C2.3916 17.9128 3.29765 18.8117 4.40646 18.881C5.37588 18.9417 6.51489 19.0602 7.3916 19.2916C8.47305 19.5769 9.76454 20.1947 10.764 20.7274C11.0432 20.8762 11.3388 20.984 11.6418 21.0508V5.87217ZM4.66417 9.4763C4.76463 9.07446 5.17183 8.83013 5.57368 8.9306L9.57368 9.9306C9.97553 10.0311 10.2198 10.4383 10.1194 10.8401C10.0189 11.242 9.61172 11.4863 9.20988 11.3858L5.20988 10.3858C4.80803 10.2853 4.56371 9.87815 4.66417 9.4763ZM5.57368 12.9306C5.17183 12.8301 4.76463 13.0745 4.66417 13.4763C4.56371 13.8781 4.80803 14.2853 5.20988 14.3858L9.20988 15.3858C9.61172 15.4863 10.0189 15.242 10.1194 14.8401C10.2198 14.4383 9.97553 14.0311 9.57368 13.9306L5.57368 12.9306Z" fill="#725DFF"/>
<path d="M18.6418 3.80921C18.0217 3.88252 17.4122 3.98979 16.8916 4.14565C16.6501 4.21795 16.398 4.30961 16.1418 4.4146V4.60822V7.59679L16.8911 7.24086L16.8999 7.23642C16.9489 7.21137 17.1554 7.10577 17.3918 7.10577C17.4393 7.10577 17.4856 7.11004 17.5297 7.11707C17.7048 7.14499 17.8445 7.2164 17.8837 7.23642L17.8925 7.24086L18.6418 7.59679V4.30485V3.80921Z" fill="#725DFF"/>
</svg>
