<svg width="25" height="25" viewBox="0 0 25 25" fill="none" xmlns="http://www.w3.org/2000/svg">
<path fill-rule="evenodd" clip-rule="evenodd" d="M14.6704 2.46865C14.3001 2.31641 13.8306 2.31641 12.8916 2.31641C11.9526 2.31641 11.4831 2.31641 11.1128 2.46865C10.619 2.67164 10.2267 3.06098 10.0222 3.55104C9.92879 3.77475 9.89225 4.03491 9.87795 4.4144C9.85694 4.97209 9.56876 5.4883 9.08177 5.76734C8.59478 6.04637 8.00024 6.03595 7.50309 5.77516C7.16478 5.59771 6.91949 5.49903 6.67759 5.46742C6.14769 5.39819 5.61178 5.5407 5.18776 5.86361C4.86974 6.10579 4.63499 6.5093 4.1655 7.31634C3.69602 8.12337 3.46127 8.52689 3.40895 8.92131C3.33919 9.44721 3.48278 9.97907 3.80815 10.3999C3.95666 10.592 4.16537 10.7534 4.48931 10.9554C4.96552 11.2524 5.27192 11.7583 5.27189 12.3164C5.27186 12.8745 4.96547 13.3803 4.4893 13.6773C4.16532 13.8793 3.95657 14.0408 3.80805 14.2329C3.48268 14.6537 3.33909 15.1855 3.40885 15.7114C3.46117 16.1059 3.69592 16.5094 4.16541 17.3164C4.6349 18.1234 4.86964 18.527 5.18766 18.7691C5.61168 19.092 6.14759 19.2346 6.67749 19.1653C6.91938 19.1337 7.16466 19.035 7.50293 18.8576C8.00012 18.5968 8.5947 18.5864 9.08172 18.8654C9.56874 19.1445 9.85694 19.6607 9.87795 20.2185C9.89226 20.5979 9.9288 20.8581 10.0222 21.0818C10.2267 21.5718 10.619 21.9612 11.1128 22.1642C11.4831 22.3164 11.9526 22.3164 12.8916 22.3164C13.8306 22.3164 14.3001 22.3164 14.6704 22.1642C15.1642 21.9612 15.5565 21.5718 15.761 21.0818C15.8544 20.8581 15.891 20.5979 15.9053 20.2184C15.9263 19.6607 16.2144 19.1445 16.7014 18.8654C17.1884 18.5863 17.783 18.5968 18.2802 18.8576C18.6185 19.035 18.8637 19.1336 19.1056 19.1653C19.6355 19.2345 20.1714 19.092 20.5954 18.7691C20.9135 18.5269 21.1482 18.1234 21.6177 17.3163C22.0872 16.5093 22.3219 16.1058 22.3743 15.7114C22.444 15.1855 22.3004 14.6536 21.9751 14.2328C21.8265 14.0407 21.6178 13.8792 21.2938 13.6772C20.8177 13.3803 20.5113 12.8744 20.5113 12.3163C20.5113 11.7583 20.8177 11.2525 21.2938 10.9556C21.6179 10.7536 21.8266 10.5921 21.9752 10.4C22.3005 9.97913 22.4441 9.44728 22.3744 8.92138C22.322 8.52696 22.0873 8.12344 21.6178 7.31641C21.1483 6.50937 20.9136 6.10585 20.5955 5.86367C20.1715 5.54077 19.6356 5.39826 19.1057 5.46749C18.8638 5.4991 18.6185 5.59776 18.2803 5.7752C17.7831 6.036 17.1885 6.04642 16.7015 5.76737C16.2145 5.48831 15.9263 4.97207 15.9052 4.41434C15.8909 4.03488 15.8544 3.77474 15.761 3.55104C15.5565 3.06098 15.1642 2.67164 14.6704 2.46865ZM12.8916 15.3164C14.5611 15.3164 15.9144 13.9733 15.9144 12.3164C15.9144 10.6596 14.5611 9.31641 12.8916 9.31641C11.2221 9.31641 9.86876 10.6596 9.86876 12.3164C9.86876 13.9733 11.2221 15.3164 12.8916 15.3164Z" fill="#725DFF"/>
</svg>
