<svg width="20" height="20" viewBox="0 0 20 20" fill="none" xmlns="http://www.w3.org/2000/svg">
<g id="Vector">
<path d="M6.7499 11C6.7499 10.5858 6.41412 10.25 5.9999 10.25C5.58569 10.25 5.2499 10.5858 5.2499 11V15C5.2499 15.4142 5.58569 15.75 5.9999 15.75C6.41412 15.75 6.7499 15.4142 6.7499 15V11Z" fill="black"/>
<path d="M13.9999 10.25C14.4141 10.25 14.7499 10.5858 14.7499 11V15C14.7499 15.4142 14.4141 15.75 13.9999 15.75C13.5857 15.75 13.2499 15.4142 13.2499 15V11C13.2499 10.5858 13.5857 10.25 13.9999 10.25Z" fill="black"/>
<path d="M10.7499 11C10.7499 10.5858 10.4141 10.25 9.9999 10.25C9.58569 10.25 9.2499 10.5858 9.2499 11V15C9.2499 15.4142 9.58569 15.75 9.9999 15.75C10.4141 15.75 10.7499 15.4142 10.7499 15V11Z" fill="black"/>
<path fill-rule="evenodd" clip-rule="evenodd" d="M15.2737 1.47298C14.7981 1.28712 14.2654 1.25574 13.5819 1.25077C13.3012 0.659118 12.6983 0.25 11.9999 0.25H7.9999C7.3015 0.25 6.69865 0.659118 6.41794 1.25077C5.7344 1.25574 5.20166 1.28712 4.72611 1.47298C4.15792 1.69505 3.66371 2.07255 3.29999 2.5623C2.93306 3.05639 2.76082 3.68968 2.52374 4.56133L1.89587 6.86426C1.50837 7.06269 1.16928 7.32992 0.886418 7.6922C0.264424 8.48884 0.154271 9.43768 0.264921 10.5261C0.372291 11.5822 0.704786 12.9121 1.121 14.5769L1.1474 14.6825C1.41058 15.7353 1.62426 16.5901 1.8784 17.2572C2.14337 17.9527 2.47977 18.5227 3.03439 18.9558C3.58901 19.3888 4.22365 19.5769 4.96266 19.6653C5.67148 19.75 6.55256 19.75 7.63774 19.75H12.362C13.4472 19.75 14.3282 19.75 15.0371 19.6653C15.7761 19.5769 16.4107 19.3888 16.9653 18.9558C17.5199 18.5227 17.8563 17.9527 18.1213 17.2572C18.3755 16.5901 18.5891 15.7353 18.8523 14.6825L18.8787 14.577C19.2949 12.9122 19.6274 11.5822 19.7348 10.5261C19.8454 9.43768 19.7353 8.48884 19.1133 7.6922C18.8305 7.32995 18.4914 7.06274 18.104 6.86431L17.4761 4.56133C17.239 3.68968 17.0667 3.05639 16.6998 2.5623C16.3361 2.07255 15.8419 1.69505 15.2737 1.47298ZM5.27214 2.87007C5.49194 2.78416 5.75752 2.75888 6.41935 2.75219C6.70067 3.34225 7.30267 3.75 7.9999 3.75H11.9999C12.6971 3.75 13.2991 3.34225 13.5805 2.75219C14.2423 2.75888 14.5079 2.78416 14.7277 2.87007C15.0336 2.98964 15.2997 3.19291 15.4956 3.45663C15.6717 3.69377 15.775 4.02508 16.0659 5.09194L16.4195 6.3887C15.3817 6.24996 14.0419 6.24998 12.3773 6.25H7.62246C5.95788 6.24998 4.61809 6.24996 3.5803 6.38868L3.93388 5.09195C4.22478 4.02508 4.32812 3.69376 4.50423 3.45662C4.70008 3.19291 4.96619 2.98964 5.27214 2.87007ZM7.9999 1.75C7.86183 1.75 7.7499 1.86193 7.7499 2C7.7499 2.13807 7.86183 2.25 7.9999 2.25H11.9999C12.138 2.25 12.2499 2.13807 12.2499 2C12.2499 1.86193 12.138 1.75 11.9999 1.75H7.9999ZM2.06873 8.61532C2.34756 8.25819 2.78854 8.0183 3.69971 7.88649C4.63034 7.75187 5.89217 7.75 7.68452 7.75H12.3152C14.1075 7.75 15.3694 7.75187 16.3 7.88649C17.2112 8.0183 17.6522 8.25819 17.931 8.61532C18.2098 8.97245 18.3356 9.45844 18.2425 10.3744C18.1474 11.3099 17.8432 12.5345 17.4084 14.2733C17.1312 15.3824 16.9381 16.1496 16.7196 16.7231C16.5083 17.2778 16.3014 17.5711 16.0422 17.7735C15.783 17.9758 15.4483 18.1054 14.859 18.1759C14.2496 18.2488 13.4584 18.25 12.3152 18.25H7.68452C6.54133 18.25 5.75015 18.2488 5.14076 18.1759C4.5514 18.1054 4.21667 17.9758 3.95751 17.7735C3.69835 17.5711 3.49144 17.2778 3.28013 16.7231C3.06163 16.1496 2.86853 15.3824 2.59127 14.2733C2.15656 12.5345 1.85233 11.3099 1.75723 10.3744C1.66411 9.45844 1.78989 8.97245 2.06873 8.61532Z" fill="black"/>
</g>
</svg>
