<svg width="22" height="23" viewBox="0 0 22 23" fill="none" xmlns="http://www.w3.org/2000/svg">
<path fill-rule="evenodd" clip-rule="evenodd" d="M9.9078 7.00835C8.57923 6.22395 7.08301 7.29065 7.08301 8.71316V14.2868C7.08301 15.7093 8.57923 16.776 9.90781 15.9916L14.628 13.2048C15.9013 12.453 15.9013 10.547 14.628 9.7952L9.9078 7.00835ZM8.58301 8.71316C8.58301 8.51468 8.67916 8.37585 8.79248 8.30498C8.90214 8.23641 9.02486 8.22898 9.14519 8.30003L13.8654 11.0869C13.998 11.1652 14.083 11.3148 14.083 11.5C14.083 11.6852 13.998 11.8348 13.8654 11.9131L9.14519 14.7C9.02486 14.771 8.90214 14.7636 8.79248 14.695C8.67916 14.6242 8.58301 14.4853 8.58301 14.2868V8.71316Z" fill="#BDC1C6"/>
<path fill-rule="evenodd" clip-rule="evenodd" d="M10.833 0.75C4.89595 0.75 0.0830078 5.56294 0.0830078 11.5C0.0830078 17.4371 4.89595 22.25 10.833 22.25C16.7701 22.25 21.583 17.4371 21.583 11.5C21.583 5.56294 16.7701 0.75 10.833 0.75ZM1.58301 11.5C1.58301 6.39137 5.72437 2.25 10.833 2.25C15.9416 2.25 20.083 6.39137 20.083 11.5C20.083 16.6086 15.9416 20.75 10.833 20.75C5.72437 20.75 1.58301 16.6086 1.58301 11.5Z" fill="#BDC1C6"/>
</svg>
