<svg width="25" height="25" viewBox="0 0 25 25" fill="none" xmlns="http://www.w3.org/2000/svg">
<g clip-path="url(#clip0_2759_431)">
<path fill-rule="evenodd" clip-rule="evenodd" d="M12.6665 1.75C10.0432 1.75 7.9165 3.87665 7.9165 6.5C7.9165 9.12335 10.0432 11.25 12.6665 11.25C15.2899 11.25 17.4165 9.12335 17.4165 6.5C17.4165 3.87665 15.2899 1.75 12.6665 1.75ZM9.4165 6.5C9.4165 4.70507 10.8716 3.25 12.6665 3.25C14.4614 3.25 15.9165 4.70507 15.9165 6.5C15.9165 8.29493 14.4614 9.75 12.6665 9.75C10.8716 9.75 9.4165 8.29493 9.4165 6.5Z" fill="#BDC1C6"/>
<path d="M18.6665 3.75C18.2523 3.75 17.9165 4.08579 17.9165 4.5C17.9165 4.91421 18.2523 5.25 18.6665 5.25C20.043 5.25 20.9165 6.15573 20.9165 7C20.9165 7.84427 20.043 8.75 18.6665 8.75C18.2523 8.75 17.9165 9.08579 17.9165 9.5C17.9165 9.91421 18.2523 10.25 18.6665 10.25C20.6037 10.25 22.4165 8.91715 22.4165 7C22.4165 5.08285 20.6037 3.75 18.6665 3.75Z" fill="#BDC1C6"/>
<path d="M7.4165 4.5C7.4165 4.08579 7.08072 3.75 6.6665 3.75C4.72928 3.75 2.9165 5.08285 2.9165 7C2.9165 8.91715 4.72928 10.25 6.6665 10.25C7.08072 10.25 7.4165 9.91421 7.4165 9.5C7.4165 9.08579 7.08072 8.75 6.6665 8.75C5.29002 8.75 4.4165 7.84427 4.4165 7C4.4165 6.15573 5.29002 5.25 6.6665 5.25C7.08072 5.25 7.4165 4.91421 7.4165 4.5Z" fill="#BDC1C6"/>
<path fill-rule="evenodd" clip-rule="evenodd" d="M12.6665 12.75C10.8822 12.75 9.23295 13.2308 8.00784 14.0475C6.78796 14.8608 5.9165 16.0666 5.9165 17.5C5.9165 18.9334 6.78796 20.1392 8.00784 20.9525C9.23295 21.7692 10.8822 22.25 12.6665 22.25C14.4508 22.25 16.1001 21.7692 17.3252 20.9525C18.545 20.1392 19.4165 18.9334 19.4165 17.5C19.4165 16.0666 18.545 14.8608 17.3252 14.0475C16.1001 13.2308 14.4508 12.75 12.6665 12.75ZM7.4165 17.5C7.4165 16.7242 7.88819 15.9301 8.83989 15.2956C9.78634 14.6646 11.1371 14.25 12.6665 14.25C14.1959 14.25 15.5467 14.6646 16.4931 15.2956C17.4448 15.9301 17.9165 16.7242 17.9165 17.5C17.9165 18.2758 17.4448 19.0699 16.4931 19.7044C15.5467 20.3354 14.1959 20.75 12.6665 20.75C11.1371 20.75 9.78634 20.3354 8.83989 19.7044C7.88819 19.0699 7.4165 18.2758 7.4165 17.5Z" fill="#BDC1C6"/>
<path d="M19.9339 14.3393C20.0226 13.9347 20.4226 13.6787 20.8272 13.7674C21.789 13.9783 22.6558 14.3593 23.2993 14.8859C23.9423 15.412 24.4165 16.1352 24.4165 17C24.4165 17.8648 23.9423 18.588 23.2993 19.1141C22.6558 19.6407 21.789 20.0217 20.8272 20.2326C20.4226 20.3213 20.0226 20.0653 19.9339 19.6607C19.8452 19.2561 20.1013 18.8561 20.5059 18.7674C21.2982 18.5936 21.9315 18.2952 22.3494 17.9532C22.7679 17.6108 22.9165 17.2763 22.9165 17C22.9165 16.7237 22.7679 16.3892 22.3494 16.0468C21.9315 15.7048 21.2982 15.4064 20.5059 15.2326C20.1013 15.1439 19.8452 14.7439 19.9339 14.3393Z" fill="#BDC1C6"/>
<path d="M4.50585 13.7674C4.91045 13.6787 5.31037 13.9347 5.3991 14.3393C5.48782 14.7439 5.23176 15.1439 4.82716 15.2326C4.03479 15.4064 3.40156 15.7048 2.98363 16.0468C2.56513 16.3892 2.4165 16.7237 2.4165 17C2.4165 17.2763 2.56513 17.6108 2.98363 17.9532C3.40156 18.2952 4.03479 18.5936 4.82716 18.7674C5.23176 18.8561 5.48782 19.2561 5.3991 19.6607C5.31037 20.0653 4.91045 20.3213 4.50585 20.2326C3.54397 20.0217 2.67721 19.6407 2.0337 19.1141C1.39075 18.588 0.916504 17.8648 0.916504 17C0.916504 16.1352 1.39075 15.412 2.0337 14.8859C2.67721 14.3593 3.54397 13.9783 4.50585 13.7674Z" fill="#BDC1C6"/>
</g>
<defs>
<clipPath id="clip0_2759_431">
<rect width="24" height="24" fill="white" transform="translate(0.666504 0.5)"/>
</clipPath>
</defs>
</svg>
